<?xml version="1.0" encoding="utf-8"?>
<!-- Generator: Adobe Illustrator 23.0.1, SVG Export Plug-In . SVG Version: 6.00 Build 0)  -->
<svg version="1.1" xmlns="http://www.w3.org/2000/svg" xmlns:xlink="http://www.w3.org/1999/xlink" x="0px" y="0px"
	 viewBox="0 0 560 180" style="enable-background:new 0 0 560 180;" xml:space="preserve">
<style type="text/css">
	.st0{display:none;}
	.st1{display:inline;fill:#004EC2;}
	.st2{fill:#4D4D4D;}
	.st3{fill:none;}
	.st4{fill:url(#SVGID_1_);}
	.st5{fill:#2D2828;}
	.st6{fill:url(#SVGID_2_);}
	.st7{fill:#DEDEDB;}
	.st8{fill:#B2B2B2;}
	.st9{fill:#E5B12E;}
	.st10{fill:#A0A0A0;}
	.st11{fill:#D7E2E2;}
</style>
<g id="Слой_2" class="st0">
	<path class="st1" d="M214,64l64-2l68,2l-17,14l-3.2,3.1c0,0-3.8,4.2-5,7.5l-7.4,1.3H300l-53.1-0.1l-7.9-1.6
		C239,88.3,226,72.4,214,64z"/>
	<path class="st1" d="M214.9,106.4l129.2,0.2c0,0,18.2-0.9,18.5-3.1l-2.7,17.3c0,0-1.8,9.1-1.9,9.3c-0.1,0.2-3.2,4.8-3.2,4.8
		s-3.8,4-8.6,4c-4.8,0-132.6,0-132.6,0s-4.4,0.1-8.8-3.9c-4.4-4-4.5-11.3-4.5-11.3l-3.2-20.4C197.2,103.1,205.1,106.3,214.9,106.4z"
		/>
	<path class="st1" d="M353.8,63.1l5.2-0.9l0.3-3.4c0,0,0.6-3.4,4.2-3.4s8.7,0,8.7,0s3.1-0.1,4.5,3.4c1.4,3.6-0.9,6.9-2.7,7.4
		s-17,3.2-17,3.2L353.8,63.1z"/>
	<path class="st1" d="M206,63.1l-5.2-0.9l-0.3-3.4c0,0-0.6-3.4-4.2-3.4s-8.7,0-8.7,0s-3.1-0.1-4.5,3.4c-1.4,3.6,0.9,6.9,2.7,7.4
		c1.8,0.5,17,3.2,17,3.2L206,63.1z"/>
</g>
<g id="Слой_1">
	<path class="st2" d="M212,60.3c-0.1,0.2-0.1,0.1,0-0.1c0,0,0-0.1,0-0.1c-2-0.2-3.1-0.1-5,0.6c0,0.1-0.1,0.2-0.1,0.3
		C208.8,60.3,210.1,60.1,212,60.3z"/>
	<path class="st2" d="M354.3,94.9l-0.5-0.5l0,0.1c0.2-0.4,0.4-0.9,0.5-1.4c0.5-2.9,0.9-5.5,1.1-8.5c0.1-1.9-1.1-3.3-2.9-3.3
		c-0.2,0-0.4,0-0.6,0.1c-11.6,2-19.4,3.8-30.9,6.9c0.4-0.9,1-2.1,1.7-3.1c1.6-2.4,3.5-4.6,5.6-6.5c0.7-0.7,1.5-1.3,2.2-2
		c4.6-4.1,9.3-8.2,16-12.8c-0.2,0.1-0.4,0.2-0.7,0.2c-6.4,4.4-11.1,8.5-15.5,12.4c-0.7,0.7-1.5,1.3-2.2,2c-2.1,1.9-4,4.1-5.6,6.5
		c-0.7,1.1-1.3,2.3-1.8,3.3l-4.8,1c-1.4,0.3-2.8,0.5-4.2,0.5c0.4-0.9,0.4-1.7-0.1-2.4c-0.4-0.7-1.2-1.1-2.3-1.2
		c-23.4-1-38.1-0.8-58.7,0c-1,0-1.9,0.5-2.3,1.2c-0.4,0.7-0.4,1.5-0.1,2.4c-1.4-0.1-2.8-0.3-4.2-0.5l-4.8-1
		c-0.4-0.9-1.1-2.2-1.8-3.3c-1.6-2.4-3.5-4.6-5.6-6.5c-0.6-0.6-1.3-1.1-1.9-1.7c-4.6-4.1-9.4-8.3-16-12.8c0,0,0.1,0,0.1,0
		c-0.4-0.1-0.7-0.2-1-0.4c0,0,0,0,0.1,0l0,0c6.9,4.7,11.9,9.1,16.7,13.3c0.7,0.6,1.3,1.1,1.9,1.7c2.1,1.9,4,4,5.6,6.5
		c0.6,1,1.2,2.2,1.7,3.1c-11.4-3.1-19.2-4.9-30.9-6.9c-0.2,0-0.4-0.1-0.6-0.1c-1.8,0-3,1.4-2.9,3.3c0.2,3,0.6,5.7,1.1,8.5
		c0.1,0.5,0.2,0.9,0.4,1.3l-0.5,0.5c-0.7,0.8-1.7,1.2-2.7,1.1l-6.3-0.5c0,0.1,0,0.2,0,0.2l6.3,0.5c0.1,0,0.2,0,0.3,0
		c1,0,2-0.4,2.6-1.2l0.4-0.4l0-0.1c0.9,1.9,2.7,3.2,4.9,3.4l32.2,2.9c0.1,0,0.2,0,0.3,0c1.5,0,2.1-1.1,1.3-2.6l-5.4-9.7l4.7,0.9
		c1.5,0.3,2.9,0.5,4.4,0.6l0,0l0,0l3.7,8c2,4.5,6.3,7.4,11.2,7.6c6.4,0.3,11.8,0.4,17,0.4c5.1,0,10.3-0.1,16.3-0.4
		c4.9-0.2,9.2-3.1,11.2-7.6l3.7-8.1c1.4-0.1,2.9-0.3,4.4-0.6l4.6-0.9l-5.4,9.7c-0.8,1.5-0.2,2.6,1.3,2.6c0.1,0,0.2,0,0.3,0l32.2-2.9
		c2.1-0.2,3.9-1.5,4.8-3.3l0.4,0.4c0.7,0.7,1.6,1.2,2.6,1.2c0.1,0,0.2,0,0.3,0l6.3-0.5c0-0.1,0-0.2,0-0.3l-6.3,0.5
		C356,96,355,95.6,354.3,94.9z M244.5,98.4c0.4,0.7,0.4,1.2,0.2,1.6c-0.2,0.4-0.7,0.6-1.3,0.6c-0.1,0-0.2,0-0.3,0l-32.2-2.9
		c-2.6-0.2-4.7-2.2-5.1-4.7c-0.5-2.9-0.9-5.5-1.1-8.5c-0.1-0.9,0.2-1.7,0.7-2.2c0.5-0.5,1.2-0.8,2-0.8c0.2,0,0.4,0,0.6,0.1
		c12.2,2.1,20,4,31,7l0,0l0,0l0,0L244.5,98.4z M307.5,98.1c-2,4.4-6.2,7.2-11,7.4c-6,0.3-11.2,0.4-16.3,0.4c-5.2,0-10.6-0.1-17-0.4
		c-4.8-0.2-9-3.1-11-7.4l-3.6-7.9c0.6,0,1.2,0,1.7,0h59.1c0.6,0,1.2,0,1.7,0L307.5,98.1z M311.3,89.9c-0.6,0-1.2,0.1-1.9,0.1h-59.1
		c-0.6,0-1.2,0-1.9-0.1c-0.4-0.9-0.4-1.7,0-2.3c0.4-0.6,1.1-1,2.1-1.1c20.5-0.8,35.3-1,58.7,0c1,0,1.7,0.4,2.1,1.1
		C311.7,88.2,311.7,89,311.3,89.9z M348.9,97.7l-32.2,2.9c-0.1,0-0.2,0-0.3,0c-0.6,0-1.1-0.2-1.3-0.6c-0.2-0.4-0.2-1,0.2-1.6
		l5.5-9.8l0,0l0,0l0,0l0.1,0l0,0c11-3,18.8-4.8,30.9-6.9c0.2,0,0.4-0.1,0.6-0.1c0.8,0,1.5,0.3,2,0.8c0.5,0.6,0.8,1.3,0.7,2.2
		c-0.2,3-0.6,5.6-1.1,8.5C353.5,95.5,351.4,97.5,348.9,97.7z"/>
	<path class="st2" d="M348,61.3c0-0.1,0-0.2,0-0.3c0-0.2-0.1-0.5-0.2-0.7c0-0.1-0.1-0.1-0.1-0.2c-4.5-11.7-8.4-18.8-13.2-26.2
		c-0.1-0.2-0.3-0.4-0.4-0.6c-0.2-0.3-0.4-0.6-0.6-1c-0.4-0.5-0.7-1.1-1.1-1.6c0,0,0,0,0,0c-1.1-2.1-4-6.5-6.2-7.6
		c-0.2,0-0.4,0-0.6,0c2.1,0.4,5.4,5.4,6.6,7.6c-0.1,0-0.1,0-0.2,0c-3.5-0.2-7-0.4-10.3-0.6c0,0-0.1,0-0.1,0c-0.8,0-1.7-0.1-2.5-0.1
		c-0.3,0-0.6,0-0.9,0c-0.7,0-1.5-0.1-2.2-0.1c-0.4,0-0.8,0-1.1-0.1c-0.7,0-1.4-0.1-2-0.1c-0.4,0-0.8,0-1.3-0.1
		c-0.6,0-1.2-0.1-1.9-0.1c-0.5,0-0.9,0-1.4-0.1c-0.6,0-1.2,0-1.8-0.1c-0.5,0-0.9,0-1.4-0.1c-0.6,0-1.1,0-1.7-0.1c-0.5,0-1,0-1.5,0
		c-0.5,0-1.1,0-1.6,0c-0.5,0-1,0-1.5,0c-0.5,0-1,0-1.5,0c-0.5,0-1,0-1.5,0c-0.5,0-1,0-1.5,0c-0.5,0-1,0-1.5,0c-0.5,0-1,0-1.5,0
		c-0.5,0-1,0-1.5,0c-0.5,0-1,0-1.5,0c-0.5,0-1,0-1.5,0c-0.5,0-0.9,0-1.4,0c-0.5,0-1,0-1.6,0c-0.5,0-0.9,0-1.4,0c-0.5,0-0.9,0-1.4,0
		c-0.6,0-1.1,0-1.7,0c-0.5,0-0.9,0-1.4,0c-0.6,0-1.1,0-1.7,0c-0.5,0-0.9,0-1.4,0c-0.6,0-1.1,0-1.7,0c-0.5,0-0.9,0-1.4,0
		c-0.6,0-1.1,0-1.7,0c-0.5,0-0.9,0-1.4,0c-0.6,0-1.2,0-1.7,0c-0.5,0-0.9,0-1.4,0c-0.6,0-1.2,0-1.8,0c-0.4,0-0.9,0-1.3,0
		c-0.6,0-1.3,0-1.9,0.1c-0.4,0-0.9,0-1.3,0c-0.6,0-1.3,0-1.9,0.1c-0.4,0-0.9,0-1.3,0c-0.7,0-1.3,0-2,0.1c-0.4,0-0.8,0-1.3,0
		c-0.7,0-1.4,0.1-2.1,0.1c-0.4,0-0.8,0-1.3,0.1c-0.7,0-1.5,0.1-2.2,0.1c-0.4,0-0.8,0-1.2,0.1c-0.8,0-1.6,0.1-2.4,0.1
		c-0.4,0-0.7,0-1.1,0.1c-0.9,0-1.7,0.1-2.6,0.1c-0.3,0-0.6,0-0.9,0c-0.9,0-1.9,0.1-2.8,0.1c-0.3,0-0.6,0-0.9,0
		c-1,0.1-2.1,0.1-3.2,0.2c-0.2,0-0.4,0-0.5,0c-1.3,0.1-2.5,0.1-3.8,0.2c0,0,0,0,0,0c1.1-2.2,4.5-7.3,6.6-7.6c-0.2,0-0.3,0-0.4,0
		c-0.1,0-0.2,0-0.3,0c-2.2,1.1-5.2,5.5-6.2,7.6c0,0,0,0,0,0c-0.4,0.5-0.7,1.1-1.1,1.6c-0.6,1-1.3,1.9-1.9,2.9
		c-0.1,0.1-0.1,0.2-0.2,0.3c-4.4,6.8-8,13.7-12.2,24.6c0,0,0,0.1,0,0.1c-0.1,0.2-0.1,0.5-0.2,0.7c0,0.1,0,0.2,0,0.4
		c0,0.1,0,0.2,0,0.3c0,0.2,0,0.4,0.1,0.7c0,0.1,0,0.1,0,0.2c0,0.1,0.1,0.2,0.1,0.3c0,0.1,0.1,0.1,0.1,0.2c0.2,0.3,0.5,0.6,0.8,0.8
		c0.3,0.2,0.6,0.3,1,0.4c0.1,0,0.2,0,0.4,0c0.2,0,0.4,0,0.6,0c1.5-0.1,2.9-0.2,4.4-0.2c0.5,0,1,0,1.4-0.1c1-0.1,1.9-0.1,2.9-0.1
		c0.5,0,1.1-0.1,1.6-0.1c0.9,0,1.8-0.1,2.6-0.1c0.6,0,1.1,0,1.7-0.1c0.8,0,1.7-0.1,2.5-0.1c0.6,0,1.1,0,1.7-0.1
		c0.8,0,1.6-0.1,2.4-0.1c0.5,0,1.1,0,1.6-0.1c0.8,0,1.6-0.1,2.4-0.1c0.5,0,1,0,1.6-0.1c0.9,0,1.7-0.1,2.6-0.1c0.4,0,0.9,0,1.3,0
		c1.1,0,2.1-0.1,3.2-0.1c0.2,0,0.4,0,0.6,0c1.3,0,2.5-0.1,3.8-0.1c0.3,0,0.6,0,0.8,0c1,0,1.9,0,2.9-0.1c0.4,0,0.9,0,1.3,0
		c0.8,0,1.6,0,2.4,0c0.5,0,1,0,1.5,0c0.7,0,1.5,0,2.2,0c0.5,0,1,0,1.5,0c0.7,0,1.4,0,2.1,0c0.5,0,1,0,1.5,0c0.7,0,1.4,0,2.1,0
		c0.5,0,1,0,1.5,0c0.2,0,0.4,0,0.6,0c0.4,0,0.7,0,1.1,0c0.8,0,1.6,0,2.4,0c0.5,0,1.1,0,1.6,0c0.8,0,1.6,0,2.4,0c0.5,0,1.1,0,1.6,0
		c0.8,0,1.6,0,2.4,0c0.5,0,1.1,0,1.6,0c0.8,0,1.7,0,2.5,0c0.5,0,1,0,1.5,0c0.9,0,1.8,0,2.7,0c0.4,0,0.9,0,1.3,0c1.1,0,2.3,0,3.4,0.1
		c0.2,0,0.4,0,0.6,0c1.4,0,2.8,0.1,4.2,0.1c0.2,0,0.3,0,0.5,0c1.2,0,2.4,0.1,3.6,0.1c0.4,0,0.9,0,1.3,0c0.9,0,1.9,0.1,2.9,0.1
		c0.5,0,1.1,0,1.6,0c0.9,0,1.8,0.1,2.7,0.1c0.6,0,1.1,0,1.7,0.1c0.9,0,1.8,0.1,2.6,0.1c0.6,0,1.2,0,1.7,0.1c0.9,0,1.8,0.1,2.7,0.1
		c0.6,0,1.2,0,1.8,0.1c0.9,0,1.8,0.1,2.8,0.1c0.6,0,1.2,0,1.8,0.1c1,0,2,0.1,3,0.1c0.5,0,1.1,0,1.6,0.1c1.1,0,2.2,0.1,3.4,0.1
		c0.5,0,0.9,0,1.4,0.1c1.6,0.1,3.2,0.1,4.8,0.2c0.2,0,0.4,0,0.5,0c0.1,0,0.2,0,0.3,0c0,0,0,0,0,0c0.3,0,0.5-0.1,0.7-0.2c0,0,0,0,0,0
		l0,0c0.1-0.1,0.3-0.1,0.4-0.2c0,0,0.1,0,0.1-0.1c0.1-0.1,0.2-0.2,0.3-0.2c0,0,0.1-0.1,0.1-0.1c0.1-0.1,0.2-0.2,0.2-0.3
		c0-0.1,0.1-0.2,0.1-0.2c0.1-0.1,0.1-0.3,0.2-0.5c0-0.1,0.1-0.2,0.1-0.3c0-0.1,0-0.2,0-0.3C348,61.5,348,61.4,348,61.3z M347.4,62.9
		c-0.5,0.7-1.3,1-2.3,1c-0.1,0-0.1,0-0.2,0c-27.7-1.1-49-1.8-71.3-1.8c-18.7,0-37.4,0.6-58.8,1.8c-0.1,0-0.2,0-0.3,0
		c-1,0-1.8-0.4-2.2-1c-0.5-0.7-0.5-1.6-0.1-2.6c5.2-13.4,9.4-20.6,15.3-29.4c20-1.1,37-1.8,54.4-1.8c15.3,0,30.9,0.6,50.3,1.8
		c5.9,8.7,10.1,16,15.3,29.4C347.9,61.3,347.9,62.3,347.4,62.9z"/>
	<path class="st2" d="M347.7,60.1c0,0.1,0.1,0.1,0.1,0.2c0.1,0.2,0.1,0.3,0,0c1.9-0.2,3.2,0,5.1,0.7c0-0.1-0.1-0.2-0.1-0.3
		C350.8,60,349.7,59.9,347.7,60.1z"/>
	<path class="st2" d="M253.3,97.6c1.8,4,5.6,6.5,10,6.7c6.4,0.3,11.8,0.4,16.9,0.4c5.1,0,10.3-0.1,16.2-0.4c4.3-0.2,8.2-2.8,10-6.7
		l2.9-6.2h-58.8L253.3,97.6z M306.2,97.5c-1.8,3.9-5.5,6.4-9.8,6.6c-6,0.3-11.1,0.4-16.2,0.4c-5.1,0-10.5-0.1-16.9-0.4
		c-4.3-0.2-8-2.7-9.8-6.6l-2.7-5.8h58.1L306.2,97.5z"/>
	<path class="st3" d="M557.2,130.9c0.1-0.9-0.2-1.7-0.7-2.2c-0.5-0.5-1.2-0.8-2-0.8c-0.2,0-0.4,0-0.6,0.1c-12.1,2.1-20,4-30.9,6.9
		l0,0l-0.1,0l0,0l0,0l0,0l-5.5,9.8c-0.4,0.7-0.4,1.2-0.2,1.6c0.2,0.4,0.7,0.6,1.3,0.6c0.1,0,0.2,0,0.3,0l32.2-2.9
		c2.6-0.2,4.7-2.2,5.1-4.7C556.6,136.5,557,133.9,557.2,130.9z"/>
</g>
<g id="Слой_16">
	<g>
		<radialGradient id="SVGID_1_" cx="423.5994" cy="128.7709" r="51.1158" gradientUnits="userSpaceOnUse">
			<stop  offset="0.2385" style="stop-color:#262626"/>
			<stop  offset="0.5649" style="stop-color:#232323"/>
			<stop  offset="0.8215" style="stop-color:#191919"/>
			<stop  offset="1" style="stop-color:#0D0D0D"/>
		</radialGradient>
		<path class="st4" d="M358.9,101.9h-17.1h-3.1v1.9v0.3v1.1v0.3v1.1v0.3v1.1v0.3v1.1v0.3v1.1v0.3v1.1v0.3v1.1v0.3v1.1v0.3v1.1v0.3
			v1.1v0.3v1.1v0.3v1.1v0.3v1.1v0.3v1.1v0.3v1.1v0.3v1.1v0.3v1.1v0.3v1.1v0.3v1.1v0.3v1.1v0.3v1.1v0.3v1.1v0.3v1.1v0.3v1.1v0.3v1.1
			v0.3v1.1v0.3v1.1v0.3v1.1v0.3v1.1v0.3v1.1v0.3v1.1v0.3v1.1v0.3v1.1v0.3v1.1v0.3v0.3v0c0,0.1,0,0.2,0.1,0.4c0,0,0,0.1,0,0.1
			c0,0.1,0.1,0.2,0.1,0.2c0,0,0,0.1,0.1,0.1c0,0.1,0.1,0.1,0.2,0.2c0,0,0.1,0.1,0.1,0.1c0.1,0.1,0.1,0.1,0.2,0.2
			c0,0,0.1,0.1,0.1,0.1c0.1,0.1,0.2,0.2,0.3,0.2c0,0,0.1,0,0.1,0.1c0.3,0.2,0.7,0.3,1.1,0.5c0,0,0,0,0.1,0c0.2,0.1,0.4,0.1,0.6,0.2
			c0,0,0,0,0,0v0c4.5,1.4,12.9,1.3,17.1-0.2v0c0.1,0,0.2-0.1,0.3-0.1c0.1-0.1,0.3-0.1,0.4-0.2c0.1-0.1,0.3-0.1,0.4-0.2
			c0.1,0,0.1-0.1,0.2-0.1c0.1-0.1,0.2-0.1,0.3-0.2c0.1,0,0.1-0.1,0.2-0.1c0.1-0.1,0.2-0.1,0.2-0.2c0.1,0,0.1-0.1,0.1-0.1
			c0.1-0.1,0.1-0.1,0.2-0.2c0,0,0.1-0.1,0.1-0.1c0-0.1,0.1-0.2,0.1-0.2c0,0,0-0.1,0-0.1c0-0.1,0.1-0.2,0.1-0.4c0,0,0,0,0,0v0v-0.1
			v-0.3v-1.1v-0.3v-1.1V148V147v-0.3v-1.1v-0.3v-1.1v-0.3v-1.1v-0.3v-1.1v-0.3v-1.1v-0.3v-1.1v-0.3v-1.1V137V136v-0.3v-1.1v-0.3
			v-1.1v-0.3v-1.1v-0.3v-1.1v-0.3v-1.1v-0.3v-1.1v-0.3v-1.1V126V125v-0.3v-1.1v-0.3v-1.1v-0.3v-1.1v-0.3v-1.1v-0.3v-1.1v-0.3v-1.1
			v-0.3v-1.1V115V114v-0.3v-1.1v-0.3v-1.1v-0.3v-1.1v-0.3v-1.1v-0.3v-1.1v-0.3v-1.1v-0.3v-1.1V104v-2.1H358.9z"/>
		<path class="st5" d="M346.5,101.9v52.5c0.4,0,0.8,0.1,1.1,0.1v-52.6H346.5z"/>
		<path class="st5" d="M348.9,101.9v52.7c0.4,0,0.8,0,1.1,0v-52.7H348.9z"/>
		<path class="st5" d="M357.1,101.9v52c0.4-0.1,0.8-0.2,1.1-0.3v-51.7H357.1z"/>
		<path class="st5" d="M344.8,101.9v52.3c0.4,0.1,0.8,0.1,1.1,0.1v-52.5H344.8z"/>
		<path class="st5" d="M354.8,101.9v52.4c0.4,0,0.8-0.1,1.1-0.2v-52.2H354.8z"/>
		<path class="st5" d="M350.6,101.9v52.7c0.4,0,0.8,0,1.1,0v-52.2h1.2v52.2c0.4,0,0.8-0.1,1.1-0.1v-52.5H350.6z"/>
		<path class="st5" d="M342.4,101.9v51.9c0.4,0.1,0.7,0.2,1.1,0.3v-52.1H342.4z"/>
	</g>
</g>
<g id="Слой_17">
	<g>
		<radialGradient id="SVGID_2_" cx="283.1475" cy="128.7709" r="51.1158" gradientUnits="userSpaceOnUse">
			<stop  offset="0.2385" style="stop-color:#262626"/>
			<stop  offset="0.5649" style="stop-color:#232323"/>
			<stop  offset="0.8215" style="stop-color:#191919"/>
			<stop  offset="1" style="stop-color:#0D0D0D"/>
		</radialGradient>
		<path class="st6" d="M218.4,101.9h-17.1h-3.1v1.9v0.3v1.1v0.3v1.1v0.3v1.1v0.3v1.1v0.3v1.1v0.3v1.1v0.3v1.1v0.3v1.1v0.3v1.1v0.3
			v1.1v0.3v1.1v0.3v1.1v0.3v1.1v0.3v1.1v0.3v1.1v0.3v1.1v0.3v1.1v0.3v1.1v0.3v1.1v0.3v1.1v0.3v1.1v0.3v1.1v0.3v1.1v0.3v1.1v0.3v1.1
			v0.3v1.1v0.3v1.1v0.3v1.1v0.3v1.1v0.3v1.1v0.3v1.1v0.3v1.1v0.3v1.1v0.3v1.1v0.3v0.3v0c0,0.1,0,0.2,0.1,0.4c0,0,0,0.1,0,0.1
			c0,0.1,0.1,0.2,0.1,0.2c0,0,0,0.1,0.1,0.1c0,0.1,0.1,0.1,0.2,0.2c0,0,0.1,0.1,0.1,0.1c0.1,0.1,0.1,0.1,0.2,0.2
			c0,0,0.1,0.1,0.1,0.1c0.1,0.1,0.2,0.2,0.3,0.2c0,0,0.1,0,0.1,0.1c0.3,0.2,0.7,0.3,1.1,0.5c0,0,0,0,0.1,0c0.2,0.1,0.4,0.1,0.6,0.2
			c0,0,0,0,0,0v0c4.5,1.4,12.9,1.3,17.1-0.2v0c0.1,0,0.2-0.1,0.3-0.1c0.1-0.1,0.3-0.1,0.4-0.2c0.1-0.1,0.3-0.1,0.4-0.2
			c0.1,0,0.1-0.1,0.2-0.1c0.1-0.1,0.2-0.1,0.3-0.2c0.1,0,0.1-0.1,0.2-0.1c0.1-0.1,0.2-0.1,0.2-0.2c0.1,0,0.1-0.1,0.1-0.1
			c0.1-0.1,0.1-0.1,0.2-0.2c0,0,0.1-0.1,0.1-0.1c0-0.1,0.1-0.2,0.1-0.2c0,0,0-0.1,0-0.1c0-0.1,0.1-0.2,0.1-0.4c0,0,0,0,0,0v0v-0.1
			v-0.3v-1.1v-0.3v-1.1V148V147v-0.3v-1.1v-0.3v-1.1v-0.3v-1.1v-0.3v-1.1v-0.3v-1.1v-0.3v-1.1v-0.3v-1.1V137V136v-0.3v-1.1v-0.3
			v-1.1v-0.3v-1.1v-0.3v-1.1v-0.3v-1.1v-0.3v-1.1v-0.3v-1.1V126V125v-0.3v-1.1v-0.3v-1.1v-0.3v-1.1v-0.3v-1.1v-0.3v-1.1v-0.3v-1.1
			v-0.3v-1.1V115V114v-0.3v-1.1v-0.3v-1.1v-0.3v-1.1v-0.3v-1.1v-0.3v-1.1v-0.3v-1.1v-0.3v-1.1V104v-2.1H218.4z"/>
		<path class="st5" d="M206.1,101.9v52.5c0.4,0,0.8,0.1,1.1,0.1v-52.6H206.1z"/>
		<path class="st5" d="M208.4,101.9v52.7c0.4,0,0.8,0,1.1,0v-52.7H208.4z"/>
		<path class="st5" d="M216.7,101.9v52c0.4-0.1,0.8-0.2,1.1-0.3v-51.7H216.7z"/>
		<path class="st5" d="M204.3,101.9v52.3c0.4,0.1,0.8,0.1,1.1,0.1v-52.5H204.3z"/>
		<path class="st5" d="M214.3,101.9v52.4c0.4,0,0.8-0.1,1.1-0.2v-52.2H214.3z"/>
		<path class="st5" d="M210.2,101.9v52.7c0.4,0,0.8,0,1.1,0v-52.2h1.2v52.2c0.4,0,0.8-0.1,1.1-0.1v-52.5H210.2z"/>
		<path class="st5" d="M201.9,101.9v51.9c0.4,0.1,0.7,0.2,1.1,0.3v-52.1H201.9z"/>
	</g>
</g>
<g id="Слой_14">
	<g id="Radiator_1_">
		<path class="st7" d="M309.1,91.5l-2.8,6c-1.8,3.9-5.6,6.5-9.9,6.7c-6,0.3-11.1,0.4-16.2,0.4c-5.2,0-10.5-0.1-16.9-0.4
			c-4.3-0.2-8.1-2.7-9.9-6.7l-2.8-6H309.1z M311.4,90c-0.6,0-1.3,0.1-1.9,0.1h-59.1c-0.6,0-1.3,0-1.9-0.1l3.7,8.1
			c2,4.4,6.3,7.3,11.1,7.5c6.2,0.3,11.6,0.4,17,0.4c5.2,0,10.4-0.1,16.3-0.4c4.8-0.2,9.1-3.1,11.1-7.5L311.4,90z"/>
		<path d="M309.1,91.5l-2.8,6c-1.8,3.9-5.6,6.5-9.9,6.7c-6,0.3-11.1,0.4-16.2,0.4c-5.2,0-10.5-0.1-16.9-0.4
			c-4.3-0.2-8.1-2.7-9.9-6.7l-2.8-6H309.1z"/>
		<path class="st7" d="M311.4,90L311.4,90c-0.7,0.1-1.3,0.1-2,0.1h-59.1c-0.6,0-1.3,0-1.9-0.1l0,0c-0.9-1.9,0.1-3.5,2.2-3.6
			c21.8-0.8,36.3-1,58.7,0C311.3,86.5,312.3,88.1,311.4,90z"/>
		<path class="st8" d="M308.2,93.1l-0.5-0.3l0-0.6l0.5-0.3l0.4,0.3l-0.1,0.1l0.4-0.8l-0.2,0.5l-0.4-0.2l0-0.2h-0.2l0,0.2l-0.3,0.2
			l-0.2,0.1l-0.5-0.3l0-0.2h-0.2l0,0.2l-0.3,0.2l-0.2,0.1l-0.5-0.3l0-0.2h-0.2v0.2l-0.3,0.1l-0.3,0.2l-0.5-0.3l0-0.2h-0.2l0,0.2
			l-0.3,0.2l-0.2,0.1l-0.5-0.3l0-0.2h-0.2l0,0.2l-0.3,0.2l-0.2,0.1l-0.5-0.3l0-0.2h-0.2l0,0.2l-0.3,0.1l-0.3,0.2l-0.5-0.3l0-0.2
			h-0.2l0,0.2l-0.3,0.2l-0.2,0.1l-0.5-0.3l0-0.2h-0.2l0,0.2l-0.3,0.2l-0.2,0.1l-0.5-0.3l0-0.2h-0.2l0,0.2l-0.3,0.2l-0.2,0.1
			l-0.5-0.3l0-0.2h-0.2l0,0.2l-0.3,0.2l-0.2,0.1l-0.5-0.3v-0.2h-0.2v0.2l-0.3,0.2l-0.2,0.1l-0.5-0.3l0-0.2h-0.2v0.3l-0.3,0.2
			l-0.2,0.1l-0.5-0.3l0-0.3H293l0,0.3l-0.3,0.2l-0.2,0.1l-0.5-0.3l0-0.3h-0.2l0,0.3l-0.3,0.2l-0.2,0.1l-0.5-0.3l0-0.3h-0.2l0,0.3
			l-0.3,0.1l-0.3,0.2l-0.5-0.3l0-0.3h-0.2l0,0.3l-0.3,0.2l-0.2,0.1l-0.5-0.3l0-0.3H288l0,0.3l-0.3,0.2l-0.2,0.1l-0.5-0.3l0-0.3h-0.2
			l0,0.3l-0.3,0.1l-0.3,0.2l-0.5-0.3l0-0.3h-0.2l0,0.3l-0.3,0.2l-0.2,0.1l-0.5-0.3v-0.3h-0.2l0,0.3l-0.3,0.2l-0.2,0.1l-0.5-0.3
			l0-0.3H283l0,0.3l-0.3,0.1l-0.3,0.2l-0.5-0.3l0-0.3h-0.2l0,0.3l-0.3,0.2l-0.2,0.1l-0.5-0.3l0-0.3h-0.2l0,0.3l-0.3,0.2l-0.2,0.1
			l-0.5-0.3l0-0.3h-0.2l0,0.3l-0.3,0.1l-0.3,0.2l-0.5-0.3l0-0.3h-0.2l0,0.3l-0.3,0.2l-0.2,0.1l-0.5-0.3l0-0.3h-0.2l0,0.3l-0.3,0.2
			l-0.2,0.1l-0.5-0.3l0-0.3h-0.2l0,0.3l-0.3,0.2l-0.2,0.1l-0.5-0.3l0-0.3h-0.2l0,0.3l-0.3,0.2l-0.2,0.1l-0.5-0.3v-0.3h-0.2l0,0.3
			l-0.3,0.2l-0.2,0.1l-0.5-0.3l0-0.3h-0.2l0,0.3l-0.3,0.1l-0.3,0.2l-0.5-0.3l0-0.3h-0.2l0,0.3l-0.3,0.2l-0.2,0.1l-0.5-0.3l0-0.3
			h-0.2l0,0.3l-0.3,0.2l-0.2,0.1l-0.5-0.3l0-0.3h-0.2l0,0.3l-0.3,0.1l-0.3,0.2l-0.5-0.3l0-0.3h-0.2l0,0.3l-0.3,0.2l-0.2,0.1
			l-0.5-0.3l0-0.3h-0.2l0,0.3l-0.3,0.2l-0.2,0.1l-0.5-0.3l0-0.3h-0.2l0,0.3l-0.3,0.1l-0.3,0.2l-0.5-0.3l0-0.3h-0.2l0,0.3l-0.3,0.2
			l-0.2,0.1l-0.5-0.3l0-0.3h-0.2l0,0.3l-0.3,0.2l-0.2,0.1l-0.5-0.3l0-0.3h-0.2l0,0.3l-0.3,0.1l-0.3,0.2l-0.5-0.3l0-0.3h-0.2l0,0.3
			l-0.3,0.2l-0.2,0.1l-0.5-0.3l0-0.3h-0.2l0,0.3l-0.3,0.2l-0.2,0.1l-0.5-0.3l0-0.3h-0.2l0,0.3l-0.3,0.2l-0.2,0.1l-0.5-0.3l0-0.3
			h-0.2l0,0.3L255,92l-0.2,0.1l-0.5-0.3l0-0.3H254l0,0.3l-0.3,0.2l-0.2,0.1l-0.5-0.3l0-0.3h-0.2l0,0.3l-0.3,0.2l-0.2,0.1l-0.5-0.3
			l0-0.3h-0.2l0,0.3l-0.3,0.2l-0.2,0.1l-0.2-0.1l1,2.3l0.3,0.2l0,0.5l0-0.1l0.4,0.8l-0.2-0.5l0.5,0.3l0,0.6l-0.1,0l0.1,0.2l0.1-0.1
			l0.5,0.3l0,0.6l-0.2,0.1l-0.4-1l0.5,1.1c0,0,0,0,0,0l0.2-0.1l0.5,0.3l0,0.6l-0.2,0.1c0,0.1,0.1,0.1,0.1,0.2l0.2-0.1l0.5,0.3l0,0.6
			l-0.2,0.1c-0.2-0.3-0.4-0.6-0.6-0.9c0.4,0.7,0.9,1.3,1.4,1.9c-0.2-0.3-0.5-0.5-0.7-0.8l0.2-0.1l0.5,0.3l0,0.6l0,0
			c0.2,0.2,0.4,0.4,0.6,0.6c-0.2-0.1-0.3-0.3-0.5-0.4l0.5,0.3l0,0.2c0.3,0.2,0.5,0.5,0.8,0.7c-0.2-0.2-0.4-0.3-0.6-0.5l0-0.4
			l0.5-0.3l0.5,0.3l0,0.6l-0.3,0.2l-0.2,0.1c0.1,0,0.1,0.1,0.2,0.1l0.4-0.2l0.5,0.3l0,0.5c-0.3-0.2-0.6-0.4-0.9-0.6
			c0.9,0.7,1.9,1.2,3,1.6l0-0.4l0.5-0.3l0.5,0.3l0,0.6l-0.1,0.1c-0.3-0.1-0.6-0.2-0.9-0.3c0.6,0.2,1.1,0.3,1.7,0.5l-0.4-0.3l0-0.6
			l0.5-0.3l0.5,0.3l0,0.6l-0.3,0.2l-0.2,0.1c0.3,0.1,0.7,0.1,1,0.1c-0.2,0-0.5,0-0.7-0.1l0.3-0.2l0.4,0.2c0.1,0,0.3,0,0.4,0l0.5-0.3
			l0.5,0.3v0c-0.3,0-0.6,0-0.9,0c0.4,0,0.8,0,1.1,0v0l0.5-0.3l0.5,0.3v0.1c-0.3,0-0.5,0-0.8,0c0.3,0,0.7,0,1,0l0-0.1l0.5-0.3
			l0.5,0.3v0.1c-0.2,0-0.5,0-0.7,0c0.3,0,0.6,0,0.9,0v-0.1l0.5-0.3l0.5,0.3l0,0.2c0.3,0,0.6,0,0.9,0c-0.2,0-0.5,0-0.7,0l0-0.2
			l0.5-0.3l0.5,0.3l0,0.2c0.4,0,0.8,0,1.3,0c-0.3,0-0.7,0-1.1,0l0-0.2l0.5-0.3l0.5,0.3l0,0.3c0.1,0,0.1,0,0.2,0l0-0.3l0.5-0.3
			l0.5,0.3l0,0.3c-0.1,0-0.1,0-0.2,0c0.5,0,1.1,0,1.6,0l0-0.3l0.5-0.3l0.5,0.3l0,0.4c0.2,0,0.4,0,0.5,0c-0.1,0-0.2,0-0.4,0l0-0.4
			l0.5-0.3l0.5,0.3l0,0.4c0.5,0,1,0,1.5,0l0-0.4l0.5-0.3l0.5,0.3l0,0.4c0.4,0,0.8,0,1.1,0c-0.3,0-0.6,0-0.9,0l0-0.4l0.5-0.3l0.5,0.3
			l0,0.4c0.1,0,0.1,0,0.2,0l0-0.4l0.5-0.3l0.5,0.3l0,0.4c-0.1,0-0.2,0-0.4,0c0.2,0,0.4,0,0.6,0l0-0.4l0.5-0.3l0.5,0.3l0,0.4
			c-0.2,0-0.4,0-0.5,0c0.2,0,0.5,0,0.7,0l0-0.4l0.5-0.3l0.5,0.3l0,0.4c-0.4,0-0.7,0-1.1,0c0.4,0,0.8,0,1.3,0l0-0.4l0.5-0.3l0.5,0.3
			l0,0.4c-0.4,0-0.7,0-1.1,0c0.6,0,1.3,0,1.9,0c-0.2,0-0.5,0-0.7,0l0-0.4l0.5-0.3l0.5,0.3l0,0.4c0.1,0,0.1,0,0.2,0l0-0.4l0.5-0.3
			l0.5,0.3l0,0.4c0.1,0,0.1,0,0.2,0l0-0.4l0.5-0.3l0.5,0.3l0,0.3c-0.4,0-0.7,0-1,0c0.6,0,1.3,0,1.9,0c-0.2,0-0.4,0-0.6,0l0-0.3
			l0.5-0.3l0.5,0.3l0,0.3c0.1,0,0.1,0,0.2,0v-0.3l0.5-0.3l0.5,0.3l0,0.3c-0.4,0-0.7,0-1.1,0c1,0,2.1-0.1,3.2-0.1c-0.2,0-0.4,0-0.7,0
			l0-0.2l0.5-0.3l0.5,0.3v0.2c0.4,0,0.8,0,1.3-0.1c-0.4,0-0.7,0-1.1,0l0-0.2l0.5-0.3l0.5,0.3v0.1c0.1,0,0.1,0,0.2,0v-0.1l0.5-0.3
			l0.5,0.3l0,0.1c0.1,0,0.1,0,0.2,0v-0.1l0.5-0.3l0.5,0.3c-0.2,0-0.3,0-0.5,0c0.2,0,0.5,0,0.7-0.1l0.5-0.3l0.3,0.2
			c-0.3,0-0.5,0.1-0.8,0.1c0.4,0,0.7-0.1,1.1-0.2l-0.5-0.3l0-0.6l0.5-0.3l0.5,0.3l0,0.6l-0.3,0.1l-0.2,0.1c0,0,0,0-0.1,0
			c0.3-0.1,0.6-0.1,0.8-0.2l-0.1-0.1l0-0.6l0.5-0.3l0.5,0.3l0,0.4c0.1,0,0.1,0,0.2-0.1l0-0.3l0.5-0.3l0.3,0.2
			c-0.3,0.1-0.6,0.3-0.9,0.4c0.4-0.1,0.7-0.3,1.1-0.5l-0.4-0.3l0-0.6l0.5-0.3l0.5,0.3l0,0.5c-0.2,0.1-0.4,0.2-0.6,0.4
			c0.3-0.2,0.6-0.3,0.8-0.5l0-0.4l0.5-0.3l0.2,0.1c0.3-0.2,0.6-0.5,0.9-0.8c-0.2,0.2-0.5,0.5-0.8,0.7l-0.3-0.2l0-0.6l0.5-0.3
			l0.5,0.3v0.1c0.5-0.4,0.9-0.9,1.3-1.5c-0.1,0.2-0.3,0.4-0.5,0.6l0-0.3l0.5-0.3c0.5-0.6,0.8-1.3,1.2-2c-0.1,0.2-0.2,0.5-0.4,0.7
			l0,0l0-0.6l0.5-0.3l-0.1,0.2l0.2-0.5l0-0.5l0.3-0.2l0.1-0.3l-0.2,0.1l-0.3,0.2l-0.5-0.3l0-0.6l0.5-0.3l0.5,0.3l0,0.6l0.4-1l-0.1,0
			l-0.3,0.2l-0.5-0.3l0-0.6l0.5-0.3l0.5,0.3l0,0.3l-0.1,0.2l0.3-0.8l-0.2,0.1l-0.5-0.3l0-0.6l0.5-0.3l0.5,0.3v0l-0.2,0.4L308.2,93.1
			z M307.1,95.4l0.1-0.1l-0.1,0.2L307.1,95.4z M305.2,92.2l0.5-0.3l0.5,0.3l0,0.6L306,93l-0.2,0.1l-0.5-0.3L305.2,92.2z M305.1,93
			l0.5,0.3l0,0.6l-0.3,0.2l-0.2,0.1l-0.5-0.3l0-0.6L305.1,93z M254.2,95.5l0.5-0.3l0.5,0.3l0,0.6l-0.3,0.2l-0.2,0.1l-0.5-0.3
			L254.2,95.5z M254.1,95.4l-0.5-0.3l0-0.6l0.5-0.3l0.5,0.3l0,0.6l-0.3,0.2L254.1,95.4z M304.4,95.5l0,0.6l-0.3,0.2l-0.2,0.1
			l-0.5-0.3l0-0.6l0.5-0.3L304.4,95.5z M303.9,95l0-0.6l0.5-0.3l0.5,0.3l0,0.6l-0.3,0.2l-0.2,0.1L303.9,95z M303.7,95l-0.3,0.1
			l-0.3,0.2l-0.5-0.3l0-0.6l0.5-0.3l0.5,0.3L303.7,95z M303.1,95.5l0,0.6l-0.3,0.1l-0.3,0.2l-0.5-0.3l0-0.6l0.5-0.3L303.1,95.5z
			 M302.5,96.5l0,0.6l-0.3,0.1l-0.3,0.2l-0.5-0.3l0-0.6l0.5-0.3L302.5,96.5z M302.5,95l-0.3,0.2l-0.2,0.1l-0.5-0.3l0-0.6l0.5-0.3
			l0.5,0.3L302.5,95z M301.9,95.5l0,0.6l-0.3,0.2l-0.2,0.1l-0.5-0.3l0-0.6l0.5-0.3L301.9,95.5z M258,97.7l0.5-0.3l0.5,0.3l0,0.6
			l-0.3,0.2l-0.2,0.1l-0.5-0.3L258,97.7z M257.9,97.5l-0.5-0.3l0-0.6l0.5-0.3l0.5,0.3l0,0.6l-0.3,0.2L257.9,97.5z M258.6,97.2l0-0.6
			l0.5-0.3l0.5,0.3l0,0.6l-0.3,0.2l-0.2,0.1L258.6,97.2z M258.6,98.8l0.5-0.3l0.5,0.3l0,0.6l-0.3,0.1l-0.3,0.2l-0.5-0.3L258.6,98.8z
			 M259.3,98.3l0-0.6l0.5-0.3l0.5,0.3l0,0.6l-0.3,0.2l-0.2,0.1L259.3,98.3z M259.9,97.2l0-0.6l0.5-0.3l0.5,0.3l0,0.6l-0.3,0.1
			l-0.3,0.2L259.9,97.2z M260.5,97.7l0.5-0.3l0.5,0.3l0,0.6l-0.3,0.2l-0.2,0.1l-0.5-0.3L260.5,97.7z M261.2,97.2l0-0.6l0.5-0.3
			l0.5,0.3l0,0.6l-0.3,0.2l-0.2,0.1L261.2,97.2z M261.8,97.7l0.5-0.3l0.5,0.3l0,0.6l-0.3,0.2l-0.2,0.1l-0.5-0.3L261.8,97.7z
			 M262.4,97.2l0-0.6l0.5-0.3l0.5,0.3l0,0.6l-0.3,0.2l-0.2,0.1L262.4,97.2z M262.4,98.8l0.5-0.3l0.5,0.3l0,0.6l-0.3,0.1l-0.3,0.2
			l-0.5-0.3L262.4,98.8z M263.1,98.3l0-0.6l0.5-0.3l0.5,0.3l0,0.6l-0.3,0.1l-0.3,0.2L263.1,98.3z M263.7,97.2l0-0.6l0.5-0.3l0.5,0.3
			l0,0.6l-0.3,0.2l-0.2,0.1L263.7,97.2z M263.7,98.8l0.5-0.3l0.5,0.3l0,0.6l-0.3,0.2l-0.2,0.1l-0.5-0.3L263.7,98.8z M264.3,98.3
			l0-0.6l0.5-0.3l0.5,0.3l0,0.6l-0.3,0.2l-0.2,0.1L264.3,98.3z M264.9,97.2l0-0.6l0.5-0.3l0.5,0.3l0,0.6l-0.3,0.2l-0.2,0.1
			L264.9,97.2z M264.9,98.8l0.5-0.3l0.5,0.3l0,0.6l-0.3,0.2l-0.2,0.1l-0.5-0.3L264.9,98.8z M265.6,98.3l0-0.6l0.5-0.3l0.5,0.3l0,0.6
			l-0.3,0.2l-0.2,0.1L265.6,98.3z M266.2,97.2l0-0.6l0.5-0.3l0.5,0.3l0,0.6l-0.3,0.2l-0.2,0.1L266.2,97.2z M266.2,98.8l0.5-0.3
			l0.5,0.3l0,0.6l-0.3,0.1l-0.3,0.2l-0.5-0.3L266.2,98.8z M266.8,98.3l0-0.6l0.5-0.3l0.5,0.3l0,0.6l-0.3,0.1l-0.3,0.2L266.8,98.3z
			 M267.5,97.2l0-0.6l0.5-0.3l0.5,0.3l0,0.6l-0.3,0.2l-0.2,0.1L267.5,97.2z M267.5,98.8l0.5-0.3l0.5,0.3l0,0.6l-0.3,0.2l-0.2,0.1
			l-0.5-0.3L267.5,98.8z M268.1,98.3l0-0.6l0.5-0.3l0.5,0.3l0,0.6l-0.3,0.2l-0.2,0.1L268.1,98.3z M268.7,97.2l0-0.6l0.5-0.3l0.5,0.3
			l0,0.6l-0.3,0.2l-0.2,0.1L268.7,97.2z M268.7,98.8l0.5-0.3l0.5,0.3l0,0.6l-0.3,0.2l-0.2,0.1l-0.5-0.3L268.7,98.8z M269.3,98.3
			l0-0.6l0.5-0.3l0.5,0.3l0,0.6l-0.3,0.2l-0.2,0.1L269.3,98.3z M270,97.2l0-0.6l0.5-0.3l0.5,0.3l0,0.6l-0.3,0.2l-0.2,0.1L270,97.2z
			 M270,98.8l0.5-0.3l0.5,0.3l0,0.6l-0.3,0.1l-0.3,0.2l-0.5-0.3L270,98.8z M270.6,98.3l0-0.6l0.5-0.3l0.5,0.3l0,0.6l-0.3,0.1
			l-0.3,0.2L270.6,98.3z M272.9,97.7l0,0.6l-0.3,0.2l-0.2,0.1l-0.5-0.3l0-0.6l0.5-0.3L272.9,97.7z M272.5,97.2l0-0.6l0.5-0.3
			l0.5,0.3l0,0.6l-0.3,0.2l-0.2,0.1L272.5,97.2z M272.3,97.2l-0.3,0.1l-0.3,0.2l-0.5-0.3l0-0.6l0.5-0.3l0.5,0.3L272.3,97.2z
			 M271.2,98.8l0.5-0.3l0.5,0.3l0,0.6l-0.3,0.2l-0.2,0.1l-0.5-0.3L271.2,98.8z M271.9,99.8l0.5-0.3l0.5,0.3l0,0.6l-0.3,0.2l-0.2,0.1
			l-0.5-0.3L271.9,99.8z M272.5,99.4l0-0.6l0.5-0.3l0.5,0.3l0,0.6l-0.3,0.2l-0.2,0.1L272.5,99.4z M273.1,98.3l0-0.6l0.5-0.3l0.5,0.3
			l0,0.6l-0.3,0.2l-0.2,0.1L273.1,98.3z M273.7,97.2l0-0.6l0.5-0.3l0.5,0.3l0,0.6l-0.3,0.2l-0.2,0.1L273.7,97.2z M273.8,98.8
			l0.5-0.3l0.5,0.3l0,0.6l-0.3,0.2l-0.2,0.1l-0.5-0.3L273.8,98.8z M274.4,98.3l0-0.6l0.5-0.3l0.5,0.3l0,0.6l-0.3,0.1l-0.3,0.2
			L274.4,98.3z M276.7,97.7l0,0.6l-0.3,0.2l-0.2,0.1l-0.5-0.3l0-0.6l0.5-0.3L276.7,97.7z M276.3,97.2l0-0.6l0.5-0.3l0.5,0.3l0,0.6
			l-0.3,0.2l-0.2,0.1L276.3,97.2z M276.1,97.2l-0.3,0.1l-0.3,0.2l-0.5-0.3l0-0.6l0.5-0.3l0.5,0.3L276.1,97.2z M275,98.8l0.5-0.3
			l0.5,0.3l0,0.6l-0.3,0.2l-0.2,0.1l-0.5-0.3L275,98.8z M275.6,99.8l0.5-0.3l0.5,0.3l0,0.6l-0.3,0.2l-0.2,0.1l-0.5-0.3L275.6,99.8z
			 M276.3,99.4l0-0.6l0.5-0.3l0.5,0.3l0,0.6l-0.3,0.2l-0.2,0.1L276.3,99.4z M276.9,98.3l0-0.6l0.5-0.3l0.5,0.3l0,0.6l-0.3,0.2
			l-0.2,0.1L276.9,98.3z M277.5,97.2l0-0.6l0.5-0.3l0.5,0.3l0,0.6l-0.3,0.2l-0.2,0.1L277.5,97.2z M277.5,98.8l0.5-0.3l0.5,0.3l0,0.6
			l-0.3,0.1l-0.3,0.2l-0.5-0.3L277.5,98.8z M278.2,98.3l0-0.6l0.5-0.3l0.5,0.3l0,0.6l-0.3,0.2l-0.2,0.1L278.2,98.3z M278.8,97.2
			l0-0.6l0.5-0.3l0.5,0.3l0,0.6l-0.3,0.1l-0.3,0.2L278.8,97.2z M278.8,98.7l0.5-0.3l0.5,0.3l0,0.6l-0.3,0.2l-0.2,0.1l-0.5-0.3
			L278.8,98.7z M279.4,98.3l0-0.6l0.5-0.3l0.5,0.3l0,0.6l-0.3,0.2l-0.2,0.1L279.4,98.3z M280,97.2l0-0.6l0.5-0.3l0.5,0.3l0,0.6
			l-0.3,0.2l-0.2,0.1L280,97.2z M280,98.7l0.5-0.3l0.5,0.3l0,0.6l-0.3,0.2l-0.2,0.1l-0.5-0.3L280,98.7z M280.7,98.3l0-0.6l0.5-0.3
			l0.5,0.3l0,0.6l-0.3,0.2l-0.2,0.1L280.7,98.3z M281.3,97.2l0-0.6l0.5-0.3l0.5,0.3l0,0.6l-0.3,0.2l-0.2,0.1L281.3,97.2z
			 M281.3,98.7l0.5-0.3l0.5,0.3l0,0.6l-0.3,0.1l-0.3,0.2l-0.5-0.3L281.3,98.7z M281.9,98.3l0-0.6l0.5-0.3l0.5,0.3l0,0.6l-0.3,0.2
			l-0.2,0.1L281.9,98.3z M282.6,97.2l0-0.6l0.5-0.3l0.5,0.3l0,0.6l-0.3,0.2l-0.2,0.1L282.6,97.2z M282.6,98.7l0.5-0.3l0.5,0.3l0,0.6
			l-0.3,0.2l-0.2,0.1l-0.5-0.3L282.6,98.7z M283.2,98.3l0-0.6l0.5-0.3l0.5,0.3l0,0.6l-0.3,0.2l-0.2,0.1L283.2,98.3z M283.8,97.2
			l0-0.6l0.5-0.3l0.5,0.3l0,0.6l-0.3,0.2l-0.2,0.1L283.8,97.2z M283.8,98.7l0.5-0.3l0.5,0.3l0,0.6l-0.3,0.2l-0.2,0.1l-0.5-0.3
			L283.8,98.7z M284.4,98.3l0-0.6l0.5-0.3l0.5,0.3l0,0.6l-0.3,0.2l-0.2,0.1L284.4,98.3z M285.1,97.2l0-0.6l0.5-0.3l0.5,0.3l0,0.6
			l-0.3,0.2l-0.2,0.1L285.1,97.2z M285.1,98.7l0.5-0.3l0.5,0.3l0,0.6l-0.3,0.1l-0.3,0.2l-0.5-0.3L285.1,98.7z M285.7,98.3l0-0.6
			l0.5-0.3l0.5,0.3l0,0.6l-0.3,0.1l-0.3,0.2L285.7,98.3z M286.3,97.2l0-0.6l0.5-0.3l0.5,0.3l0,0.6l-0.3,0.2l-0.2,0.1L286.3,97.2z
			 M286.3,98.7l0.5-0.3l0.5,0.3l0,0.6l-0.3,0.2l-0.2,0.1l-0.5-0.3L286.3,98.7z M287,98.3l0-0.6l0.5-0.3l0.5,0.3l0,0.6l-0.3,0.2
			l-0.2,0.1L287,98.3z M287.6,97.2l0-0.6l0.5-0.3l0.5,0.3l0,0.6l-0.3,0.2l-0.2,0.1L287.6,97.2z M287.6,98.7l0.5-0.3l0.5,0.3l0,0.6
			l-0.3,0.2l-0.2,0.1l-0.5-0.3L287.6,98.7z M288.2,98.3l0-0.6l0.5-0.3l0.5,0.3l0,0.6l-0.3,0.2l-0.2,0.1L288.2,98.3z M288.8,97.2
			l0-0.6l0.5-0.3l0.5,0.3l0,0.6l-0.3,0.2l-0.2,0.1L288.8,97.2z M288.9,98.7l0.5-0.3l0.5,0.3l0,0.6l-0.3,0.1l-0.3,0.2l-0.5-0.3
			L288.9,98.7z M289.5,98.3l0-0.6l0.5-0.3l0.5,0.3l0,0.6l-0.3,0.1l-0.3,0.2L289.5,98.3z M291.8,97.6l0,0.6l-0.3,0.2l-0.2,0.1
			l-0.5-0.3l0-0.6l0.5-0.3L291.8,97.6z M291.4,97.2l0-0.6l0.5-0.3l0.5,0.3l0,0.6l-0.3,0.2l-0.2,0.1L291.4,97.2z M291.2,97.2
			l-0.3,0.1l-0.3,0.2l-0.5-0.3l0-0.6l0.5-0.3l0.5,0.3L291.2,97.2z M290.1,98.7l0.5-0.3l0.5,0.3l0,0.6l-0.3,0.2l-0.2,0.1l-0.5-0.3
			L290.1,98.7z M290.7,99.8l0.5-0.3l0.5,0.3l0,0.6l-0.3,0.2l-0.2,0.1l-0.5-0.3L290.7,99.8z M291.4,99.3l0-0.6l0.5-0.3l0.5,0.3l0,0.6
			l-0.3,0.2l-0.2,0.1L291.4,99.3z M292,98.3l0-0.6l0.5-0.3l0.5,0.3l0,0.6l-0.3,0.2l-0.2,0.1L292,98.3z M292.6,97.2l0-0.6l0.5-0.3
			l0.5,0.3l0,0.6l-0.3,0.2l-0.2,0.1L292.6,97.2z M292.6,98.7l0.5-0.3l0.5,0.3l0,0.6l-0.3,0.2l-0.2,0.1l-0.5-0.3L292.6,98.7z
			 M293.3,98.3l0-0.6l0.5-0.3l0.5,0.3l0,0.6l-0.3,0.1l-0.3,0.2L293.3,98.3z M293.9,97.2l0-0.6l0.5-0.3l0.5,0.3l0,0.6l-0.3,0.1
			l-0.3,0.2L293.9,97.2z M293.9,98.7l0.5-0.3l0.5,0.3l0,0.6l-0.3,0.2l-0.2,0.1l-0.5-0.3L293.9,98.7z M294.5,98.2l0-0.6l0.5-0.3
			l0.5,0.3l0,0.6l-0.3,0.2l-0.2,0.1L294.5,98.2z M295.1,97.2l0-0.6l0.5-0.3l0.5,0.3l0,0.6l-0.3,0.2l-0.2,0.1L295.1,97.2z
			 M295.1,98.7l0.5-0.3l0.5,0.3l0,0.6l-0.3,0.2l-0.2,0.1l-0.5-0.3L295.1,98.7z M295.8,98.2l0-0.6l0.5-0.3l0.5,0.3l0,0.6l-0.3,0.2
			l-0.2,0.1L295.8,98.2z M296.4,97.2l0-0.6l0.5-0.3l0.5,0.3l0,0.6l-0.3,0.2l-0.2,0.1L296.4,97.2z M296.4,98.7l0.5-0.3l0.5,0.3l0,0.6
			l-0.3,0.2l-0.2,0.1l-0.5-0.3L296.4,98.7z M297,98.2l0-0.6l0.5-0.3l0.5,0.3l0,0.6l-0.3,0.1l-0.3,0.2L297,98.2z M297.7,97.2l0-0.6
			l0.5-0.3l0.5,0.3l0,0.6l-0.3,0.1l-0.3,0.2L297.7,97.2z M298.3,97.6l0.5-0.3l0.5,0.3l0,0.6l-0.3,0.2l-0.2,0.1l-0.5-0.3L298.3,97.6z
			 M298.9,97.2l0-0.6l0.5-0.3l0.5,0.3l0,0.6l-0.3,0.2l-0.2,0.1L298.9,97.2z M299.5,97.6l0.5-0.3l0.5,0.3l0,0.6l-0.3,0.2l-0.2,0.1
			l-0.5-0.3L299.5,97.6z M300.2,97.2l0-0.6l0.5-0.3l0.5,0.3l0,0.6l-0.3,0.2l-0.2,0.1L300.2,97.2z M301.2,95l-0.3,0.2l-0.2,0.1
			l-0.5-0.3l0-0.6l0.5-0.3l0.5,0.3L301.2,95z M300.6,95.5l0,0.6l-0.3,0.2l-0.2,0.1l-0.5-0.3l0-0.6l0.5-0.3L300.6,95.5z M300,95
			l-0.3,0.2l-0.2,0.1l-0.5-0.3l0-0.6l0.5-0.3l0.5,0.3L300,95z M299.3,95.5l0,0.6l-0.3,0.1l-0.3,0.2l-0.5-0.3l0-0.6l0.5-0.3
			L299.3,95.5z M298.7,95l-0.3,0.2l-0.2,0.1l-0.5-0.3l0-0.6l0.5-0.3l0.5,0.3L298.7,95z M298.1,95.5l0,0.6l-0.3,0.2l-0.2,0.1
			l-0.5-0.3l0-0.6l0.5-0.3L298.1,95.5z M297.5,95l-0.3,0.2l-0.2,0.1l-0.5-0.3l0-0.6l0.5-0.3l0.5,0.3L297.5,95z M296.8,95.5l0,0.6
			l-0.3,0.2l-0.2,0.1l-0.5-0.3l0-0.6l0.5-0.3L296.8,95.5z M296.2,95l-0.3,0.2l-0.2,0.1l-0.5-0.3l0-0.6l0.5-0.3l0.5,0.3L296.2,95z
			 M295.6,95.5l0,0.6l-0.3,0.2l-0.2,0.1l-0.5-0.3l0-0.6l0.5-0.3L295.6,95.5z M294.9,95l-0.3,0.2l-0.2,0.1l-0.5-0.3l0-0.6l0.5-0.3
			l0.5,0.3L294.9,95z M294.3,95.5l0,0.6l-0.3,0.2l-0.2,0.1l-0.5-0.3l0-0.6l0.5-0.3L294.3,95.5z M293.7,95l-0.3,0.2l-0.2,0.1
			l-0.5-0.3l0-0.6l0.5-0.3l0.5,0.3L293.7,95z M293.1,95.5l0,0.6l-0.3,0.2l-0.2,0.1l-0.5-0.3l0-0.6l0.5-0.3L293.1,95.5z M292.4,95
			l-0.3,0.1l-0.3,0.2l-0.5-0.3l0-0.6l0.5-0.3l0.5,0.3L292.4,95z M291.8,95.5l0,0.6l-0.3,0.2l-0.2,0.1l-0.5-0.3l0-0.6l0.5-0.3
			L291.8,95.5z M291.2,95l-0.3,0.2l-0.2,0.1l-0.5-0.3l0-0.6l0.5-0.3l0.5,0.3L291.2,95z M290.5,95.5l0,0.6l-0.3,0.2l-0.2,0.1
			l-0.5-0.3l0-0.6l0.5-0.3L290.5,95.5z M289.9,95l-0.3,0.2l-0.2,0.1l-0.5-0.3l0-0.6l0.5-0.3l0.5,0.3L289.9,95z M289.3,95.5l0,0.6
			l-0.3,0.2l-0.2,0.1l-0.5-0.3l0-0.6l0.5-0.3L289.3,95.5z M288.6,95l-0.3,0.1l-0.3,0.2l-0.5-0.3l0-0.6l0.5-0.3l0.5,0.3L288.6,95z
			 M288,95.5l0,0.6l-0.3,0.1l-0.3,0.2l-0.5-0.3l0-0.6l0.5-0.3L288,95.5z M287.4,95l-0.3,0.2l-0.2,0.1l-0.5-0.3l0-0.6l0.5-0.3
			l0.5,0.3L287.4,95z M286.8,95.5l0,0.6l-0.3,0.2l-0.2,0.1l-0.5-0.3l0-0.6l0.5-0.3L286.8,95.5z M286.1,95l-0.3,0.2l-0.2,0.1
			l-0.5-0.3l0-0.6l0.5-0.3l0.5,0.3L286.1,95z M285.5,95.5l0,0.6l-0.3,0.2l-0.2,0.1l-0.5-0.3l0-0.6l0.5-0.3L285.5,95.5z M284.9,95
			l-0.3,0.1l-0.3,0.2l-0.5-0.3l0-0.6l0.5-0.3l0.5,0.3L284.9,95z M284.2,95.5l0,0.6l-0.3,0.1l-0.3,0.2l-0.5-0.3l0-0.6l0.5-0.3
			L284.2,95.5z M283.6,95l-0.3,0.2l-0.2,0.1l-0.5-0.3l0-0.6l0.5-0.3l0.5,0.3L283.6,95z M283,95.5l0,0.6l-0.3,0.2l-0.2,0.1l-0.5-0.3
			l0-0.6l0.5-0.3L283,95.5z M282.4,95l-0.3,0.2l-0.2,0.1l-0.5-0.3l0-0.6l0.5-0.3l0.5,0.3L282.4,95z M281.7,95.5l0,0.6l-0.3,0.2
			l-0.2,0.1l-0.5-0.3l0-0.6l0.5-0.3L281.7,95.5z M281.1,95l-0.3,0.2l-0.2,0.1L280,95l0-0.6l0.5-0.3l0.5,0.3L281.1,95z M280.5,95.5
			l0,0.6l-0.3,0.1l-0.3,0.2l-0.5-0.3l0-0.6l0.5-0.3L280.5,95.5z M279.8,95l-0.3,0.2l-0.2,0.1l-0.5-0.3l0-0.6l0.5-0.3l0.5,0.3
			L279.8,95z M279.2,95.5l0,0.6l-0.3,0.2l-0.2,0.1l-0.5-0.3l0-0.6l0.5-0.3L279.2,95.5z M278.6,95l-0.3,0.2l-0.2,0.1l-0.5-0.3l0-0.6
			l0.5-0.3l0.5,0.3L278.6,95z M278,95.5l0,0.6l-0.3,0.2l-0.2,0.1l-0.5-0.3l0-0.6l0.5-0.3L278,95.5z M277.3,95l-0.3,0.2l-0.2,0.1
			l-0.5-0.3l0-0.6l0.5-0.3l0.5,0.3L277.3,95z M276.7,95.5l0,0.6l-0.3,0.1l-0.3,0.2l-0.5-0.3l0-0.6l0.5-0.3L276.7,95.5z M276.1,95
			l-0.3,0.2l-0.2,0.1L275,95l0-0.6l0.5-0.3l0.5,0.3L276.1,95z M275.4,95.5l0,0.6l-0.3,0.2l-0.2,0.1l-0.5-0.3l0-0.6l0.5-0.3
			L275.4,95.5z M274.8,95l-0.3,0.2l-0.2,0.1l-0.5-0.3l0-0.6l0.5-0.3l0.5,0.3L274.8,95z M274.2,95.5l0,0.6l-0.3,0.2l-0.2,0.1
			l-0.5-0.3l0-0.6l0.5-0.3L274.2,95.5z M273.5,95l-0.3,0.1l-0.3,0.2l-0.5-0.3l0-0.6l0.5-0.3l0.5,0.3L273.5,95z M272.9,95.5l0,0.6
			l-0.3,0.2l-0.2,0.1l-0.5-0.3l0-0.6l0.5-0.3L272.9,95.5z M272.3,95l-0.3,0.2l-0.2,0.1l-0.5-0.3l0-0.6l0.5-0.3l0.5,0.3L272.3,95z
			 M271.7,95.5l0,0.6l-0.3,0.2l-0.2,0.1l-0.5-0.3l0-0.6l0.5-0.3L271.7,95.5z M271,95l-0.3,0.2l-0.2,0.1L270,95l0-0.6l0.5-0.3
			l0.5,0.3L271,95z M270.4,95.5l0,0.6l-0.3,0.2l-0.2,0.1l-0.5-0.3l0-0.6l0.5-0.3L270.4,95.5z M269.8,95l-0.3,0.1l-0.3,0.2l-0.5-0.3
			l0-0.6l0.5-0.3l0.5,0.3L269.8,95z M269.1,95.5l0,0.6l-0.3,0.2l-0.2,0.1l-0.5-0.3l0-0.6l0.5-0.3L269.1,95.5z M268.5,95l-0.3,0.2
			l-0.2,0.1l-0.5-0.3l0-0.6l0.5-0.3l0.5,0.3L268.5,95z M267.9,95.5l0,0.6l-0.3,0.2l-0.2,0.1l-0.5-0.3l0-0.6l0.5-0.3L267.9,95.5z
			 M267.3,95l-0.3,0.2l-0.2,0.1l-0.5-0.3l0-0.6l0.5-0.3l0.5,0.3L267.3,95z M266.6,95.5l0,0.6l-0.3,0.2l-0.2,0.1l-0.5-0.3l0-0.6
			l0.5-0.3L266.6,95.5z M266,95.1l-0.3,0.1l-0.3,0.2l-0.5-0.3l0-0.6l0.5-0.3l0.5,0.3L266,95.1z M265.4,95.5l0,0.6l-0.3,0.1l-0.3,0.2
			l-0.5-0.3l0-0.6l0.5-0.3L265.4,95.5z M264.7,95.1l-0.3,0.2l-0.2,0.1l-0.5-0.3l0-0.6l0.5-0.3l0.5,0.3L264.7,95.1z M264.1,95.5
			l0,0.6l-0.3,0.2l-0.2,0.1l-0.5-0.3l0-0.6l0.5-0.3L264.1,95.5z M263.5,95.1l-0.3,0.2l-0.2,0.1l-0.5-0.3l0-0.6l0.5-0.3l0.5,0.3
			L263.5,95.1z M262.9,95.5l0,0.6l-0.3,0.2l-0.2,0.1l-0.5-0.3l0-0.6l0.5-0.3L262.9,95.5z M262.2,95.1l-0.3,0.1l-0.3,0.2l-0.5-0.3
			l0-0.6l0.5-0.3l0.5,0.3L262.2,95.1z M261.6,95.5l0,0.6l-0.3,0.1l-0.3,0.2l-0.5-0.3l0-0.6l0.5-0.3L261.6,95.5z M261,95.1l-0.3,0.2
			l-0.2,0.1l-0.5-0.3l0-0.6l0.5-0.3l0.5,0.3L261,95.1z M260.3,95.5l0,0.6l-0.3,0.2l-0.2,0.1l-0.5-0.3l0-0.6l0.5-0.3L260.3,95.5z
			 M259.7,95.1l-0.3,0.2l-0.2,0.1l-0.5-0.3l0-0.6l0.5-0.3l0.5,0.3L259.7,95.1z M259.1,95.5l0,0.6l-0.3,0.2l-0.2,0.1l-0.5-0.3l0-0.6
			l0.5-0.3L259.1,95.5z M258.4,95.1l-0.3,0.2l-0.2,0.1l-0.5-0.3l0-0.6l0.5-0.3l0.5,0.3L258.4,95.1z M257.8,95.5l0,0.6l-0.3,0.1
			l-0.3,0.2l-0.5-0.3l0-0.6l0.5-0.3L257.8,95.5z M257.2,95.1l-0.3,0.2l-0.2,0.1l-0.5-0.3l0-0.6l0.5-0.3l0.5,0.3L257.2,95.1z
			 M256.6,95.5l0,0.6l-0.3,0.2l-0.2,0.1l-0.5-0.3l0-0.6l0.5-0.3L256.6,95.5z M255.9,95.1l-0.3,0.2l-0.2,0.1l-0.5-0.3l0-0.6l0.5-0.3
			l0.5,0.3L255.9,95.1z M254.9,96.6l0.5-0.3l0.5,0.3l0,0.6l-0.3,0.2l-0.2,0.1l-0.5-0.3L254.9,96.6z M255.5,97.7l0.5-0.3l0.5,0.3
			l0,0.6l-0.3,0.2l-0.2,0.1l-0.5-0.3L255.5,97.7z M256.1,97.2l0-0.6l0.5-0.3l0.5,0.3l0,0.6l-0.3,0.1l-0.3,0.2L256.1,97.2z
			 M256.8,97.7l0.5-0.3l0.5,0.3l0,0.6l-0.3,0.2l-0.2,0.1l-0.5-0.3L256.8,97.7z M257.4,98.8l0.5-0.3l0.5,0.3l0,0.6l-0.3,0.2l-0.2,0.1
			l-0.5-0.3L257.4,98.8z M258,99.9l0.5-0.3l0.5,0.3l0,0.6l-0.3,0.1l-0.3,0.2l-0.5-0.3L258,99.9z M258.7,101l0.5-0.3l0.5,0.3l0,0.6
			l-0.3,0.2l-0.2,0.1l-0.5-0.3L258.7,101z M259.3,100.5l0-0.6l0.5-0.3l0.5,0.3l0,0.6l-0.3,0.2l-0.2,0.1L259.3,100.5z M259.9,99.4
			l0-0.6l0.5-0.3l0.5,0.3l0,0.6l-0.3,0.2l-0.2,0.1L259.9,99.4z M260.5,99.9l0.5-0.3l0.5,0.3l0,0.6l-0.3,0.2l-0.2,0.1l-0.5-0.3
			L260.5,99.9z M261.2,99.4l0-0.6l0.5-0.3l0.5,0.3l0,0.6l-0.3,0.2l-0.2,0.1L261.2,99.4z M261.8,99.9l0.5-0.3l0.5,0.3l0,0.6l-0.3,0.1
			l-0.3,0.2l-0.5-0.3L261.8,99.9z M262.4,100.9l0.5-0.3l0.5,0.3l0,0.6l-0.3,0.2l-0.2,0.1l-0.5-0.3L262.4,100.9z M263.1,100.5l0-0.6
			l0.5-0.3l0.5,0.3l0,0.6l-0.3,0.2l-0.2,0.1L263.1,100.5z M263.7,100.9l0.5-0.3l0.5,0.3l0,0.6l-0.3,0.2l-0.2,0.1l-0.5-0.3
			L263.7,100.9z M264.3,100.5l0-0.6l0.5-0.3l0.5,0.3l0,0.6l-0.3,0.2l-0.2,0.1L264.3,100.5z M264.9,100.9l0.5-0.3l0.5,0.3l0,0.6
			l-0.3,0.1l-0.3,0.2l-0.5-0.3L264.9,100.9z M265.6,100.5l0-0.6l0.5-0.3l0.5,0.3l0,0.6l-0.3,0.2l-0.2,0.1L265.6,100.5z M266.2,100.9
			l0.5-0.3l0.5,0.3l0,0.6l-0.3,0.2l-0.2,0.1l-0.5-0.3L266.2,100.9z M266.8,100.5l0-0.6l0.5-0.3l0.5,0.3l0,0.6l-0.3,0.2l-0.2,0.1
			L266.8,100.5z M267.5,100.9l0.5-0.3l0.5,0.3l0,0.6l-0.3,0.2l-0.2,0.1l-0.5-0.3L267.5,100.9z M268.1,100.5l0-0.6l0.5-0.3l0.5,0.3
			l0,0.6l-0.3,0.2l-0.2,0.1L268.1,100.5z M268.7,100.9l0.5-0.3l0.5,0.3l0,0.6l-0.3,0.1l-0.3,0.2l-0.5-0.3L268.7,100.9z M269.3,100.5
			l0-0.6l0.5-0.3l0.5,0.3l0,0.6l-0.3,0.2l-0.2,0.1L269.3,100.5z M270,100.9l0.5-0.3l0.5,0.3l0,0.6l-0.3,0.2l-0.2,0.1l-0.5-0.3
			L270,100.9z M270.6,100.5l0-0.6l0.5-0.3l0.5,0.3l0,0.6l-0.3,0.2l-0.2,0.1L270.6,100.5z M271.2,100.9l0.5-0.3l0.5,0.3l0,0.6
			l-0.3,0.2l-0.2,0.1l-0.5-0.3L271.2,100.9z M271.9,102l0.5-0.3l0.5,0.3l0,0.6l-0.3,0.1l-0.3,0.2l-0.5-0.3L271.9,102z M272.5,101.5
			l0-0.6l0.5-0.3l0.5,0.3l0,0.6l-0.3,0.1l-0.3,0.2L272.5,101.5z M273.1,100.5l0-0.6l0.5-0.3l0.5,0.3l0,0.6l-0.3,0.1l-0.3,0.2
			L273.1,100.5z M273.8,100.9l0.5-0.3l0.5,0.3l0,0.6l-0.3,0.2l-0.2,0.1l-0.5-0.3L273.8,100.9z M274.4,100.5l0-0.6l0.5-0.3l0.5,0.3
			l0,0.6l-0.3,0.2l-0.2,0.1L274.4,100.5z M275,100.9l0.5-0.3l0.5,0.3l0,0.6l-0.3,0.2l-0.2,0.1l-0.5-0.3L275,100.9z M275.6,102
			l0.5-0.3l0.5,0.3l0,0.6l-0.3,0.2l-0.2,0.1l-0.5-0.3L275.6,102z M276.3,101.5l0-0.6l0.5-0.3l0.5,0.3l0,0.6l-0.3,0.1l-0.3,0.2
			L276.3,101.5z M276.9,100.4l0-0.6l0.5-0.3l0.5,0.3l0,0.6l-0.3,0.1l-0.3,0.2L276.9,100.4z M277.5,100.9l0.5-0.3l0.5,0.3l0,0.6
			l-0.3,0.2l-0.2,0.1l-0.5-0.3L277.5,100.9z M278.2,100.4l0-0.6l0.5-0.3l0.5,0.3l0,0.6l-0.3,0.2l-0.2,0.1L278.2,100.4z M278.8,100.9
			l0.5-0.3l0.5,0.3l0,0.6l-0.3,0.2l-0.2,0.1l-0.5-0.3L278.8,100.9z M279.4,100.4l0-0.6l0.5-0.3l0.5,0.3l0,0.6l-0.3,0.2l-0.2,0.1
			L279.4,100.4z M280,100.9l0.5-0.3l0.5,0.3l0,0.6l-0.3,0.2l-0.2,0.1l-0.5-0.3L280,100.9z M280.7,100.4l0-0.6l0.5-0.3l0.5,0.3l0,0.6
			l-0.3,0.1l-0.3,0.2L280.7,100.4z M281.3,100.9l0.5-0.3l0.5,0.3l0,0.6l-0.3,0.2l-0.2,0.1l-0.5-0.3L281.3,100.9z M281.9,100.4l0-0.6
			l0.5-0.3l0.5,0.3l0,0.6l-0.3,0.2l-0.2,0.1L281.9,100.4z M282.6,100.9l0.5-0.3l0.5,0.3l0,0.6l-0.3,0.2l-0.2,0.1l-0.5-0.3
			L282.6,100.9z M283.2,100.4l0-0.6l0.5-0.3l0.5,0.3l0,0.6l-0.3,0.2l-0.2,0.1L283.2,100.4z M283.8,100.9l0.5-0.3l0.5,0.3l0,0.6
			l-0.3,0.2l-0.2,0.1l-0.5-0.3L283.8,100.9z M284.4,100.4l0-0.6l0.5-0.3l0.5,0.3l0,0.6l-0.3,0.1l-0.3,0.2L284.4,100.4z M285.1,100.9
			l0.5-0.3l0.5,0.3l0,0.6l-0.3,0.2l-0.2,0.1l-0.5-0.3L285.1,100.9z M285.7,100.4l0-0.6l0.5-0.3l0.5,0.3l0,0.6l-0.3,0.2l-0.2,0.1
			L285.7,100.4z M286.3,100.9l0.5-0.3l0.5,0.3l0,0.6l-0.3,0.2l-0.2,0.1l-0.5-0.3L286.3,100.9z M287,100.4l0-0.6l0.5-0.3l0.5,0.3
			l0,0.6l-0.3,0.2l-0.2,0.1L287,100.4z M287.6,100.9l0.5-0.3l0.5,0.3l0,0.6l-0.3,0.1l-0.3,0.2l-0.5-0.3L287.6,100.9z M288.2,100.4
			l0-0.6l0.5-0.3l0.5,0.3l0,0.6l-0.3,0.2l-0.2,0.1L288.2,100.4z M288.9,100.9l0.5-0.3l0.5,0.3l0,0.6l-0.3,0.2l-0.2,0.1l-0.5-0.3
			L288.9,100.9z M289.5,100.4l0-0.6l0.5-0.3l0.5,0.3l0,0.6l-0.3,0.2l-0.2,0.1L289.5,100.4z M290.1,100.9l0.5-0.3l0.5,0.3l0,0.6
			l-0.3,0.2l-0.2,0.1l-0.5-0.3L290.1,100.9z M290.7,102l0.5-0.3l0.5,0.3l0,0.6l-0.3,0.1l-0.3,0.2l-0.5-0.3L290.7,102z M291.4,101.5
			l0-0.6l0.5-0.3l0.5,0.3l0,0.6l-0.3,0.1l-0.3,0.2L291.4,101.5z M292,100.4l0-0.6l0.5-0.3l0.5,0.3l0,0.6l-0.3,0.2l-0.2,0.1
			L292,100.4z M292.6,100.9l0.5-0.3l0.5,0.3l0,0.6l-0.3,0.2l-0.2,0.1l-0.5-0.3L292.6,100.9z M293.3,100.4l0-0.6l0.5-0.3l0.5,0.3
			l0,0.6l-0.3,0.2l-0.2,0.1L293.3,100.4z M293.9,100.9l0.5-0.3l0.5,0.3l0,0.6l-0.3,0.2l-0.2,0.1l-0.5-0.3L293.9,100.9z M294.5,100.4
			l0-0.6l0.5-0.3l0.5,0.3l0,0.6l-0.3,0.2l-0.2,0.1L294.5,100.4z M295.1,100.9l0.5-0.3l0.5,0.3l0,0.6l-0.3,0.1l-0.3,0.2l-0.5-0.3
			L295.1,100.9z M295.8,100.4l0-0.6l0.5-0.3l0.5,0.3l0,0.6l-0.3,0.1l-0.3,0.2L295.8,100.4z M296.4,100.9l0.5-0.3l0.5,0.3l0,0.6
			l-0.3,0.2l-0.2,0.1l-0.5-0.3L296.4,100.9z M297,100.4l0-0.6l0.5-0.3l0.5,0.3l0,0.6l-0.3,0.2l-0.2,0.1L297,100.4z M297.7,99.3
			l0-0.6l0.5-0.3l0.5,0.3l0,0.6l-0.3,0.2l-0.2,0.1L297.7,99.3z M298.3,99.8l0.5-0.3l0.5,0.3l0,0.6l-0.3,0.2l-0.2,0.1l-0.5-0.3
			L298.3,99.8z M298.9,99.3l0-0.6l0.5-0.3l0.5,0.3l0,0.6l-0.3,0.2l-0.2,0.1L298.9,99.3z M299.5,99.8l0.5-0.3l0.5,0.3l0,0.6l-0.3,0.1
			l-0.3,0.2l-0.5-0.3L299.5,99.8z M300.2,99.3l0-0.6l0.5-0.3l0.5,0.3l0,0.6l-0.3,0.1l-0.3,0.2L300.2,99.3z M300.8,98.2l0-0.6
			l0.5-0.3l0.5,0.3l0,0.6l-0.3,0.2l-0.2,0.1L300.8,98.2z M301.4,98.7l0.5-0.3l0.5,0.3l0,0.6l-0.3,0.2l-0.2,0.1l-0.5-0.3L301.4,98.7z
			 M302.1,98.2l0-0.6l0.5-0.3l0.5,0.3l0,0.6l-0.3,0.2l-0.2,0.1L302.1,98.2z M302.7,97.1l0-0.6l0.5-0.3l0.5,0.3l0,0.6l-0.3,0.2
			l-0.2,0.1L302.7,97.1z M303.3,97.6l0.5-0.3l0.5,0.3l0,0.6l-0.3,0.2l-0.2,0.1l-0.5-0.3L303.3,97.6z M303.9,97.1l0-0.6l0.5-0.3
			l0.5,0.3l0,0.6l-0.3,0.2l-0.2,0.1L303.9,97.1z M304.6,96.1l0-0.6l0.5-0.3l0.5,0.3l0,0.6l-0.3,0.2l-0.2,0.1L304.6,96.1z
			 M303.9,92.2l0.5-0.3l0.5,0.3l0,0.6l-0.3,0.1l-0.3,0.2l-0.5-0.3L303.9,92.2z M303.8,93l0.5,0.3l0,0.6l-0.3,0.2l-0.2,0.1l-0.5-0.3
			l0-0.6L303.8,93z M302.7,92.2l0.5-0.3l0.5,0.3l0,0.6l-0.3,0.2l-0.2,0.1l-0.5-0.3L302.7,92.2z M302.6,93l0.5,0.3l0,0.6l-0.3,0.2
			l-0.2,0.1l-0.5-0.3l0-0.6L302.6,93z M301.4,92.2l0.5-0.3l0.5,0.3l0,0.6l-0.3,0.2l-0.2,0.1l-0.5-0.3L301.4,92.2z M301.3,93l0.5,0.3
			l0,0.6l-0.3,0.2l-0.2,0.1l-0.5-0.3l0-0.6L301.3,93z M300.2,92.2l0.5-0.3l0.5,0.3l0,0.6L301,93l-0.3,0.2l-0.5-0.3L300.2,92.2z
			 M300.1,93l0.5,0.3l0,0.6l-0.3,0.1l-0.3,0.2l-0.5-0.3l0-0.6L300.1,93z M298.9,92.2l0.5-0.3l0.5,0.3l0,0.6l-0.3,0.2l-0.2,0.1
			l-0.5-0.3L298.9,92.2z M298.8,93l0.5,0.3l0,0.6l-0.3,0.2l-0.2,0.1l-0.5-0.3l0-0.6L298.8,93z M297.6,92.2l0.5-0.3l0.5,0.3l0,0.6
			l-0.3,0.2l-0.2,0.1l-0.5-0.3L297.6,92.2z M297.6,93l0.5,0.3l0,0.6l-0.3,0.2l-0.2,0.1l-0.5-0.3l0-0.6L297.6,93z M296.4,92.2
			l0.5-0.3l0.5,0.3l0,0.6l-0.3,0.1l-0.3,0.2l-0.5-0.3L296.4,92.2z M296.3,93l0.5,0.3l0,0.6l-0.3,0.1l-0.3,0.2l-0.5-0.3l0-0.6
			L296.3,93z M295.1,92.2l0.5-0.3l0.5,0.3l0,0.6l-0.3,0.2l-0.2,0.1l-0.5-0.3L295.1,92.2z M295,93l0.5,0.3l0,0.6l-0.3,0.2l-0.2,0.1
			l-0.5-0.3l0-0.6L295,93z M293.9,92.2l0.5-0.3l0.5,0.3l0,0.6l-0.3,0.2l-0.2,0.1l-0.5-0.3L293.9,92.2z M293.8,93l0.5,0.3l0,0.6
			l-0.3,0.2l-0.2,0.1l-0.5-0.3l0-0.6L293.8,93z M292.6,92.2l0.5-0.3l0.5,0.3l0,0.6l-0.3,0.2l-0.2,0.1l-0.5-0.3L292.6,92.2z
			 M292.5,93l0.5,0.3l0,0.6l-0.3,0.1l-0.3,0.2l-0.5-0.3l0-0.6L292.5,93z M291.4,92.2l0.5-0.3l0.5,0.3l0,0.6l-0.3,0.2l-0.2,0.1
			l-0.5-0.3L291.4,92.2z M291.3,93l0.5,0.3l0,0.6l-0.3,0.2l-0.2,0.1l-0.5-0.3l0-0.6L291.3,93z M290.1,92.2l0.5-0.3l0.5,0.3l0,0.6
			l-0.3,0.2l-0.2,0.1l-0.5-0.3L290.1,92.2z M290,93l0.5,0.3l0,0.6l-0.3,0.2l-0.2,0.1l-0.5-0.3l0-0.6L290,93z M288.8,92.2l0.5-0.3
			l0.5,0.3l0,0.6l-0.3,0.2l-0.2,0.1l-0.5-0.3L288.8,92.2z M288.7,93l0.5,0.3l0,0.6l-0.3,0.1l-0.3,0.2l-0.5-0.3l0-0.6L288.7,93z
			 M287.6,92.2l0.5-0.3l0.5,0.3l0,0.6l-0.3,0.2l-0.2,0.1l-0.5-0.3L287.6,92.2z M287.5,93l0.5,0.3l0,0.6l-0.3,0.2l-0.2,0.1l-0.5-0.3
			l0-0.6L287.5,93z M286.3,92.2l0.5-0.3l0.5,0.3l0,0.6L287,93l-0.2,0.1l-0.5-0.3L286.3,92.2z M286.2,93l0.5,0.3l0,0.6l-0.3,0.2
			l-0.2,0.1l-0.5-0.3l0-0.6L286.2,93z M285.1,92.2l0.5-0.3l0.5,0.3l0,0.6l-0.3,0.1l-0.3,0.2l-0.5-0.3L285.1,92.2z M285,93l0.5,0.3
			l0,0.6l-0.3,0.2l-0.2,0.1l-0.5-0.3l0-0.6L285,93z M283.8,92.2l0.5-0.3l0.5,0.3l0,0.6l-0.3,0.2l-0.2,0.1l-0.5-0.3L283.8,92.2z
			 M283.7,93l0.5,0.3l0,0.6l-0.3,0.2l-0.2,0.1l-0.5-0.3l0-0.6L283.7,93z M282.5,92.2l0.5-0.3l0.5,0.3l0,0.6l-0.3,0.2l-0.2,0.1
			l-0.5-0.3L282.5,92.2z M282.5,93l0.5,0.3l0,0.6l-0.3,0.2l-0.2,0.1l-0.5-0.3l0-0.6L282.5,93z M281.3,92.2l0.5-0.3l0.5,0.3l0,0.6
			l-0.3,0.1l-0.3,0.2l-0.5-0.3L281.3,92.2z M281.2,93l0.5,0.3l0,0.6l-0.3,0.2l-0.2,0.1l-0.5-0.3l0-0.6L281.2,93z M280,92.2l0.5-0.3
			l0.5,0.3l0,0.6l-0.3,0.2l-0.2,0.1l-0.5-0.3L280,92.2z M279.9,93l0.5,0.3l0,0.6l-0.3,0.2l-0.2,0.1l-0.5-0.3l0-0.6L279.9,93z
			 M278.8,92.2l0.5-0.3l0.5,0.3l0,0.6l-0.3,0.2l-0.2,0.1l-0.5-0.3L278.8,92.2z M278.7,93l0.5,0.3l0,0.6l-0.3,0.2l-0.2,0.1l-0.5-0.3
			l0-0.6L278.7,93z M277.5,92.2l0.5-0.3l0.5,0.3l0,0.6l-0.3,0.1l-0.3,0.2l-0.5-0.3L277.5,92.2z M277.4,93l0.5,0.3l0,0.6l-0.3,0.1
			l-0.3,0.2l-0.5-0.3l0-0.6L277.4,93z M276.3,92.2l0.5-0.3l0.5,0.3l0,0.6L277,93l-0.2,0.1l-0.5-0.3L276.3,92.2z M276.2,93l0.5,0.3
			l0,0.6l-0.3,0.2l-0.2,0.1l-0.5-0.3l0-0.6L276.2,93z M275,92.3l0.5-0.3l0.5,0.3l0,0.6l-0.3,0.2l-0.2,0.1l-0.5-0.3L275,92.3z
			 M274.9,93l0.5,0.3l0,0.6l-0.3,0.2l-0.2,0.1l-0.5-0.3l0-0.6L274.9,93z M273.7,92.3l0.5-0.3l0.5,0.3l0,0.6l-0.3,0.1l-0.3,0.2
			l-0.5-0.3L273.7,92.3z M273.6,93l0.5,0.3l0,0.6l-0.3,0.1l-0.3,0.2l-0.5-0.3l0-0.6L273.6,93z M272.5,92.3L273,92l0.5,0.3l0,0.6
			l-0.3,0.2l-0.2,0.1l-0.5-0.3L272.5,92.3z M272.4,93l0.5,0.3l0,0.6l-0.3,0.2l-0.2,0.1l-0.5-0.3l0-0.6L272.4,93z M271.2,92.3
			l0.5-0.3l0.5,0.3l0,0.6l-0.3,0.2l-0.2,0.1l-0.5-0.3L271.2,92.3z M271.1,93l0.5,0.3l0,0.6l-0.3,0.2l-0.2,0.1l-0.5-0.3l0-0.6
			L271.1,93z M270,92.3l0.5-0.3l0.5,0.3l0,0.6l-0.3,0.2l-0.2,0.1l-0.5-0.3L270,92.3z M269.9,93l0.5,0.3l0,0.6l-0.3,0.1l-0.3,0.2
			l-0.5-0.3l0-0.6L269.9,93z M268.7,92.3l0.5-0.3l0.5,0.3l0,0.6l-0.3,0.2l-0.2,0.1l-0.5-0.3L268.7,92.3z M268.6,93l0.5,0.3l0,0.6
			l-0.3,0.2l-0.2,0.1l-0.5-0.3l0-0.6L268.6,93z M267.4,92.3L268,92l0.5,0.3l0,0.6l-0.3,0.2l-0.2,0.1l-0.5-0.3L267.4,92.3z M267.3,93
			l0.5,0.3l0,0.6l-0.3,0.2l-0.2,0.1l-0.5-0.3l0-0.6L267.3,93z M266.2,92.3l0.5-0.3l0.5,0.3l0,0.6l-0.3,0.2l-0.2,0.1l-0.5-0.3
			L266.2,92.3z M266.1,93l0.5,0.3l0,0.6l-0.3,0.1l-0.3,0.2l-0.5-0.3l0-0.6L266.1,93z M264.9,92.3l0.5-0.3l0.5,0.3l0,0.6l-0.3,0.2
			l-0.2,0.1l-0.5-0.3L264.9,92.3z M264.8,93l0.5,0.3l0,0.6l-0.3,0.2l-0.2,0.1l-0.5-0.3l0-0.6L264.8,93z M263.7,92.3l0.5-0.3l0.5,0.3
			l0,0.6l-0.3,0.2l-0.2,0.1l-0.5-0.3L263.7,92.3z M263.6,93.1l0.5,0.3l0,0.6l-0.3,0.2l-0.2,0.1L263,94l0-0.6L263.6,93.1z
			 M262.4,92.3l0.5-0.3l0.5,0.3l0,0.6l-0.3,0.1l-0.3,0.2l-0.5-0.3L262.4,92.3z M262.3,93.1l0.5,0.3l0,0.6l-0.3,0.2l-0.2,0.1
			l-0.5-0.3l0-0.6L262.3,93.1z M261.2,92.3l0.5-0.3l0.5,0.3l0,0.6l-0.3,0.2l-0.2,0.1l-0.5-0.3L261.2,92.3z M261.1,93.1l0.5,0.3
			l0,0.6l-0.3,0.2l-0.2,0.1l-0.5-0.3l0-0.6L261.1,93.1z M259.9,92.3l0.5-0.3l0.5,0.3l0,0.6l-0.3,0.2l-0.2,0.1l-0.5-0.3L259.9,92.3z
			 M259.8,93.1l0.5,0.3l0,0.6l-0.3,0.2l-0.2,0.1l-0.5-0.3l0-0.6L259.8,93.1z M258.6,92.3l0.5-0.3l0.5,0.3l0,0.6l-0.3,0.1l-0.3,0.2
			l-0.5-0.3L258.6,92.3z M258.5,93.1l0.5,0.3l0,0.6l-0.3,0.1l-0.3,0.2L258,94l0-0.6L258.5,93.1z M257.4,92.3l0.5-0.3l0.5,0.3l0,0.6
			l-0.3,0.2l-0.2,0.1l-0.5-0.3L257.4,92.3z M257.3,93.1l0.5,0.3l0,0.6l-0.3,0.2l-0.2,0.1l-0.5-0.3l0-0.6L257.3,93.1z M256.1,92.3
			l0.5-0.3l0.5,0.3l0,0.6l-0.3,0.2l-0.2,0.1l-0.5-0.3L256.1,92.3z M256,93.1l0.5,0.3l0,0.6l-0.3,0.2l-0.2,0.1l-0.5-0.3l0-0.6
			L256,93.1z M254.9,92.3l0.5-0.3l0.5,0.3l0,0.6l-0.3,0.1l-0.3,0.2l-0.5-0.3L254.9,92.3z M254.8,93.1l0.5,0.3l0,0.6l-0.3,0.1
			l-0.3,0.2l-0.5-0.3l0-0.6L254.8,93.1z M253.6,92.3l0.5-0.3l0.5,0.3l0,0.6l-0.3,0.2l-0.2,0.1l-0.5-0.3L253.6,92.3z M253.5,93.1
			l0.5,0.3l0,0.6l-0.3,0.2l-0.2,0.1L253,94l0-0.6L253.5,93.1z M252.3,92.3l0.5-0.3l0.5,0.3l0,0.6l-0.3,0.2l-0.2,0.1l-0.5-0.3
			L252.3,92.3z M251.5,93.6l-0.2-0.3l0.2,0.1V93.6z M251.2,93l-0.1-0.3l0-0.4l0.5-0.3l0.5,0.3l0,0.6l-0.3,0.1l-0.3,0.2L251.2,93z
			 M252.2,94.3l-0.5-0.3l0-0.6l0.5-0.3l0.5,0.3l0,0.6l-0.3,0.2L252.2,94.3z M252.9,95.4l-0.5-0.3l0-0.6l0.5-0.3l0.5,0.3l0,0.6
			l-0.3,0.2L252.9,95.4z M253.5,96.5l-0.5-0.3l0-0.6l0.5-0.3l0.5,0.3l0,0.6l-0.3,0.1L253.5,96.5z M254.1,97.5l-0.5-0.3l0-0.6
			l0.5-0.3l0.5,0.3l0,0.6l-0.3,0.2L254.1,97.5z M254.8,98.6l-0.5-0.3l0-0.6l0.5-0.3l0.5,0.3l0,0.6l-0.3,0.2L254.8,98.6z M255.4,99.7
			l-0.5-0.3l0-0.6l0.5-0.3l0.5,0.3l0,0.6l-0.3,0.2L255.4,99.7z M256.6,100.5l-0.3,0.2l-0.2,0.1l-0.5-0.3l0-0.6l0.5-0.3l0.5,0.3
			L256.6,100.5z M256.7,99.7l-0.5-0.3l0-0.6l0.5-0.3l0.5,0.3l0,0.6l-0.3,0.2L256.7,99.7z M257.3,100.8l-0.5-0.3l0-0.6l0.5-0.3
			l0.5,0.3l0,0.6l-0.3,0.2L257.3,100.8z M257.4,101.6l0-0.6l0.5-0.3l0.5,0.3l0,0.6l-0.3,0.1l-0.3,0.2L257.4,101.6z M258.6,103
			l-0.5-0.3l0-0.6l0.5-0.3l0.5,0.3l0,0.6l-0.3,0.2L258.6,103z M259.7,103.5c-0.3-0.1-0.6-0.3-1-0.4l0.4-0.2l0.5,0.3L259.7,103.5z
			 M260.3,102.7l-0.3,0.2l-0.2,0.1l-0.5-0.3l0-0.6l0.5-0.3l0.5,0.3L260.3,102.7z M260.4,101.9l-0.5-0.3l0-0.6l0.5-0.3l0.5,0.3l0,0.6
			l-0.3,0.2L260.4,101.9z M261.6,102.6l-0.3,0.1l-0.3,0.2l-0.5-0.3l0-0.6l0.5-0.3l0.5,0.3L261.6,102.6z M261.7,101.9l-0.5-0.3l0-0.6
			l0.5-0.3l0.5,0.3l0,0.6l-0.3,0.2L261.7,101.9z M262.3,103l-0.5-0.3l0-0.6l0.5-0.3l0.5,0.3l0,0.6l-0.3,0.2L262.3,103z M263.5,103.7
			l-0.3,0.2L263,104l-0.5-0.3l0-0.6l0.5-0.3l0.5,0.3L263.5,103.7z M263.6,103l-0.5-0.3l0-0.6l0.5-0.3l0.5,0.3l0,0.6l-0.3,0.2
			L263.6,103z M264.8,103.7l-0.3,0.1l-0.3,0.2l-0.5-0.3l0-0.6l0.5-0.3l0.5,0.3L264.8,103.7z M264.8,102.9l-0.5-0.3l0-0.6l0.5-0.3
			l0.5,0.3l0,0.6l-0.3,0.1L264.8,102.9z M266,103.7l-0.3,0.2l-0.2,0.1l-0.5-0.3l0-0.6l0.5-0.3l0.5,0.3L266,103.7z M266.1,102.9
			l-0.5-0.3l0-0.6l0.5-0.3l0.5,0.3l0,0.6l-0.3,0.2L266.1,102.9z M267.3,103.7l-0.3,0.2l-0.2,0.1l-0.5-0.3l0-0.6l0.5-0.3l0.5,0.3
			L267.3,103.7z M267.4,102.9l-0.5-0.3l0-0.6l0.5-0.3l0.5,0.3l0,0.6l-0.3,0.2L267.4,102.9z M268.5,103.7l-0.3,0.2L268,104l-0.5-0.3
			l0-0.6l0.5-0.3l0.5,0.3L268.5,103.7z M268.6,102.9l-0.5-0.3l0-0.6l0.5-0.3l0.5,0.3l0,0.6l-0.3,0.1L268.6,102.9z M269.8,103.7
			l-0.3,0.2l-0.2,0.1l-0.5-0.3l0-0.6l0.5-0.3l0.5,0.3L269.8,103.7z M269.9,102.9l-0.5-0.3l0-0.6l0.5-0.3l0.5,0.3l0,0.6l-0.3,0.2
			L269.9,102.9z M271,103.7l-0.3,0.2l-0.2,0.1l-0.5-0.3l0-0.6l0.5-0.3l0.5,0.3L271,103.7z M271.1,102.9l-0.5-0.3l0-0.6l0.5-0.3
			l0.5,0.3l0,0.6l-0.3,0.2L271.1,102.9z M271.2,103.7l0-0.6l0.5-0.3l0.5,0.3l0,0.6l-0.3,0.2l-0.2,0.1L271.2,103.7z M272.9,104.5
			c-0.4,0-0.7,0-1.1,0l0-0.3l0.5-0.3l0.5,0.3L272.9,104.5z M273.6,103.7l-0.3,0.2L273,104l-0.5-0.3l0-0.6l0.5-0.3l0.5,0.3
			L273.6,103.7z M273.7,102.9l-0.5-0.3l0-0.6l0.5-0.3l0.5,0.3l0,0.6l-0.3,0.2L273.7,102.9z M274.8,103.7l-0.3,0.2l-0.2,0.1l-0.5-0.3
			l0-0.6l0.5-0.3l0.5,0.3L274.8,103.7z M274.9,102.9l-0.5-0.3l0-0.6l0.5-0.3l0.5,0.3l0,0.6l-0.3,0.2L274.9,102.9z M275,103.7l0-0.6
			l0.5-0.3l0.5,0.3l0,0.6l-0.3,0.1l-0.3,0.2L275,103.7z M276.7,104.6c-0.4,0-0.7,0-1.1,0l0-0.4l0.5-0.3l0.5,0.3L276.7,104.6z
			 M277.3,103.7l-0.3,0.2l-0.2,0.1l-0.5-0.3l0-0.6l0.5-0.3l0.5,0.3L277.3,103.7z M277.4,102.9l-0.5-0.3l0-0.6l0.5-0.3l0.5,0.3l0,0.6
			l-0.3,0.2L277.4,102.9z M278.6,103.7l-0.3,0.2l-0.2,0.1l-0.5-0.3l0-0.6l0.5-0.3l0.5,0.3L278.6,103.7z M278.7,102.9l-0.5-0.3l0-0.6
			l0.5-0.3l0.5,0.3l0,0.6l-0.3,0.2L278.7,102.9z M279.9,103.7l-0.3,0.1l-0.3,0.2l-0.5-0.3l0-0.6l0.5-0.3l0.5,0.3L279.9,103.7z
			 M279.9,102.9l-0.5-0.3l0-0.6l0.5-0.3l0.5,0.3l0,0.6l-0.3,0.2L279.9,102.9z M281.1,103.7l-0.3,0.2l-0.2,0.1l-0.5-0.3l0-0.6
			l0.5-0.3l0.5,0.3L281.1,103.7z M281.2,102.9l-0.5-0.3l0-0.6l0.5-0.3l0.5,0.3l0,0.6l-0.3,0.2L281.2,102.9z M282.4,103.7l-0.3,0.2
			l-0.2,0.1l-0.5-0.3l0-0.6l0.5-0.3l0.5,0.3L282.4,103.7z M282.5,102.9l-0.5-0.3l0-0.6l0.5-0.3l0.5,0.3l0,0.6l-0.3,0.2L282.5,102.9z
			 M283.6,103.7l-0.3,0.1l-0.3,0.2l-0.5-0.3l0-0.6l0.5-0.3l0.5,0.3L283.6,103.7z M283.7,102.9l-0.5-0.3l0-0.6l0.5-0.3l0.5,0.3l0,0.6
			l-0.3,0.1L283.7,102.9z M284.9,103.7l-0.3,0.2l-0.2,0.1l-0.5-0.3l0-0.6l0.5-0.3l0.5,0.3L284.9,103.7z M285,102.9l-0.5-0.3l0-0.6
			l0.5-0.3l0.5,0.3l0,0.6l-0.3,0.2L285,102.9z M286.1,103.7l-0.3,0.2l-0.2,0.1l-0.5-0.3l0-0.6l0.5-0.3l0.5,0.3L286.1,103.7z
			 M286.2,102.9l-0.5-0.3l0-0.6l0.5-0.3l0.5,0.3l0,0.6l-0.3,0.2L286.2,102.9z M287.4,103.7l-0.3,0.1l-0.3,0.2l-0.5-0.3l0-0.6
			l0.5-0.3l0.5,0.3L287.4,103.7z M287.5,102.9l-0.5-0.3l0-0.6l0.5-0.3l0.5,0.3l0,0.6l-0.3,0.1L287.5,102.9z M288.7,103.7l-0.3,0.2
			l-0.2,0.1l-0.5-0.3l0-0.6l0.5-0.3l0.5,0.3L288.7,103.7z M288.8,102.9l-0.5-0.3l0-0.6l0.5-0.3l0.5,0.3l0,0.6l-0.3,0.2L288.8,102.9z
			 M289.9,103.7l-0.3,0.2l-0.2,0.1l-0.5-0.3l0-0.6l0.5-0.3l0.5,0.3L289.9,103.7z M290,102.9l-0.5-0.3l0-0.6l0.5-0.3l0.5,0.3l0,0.6
			l-0.3,0.2L290,102.9z M290.1,103.7l0-0.6l0.5-0.3l0.5,0.3l0,0.6l-0.3,0.2l-0.2,0.1L290.1,103.7z M291.8,104.4c-0.4,0-0.7,0-1.1,0
			l0-0.3l0.5-0.3l0.5,0.3L291.8,104.4z M292.4,103.7l-0.3,0.2l-0.2,0.1l-0.5-0.3l0-0.6l0.5-0.3l0.5,0.3L292.4,103.7z M292.5,102.9
			l-0.5-0.3l0-0.6l0.5-0.3l0.5,0.3l0,0.6l-0.3,0.2L292.5,102.9z M293.7,103.7l-0.3,0.2l-0.2,0.1l-0.5-0.3l0-0.6l0.5-0.3l0.5,0.3
			L293.7,103.7z M293.8,102.9l-0.5-0.3l0-0.6l0.5-0.3l0.5,0.3l0,0.6l-0.3,0.2L293.8,102.9z M295,103.7l-0.3,0.2l-0.2,0.1l-0.5-0.3
			l0-0.6l0.5-0.3l0.5,0.3L295,103.7z M295.1,102.9l-0.5-0.3l0-0.6l0.5-0.3l0.5,0.3l0,0.6l-0.3,0.2L295.1,102.9z M296.2,103.7
			l-0.3,0.2l-0.2,0.1l-0.5-0.3l0-0.6l0.5-0.3l0.5,0.3L296.2,103.7z M296.3,102.9l-0.5-0.3l0-0.6l0.5-0.3l0.5,0.3l0,0.6l-0.3,0.2
			L296.3,102.9z M297.5,103.7l-0.3,0.2l-0.2,0.1l-0.5-0.3l0-0.6l0.5-0.3l0.5,0.3L297.5,103.7z M298.1,102.6l-0.3,0.2l-0.2,0.1
			l-0.5-0.3l0-0.6l0.5-0.3l0.5,0.3L298.1,102.6z M298.2,101.8l-0.5-0.3l0-0.6l0.5-0.3l0.5,0.3l0,0.6l-0.3,0.2L298.2,101.8z
			 M299.4,102.6l-0.3,0.2l-0.2,0.1l-0.5-0.3l0-0.6l0.5-0.3l0.5,0.3L299.4,102.6z M299.5,101.8l-0.5-0.3l0-0.6l0.5-0.3l0.5,0.3l0,0.6
			l-0.3,0.1L299.5,101.8z M300.6,102.6l-0.3,0.2l-0.2,0.1l-0.5-0.3l0-0.6l0.5-0.3l0.5,0.3L300.6,102.6z M301.2,101.5l-0.3,0.2
			l-0.2,0.1l-0.5-0.3l0-0.6l0.5-0.3l0.5,0.3L301.2,101.5z M301.3,100.7l-0.5-0.3l0-0.6l0.5-0.3l0.5,0.3l0,0.6l-0.3,0.2L301.3,100.7z
			 M302.5,101.5l-0.3,0.2l-0.2,0.1l-0.5-0.3l0-0.6l0.5-0.3l0.5,0.3L302.5,101.5z M303.1,100.4l-0.3,0.2l-0.2,0.1l-0.5-0.3l0-0.6
			l0.5-0.3l0.5,0.3L303.1,100.4z M303.2,99.6l-0.5-0.3l0-0.6l0.5-0.3l0.5,0.3l0,0.6l-0.3,0.2L303.2,99.6z M304.4,100.3
			c0,0-0.1,0.1-0.1,0.1l-0.1,0.1l-0.3,0.2l-0.5-0.3l0-0.6l0.5-0.3l0.5,0.3L304.4,100.3z M305,99.3l-0.3,0.1l-0.3,0.2l-0.5-0.3l0-0.6
			l0.5-0.3l0.5,0.3L305,99.3z M304.6,98.2l0-0.6l0.5-0.3l0.5,0.3l0,0.6l-0.3,0.1l-0.3,0.2L304.6,98.2z M305.2,99.3l0-0.6l0.5-0.3
			l0,0C305.6,98.7,305.4,99,305.2,99.3z M306.3,96.5l0,0.6l-0.3,0.2l-0.2,0.1l-0.5-0.3l0-0.6l0.5-0.3L306.3,96.5z M306.3,95
			l-0.3,0.2l-0.2,0.1l-0.5-0.3l0-0.6l0.5-0.3l0.5,0.3L306.3,95z M306.9,93.9l-0.3,0.2l-0.2,0.1l-0.5-0.3l0-0.6l0.5-0.3l0.5,0.3
			L306.9,93.9z M307.5,92.8l-0.3,0.2l-0.2,0.1l-0.5-0.3l0-0.6l0.5-0.3l0.5,0.3L307.5,92.8z"/>
	</g>
</g>
<g id="Слой_15">
	<g>
		<path class="st7" d="M356.8,96.2c-1,0-2-0.4-2.6-1.2l-0.4-0.4c-0.9,1.8-2.7,3.2-4.8,3.3l-32.2,2.9c-0.1,0-0.2,0-0.3,0
			c-1.5,0-2.1-1.1-1.3-2.6l5.4-9.7l-4.6,0.9c-1.5,0.3-2.9,0.5-4.4,0.6l-3.7,8.1c-2,4.4-6.3,7.3-11.2,7.6c-6,0.3-11.2,0.4-16.3,0.4
			c-5.2,0-10.6-0.1-17-0.4c-4.9-0.2-9.2-3.1-11.2-7.6l-3.7-8l0,0l0,0c-1.4-0.1-2.9-0.3-4.4-0.6l-4.7-0.9l5.4,9.7
			c0.8,1.5,0.2,2.6-1.3,2.6c-0.1,0-0.2,0-0.3,0l-32.2-2.9c-2.2-0.2-4-1.5-4.9-3.4l0,0.1l-0.4,0.4c-0.7,0.7-1.6,1.2-2.6,1.2
			c-0.1,0-0.2,0-0.3,0l-6.3-0.5c0.8,9.9,2.7,20.7,4.6,31.7c1.1,6.6,6.9,11.5,13.6,11.5h130.6c6.7,0,12.5-4.8,13.6-11.5
			c1.8-10.9,3.8-21.8,4.6-31.6l-6.3,0.5C357,96.2,356.9,96.2,356.8,96.2z"/>
		<g id="Air_int._2_">
			<g>
				<path d="M234.6,129.6h-16.2c-0.8,0-1.5-0.5-1.8-1.2l-0.7-1.6c-0.3-0.7,0.2-1.6,1-1.6H233c0.8,0,1.5,0.5,1.8,1.2l0.7,1.6
					C235.9,128.8,235.4,129.6,234.6,129.6z"/>
				<path d="M325.2,129.6h16.2c0.8,0,1.5-0.5,1.8-1.2l0.7-1.6c0.3-0.7-0.2-1.6-1-1.6h-16.2c-0.8,0-1.5,0.5-1.8,1.2l-0.7,1.6
					C323.9,128.8,324.4,129.6,325.2,129.6z"/>
			</g>
			<g>
				<path d="M317.5,118.3c-0.2,0.6-0.2,1.2-1.1,2.6h-72.6c-0.8-1.4-0.9-2-1-2.5c1.5,0.2,4.6,0.3,11,0.4c6.9,0.1,16.2,0.2,26.2,0.2
					c10,0,19.3-0.1,26.2-0.2C313.3,118.7,316.3,118.6,317.5,118.3z"/>
				<path d="M316.1,121.5c0,0-0.5,0.7-1,1.2c-0.4,0.4-0.8,0.9-1.3,1.3h-67.3c-0.9-0.8-1.6-1.5-2.3-2.4c1.6,0.1,4.6,0.3,10.2,0.4
					c6.7,0.1,15.8,0.2,25.5,0.2c9.7,0,18.8-0.1,25.5-0.2C311.7,121.8,314.7,121.6,316.1,121.5z"/>
				<path d="M312.8,124.7c-1.8,1.2-4,1.9-6.3,1.9c-58.2,0-55.1,0.6-58.9-1.8c1.7,0.1,4.3,0.2,8.2,0.3c6.4,0.1,14.9,0.2,24.1,0.2
					C286.4,125.2,306.3,125.1,312.8,124.7z"/>
				<path d="M318.1,115.9l-0.5,1.9h-75l-0.5-2C286.5,114.4,317.6,115.8,318.1,115.9z"/>
			</g>
			<path d="M313.2,135.2C313.2,135.2,313.2,135.2,313.2,135.2L313.2,135.2l-0.3-0.2l0,0l-5.1-2.6c-0.1,0-0.2-0.1-0.3-0.1v0h-0.1
				c-0.2-0.1-0.5-0.1-0.7-0.1h-53.6c-0.4,0-0.8,0.1-1.1,0.3L247,135l0,0l-0.3,0.1c-0.2,0.1-0.3,0.2-0.2,0.2c0,0.1,0.1,0.1,0.3,0.1
				l4.8,0.3c0.5,0,1,0,1.4,0c0.6,0,1.1,0.1,1.7,0.1h50.6c0.6,0,1.1,0,1.7-0.1c0.5,0,1,0,1.5,0l4.8-0.3c0.2,0,0.3-0.1,0.3-0.1
				C313.5,135.3,313.4,135.3,313.2,135.2z"/>
		</g>
	</g>
</g>
<g id="Слой_12">
	<g>
		<path class="st9" d="M320.7,88.3l-5.6,10c-0.9,1.6-0.1,2.7,1.6,2.5l32.2-2.9c2.7-0.2,4.9-2.2,5.4-4.9c0.5-2.9,0.9-5.5,1.1-8.5
			c0.2-2.1-1.4-3.6-3.5-3.2C340.1,83.3,332.2,85.2,320.7,88.3z"/>
		<path class="st10" d="M352.5,83.2c-0.5,0-12.2,1.9-30.5,6.8l-5,8.9l31.8-2.9c1.8-0.2,3.3-1.5,3.6-3.3c0.5-2.8,0.9-5.4,1.1-8.3
			C353.5,83.7,353.2,83.2,352.5,83.2z M352.5,81.2c1.8,0,3,1.4,2.9,3.3c-0.2,3-0.6,5.7-1.1,8.5c-0.5,2.6-2.7,4.6-5.4,4.9l-32.2,2.9
			c-1.8,0.2-2.5-1-1.6-2.5l5.6-10c12.2-3.3,22-5.4,27.4-6.3C350.6,81.5,352.1,81.2,352.5,81.2z"/>
	</g>
</g>
<g id="Слой_13">
	<g>
		<path class="st9" d="M239.1,88.3l5.6,10c0.9,1.6,0.1,2.7-1.6,2.5l-32.2-2.9c-2.7-0.2-4.9-2.2-5.4-4.9c-0.5-2.9-0.9-5.5-1.1-8.5
			c-0.2-2.1,1.4-3.6,3.5-3.2C219.7,83.3,227.5,85.2,239.1,88.3z"/>
		<path class="st10" d="M207.3,83.2c0.5,0,12.2,1.9,30.5,6.8l5,8.9L211,96c-1.8-0.2-3.3-1.5-3.6-3.3c-0.5-2.8-0.9-5.4-1.1-8.3
			C206.3,83.7,206.6,83.2,207.3,83.2z M207.3,81.3c-1.8,0-3,1.4-2.9,3.3c0.2,3,0.6,5.7,1.1,8.5c0.5,2.6,2.7,4.6,5.4,4.9l32.2,2.9
			c1.8,0.2,2.5-1,1.6-2.5l-5.6-10c-12.2-3.3-22-5.4-27.4-6.3C209.2,81.5,207.6,81.3,207.3,81.3z"/>
	</g>
</g>
<g id="Слой_10">
	<path class="st7" d="M205.4,94.9l0.5-0.5c-0.2-0.4-0.3-0.8-0.4-1.3c-0.5-2.9-0.9-5.5-1.1-8.5c-0.1-1.9,1.1-3.3,2.9-3.3
		c0.2,0,0.4,0,0.6,0.1c11.6,2,19.4,3.8,30.9,6.9c-0.4-0.9-1-2.1-1.7-3.1c-1.6-2.4-3.5-4.6-5.6-6.5c-0.6-0.6-1.3-1.1-1.9-1.7
		c-4.8-4.2-9.8-8.6-16.7-13.3l0,0c0,0,0,0-0.1,0c-0.4-0.2-0.6-0.5-0.8-0.8c0-0.1-0.1-0.1-0.1-0.2c-0.1-0.1-0.1-0.2-0.1-0.3
		c0,0,0-0.1,0-0.2c0-0.2-0.1-0.4-0.1-0.7c0-0.1,0-0.2,0-0.3c0-0.1,0-0.2,0-0.4c0-0.2,0.1-0.4,0.2-0.6c-1.9-0.2-3.2,0-5.1,0.7
		c-0.1,0.2-0.2,0.4-0.2,0.6l-2.6,5.4l-1.2,2.5l0,0l-1.5,3.2c-2.7,5.7-5.5,10.5-5.4,16.7c0,2,0.2,4,0.3,6l6.3,0.5
		C203.7,96,204.8,95.6,205.4,94.9z"/>
</g>
<g id="Слой_11">
	<path class="st7" d="M353.8,63.1L353.8,63.1l-0.7-1.5c-0.1-0.2-0.2-0.4-0.2-0.6c-1.9-0.7-3.1-0.9-5.1-0.7c0.1,0.2,0.1,0.5,0.2,0.7
		c0,0.1,0,0.2,0,0.3c0,0.1,0,0.3,0,0.4c0,0.1,0,0.2,0,0.3c0,0.1,0,0.2-0.1,0.3c0,0.2-0.1,0.3-0.2,0.5c0,0.1-0.1,0.2-0.1,0.2
		c-0.1,0.1-0.1,0.2-0.2,0.3c0,0-0.1,0.1-0.1,0.1c-0.1,0.1-0.2,0.2-0.3,0.2c0,0-0.1,0-0.1,0.1c-0.1,0.1-0.2,0.2-0.4,0.2
		c-6.7,4.6-11.5,8.8-16,12.8c-0.7,0.7-1.5,1.3-2.2,2c-2.1,1.9-4,4-5.6,6.5c-0.6,1-1.2,2.2-1.7,3.1c11.4-3.1,19.2-4.9,30.9-6.9
		c0.2,0,0.4-0.1,0.6-0.1c1.8,0,3,1.4,2.9,3.3c-0.2,3-0.6,5.7-1.1,8.5c-0.1,0.5-0.3,0.9-0.5,1.4l0-0.1l0.5,0.5
		c0.7,0.8,1.7,1.2,2.7,1.1l6.3-0.5c0.2-2,0.3-4.1,0.3-6c0.1-6.3-2.7-11.1-5.4-16.7l-1.5-3.2l0,0L353.8,63.1z"/>
</g>
<g id="Слой_8">
	<path class="st7" d="M206,63.1l-5.2-0.9l-0.2-2.9c-0.2-2.2-2-4-4.2-4h-8.7c-2.5,0-4.5,2-4.6,4.4l-0.1,1.3c-0.1,2.6,1.7,5,4.3,5.5
		l15.7,2.7l1.2-2.5L206,63.1z"/>
</g>
<g id="Слой_9">
	<path class="st7" d="M376.7,59.8c-0.1-2.5-2.2-4.4-4.6-4.4h-8.7c-2.2,0-4.1,1.7-4.2,4l-0.2,2.9l-5.2,0.9l3,6.4l15.7-2.7
		c2.6-0.6,4.4-2.9,4.3-5.5L376.7,59.8z"/>
</g>
<g id="Слой_7">
	<path class="st7" d="M345.2,64.2c-0.1,0-0.1,0-0.2,0c-1.6-0.1-3.2-0.1-4.8-0.2c-0.5,0-1,0-1.4-0.1c-1.1,0-2.3-0.1-3.4-0.1
		c-0.5,0-1.1,0-1.6-0.1c-1,0-2-0.1-3-0.1c-0.6,0-1.2,0-1.8-0.1c-0.9,0-1.8-0.1-2.8-0.1c-0.6,0-1.2,0-1.8-0.1c-0.9,0-1.8-0.1-2.7-0.1
		c-0.6,0-1.2,0-1.7-0.1c-0.9,0-1.8-0.1-2.6-0.1c-0.6,0-1.2,0-1.7-0.1c-0.9,0-1.8-0.1-2.7-0.1c-0.5,0-1.1,0-1.6,0
		c-1,0-1.9-0.1-2.9-0.1c-0.4,0-0.9,0-1.3,0c-1.2,0-2.4-0.1-3.6-0.1c-0.2,0-0.3,0-0.5,0c-1.4,0-2.8-0.1-4.2-0.1c-0.2,0-0.4,0-0.6,0
		c-1.1,0-2.3,0-3.4-0.1c-0.4,0-0.9,0-1.3,0c-0.9,0-1.8,0-2.7,0c-0.5,0-1,0-1.5,0c-0.8,0-1.7,0-2.5,0c-0.5,0-1.1,0-1.6,0
		c-0.8,0-1.6,0-2.4,0c-0.5,0-1.1,0-1.6,0c-0.8,0-1.6,0-2.4,0c-0.5,0-1.1,0-1.6,0c-0.8,0-1.6,0-2.4,0c-0.6,0-1.1,0-1.7,0
		c-0.5,0-1,0-1.5,0c-0.7,0-1.4,0-2.1,0c-0.5,0-1,0-1.5,0c-0.7,0-1.4,0-2.1,0c-0.5,0-1,0-1.5,0c-0.7,0-1.5,0-2.2,0c-0.5,0-1,0-1.5,0
		c-0.8,0-1.6,0-2.4,0c-0.4,0-0.9,0-1.3,0c-1,0-1.9,0-2.9,0.1c-0.3,0-0.6,0-0.8,0c-1.3,0-2.5,0.1-3.8,0.1c-0.2,0-0.4,0-0.6,0
		c-1.1,0-2.1,0.1-3.2,0.1c-0.4,0-0.9,0-1.3,0c-0.8,0-1.7,0.1-2.6,0.1c-0.5,0-1,0-1.6,0.1c-0.8,0-1.6,0.1-2.4,0.1
		c-0.5,0-1.1,0-1.6,0.1c-0.8,0-1.6,0.1-2.4,0.1c-0.6,0-1.1,0-1.7,0.1c-0.8,0-1.7,0.1-2.5,0.1c-0.5,0-1.1,0-1.7,0.1
		c-0.9,0-1.8,0.1-2.6,0.1c-0.5,0-1.1,0.1-1.6,0.1c-1,0-1.9,0.1-2.9,0.1c-0.5,0-0.9,0-1.4,0.1c-1.4,0.1-2.9,0.2-4.4,0.2
		c-0.1,0-0.2,0-0.3,0c-0.1,0-0.2,0-0.3,0c-0.1,0-0.3,0-0.4,0c0,0-0.1,0-0.1,0c6.5,4.5,11.3,8.7,16,12.8c0.7,0.6,1.3,1.1,1.9,1.7
		c2.1,1.9,4,4.1,5.6,6.5c0.7,1.1,1.3,2.3,1.8,3.3l4.8,1c1.4,0.3,2.8,0.5,4.2,0.5c-0.4-0.9-0.4-1.7,0.1-2.4c0.4-0.7,1.2-1.1,2.3-1.2
		c20.6-0.8,35.3-1,58.7,0c1,0,1.8,0.5,2.3,1.2c0.4,0.7,0.4,1.5,0.1,2.4c1.4-0.1,2.8-0.3,4.2-0.5l4.8-1c0.4-0.9,1.1-2.2,1.8-3.3
		c1.6-2.4,3.5-4.6,5.6-6.5c0.7-0.7,1.5-1.3,2.2-2c4.5-3.9,9.1-8,15.5-12.4c-0.1,0-0.2,0-0.3,0C345.4,64.2,345.3,64.2,345.2,64.2z"/>
</g>
<g id="Слой_5">
	<path class="st7" d="M212.1,60.1c4.2-10.9,7.8-17.7,12.2-24.6c0.1-0.1,0.1-0.2,0.2-0.3c0.6-1,1.2-1.9,1.9-2.9
		c0.4-0.5,0.7-1.1,1.1-1.6c0,0,0,0,0,0c1.1-2.1,4-6.5,6.2-7.6c-0.4,0-0.7,0.1-1.1,0.1c-3.5,0.3-6.7,2.2-8.5,5.1
		c-7.5,11.9-12.9,22-17,32.4C209,60,210.1,59.9,212.1,60.1z"/>
</g>
<g id="Слой_6">
	<path class="st7" d="M332.4,30.7C332.4,30.7,332.4,30.7,332.4,30.7c0.4,0.5,0.7,1.1,1.1,1.6c0.2,0.3,0.4,0.6,0.6,1
		c0.1,0.2,0.3,0.4,0.4,0.6c4.8,7.4,8.7,14.5,13.2,26.2c2-0.2,3.1-0.1,5,0.6c-4.1-10.4-9.5-20.5-17-32.4c-1.9-3-5-4.9-8.5-5.1
		c-0.4,0-0.7-0.1-1.1-0.1C328.4,24.2,331.3,28.6,332.4,30.7z"/>
</g>
<g id="Слой_4">
	<path class="st7" d="M227.7,30.7C227.7,30.7,227.7,30.7,227.7,30.7c1.3-0.1,2.6-0.1,3.8-0.2c0.2,0,0.4,0,0.5,0
		c1.1-0.1,2.1-0.1,3.2-0.2c0.3,0,0.6,0,0.9,0c0.9,0,1.9-0.1,2.8-0.1c0.3,0,0.6,0,0.9,0c0.9,0,1.7-0.1,2.6-0.1c0.4,0,0.7,0,1.1-0.1
		c0.8,0,1.6-0.1,2.4-0.1c0.4,0,0.8,0,1.2-0.1c0.7,0,1.5-0.1,2.2-0.1c0.4,0,0.8,0,1.3-0.1c0.7,0,1.4-0.1,2.1-0.1c0.4,0,0.8,0,1.3,0
		c0.7,0,1.3-0.1,2-0.1c0.4,0,0.9,0,1.3,0c0.6,0,1.3,0,1.9-0.1c0.4,0,0.9,0,1.3,0c0.6,0,1.3,0,1.9-0.1c0.4,0,0.9,0,1.3,0
		c0.6,0,1.2,0,1.8,0c0.5,0,0.9,0,1.4,0c0.6,0,1.2,0,1.7,0c0.5,0,0.9,0,1.4,0c0.6,0,1.2,0,1.7,0c0.5,0,0.9,0,1.4,0c0.6,0,1.1,0,1.7,0
		c0.5,0,0.9,0,1.4,0c0.6,0,1.1,0,1.7,0c0.5,0,0.9,0,1.4,0c0.6,0,1.1,0,1.7,0c0.3,0,0.6,0,0.9,0c0.2,0,0.3,0,0.5,0c0.5,0,0.9,0,1.4,0
		c0.5,0,1,0,1.6,0c0.5,0,0.9,0,1.4,0c0.5,0,1,0,1.5,0c0.5,0,1,0,1.5,0c0.5,0,1,0,1.5,0c0.5,0,1,0,1.5,0c0.5,0,1,0,1.5,0
		c0.5,0,1,0,1.5,0c0.5,0,1,0,1.5,0c0.5,0,1,0,1.5,0c0.5,0,1,0,1.5,0c0.5,0,1.1,0,1.6,0c0.5,0,1,0,1.5,0c0.6,0,1.1,0,1.7,0.1
		c0.5,0,0.9,0,1.4,0.1c0.6,0,1.2,0,1.8,0.1c0.5,0,0.9,0,1.4,0.1c0.6,0,1.2,0.1,1.9,0.1c0.4,0,0.8,0,1.3,0.1c0.7,0,1.4,0.1,2,0.1
		c0.4,0,0.8,0,1.1,0.1c0.7,0,1.5,0.1,2.2,0.1c0.3,0,0.6,0,0.9,0c0.8,0,1.7,0.1,2.5,0.1c0,0,0.1,0,0.1,0c3.3,0.2,6.7,0.4,10.3,0.6
		c0.1,0,0.1,0,0.2,0c-1.1-2.2-4.5-7.2-6.6-7.6c-34.7-2.5-57-2.5-91.6,0c0.1,0,0.2,0,0.4,0C232.2,23.4,228.8,28.5,227.7,30.7z"/>
</g>
<g id="Слой_3">
	<path class="st11" d="M214.9,63.9c21.4-1.2,40.1-1.8,58.8-1.8c22.4,0,43.7,0.8,71.3,1.8c0.1,0,0.1,0,0.2,0c1,0,1.8-0.4,2.3-1
		c0.5-0.7,0.5-1.6,0.1-2.6c-5.2-13.4-9.4-20.7-15.3-29.4c-19.5-1.3-35-1.8-50.3-1.8c-17.4,0-34.3,0.7-54.4,1.8
		c-5.9,8.7-10.1,16-15.3,29.4c-0.4,1-0.3,1.9,0.1,2.6c0.4,0.6,1.2,1,2.2,1C214.7,63.9,214.8,63.9,214.9,63.9z"/>
</g>
</svg>
