<?xml version="1.0" encoding="utf-8"?>
<!-- Generator: Adobe Illustrator 23.0.1, SVG Export Plug-In . SVG Version: 6.00 Build 0)  -->
<svg version="1.1" xmlns="http://www.w3.org/2000/svg" xmlns:xlink="http://www.w3.org/1999/xlink" x="0px" y="0px"
	 viewBox="0 0 560 180" style="enable-background:new 0 0 560 180;" xml:space="preserve">
<style type="text/css">
	.st0{fill:#D7E2E2;}
	.st1{fill:#4D4D4D;}
	.st2{fill:#262626;}
	.st3{fill:#1A1A1A;}
	.st4{fill:#DEDEDB;}
	.st5{fill:#4D0000;}
	.st6{fill:#EE0000;}
	.st7{fill:#999999;}
	.st8{fill:url(#SVGID_1_);}
	.st9{fill:url(#SVGID_2_);}
	.st10{fill:url(#SVGID_3_);}
	.st11{fill:url(#SVGID_4_);}
	.st12{fill:url(#SVGID_5_);}
	.st13{fill:url(#SVGID_6_);}
	.st14{fill:url(#SVGID_7_);}
	.st15{fill:url(#SVGID_8_);}
	.st16{fill:url(#SVGID_9_);}
	.st17{fill:#171916;}
	.st18{fill:url(#SVGID_10_);}
	.st19{fill:url(#SVGID_11_);}
	.st20{fill:url(#SVGID_12_);}
	.st21{fill:url(#SVGID_13_);}
	.st22{fill:url(#SVGID_14_);}
	.st23{fill:url(#SVGID_15_);}
	.st24{fill:url(#SVGID_16_);}
	.st25{fill:url(#SVGID_17_);}
	.st26{display:none;}
	.st27{display:inline;fill:#264FA4;}
</style>
<g id="Слой_3">
	<polygon class="st0" points="354.7,33.6 327.3,28 289,26.7 281.4,75 375.5,66.7 375.5,45.6 	"/>
	<polygon class="st0" points="278.6,28.5 204.4,47.9 169.1,79.8 275.8,71.1 285.9,28.5 	"/>
	<polygon class="st0" points="224.4,31.7 146.5,63.2 170.6,67.5 239,32.2 	"/>
	<path d="M385.8,89.5L385.8,89.5c19.9,0,34.9,15.1,34.9,34.9v7.7l-69.9,3.8v-11.5C350.9,104.5,365.9,89.5,385.8,89.5z"/>
	<g id="Salon_1_">
		<path class="st1" d="M173.4,73.3c4.7-7.6,22.6-18.6,32.9-24.4C230.9,34.9,258.4,27,285.8,26c2.9-0.1,6-0.2,9-0.2
			c9,0,18.7,0.5,30.6,1.6l0.2,0c21.1,3.5,34.1,9.3,46.3,20.8c4.5,4.2,5.7,11,3,16.6l-0.7,1.4L170.6,77.8L173.4,73.3z M369,59
			c0.1-1.9-0.6-3.9-2-5.2c-11.1-10.4-23-15.7-42.5-18.9c-11.6-1-21-1.5-29.8-1.5c-2.9,0-5.8,0.1-8.7,0.2
			c-13.2,0.5-26.5,2.6-39.4,6.4c-12.8,3.7-25.2,9-37,15.6c-8.7,4.9-16.2,9.7-21.6,13.8L369,59z"/>
		<g>
			<path class="st2" d="M217.6,72.3l-7.2-17c-0.3-0.8-1.3-1.2-2.1-0.8c-0.8,0.3-1.2,1.3-0.8,2.1l2.2,5.2l-2.7-0.2l-2.2-5.3
				c-0.1-0.3-0.4-0.5-0.8-0.5c-5.7,0.3-47.3,6.3-51.9,9.2l11,5.1l48.1,1.6l-0.3-0.8l3,0.5l0.8,2c0.3,0.8,1.3,1.2,2.1,0.8
				C217.5,74.1,217.9,73.1,217.6,72.3z"/>
		</g>
		<path class="st3" d="M269.1,48.6c-0.7-5.1,0.8-9.2,3.1-10.4c0,0,3.2-1.6,4-1.6c2.4-0.1,5.5,3.8,6.2,9.3c0.5,3.6-0.1,6.9-1.3,8.8
			l0.9-0.3l-1.7,12.1L270,66.1v-0.6l3.9-8C271.7,56.6,269.7,53.1,269.1,48.6z"/>
		<path class="st3" d="M341.2,50c-0.7-5.1,0.8-9.2,3.1-10.4c0,0,3.2-1.6,4-1.6c2.4-0.1,5.5,3.8,6.2,9.3c0.5,3.6-0.1,6.9-1.3,8.8
			l0.9-0.3l-1.7,12.1L342,67.6V67l3.9-8C343.8,58,341.8,54.5,341.2,50z"/>
		<g>
			<path d="M236.8,32.2c-1.4,0.5-2.7,0.9-4,1.4l-8.4-1.8c1.3-0.4,2.6-0.9,3.9-1.3L236.8,32.2z"/>
		</g>
		<g>
			<path d="M425.7,52.9c-3.6,0.7-10.3,2.5-18.3-1.5l-40.1-19.6l6.3-1.4c-0.7-0.2-1.3-0.4-2-0.5l-7.2,1.6l42.6,20.9
				c8.4,4.1,14.9,2.3,20,1.3C426.6,53.4,426.2,53.1,425.7,52.9z"/>
		</g>
		<g>
			<path class="st1" d="M293.2,28.5l-3.6,38.1l-15.4,0.8l10.6-38.6c1-0.1,2-0.1,3.1-0.1C289.6,28.6,291.4,28.5,293.2,28.5z"/>
		</g>
	</g>
	<g id="RECOLOR_BODY_2_">
		<g id="Body_1_">
			<path class="st4" d="M479.1,92.3c-0.7-0.2-1.1-0.8-1.3-1.5C476,79,473,72.9,468.6,64.1c-1.7-3.4-6.2-5.2-8.8-5.5l-32.6-4.9
				c0,0,0,0-0.1,0l-4.3,0.8c-5.3,1-10.8,0.2-15.7-2.1l-42.6-20.9l7.1-1.6c-26.5-7.2-55.1-8.9-96-7.6c-15.6,0.5-30.4,2.9-47.3,8.2
				l8.5,1.7c-24.6,8.3-43.2,18.1-62.5,29.2c-5.2,3-11.4,4.1-17.3,2.9l-2.4-0.5l-8.2-0.6C91.8,68.6,81.7,73.5,63.9,83
				c-6.2,3.4-14.5,10.8-19.1,19.1c-2.2,4.1-3.6,5.7-3.6,9.1v3.2c0,1.3,1.1,2.4,2.4,2.4h0.5c1.4,0,2.6,1.1,2.6,2.6v6.8
				c0,0.4-0.1,0.7-0.4,0.9c-0.2,0.2-1.1,0.4-1.5,0.4c-0.4,0-0.6,0.4-0.5,0.7l0.9,2.2c0.8,2,3.3,6.2,5.4,6.3l43.2,3.3l2,0v-12.9
				c0-19.9,15.3-36.6,35.2-36.6h0c19.9,0,35.2,13.9,35.2,33.7v15.6l6.3,0.1l178.3-4.1v-11.5c0-19.9,15.1-34.9,34.9-34.9h0
				c19.9,0,34.9,15.1,34.9,34.9v7.7l1.8-0.1l44-3.7c1.5-0.2,3.2-0.5,4.8-1.1c0.9-0.3,1.8-0.7,2.7-1.2c0.1-1.5,0.7-3.2,1.7-4.7
				c1.6-2.5,3.7-3.9,6-3.9c0.9-2.1,1.4-4.4,1.4-6.8l0.1-9.3v-0.2C483.1,97.1,482.9,93.5,479.1,92.3z M272.8,65.4l-92.8,5.1
				c5.1-4.7,15.2-11.4,28.4-18.6c11.9-6.5,24.6-11.6,37.5-15.2c11.9-3.3,24.1-5.3,36.3-6L272.8,65.4z M371.2,60.1l-83.3,4.5
				l3.3-34.2c1.2,0,2.5,0,3.7,0c8.9,0,18.4,0.5,30.1,1.5c20.1,3.2,32.4,8.5,43.9,18.8C371.5,53,372.4,56.8,371.2,60.1z"/>
		</g>
		<g id="Mirror_1_">
			<path class="st4" d="M208.1,60.4c-0.6-6.2-11.6-4.1-14.1,1.8c0,0,0-0.1,0-0.1l-0.6,0.2c-2,0.6-5.3,3-5,5.1
				c0.2,1.5,1.9,1.6,3.4,1.6h6.2c0,0,0,0-0.1,0c2.3,0.1,6.1,0,7.8-0.1c1.6-0.1,2.9-1.5,2.8-3.1C208.5,64,208.3,62.3,208.1,60.4z"/>
		</g>
	</g>
	<g>
		<path class="st3" d="M46.7,119.4v6.8c0,0.4-0.1,0.7-0.4,0.9c-0.2,0.2-1.1,0.4-1.5,0.4v-10.6C45.9,117.2,46.7,118.2,46.7,119.4z"/>
		<polygon class="st3" points="61.8,127.8 62,127.8 62.3,127.8 62.5,127.8 62.7,127.8 62.9,127.8 63.1,127.8 63.2,127.8 63.4,127.8 
			63.6,127.8 63.8,127.8 64.1,127.8 64.3,127.8 64.5,127.8 64.7,127.8 65,127.8 65.2,127.8 65.4,127.8 65.5,127.8 65.6,127.8 
			65.9,127.8 66.1,127.8 66.3,127.8 66.5,127.8 66.8,127.8 67,127.8 67.2,127.8 67.2,129.5 67.2,129.8 67.2,131.5 67,131.5 
			66.8,131.5 66.5,131.5 66.3,131.5 66.1,131.5 65.9,131.5 65.6,131.5 65.5,131.5 65.4,131.5 65.2,131.5 65,131.5 64.7,131.5 
			64.5,131.5 64.3,131.5 64.1,131.5 63.8,131.5 63.6,131.5 63.4,131.5 63.2,131.5 63.1,131.5 62.9,131.5 62.7,131.5 62.5,131.5 
			62.3,131.5 62,131.5 61.8,131.5 61.6,131.5 61.4,131.5 61.4,129.8 61.4,129.5 61.4,127.8 61.6,127.8 		"/>
	</g>
	<g id="Back_Lamp_2_">
		<g>
			<path class="st5" d="M477.1,89c-12.9,0.8-23.3-3.9-34.5-13.8c-2.3-2.1-1.8-4.3,1.2-5.1c6.9-1.7,12.5-2.4,20.9-2.9
				c0.3,0.3,0.6,0.7,0.9,1c1.8,2.1,3.4,4,4.7,6.1c0.6,0.9,1.2,1.9,1.8,2.8c0.8,1.4,1.5,2.8,2.2,4.4c0.4,0.9,0.8,1.8,1.1,2.8
				c0.3,0.9,0.7,1.8,1,2.8C476.7,87.8,476.9,88.4,477.1,89z"/>
		</g>
		<g>
			<path class="st6" d="M474.4,81.5h-20.1c-2.1-1.2-4.2-2.7-6.4-4.4h24.3C473,78.5,473.7,80,474.4,81.5z"/>
		</g>
		<g>
			<path class="st6" d="M470.4,74.3h-25.9c-0.2-0.2-0.4-0.3-0.6-0.5c-0.7-0.6-0.8-1.1-0.8-1.1c0-0.1,0.3-0.4,1.2-0.6
				c6.5-1.6,11.9-2.3,20.6-2.9c0,0,1.2-0.1,1.5,0C468.2,71.2,469,72.3,470.4,74.3z"/>
		</g>
	</g>
	<g>
		<path class="st7" d="M84.9,97c1.1,1,2.6,1.5,4.1,1.5h20.3l-0.3,0.2H89c-1.5,0-3-0.5-4.2-1.5l-1.5-1.3l0.2-0.1L84.9,97z"/>
		<path class="st7" d="M51.6,98.8l4.8-4.4c3.5-3.2,7.5-5.8,11.8-7.7c0,0,0,0,0,0c0.5-0.3,1.1-0.7,1.7-1c-0.7,0.4-1.4,0.7-2,1.1
			c-0.3,0.1-0.7,0.3-1,0.5h0c-0.1,0-0.1,0-0.2,0c9.6-6.8,40.6-12.9,60.3-15.5c14-1.8,28.5-3.7,39.6-7.3c-1.6,0.3-3.1,0.5-4.7,0.5
			c-1.6,0-3.2-0.2-4.8-0.5l-2.4-0.6l0.3-0.1l2.2,0.5c5.9,1.2,12,0.1,17.2-2.9c19.9-11.6,38.1-21,62.1-29.1l-8.3-1.7l0.5-0.1l8.3,1.7
			c9.3-4.1,30.5-7.1,54.1-7.7c15.9-0.4,46.6,0,73.6,7l6.8-1.6l0.5,0.1l-7,1.6l42.3,20.7c4.8,2.4,10.3,3.1,15.6,2.1l4.2-0.8l0.2,0.1
			l-4.4,0.9c-1.5,0.3-3.1,0.4-4.6,0.4c-2,0-4-0.2-6-0.7c0,0,0.1,0,0.1,0c4.6,1.6,9,2.7,14.8,3.5l25.9,2.8c4.5,0.5,8.8,2.8,11.6,6.4
			l0.2,0.2c0,0,0,0,0,0c6.7,7.3,9.7,13.1,12.4,22c-1,0.1-1.9,0.1-3,0.1c-5.3,0-10.2-1-15.1-3l-4.4,4.8c-1.9,2-4.6,3.2-7.3,3.3
			l-41.8,0.9l-0.4-0.3l42.2-0.9c2.7-0.1,5.3-1.2,7.2-3.2l4.4-4.7c-5.4-2.3-10.7-5.8-16.4-10.8c-2.4-2.1-1.8-4.5,1.3-5.3
			c6.9-1.7,12.5-2.4,20.3-2.9c-12.7-9-90.9-4.9-91.7-4.9l-32,58.5c-2.5,4.7-7.4,7.6-12.7,7.6l-161.4,5l0-0.2l9.4-0.3
			c-5.1-27-5.4-48.6-0.7-59.3c0.9-2.1,3.8-5,8.3-8.4l-8.3-4c-0.2,0.1-0.4,0.2-0.6,0.3c-1.8,1-3.7,1.8-5.6,2.4l0,0
			c-6,2.1-13,3.7-20.5,5c6.8-1.2,13.2-2.5,18.8-4.4c0.7-0.2,1.2-0.4,1.9-0.7l0.2,0.2c-11.4,4.1-26.9,6.2-41.8,8.1
			C109,74.6,81,79.9,69.7,86c-0.5,0.2-0.9,0.4-1.4,0.6c4.3-1.8,8.8-2.9,13.5-3.3c13.2-0.9,12.6-0.9,13-0.9c2.3,0,2.7,1.3,0.7,3
			L84.3,95c-2.4,2-5.3,3.3-8.4,3.6l-23.4,2.2C50.6,100.9,50.2,100,51.6,98.8z M464.4,66.8c0.1,0.1,0.3,0.2,0.4,0.3c0,0,0,0,0,0
			C464.7,67,464.5,66.9,464.4,66.8z M443.9,70.3c-2.9,0.7-3.5,2.9-1.2,4.9c11.8,10.4,22,14.5,34.2,13.8c-2.7-8.9-5.9-14.6-12.2-21.6
			C456,67.9,450.5,68.7,443.9,70.3z M372.4,62.3c0-0.1,0.1-0.2,0.1-0.2c0.1,0,2.3-0.1,5.9-0.3c-3.5,0.1-5.6,0.3-6,0.3
			C372.5,62.1,372.5,62.2,372.4,62.3L372.4,62.3L372.4,62.3z M327.7,128.2c5.2,0,10-2.9,12.5-7.5l32-58.5c2.4-4.3,1.4-9.6-2.2-12.9
			c-11.8-10.6-24.4-15.9-44.9-19.2c-11.6-1-21.3-1.5-30.3-1.5c-2.6,0-5.2,0-7.8,0.1L280.9,64c-6.1,22.2-5.8,40.3-3,65.7L327.7,128.2
			z M175.2,73.7c-4.7,10.6-4.4,32.2,0.7,59.2l101.8-3.2c-2.8-25.5-3.1-43.5,3-65.8l6.1-35.3c-0.3,0-0.6,0-0.8,0
			c-27,1-54.1,8.4-78.3,21.6C189.4,60.2,177.3,69,175.2,73.7z M183.5,65.1c5.7-4.3,13.9-9.5,24.1-14.9
			c24.2-13.2,51.3-20.6,78.4-21.6c11.6-0.4,23.7,0,39.2,1.3c20.6,3.3,33.2,8.7,45,19.3c3.6,3.2,4.6,8.4,2.5,12.7
			c2.1-0.1,21.5-1.1,41.8-1c27.7,0.2,44.4,2.1,49.7,5.8c-0.1,0-0.1-0.1-0.2-0.1c-2.8-3.2-6.8-5.3-11-5.8L427,58
			c-7.4-1.1-12.5-2.4-18.6-5c0,0,0,0,0.1,0c-0.5-0.2-1-0.4-1.5-0.7l-42.6-20.9c-27-7-57.6-7.4-73.5-7c-23.3,0.6-44.3,3.6-53.7,7.6
			l0.1,0l-0.4,0.1c-23.8,8.1-41.9,17.3-61.6,28.7L183.5,65.1z M410.6,53.8c-0.1,0-0.3-0.1-0.4-0.1C410.3,53.7,410.4,53.7,410.6,53.8
			z M145.1,69.5c-2,0.3-4.9,0.7-8,1.2C140.3,70.2,143,69.8,145.1,69.5z M51,100.1c0.3,0.7,0.6,0.4,24.8-1.9c3.1-0.3,5.9-1.5,8.3-3.5
			l11.3-9.6c0.9-0.8,1.3-1.5,1.2-1.9c-0.1-0.4-0.8-0.6-1.7-0.6c-0.4,0,0.3,0-13,0.9c-9.5,0.7-18.5,4.6-25.4,11L51.7,99
			C51.1,99.5,51,100,51,100.1z"/>
		<path class="st7" d="M403.8,67.3l11.1,0c0,0,0.1,0,0.1,0c2,0.1,3.6,1.7,3.6,3.8l0,4.8c0,2.1-1.7,3.8-3.7,3.8l-11.1,0
			c0,0-0.1,0-0.1,0c-2-0.1-3.6-1.7-3.6-3.8l0-4.8c0-1,0.4-2,1.1-2.7C401.9,67.7,402.8,67.3,403.8,67.3z M400.2,76
			c0,2,1.5,3.6,3.5,3.6c0,0,0.1,0,0.1,0l11.1,0c2,0,3.6-1.6,3.6-3.7l0-4.8c0-2-1.5-3.6-3.5-3.6c0,0-0.1,0-0.1,0l-11.1,0
			c-0.9,0-1.8,0.4-2.5,1.1c-0.7,0.7-1,1.6-1,2.6L400.2,76z"/>
		<polygon class="st7" points="54.1,90.3 54.3,90.1 61.7,90.1 61.4,90.3 		"/>
	</g>
	
		<radialGradient id="SVGID_1_" cx="138.589" cy="125.6516" r="28.6852" gradientTransform="matrix(-1 0 0 1 524.3881 0)" gradientUnits="userSpaceOnUse">
		<stop  offset="0" style="stop-color:#FFFFFF"/>
		<stop  offset="0.1303" style="stop-color:#CDCDCD"/>
		<stop  offset="0.308" style="stop-color:#909090"/>
		<stop  offset="0.4787" style="stop-color:#5C5C5C"/>
		<stop  offset="0.6378" style="stop-color:#343434"/>
		<stop  offset="0.7824" style="stop-color:#181818"/>
		<stop  offset="0.9079" style="stop-color:#060606"/>
		<stop  offset="1" style="stop-color:#000000"/>
	</radialGradient>
	<circle class="st8" cx="385.8" cy="125.7" r="28.7"/>
	
		<linearGradient id="SVGID_2_" gradientUnits="userSpaceOnUse" x1="137.8011" y1="111.8607" x2="129.1323" y2="111.8607" gradientTransform="matrix(-1 0 0 1 524.3881 0)">
		<stop  offset="0" style="stop-color:#BCBEC0"/>
		<stop  offset="0.5491" style="stop-color:#A7A9AC"/>
		<stop  offset="1" style="stop-color:#939598"/>
	</linearGradient>
	<path class="st9" d="M388.6,105.4l2,0.6c0,0,0,0,0,0.1l0.5,0.3c0,0-2.3,7.2-2.5,8.7c-0.2,1.5,0,2.1,0.2,2.3c0.2,0.2,1.8-2,1.8-2
		l2.7-7.9l2,0.9c0,0-3.7,8.9-5.5,10l-0.6-0.3c0,0,0,0,0,0c-0.1,0.1-0.2,0.1-0.4,0.1c-0.9,0.1-1.2,0.2-1.4-0.4l-0.8,0.2
		C386.6,118,386.5,111.4,388.6,105.4z"/>
	
		<linearGradient id="SVGID_3_" gradientUnits="userSpaceOnUse" x1="157.0385" y1="116.9226" x2="144.2966" y2="116.9226" gradientTransform="matrix(-1 0 0 1 524.3881 0)">
		<stop  offset="0" style="stop-color:#BCBEC0"/>
		<stop  offset="0.5491" style="stop-color:#A7A9AC"/>
		<stop  offset="1" style="stop-color:#939598"/>
	</linearGradient>
	<path class="st10" d="M367.3,116.7l1.2-1.8c0,0,0,0,0.1,0.1l0.5-0.4c0,0,6.1,4.4,7.5,5.1c1.4,0.6,2,0.6,2.2,0.5
		c0.2-0.1-1.3-2.3-1.3-2.3l-6.7-5l1.4-1.6c0,0,7.3,6.2,7.8,8.3l-0.5,0.5c0,0,0,0,0,0c0,0.1,0,0.3,0,0.4c-0.1,0.9-0.2,1.2-0.8,1.2
		l-0.1,0.8C378.7,122.5,372.5,120.6,367.3,116.7z"/>
	
		<linearGradient id="SVGID_4_" gradientUnits="userSpaceOnUse" x1="156.3931" y1="134.8326" x2="143.7474" y2="134.8326" gradientTransform="matrix(-1 0 0 1 524.3881 0)">
		<stop  offset="0" style="stop-color:#BCBEC0"/>
		<stop  offset="0.5491" style="stop-color:#A7A9AC"/>
		<stop  offset="1" style="stop-color:#939598"/>
	</linearGradient>
	<path class="st11" d="M375.9,131.1l-6.8,4.8l-1.1-1.8c0,0,8.2-5,10.3-4.8l0.3,0.6c0,0,0,0,0,0c0.1,0,0.3,0,0.4,0.1
		c0.8,0.4,1.1,0.6,0.9,1.1l0.7,0.3c0,0-3.8,5.3-9,9l-1.3-1.7c0,0,0,0,0.1-0.1l-0.2-0.6c0,0,6.1-4.4,7.1-5.6c1-1.2,1.2-1.7,1.2-1.9
		C378.5,130.4,375.9,131.1,375.9,131.1z"/>
	
		<linearGradient id="SVGID_5_" gradientUnits="userSpaceOnUse" x1="137.6898" y1="138.7613" x2="128.9009" y2="138.7613" gradientTransform="matrix(-1 0 0 1 524.3881 0)">
		<stop  offset="0" style="stop-color:#BCBEC0"/>
		<stop  offset="0.5491" style="stop-color:#A7A9AC"/>
		<stop  offset="1" style="stop-color:#939598"/>
	</linearGradient>
	<path class="st12" d="M386.9,133.9l0.7-0.1c0,0,0,0,0,0c0.1-0.1,0.1-0.2,0.2-0.3c0.6-0.6,0.9-0.9,1.4-0.5l0.5-0.6
		c0,0,3.9,5.3,5.8,11.4l-2,0.7c0,0,0,0,0-0.1l-0.6,0c0,0-2.3-7.2-3.1-8.5c-0.8-1.3-1.3-1.7-1.5-1.7c-0.2,0-0.3,2.7-0.3,2.7l2.5,8
		l-2.1,0.5C388.3,145.2,386,135.8,386.9,133.9z"/>
	
		<linearGradient id="SVGID_6_" gradientUnits="userSpaceOnUse" x1="131.0305" y1="125.661" x2="118.3315" y2="125.661" gradientTransform="matrix(-1 0 0 1 524.3881 0)">
		<stop  offset="0" style="stop-color:#BCBEC0"/>
		<stop  offset="0.5491" style="stop-color:#A7A9AC"/>
		<stop  offset="1" style="stop-color:#939598"/>
	</linearGradient>
	<path class="st13" d="M393.8,124.7l-0.4-0.7c0,0,6.2-2.1,12.6-2l0.1,1.7h0l0,0l0,0.5c0,0,0,0-0.1,0l-0.2,0.6c0,0-7.5,0-9.1,0.3
		c-1.5,0.3-2,0.7-2.1,0.9s2.4,1.1,2.4,1.1l8.3,0.1l-0.2,2.1c0,0-9.6-0.7-11.2-2.2l0.1-0.7c0,0,0,0,0,0c-0.1-0.1-0.2-0.2-0.2-0.3
		C393.5,125.4,393.3,125,393.8,124.7z"/>
	
		<linearGradient id="SVGID_7_" gradientUnits="userSpaceOnUse" x1="130.0779" y1="125.6516" x2="147.1" y2="125.6516" gradientTransform="matrix(-1 0 0 1 524.3881 0)">
		<stop  offset="0" style="stop-color:#BCBEC0"/>
		<stop  offset="0.2646" style="stop-color:#D1D2D4"/>
		<stop  offset="0.4921" style="stop-color:#E6E7E8"/>
		<stop  offset="0.6001" style="stop-color:#CDCECF"/>
		<stop  offset="0.8286" style="stop-color:#8C8D8F"/>
		<stop  offset="1" style="stop-color:#58595B"/>
	</linearGradient>
	<circle class="st14" cx="385.8" cy="125.7" r="8.5"/>
	
		<radialGradient id="SVGID_8_" cx="138.589" cy="125.6516" r="2.774" gradientTransform="matrix(-1 0 0 1 524.3881 0)" gradientUnits="userSpaceOnUse">
		<stop  offset="0" style="stop-color:#F1F2F2"/>
		<stop  offset="0.5604" style="stop-color:#D1D2D4"/>
		<stop  offset="1" style="stop-color:#BCBEC0"/>
	</radialGradient>
	<path class="st15" d="M385.8,122.9c1.5,0,2.8,1.2,2.8,2.8c0,1.5-1.2,2.8-2.8,2.8c-1.5,0-2.8-1.2-2.8-2.8
		C383,124.1,384.3,122.9,385.8,122.9z"/>
	
		<radialGradient id="SVGID_9_" cx="385.1821" cy="125.6519" r="21.411" gradientTransform="matrix(1 0 0 1 0.6169 0)" gradientUnits="userSpaceOnUse">
		<stop  offset="0" style="stop-color:#BCBEC0"/>
		<stop  offset="0.4396" style="stop-color:#D1D2D4"/>
		<stop  offset="1" style="stop-color:#F1F2F2"/>
	</radialGradient>
	<path class="st16" d="M385.8,147.1c11.8,0,21.4-9.6,21.4-21.4c0-11.8-9.6-21.4-21.4-21.4s-21.4,9.6-21.4,21.4
		C364.4,137.5,374,147.1,385.8,147.1z M385.8,107.1c10.2,0,18.6,8.3,18.6,18.6s-8.3,18.6-18.6,18.6s-18.6-8.3-18.6-18.6
		S375.6,107.1,385.8,107.1z"/>
	<path class="st17" d="M385.5,118.9c0.5,0,1,0.3,1.2,0.8c0.1,0.2,0.1,0.3,0.1,0.5c0,0.7-0.6,1.3-1.3,1.3c-0.4,0-0.7-0.2-1-0.4
		c-0.2-0.2-0.3-0.5-0.3-0.8C384.2,119.5,384.8,118.9,385.5,118.9z"/>
	<path class="st17" d="M379.3,123.8c0.2-0.5,0.6-0.8,1.1-0.9c0.2,0,0.3,0,0.5,0.1c0.7,0.2,1,0.9,0.8,1.6c-0.1,0.4-0.4,0.6-0.7,0.8
		c-0.3,0.1-0.6,0.1-0.9,0C379.4,125.2,379,124.5,379.3,123.8z"/>
	<path class="st17" d="M381.5,130c0-0.2,0.1-0.3,0.2-0.5c0.4-0.6,1.2-0.7,1.8-0.3c0.3,0.2,0.5,0.6,0.5,0.9c0,0.3-0.1,0.6-0.2,0.9
		c-0.4,0.6-1.2,0.7-1.8,0.3C381.6,131,381.4,130.5,381.5,130z"/>
	<path class="st17" d="M388.5,128.9c0.3-0.2,0.7-0.3,1-0.2c0.3,0.1,0.6,0.2,0.7,0.5c0.4,0.6,0.3,1.4-0.3,1.8c-0.4,0.3-1,0.3-1.4,0.1
		c-0.1-0.1-0.3-0.2-0.4-0.3C387.8,130.1,387.9,129.3,388.5,128.9z"/>
	<path class="st17" d="M389.8,123c0.2-0.3,0.4-0.5,0.7-0.6c0.7-0.2,1.4,0.1,1.6,0.8c0.2,0.5,0,1-0.4,1.4c-0.1,0.1-0.3,0.2-0.4,0.3
		c-0.7,0.2-1.4-0.2-1.6-0.8C389.6,123.7,389.7,123.3,389.8,123z"/>
	<path d="M131.8,89.5L131.8,89.5c19.9,0,34.9,15.1,34.9,34.9l-0.5,15.5l-70.3,0.2l0.1-15.8C96,104.3,111.9,89.5,131.8,89.5z"/>
	
		<radialGradient id="SVGID_10_" cx="392.5854" cy="125.6516" r="28.6852" gradientTransform="matrix(-1 0 0 1 524.3881 0)" gradientUnits="userSpaceOnUse">
		<stop  offset="0" style="stop-color:#FFFFFF"/>
		<stop  offset="0.1303" style="stop-color:#CDCDCD"/>
		<stop  offset="0.308" style="stop-color:#909090"/>
		<stop  offset="0.4787" style="stop-color:#5C5C5C"/>
		<stop  offset="0.6378" style="stop-color:#343434"/>
		<stop  offset="0.7824" style="stop-color:#181818"/>
		<stop  offset="0.9079" style="stop-color:#060606"/>
		<stop  offset="1" style="stop-color:#000000"/>
	</radialGradient>
	<circle class="st18" cx="131.8" cy="125.7" r="28.7"/>
	
		<linearGradient id="SVGID_11_" gradientUnits="userSpaceOnUse" x1="391.7975" y1="111.8607" x2="383.1288" y2="111.8607" gradientTransform="matrix(-1 0 0 1 524.3881 0)">
		<stop  offset="0" style="stop-color:#BCBEC0"/>
		<stop  offset="0.5491" style="stop-color:#A7A9AC"/>
		<stop  offset="1" style="stop-color:#939598"/>
	</linearGradient>
	<path class="st19" d="M134.6,105.4l2,0.6c0,0,0,0,0,0.1l0.5,0.3c0,0-2.3,7.2-2.5,8.7c-0.2,1.5,0,2.1,0.2,2.3c0.2,0.2,1.8-2,1.8-2
		l2.7-7.9l2,0.9c0,0-3.7,8.9-5.5,10l-0.6-0.3c0,0,0,0,0,0c-0.1,0.1-0.2,0.1-0.4,0.1c-0.9,0.1-1.2,0.2-1.4-0.4l-0.8,0.2
		C132.6,118,132.5,111.4,134.6,105.4z"/>
	
		<linearGradient id="SVGID_12_" gradientUnits="userSpaceOnUse" x1="411.0349" y1="116.9226" x2="398.2931" y2="116.9226" gradientTransform="matrix(-1 0 0 1 524.3881 0)">
		<stop  offset="0" style="stop-color:#BCBEC0"/>
		<stop  offset="0.5491" style="stop-color:#A7A9AC"/>
		<stop  offset="1" style="stop-color:#939598"/>
	</linearGradient>
	<path class="st20" d="M113.4,116.7l1.2-1.8c0,0,0,0,0.1,0.1l0.5-0.4c0,0,6.1,4.4,7.5,5.1c1.4,0.6,2,0.6,2.2,0.5
		c0.2-0.1-1.3-2.3-1.3-2.3l-6.7-5l1.4-1.6c0,0,7.3,6.2,7.8,8.3l-0.5,0.5c0,0,0,0,0,0c0,0.1,0,0.3,0,0.4c-0.1,0.9-0.2,1.2-0.8,1.2
		l-0.1,0.8C124.7,122.5,118.5,120.6,113.4,116.7z"/>
	
		<linearGradient id="SVGID_13_" gradientUnits="userSpaceOnUse" x1="410.3895" y1="134.8326" x2="397.7438" y2="134.8326" gradientTransform="matrix(-1 0 0 1 524.3881 0)">
		<stop  offset="0" style="stop-color:#BCBEC0"/>
		<stop  offset="0.5491" style="stop-color:#A7A9AC"/>
		<stop  offset="1" style="stop-color:#939598"/>
	</linearGradient>
	<path class="st21" d="M121.9,131.1l-6.8,4.8l-1.1-1.8c0,0,8.2-5,10.3-4.8l0.3,0.6c0,0,0,0,0,0c0.1,0,0.3,0,0.4,0.1
		c0.8,0.4,1.1,0.6,0.9,1.1l0.7,0.3c0,0-3.8,5.3-9,9l-1.3-1.7c0,0,0,0,0.1-0.1l-0.2-0.6c0,0,6.1-4.4,7.1-5.6c1-1.2,1.2-1.7,1.2-1.9
		C124.5,130.4,121.9,131.1,121.9,131.1z"/>
	
		<linearGradient id="SVGID_14_" gradientUnits="userSpaceOnUse" x1="391.6863" y1="138.7613" x2="382.8974" y2="138.7613" gradientTransform="matrix(-1 0 0 1 524.3881 0)">
		<stop  offset="0" style="stop-color:#BCBEC0"/>
		<stop  offset="0.5491" style="stop-color:#A7A9AC"/>
		<stop  offset="1" style="stop-color:#939598"/>
	</linearGradient>
	<path class="st22" d="M132.9,133.9l0.7-0.1c0,0,0,0,0,0c0.1-0.1,0.1-0.2,0.2-0.3c0.6-0.6,0.9-0.9,1.4-0.5l0.5-0.6
		c0,0,3.9,5.3,5.8,11.4l-2,0.7c0,0,0,0,0-0.1l-0.6,0c0,0-2.3-7.2-3.1-8.5c-0.8-1.3-1.3-1.7-1.5-1.7c-0.2,0-0.3,2.7-0.3,2.7l2.5,8
		l-2.1,0.5C134.3,145.2,132,135.8,132.9,133.9z"/>
	
		<linearGradient id="SVGID_15_" gradientUnits="userSpaceOnUse" x1="384.0744" y1="125.6516" x2="401.0964" y2="125.6516" gradientTransform="matrix(-1 0 0 1 524.3881 0)">
		<stop  offset="0" style="stop-color:#BCBEC0"/>
		<stop  offset="0.2646" style="stop-color:#D1D2D4"/>
		<stop  offset="0.4921" style="stop-color:#E6E7E8"/>
		<stop  offset="0.6001" style="stop-color:#CDCECF"/>
		<stop  offset="0.8286" style="stop-color:#8C8D8F"/>
		<stop  offset="1" style="stop-color:#58595B"/>
	</linearGradient>
	<circle class="st23" cx="131.8" cy="125.7" r="8.5"/>
	
		<radialGradient id="SVGID_16_" cx="392.5854" cy="125.6516" r="2.774" gradientTransform="matrix(-1 0 0 1 524.3881 0)" gradientUnits="userSpaceOnUse">
		<stop  offset="0" style="stop-color:#F1F2F2"/>
		<stop  offset="0.5604" style="stop-color:#D1D2D4"/>
		<stop  offset="1" style="stop-color:#BCBEC0"/>
	</radialGradient>
	<path class="st24" d="M131.8,122.9c1.5,0,2.8,1.2,2.8,2.8c0,1.5-1.2,2.8-2.8,2.8c-1.5,0-2.8-1.2-2.8-2.8
		C129,124.1,130.3,122.9,131.8,122.9z"/>
	
		<radialGradient id="SVGID_17_" cx="131.1857" cy="125.6519" r="21.411" gradientTransform="matrix(1 0 0 1 0.6169 0)" gradientUnits="userSpaceOnUse">
		<stop  offset="0" style="stop-color:#BCBEC0"/>
		<stop  offset="0.4396" style="stop-color:#D1D2D4"/>
		<stop  offset="1" style="stop-color:#F1F2F2"/>
	</radialGradient>
	<path class="st25" d="M131.8,147.1c11.8,0,21.4-9.6,21.4-21.4c0-11.8-9.6-21.4-21.4-21.4s-21.4,9.6-21.4,21.4
		C110.4,137.5,120,147.1,131.8,147.1z M131.8,107.1c10.2,0,18.6,8.3,18.6,18.6s-8.3,18.6-18.6,18.6s-18.6-8.3-18.6-18.6
		S121.6,107.1,131.8,107.1z"/>
	<path class="st17" d="M131.5,118.9c0.5,0,1,0.3,1.2,0.8c0.1,0.2,0.1,0.3,0.1,0.5c0,0.7-0.6,1.3-1.3,1.3c-0.4,0-0.7-0.2-1-0.4
		c-0.2-0.2-0.3-0.5-0.3-0.8C130.2,119.5,130.8,118.9,131.5,118.9z"/>
	<path class="st17" d="M125.3,123.8c0.2-0.5,0.6-0.8,1.1-0.9c0.2,0,0.3,0,0.5,0.1c0.7,0.2,1,0.9,0.8,1.6c-0.1,0.4-0.4,0.6-0.7,0.8
		c-0.3,0.1-0.6,0.1-0.9,0C125.4,125.2,125.1,124.5,125.3,123.8z"/>
	<path class="st17" d="M127.5,130c0-0.2,0.1-0.3,0.2-0.5c0.4-0.6,1.2-0.7,1.8-0.3c0.3,0.2,0.5,0.6,0.5,0.9c0,0.3-0.1,0.6-0.2,0.9
		c-0.4,0.6-1.2,0.7-1.8,0.3C127.6,131,127.4,130.5,127.5,130z"/>
	<path class="st17" d="M134.5,128.9c0.3-0.2,0.7-0.3,1-0.2c0.3,0.1,0.6,0.2,0.7,0.5c0.4,0.6,0.3,1.4-0.3,1.8c-0.4,0.3-1,0.3-1.4,0.1
		c-0.1-0.1-0.3-0.2-0.4-0.3C133.8,130.1,133.9,129.3,134.5,128.9z"/>
	<path class="st17" d="M135.8,123c0.2-0.3,0.4-0.5,0.7-0.6c0.7-0.2,1.4,0.1,1.6,0.8c0.2,0.5,0,1-0.4,1.4c-0.1,0.1-0.3,0.2-0.4,0.3
		c-0.7,0.2-1.4-0.2-1.6-0.8C135.6,123.7,135.7,123.3,135.8,123z"/>
	<path class="st0" d="M425.7,52.9c0,0-45.9-20.8-52.1-22.5l-6.3,1.4c0,0,32.5,17.4,44.1,21.2C418.6,55.3,425.7,52.9,425.7,52.9z"/>
</g>
<g id="Слой_2" class="st26">
	<path class="st27" d="M472,90.4h-9l11,9c0,0,2,2,0,2s-24,0-24,0s-5-2-8-4c0,0-13,2-26,1c0,0,11,9,12,28v14c0,0,44-2,47-3s6-5,6-10
		c0-5,0-11,0-11s7,1.3,3-9C479,94.4,472,90.4,472,90.4z"/>
	<path class="st27" d="M445.3,81.3c0,0-18-8-55-11s-42-9-42-9l-7,4c0,0,11,6,10,22s-2,42-2,47h9c0,0-3-42,35-43
		c0,0,8.5,0.6,11.8,1.7c3,1,11.2,5.3,11.2,5.3s8.5,0.4,13.6,0.1c7.5-0.4,12.4-1.1,12.4-1.1S423.3,83.3,445.3,81.3z"/>
	<path class="st27" d="M245.8,67.7l102.6,4.5c0,0,4.3,5.5,3.5,17.5s-1.8,44.7-1.8,44.7l-102.5-2.8
		C247.6,131.7,247.8,81.2,245.8,67.7z"/>
	<path class="st27" d="M244.9,67.6l-93-5.4l30.7,56.3c0,0,5.1,9.4,14.4,10c9.3,0.6,49.6,2.9,49.6,2.9S246.5,72.3,244.9,67.6z"/>
	<path class="st27" d="M109.4,79.8h11.2c1.5,0,2.7-1.2,2.7-2.7v-6.3c0-1.5-1.2-2.7-2.7-2.7h-11.2c-1.5,0-2.7,1.2-2.7,2.7v6.3
		C106.8,78.6,108,79.8,109.4,79.8z"/>
	<path class="st27" d="M81.5,70.9c-2.1-4.5-22-3.1-22-3.1c1-1.2,4.5-3.1,4.5-3.1c11.2-6.6,88.7-2.4,88.7-2.4s4.5,7.8,23.7,43.3
		c10.6,19.6,17.3,22.7,17.3,22.7L174,136c1-25.2-8-34.4-8-34.4c-19.8-21.8-45.7-6.7-45.7-6.7S93,95,80.4,95.1
		c-12.6,0.1-14.5-8.4-14.5-8.4L78,78.9C78,78.9,83.6,75.4,81.5,70.9z M107.2,77.2c0,1.5,1.2,2.7,2.7,2.7H121c1.5,0,2.7-1.2,2.7-2.7
		v-6.3c0-1.5-1.2-2.7-2.7-2.7h-11.2c-1.5,0-2.7,1.2-2.7,2.7V77.2z"/>
	<path class="st27" d="M119.5,95.3h-40c0,0-12-0.2-13.5-8.1c0,0-7.9,3.5-18,4.1c0,0-5,0.4-5.2,4.1c-0.2,3.7-0.2,23.1-0.2,23.1
		s2.5,8,10.9,9.4c8.4,1.4,51.7,4.6,51.7,4.6S99.8,115.8,119.5,95.3z"/>
</g>
</svg>
