<svg width="11" height="10" viewBox="0 0 11 10" fill="none" xmlns="http://www.w3.org/2000/svg">
<g id="Group 167">
<mask id="mask0" mask-type="alpha" maskUnits="userSpaceOnUse" x="0" y="0" width="11" height="10">
<path id="Clip 2" fill-rule="evenodd" clip-rule="evenodd" d="M0 0H11V10H0V0Z" fill="white"/>
</mask>
<g mask="url(#mask0)">
<path id="Fill 1" fill-rule="evenodd" clip-rule="evenodd" d="M10.8109 0.221435C10.5749 -0.0557786 10.1636 -0.0757619 9.90839 0.178726L3.69371 6.373C3.62054 6.44566 3.51075 6.45033 3.43412 6.38256L1.84445 4.98197C1.6657 4.82446 1.4528 4.7413 1.2287 4.7413C0.928149 4.7413 0.644582 4.89383 0.450488 5.15978L0.243843 5.44305C-0.115298 5.93525 -0.0731111 6.65872 0.339934 7.09007L2.83612 9.69642C3.02358 9.89221 3.26552 10 3.51746 10H3.51756C3.80353 10 4.07808 9.85938 4.27073 9.61421L10.8289 1.26833C11.0638 0.969207 11.0559 0.509374 10.8109 0.221435" fill="#C6CAD8"/>
</g>
</g>
</svg>
