<?xml version="1.0" encoding="utf-8"?>
<!-- Generator: Adobe Illustrator 23.0.1, SVG Export Plug-In . SVG Version: 6.00 Build 0)  -->
<svg version="1.1" xmlns="http://www.w3.org/2000/svg" xmlns:xlink="http://www.w3.org/1999/xlink" x="0px" y="0px"
	 viewBox="0 0 560 180" style="enable-background:new 0 0 560 180;" xml:space="preserve">
<style type="text/css">
	.st0{fill:#D7E2E2;}
	.st1{fill:#DEDEDB;}
	.st2{fill:#4D4D4D;}
	.st3{fill:#262626;}
	.st4{fill:#1A1A1A;}
	.st5{fill:none;}
	.st6{fill:#999999;}
	.st7{display:none;fill:#999999;}
	.st8{fill:#4D0000;}
	.st9{fill:#EE0000;}
	.st10{fill:url(#SVGID_1_);}
	.st11{fill:url(#SVGID_2_);}
	.st12{fill:url(#SVGID_3_);}
	.st13{fill:url(#SVGID_4_);}
	.st14{fill:url(#SVGID_5_);}
	.st15{fill:url(#SVGID_6_);}
	.st16{fill:url(#SVGID_7_);}
	.st17{fill:url(#SVGID_8_);}
	.st18{fill:url(#SVGID_9_);}
	.st19{fill:#171916;}
	.st20{fill:url(#SVGID_10_);}
	.st21{fill:url(#SVGID_11_);}
	.st22{fill:url(#SVGID_12_);}
	.st23{fill:url(#SVGID_13_);}
	.st24{fill:url(#SVGID_14_);}
	.st25{fill:url(#SVGID_15_);}
	.st26{fill:url(#SVGID_16_);}
	.st27{fill:url(#SVGID_17_);}
	.st28{fill:url(#SVGID_18_);}
	.st29{fill:#E5B12E;}
	.st30{fill:#E2B95D;}
	.st31{display:none;}
	.st32{display:inline;}
	.st33{fill:#264FA4;}
</style>
<g id="Слой_13">
	<g>
		<polygon class="st0" points="354.7,33.6 327.3,28 289,26.7 281.4,75 375.5,66.7 375.5,45.6 		"/>
		<polygon class="st0" points="278.6,28.5 204.4,47.9 169.1,79.8 275.8,71.1 285.9,28.5 		"/>
		<polygon class="st0" points="224.4,31.7 146.5,63.2 170.6,67.5 239,32.2 		"/>
		<path class="st0" d="M425.7,52.9c0,0-45.9-20.8-52.1-22.5l-6.3,1.4c0,0,32.5,17.4,44.1,21.2C418.6,55.3,425.7,52.9,425.7,52.9z"/>
	</g>
</g>
<g id="Слой_1">
	<path class="st1" d="M208.1,60.4c-0.6-6.2-11.6-4.1-14.1,1.8v-0.1l-0.6,0.2c-2,0.6-5.3,3-5,5.1c0.2,1.5,1.9,1.6,3.4,1.6h6.2
		c0,0,0,0-0.1,0c2.3,0.1,6.1,0,7.8-0.1c1.6-0.1,2.9-1.5,2.8-3.1C208.5,64,208.3,62.3,208.1,60.4z"/>
	<path class="st2" d="M173.4,73.3c4.7-7.6,22.6-18.6,32.9-24.4c24.6-14,52.1-21.9,79.5-22.9c2.9-0.1,6-0.2,9-0.2
		c9,0,18.7,0.5,30.6,1.6h0.2c21.1,3.5,34.1,9.3,46.3,20.8c4.5,4.2,5.7,11,3,16.6l-0.7,1.4L170.6,77.8L173.4,73.3z M369,59
		c0.1-1.9-0.6-3.9-2-5.2c-11.1-10.4-23-15.7-42.5-18.9c-11.6-1-21-1.5-29.8-1.5c-2.9,0-5.8,0.1-8.7,0.2c-13.2,0.5-26.5,2.6-39.4,6.4
		c-12.8,3.7-25.2,9-37,15.6c-8.7,4.9-16.2,9.7-21.6,13.8L369,59z"/>
	<path class="st3" d="M217.6,72.3l-7.2-17c-0.3-0.8-1.3-1.2-2.1-0.8c-0.8,0.3-1.2,1.3-0.8,2.1l2.2,5.2l-2.7-0.2l-2.2-5.3
		c-0.1-0.3-0.4-0.5-0.8-0.5c-5.7,0.3-47.3,6.3-51.9,9.2l11,5.1l48.1,1.6l-0.3-0.8l3,0.5l0.8,2c0.3,0.8,1.3,1.2,2.1,0.8
		C217.5,74.1,217.9,73.1,217.6,72.3z"/>
	<path class="st4" d="M269.1,48.6c-0.7-5.1,0.8-9.2,3.1-10.4c0,0,3.2-1.6,4-1.6c2.4-0.1,5.5,3.8,6.2,9.3c0.5,3.6-0.1,6.9-1.3,8.8
		l0.9-0.3l-1.7,12.1L270,66.1v-0.6l3.9-8C271.7,56.6,269.7,53.1,269.1,48.6z"/>
	<path class="st4" d="M341.2,50c-0.7-5.1,0.8-9.2,3.1-10.4c0,0,3.2-1.6,4-1.6c2.4-0.1,5.5,3.8,6.2,9.3c0.5,3.6-0.1,6.9-1.3,8.8
		l0.9-0.3l-1.7,12.1L342,67.6V67l3.9-8C343.8,58,341.8,54.5,341.2,50z"/>
	<path d="M236.8,32.2c-1.4,0.5-2.7,0.9-4,1.4l-8.4-1.8c1.3-0.4,2.6-0.9,3.9-1.3L236.8,32.2z"/>
	<path d="M425.7,52.9c-3.6,0.7-10.3,2.5-18.3-1.5l-40.1-19.6l6.3-1.4c-0.7-0.2-1.3-0.4-2-0.5l-7.2,1.6L407,52.4
		c8.4,4.1,14.9,2.3,20,1.3C426.6,53.4,426.2,53.1,425.7,52.9z"/>
	<path class="st2" d="M293.2,28.5l-3.6,38.1l-15.4,0.8l10.6-38.6c1-0.1,2-0.1,3.1-0.1C289.6,28.6,291.4,28.5,293.2,28.5z"/>
	<path class="st4" d="M46.7,119.4v6.8c0,0.4-0.1,0.7-0.4,0.9c-0.2,0.2-1.1,0.4-1.5,0.4v-10.6C45.9,117.2,46.7,118.2,46.7,119.4z"/>
	<path class="st5" d="M368.9,50.7c-11.5-10.3-23.8-15.6-43.9-18.8c-11.7-1-21.2-1.5-30.1-1.5c-1.2,0-2.5,0-3.7,0l-3.3,34.2l83.3-4.5
		C372.4,56.8,371.5,53,368.9,50.7z"/>
	<path class="st5" d="M183.8,56c16.1-8.9,32.4-16.9,53-23.8l-0.1,0c-0.1,0-0.2,0.1-0.3,0.1l0.1,0C216.3,39.1,200.3,46.8,183.8,56z"
		/>
	<path class="st5" d="M369.2,30.4l-4.6,1c0,0,0.1,0,0.1,0L369.2,30.4z"/>
	<path class="st5" d="M245.9,36.7c-12.9,3.6-25.6,8.7-37.5,15.2c-13.2,7.2-23.3,13.9-28.4,18.6l92.8-5.1l9.4-34.7
		C270,31.4,257.8,33.4,245.9,36.7z"/>
	<path class="st5" d="M364.6,31.5L364.6,31.5l42.5,20.9c0.2,0.1,0.4,0.1,0.5,0.2c-0.2-0.1-0.4-0.2-0.6-0.3L364.6,31.5z"/>
	<path class="st1" d="M174.4,61.4c0.3-0.2,0.6-0.4,1-0.6l0,0c-0.3,0.2-0.7,0.4-1,0.6c-3.9,2.2-8.3,3.4-12.7,3.4
		C166,64.8,170.5,63.7,174.4,61.4z"/>
	<path class="st1" d="M372.5,62.1C372.5,62.1,372.5,62.1,372.5,62.1c0.1,0,2.3-0.1,5.9-0.3C374.9,61.9,372.8,62.1,372.5,62.1
		C372.4,62.1,372.5,62.1,372.5,62.1z"/>
	<path class="st1" d="M167.3,64.5c0.6-0.2,1-0.3,1.5-0.5c-5.1,1.8-10.9,3.2-17.1,4.4C157.3,67.3,162.6,66.1,167.3,64.5z"/>
	<path class="st1" d="M141.5,70c-1.4,0.2-2.9,0.4-4.4,0.7C138.7,70.5,140.2,70.2,141.5,70z"/>
	<path class="st1" d="M442.7,75.2c11.8,10.4,22,14.5,34.2,13.8c-2.7-8.9-5.9-14.6-12.2-21.6c-8.7,0.5-14.2,1.3-20.8,2.9
		C441,71,440.4,73.2,442.7,75.2z"/>
	<path class="st6" d="M364.7,31.5C364.7,31.5,364.6,31.5,364.7,31.5l-0.1,0L407,52.3c0.2,0.1,0.4,0.2,0.6,0.3
		c4.8,2.1,10.1,2.8,15.2,1.9l4.3-0.8c0.1,0,0.1,0,0.1,0l0.1,0l0,0l-0.2-0.1l-4.2,0.8c-5.3,1-10.8,0.3-15.6-2.1L365,31.6l7-1.6
		l-0.4-0.1l-2.3,0.5L364.7,31.5z"/>
	<path class="st6" d="M228.5,30.5l-0.3,0.1l8.2,1.7c0.1,0,0.2-0.1,0.3-0.1L228.5,30.5z"/>
	<path class="st6" d="M236.5,32.3l-0.1,0c-23.5,8.1-41.5,17.2-61.1,28.5l0,0c2.8-1.6,5.7-3.2,8.5-4.8
		C200.3,46.8,216.3,39.1,236.5,32.3z"/>
	<path class="st6" d="M161.6,64.8c-1.5,0-2.9-0.2-4.4-0.5l-2.2-0.5l-0.2,0.1l2.2,0.4C158.5,64.6,160,64.8,161.6,64.8z"/>
	<path class="st6" d="M410.6,53.8c-0.2-0.1-0.3-0.1-0.4-0.1C410.3,53.7,410.5,53.8,410.6,53.8z"/>
	<path class="st6" d="M68.5,86.5C68.5,86.5,68.5,86.5,68.5,86.5c0,0-0.1,0-0.2,0.1C68.4,86.6,68.4,86.6,68.5,86.5z"/>
	<path class="st6" d="M151.7,68.3c-1.1,0.2-2.1,0.4-3.2,0.6C149.6,68.7,150.7,68.5,151.7,68.3z"/>
	<path class="st6" d="M168.8,64c0.1,0,0.1,0,0.2-0.1c0.1,0,0.1-0.1,0.2-0.1l0,0C169.1,63.9,168.9,63.9,168.8,64z"/>
	<path class="st6" d="M145.1,69.5c-1,0.1-2.3,0.3-3.6,0.5C142.9,69.8,144.1,69.6,145.1,69.5z"/>
	<path class="st6" d="M175,127.9c-2.1-12.3-3.2-23.4-3.1-32.6C171.8,104.5,172.9,115.6,175,127.9z"/>
	<path class="st6" d="M372.5,62.1c0,0-0.1,0.1-0.1,0.2C372.5,62.2,372.5,62.2,372.5,62.1z"/>
	<path class="st6" d="M183.8,56c-2.8,1.6-5.7,3.2-8.5,4.8l0,0C178.2,59.2,181,57.6,183.8,56z"/>
	<path class="st6" d="M291.1,24.5c15.9-0.4,46.5,0,73.4,7l-0.1-0.1c-27-7-57.6-7.4-73.5-7C267.6,25,246.6,28,237.2,32h0.1l-0.4,0.1
		c0,0-0.1,0-0.1,0.1l0.2,0C246.3,28.1,267.5,25.1,291.1,24.5z"/>
	<path class="st6" d="M364.6,31.5c0,0-0.1,0-0.1,0L364.6,31.5L364.6,31.5z"/>
	<polygon class="st6" points="369.2,30.4 371.6,29.9 371.5,29.9 	"/>
	<path class="st6" d="M412.3,54.3c0.1,0,0.2,0,0.3,0.1C412.5,54.3,412.5,54.3,412.3,54.3L412.3,54.3z"/>
	<path class="st6" d="M236.8,32.2l-8.1-1.7l-0.2,0L236.8,32.2C236.7,32.2,236.7,32.2,236.8,32.2z"/>
	<path class="st6" d="M464.2,66.7c-0.1-0.1-0.2-0.1-0.3-0.2c0,0,0,0,0.1,0.1C464.1,66.6,464.1,66.7,464.2,66.7z"/>
	<polygon class="st4" points="61.8,127.8 62,127.8 62.3,127.8 62.5,127.8 62.7,127.8 62.9,127.8 63.1,127.8 63.2,127.8 63.4,127.8 
		63.6,127.8 63.8,127.8 64.1,127.8 64.3,127.8 64.5,127.8 64.7,127.8 65,127.8 65.2,127.8 65.4,127.8 65.5,127.8 65.6,127.8 
		65.9,127.8 66.1,127.8 66.3,127.8 66.5,127.8 66.8,127.8 67,127.8 67.2,127.8 67.2,129.5 67.2,129.8 67.2,131.5 67,131.5 
		66.8,131.5 66.5,131.5 66.3,131.5 66.1,131.5 65.9,131.5 65.6,131.5 65.5,131.5 65.4,131.5 65.2,131.5 65,131.5 64.7,131.5 
		64.5,131.5 64.3,131.5 64.1,131.5 63.8,131.5 63.6,131.5 63.4,131.5 63.2,131.5 63.1,131.5 62.9,131.5 62.7,131.5 62.5,131.5 
		62.3,131.5 62,131.5 61.8,131.5 61.6,131.5 61.4,131.5 61.4,129.8 61.4,129.5 61.4,127.8 61.6,127.8 	"/>
	<path class="st6" d="M403.8,67.3h11.1h0.1c2,0.1,3.6,1.7,3.6,3.8v4.8c0,2.1-1.7,3.8-3.7,3.8h-11.1h-0.1c-2-0.1-3.6-1.7-3.6-3.8
		v-4.8c0-1,0.4-2,1.1-2.7C401.9,67.7,402.8,67.3,403.8,67.3z M400.2,76c0,2,1.5,3.6,3.5,3.6h0.1h11.1c2,0,3.6-1.6,3.6-3.7v-4.8
		c0-2-1.5-3.6-3.5-3.6h-0.1h-11.1c-0.9,0-1.8,0.4-2.5,1.1s-1,1.6-1,2.6L400.2,76z"/>
	<path class="st7" d="M51.6,98.8l4.8-4.4c3.5-3.2,7.5-5.8,11.8-7.7l0,0c0.5-0.3,1.1-0.7,1.7-1c-0.7,0.4-1.4,0.7-2,1.1
		c-0.3,0.1-0.7,0.3-1,0.5l0,0c-0.1,0-0.1,0-0.2,0c9.6-6.8,40.6-12.9,60.3-15.5c14-1.8,28.5-3.7,39.6-7.3c-1.6,0.3-3.1,0.5-4.7,0.5
		c-1.6,0-3.2-0.2-4.8-0.5l-2.4-0.6l0.3-0.1l2.2,0.5c5.9,1.2,12,0.1,17.2-2.9c19.9-11.6,38.1-21,62.1-29.1l-8.3-1.7l0.5-0.1l8.3,1.7
		c9.3-4.1,30.5-7.1,54.1-7.7c15.9-0.4,46.6,0,73.6,7l6.8-1.6L372,30l-7,1.6l42.3,20.7c4.8,2.4,10.3,3.1,15.6,2.1l4.2-0.8l0.2,0.1
		l-4.4,0.9c-1.5,0.3-3.1,0.4-4.6,0.4c-2,0-4-0.2-6-0.7h0.1c4.6,1.6,9,2.7,14.8,3.5l25.9,2.8c4.5,0.5,8.8,2.8,11.6,6.4l0.2,0.2l0,0
		c6.7,7.3,9.7,13.1,12.4,22c-1,0.1-1.9,0.1-3,0.1c-5.3,0-10.2-1-15.1-3l-4.4,4.8c-1.9,2-4.6,3.2-7.3,3.3l-41.8,0.9l-0.4-0.3
		l42.2-0.9c2.7-0.1,5.3-1.2,7.2-3.2l4.4-4.7c-5.4-2.3-10.7-5.8-16.4-10.8c-2.4-2.1-1.8-4.5,1.3-5.3c6.9-1.7,12.5-2.4,20.3-2.9
		c-12.7-9-90.9-4.9-91.7-4.9l-32,58.5c-2.5,4.7-7.4,7.6-12.7,7.6l-161.4,5v-0.2l9.4-0.3c-5.1-27-5.4-48.6-0.7-59.3
		c0.9-2.1,3.8-5,8.3-8.4l-8.3-4c-0.2,0.1-0.4,0.2-0.6,0.3c-1.8,1-3.7,1.8-5.6,2.4l0,0c-6,2.1-13,3.7-20.5,5
		c6.8-1.2,13.2-2.5,18.8-4.4c0.7-0.2,1.2-0.4,1.9-0.7l0.2,0.2c-11.4,4.1-26.9,6.2-41.8,8.1C109,74.6,81,79.9,69.7,86
		c-0.5,0.2-0.9,0.4-1.4,0.6c4.3-1.8,8.8-2.9,13.5-3.3c13.2-0.9,12.6-0.9,13-0.9c2.3,0,2.7,1.3,0.7,3L84.3,95c-2.4,2-5.3,3.3-8.4,3.6
		l-23.4,2.2C50.6,100.9,50.2,100,51.6,98.8z M464.4,66.8c0.1,0.1,0.3,0.2,0.4,0.3l0,0C464.7,67,464.5,66.9,464.4,66.8z M443.9,70.3
		c-2.9,0.7-3.5,2.9-1.2,4.9c11.8,10.4,22,14.5,34.2,13.8c-2.7-8.9-5.9-14.6-12.2-21.6C456,67.9,450.5,68.7,443.9,70.3z M372.4,62.3
		c0-0.1,0.1-0.2,0.1-0.2c0.1,0,2.3-0.1,5.9-0.3c-3.5,0.1-5.6,0.3-6,0.3C372.5,62.1,372.5,62.2,372.4,62.3L372.4,62.3L372.4,62.3z
		 M327.7,128.2c5.2,0,10-2.9,12.5-7.5l32-58.5c2.4-4.3,1.4-9.6-2.2-12.9c-11.8-10.6-24.4-15.9-44.9-19.2c-11.6-1-21.3-1.5-30.3-1.5
		c-2.6,0-5.2,0-7.8,0.1L280.9,64c-6.1,22.2-5.8,40.3-3,65.7L327.7,128.2z M175.2,73.7c-4.7,10.6-4.4,32.2,0.7,59.2l101.8-3.2
		c-2.8-25.5-3.1-43.5,3-65.8l6.1-35.3c-0.3,0-0.6,0-0.8,0c-27,1-54.1,8.4-78.3,21.6C189.4,60.2,177.3,69,175.2,73.7z M183.5,65.1
		c5.7-4.3,13.9-9.5,24.1-14.9C231.8,37,258.9,29.6,286,28.6c11.6-0.4,23.7,0,39.2,1.3c20.6,3.3,33.2,8.7,45,19.3
		c3.6,3.2,4.6,8.4,2.5,12.7c2.1-0.1,21.5-1.1,41.8-1c27.7,0.2,44.4,2.1,49.7,5.8c-0.1,0-0.1-0.1-0.2-0.1c-2.8-3.2-6.8-5.3-11-5.8
		L427,58c-7.4-1.1-12.5-2.4-18.6-5c0,0,0,0,0.1,0c-0.5-0.2-1-0.4-1.5-0.7l-42.6-20.9c-27-7-57.6-7.4-73.5-7
		C267.6,25,246.6,28,237.2,32h0.1l-0.4,0.1c-23.8,8.1-41.9,17.3-61.6,28.7L183.5,65.1z M410.6,53.8c-0.1,0-0.3-0.1-0.4-0.1
		C410.3,53.7,410.4,53.7,410.6,53.8z M145.1,69.5c-2,0.3-4.9,0.7-8,1.2C140.3,70.2,143,69.8,145.1,69.5z M51,100.1
		c0.3,0.7,0.6,0.4,24.8-1.9c3.1-0.3,5.9-1.5,8.3-3.5l11.3-9.6c0.9-0.8,1.3-1.5,1.2-1.9c-0.1-0.4-0.8-0.6-1.7-0.6
		c-0.4,0,0.3,0-13,0.9c-9.5,0.7-18.5,4.6-25.4,11L51.7,99C51.1,99.5,51,100,51,100.1z"/>
	<path class="st5" d="M297.8,28.5c-0.7,0-1.4,0-2.1,0C296.4,28.5,297.1,28.5,297.8,28.5z"/>
	<path class="st5" d="M302.3,28.6c-0.7,0-1.3,0-2,0C301,28.5,301.7,28.5,302.3,28.6z"/>
	<path class="st5" d="M304.6,28.6c-0.7,0-1.3,0-2-0.1C303.3,28.6,304,28.6,304.6,28.6z"/>
	<path class="st5" d="M293.5,28.5c-0.7,0-1.4,0-2.1,0C292.1,28.5,292.8,28.5,293.5,28.5z"/>
	<path class="st5" d="M307,28.7c-0.6,0-1.3-0.1-1.9-0.1C305.7,28.7,306.3,28.7,307,28.7z"/>
	<path class="st5" d="M287.1,28.6c0.7,0,1.4,0,2.1-0.1C288.5,28.5,287.8,28.5,287.1,28.6L287.1,28.6z"/>
	<path class="st5" d="M293.6,28.5c0.7,0,1.4,0,2.1,0C294.9,28.5,294.2,28.5,293.6,28.5z"/>
	<path class="st5" d="M291.3,28.5c-0.7,0-1.4,0-2.1,0C289.9,28.5,290.6,28.5,291.3,28.5z"/>
	<path class="st5" d="M319.6,29.5c-0.5,0-0.9-0.1-1.4-0.1C318.7,29.4,319.2,29.4,319.6,29.5z"/>
	<path class="st5" d="M322.4,29.7c-0.3,0-0.7-0.1-1-0.1C321.7,29.6,322,29.6,322.4,29.7z"/>
	<path class="st5" d="M464.2,66.7c-0.1-0.1-0.2-0.1-0.3-0.2c0,0,0,0,0.1,0.1C464.1,66.6,464.1,66.7,464.2,66.7z"/>
	<path class="st5" d="M412.3,54.3c0.1,0,0.2,0,0.3,0.1C412.5,54.3,412.5,54.3,412.3,54.3L412.3,54.3z"/>
	<path class="st5" d="M317,29.3c-0.5,0-1.1-0.1-1.6-0.1C315.9,29.2,316.4,29.2,317,29.3z"/>
	<path class="st5" d="M309.4,28.8c-0.6,0-1.3-0.1-1.9-0.1C308.1,28.8,308.8,28.8,309.4,28.8z"/>
	<path class="st5" d="M311.9,29c-0.6,0-1.2-0.1-1.8-0.1C310.7,28.9,311.3,28.9,311.9,29z"/>
	<path class="st5" d="M314.4,29.1c-0.6,0-1.1-0.1-1.7-0.1C313.3,29,313.8,29.1,314.4,29.1z"/>
	<path class="st5" d="M300,28.5c-0.7,0-1.4,0-2,0C298.7,28.5,299.4,28.5,300,28.5z"/>
	<path class="st5" d="M372.5,62.1C372.5,62.1,372.5,62.1,372.5,62.1c0.1,0,2.3-0.1,5.9-0.3C374.9,61.9,372.8,62.1,372.5,62.1
		C372.4,62.1,372.5,62.1,372.5,62.1z"/>
	<path class="st5" d="M372.5,62.1c0,0-0.1,0.1-0.1,0.2C372.5,62.2,372.5,62.2,372.5,62.1z"/>
	<path class="st5" d="M370,49.3c-11.8-10.6-24.4-15.9-44.9-19.2c-11.6-1-21.3-1.5-30.3-1.5c-2.6,0-5.2,0-7.8,0.1L280.9,64
		c-6.1,22.2-5.8,40.3-3,65.7l49.8-1.5c5.2,0,10-2.9,12.5-7.5l32-58.5C374.6,57.9,373.6,52.6,370,49.3z"/>
	<path class="st5" d="M410.6,53.8c-0.2-0.1-0.3-0.1-0.4-0.1C410.3,53.7,410.5,53.8,410.6,53.8z"/>
	<path class="st5" d="M168.8,64c0.1,0,0.1,0,0.2-0.1c0.1,0,0.1-0.1,0.2-0.1l0,0C169.1,63.9,168.9,63.9,168.8,64z"/>
	<path class="st5" d="M464.7,67.4c-8.7,0.5-14.2,1.3-20.8,2.9c-2.9,0.7-3.5,2.9-1.2,4.9c11.8,10.4,22,14.5,34.2,13.8
		C474.2,80.1,471,74.4,464.7,67.4z"/>
	<path class="st5" d="M167.3,64.5c0.6-0.2,1-0.3,1.5-0.5c-4.4,1.5-9.4,2.8-14.7,3.9C158.8,66.9,163.3,65.9,167.3,64.5z"/>
	<path class="st6" d="M287.9,24.5l-0.2,0c0,0,0,0.1,0,0.1C287.7,24.6,287.8,24.6,287.9,24.5C287.9,24.6,287.9,24.6,287.9,24.5z"/>
	<path class="st5" d="M73.1,84.3c-1.5,0.6-2.8,1.2-4.3,2C70.4,85.6,71.7,84.9,73.1,84.3z"/>
	<path class="st5" d="M100.5,76.3c-2.4,0.5-4.7,1-7,1.6C95.8,77.4,98.1,76.8,100.5,76.3z"/>
	<path class="st5" d="M167.5,64.3c-11.1,3.6-26.6,5.4-40.5,7.5C141,70,156.4,67.9,167.5,64.3z"/>
	<path class="st5" d="M68.5,86.5c-0.6,0.3-1.8,0.8-1.8,0.8C67.3,87,67.9,86.7,68.5,86.5z"/>
	<path class="st5" d="M93.3,78.3c0.1,0,0.3-0.1,0.4-0.1c-0.1,0-0.1,0-0.2,0C93.5,78.3,93.4,78.3,93.3,78.3z"/>
	<path class="st5" d="M412.3,54.3c0.1,0,0.2,0,0.3,0.1C412.5,54.3,412.5,54.3,412.3,54.3L412.3,54.3z"/>
	<path class="st5" d="M464.2,66.7c-0.1-0.1-0.2-0.1-0.3-0.2c0,0,0,0,0.1,0.1C464.1,66.6,464.1,66.7,464.2,66.7z"/>
	<path class="st5" d="M410.6,53.8c-0.2-0.1-0.3-0.1-0.4-0.1C410.3,53.7,410.5,53.8,410.6,53.8z"/>
	<path class="st5" d="M442.7,75.2c11.8,10.4,22,14.5,34.2,13.8c-2.7-8.9-5.9-14.6-12.2-21.6c-8.7,0.5-14.2,1.3-20.8,2.9
		C441,71,440.4,73.2,442.7,75.2z"/>
	<path class="st5" d="M372.5,62.1c0,0-0.1,0.1-0.1,0.2C372.5,62.2,372.5,62.2,372.5,62.1z"/>
	<path class="st5" d="M327.7,128.2c5.2,0,10-2.9,12.5-7.5l32-58.5c2.4-4.3,1.4-9.6-2.2-12.9c-11.8-10.6-24.4-15.9-44.9-19.2
		c-11.6-1-21.3-1.5-30.3-1.5c-2.6,0-5.2,0-7.8,0.1L280.9,64c-6.1,22.2-5.8,40.3-3,65.7L327.7,128.2z"/>
	<path class="st5" d="M372.5,62.1C372.5,62.1,372.5,62.1,372.5,62.1c0.1,0,2.3-0.1,5.9-0.3C374.9,61.9,372.8,62.1,372.5,62.1
		C372.4,62.1,372.5,62.1,372.5,62.1z"/>
	<path class="st1" d="M66.7,87.3C66.7,87.3,66.7,87.3,66.7,87.3c3.1-2,7.7-4,13.1-5.7C74.2,83.4,69.5,85.3,66.7,87.3z"/>
	<path class="st5" d="M56.5,94.5L51.7,99c-0.6,0.5-0.7,1-0.7,1.1c0.3,0.7,0.6,0.4,24.8-1.9c3.1-0.3,5.9-1.5,8.3-3.5l11.3-9.6
		c0.9-0.8,1.3-1.5,1.2-1.9c-0.1-0.4-0.8-0.6-1.7-0.6c-0.4,0,0.3,0-13,0.9c-5.9,0.4-11.7,2.1-16.8,4.9c-1.6,1-3.9,2.5-6,3.9
		C58.2,93,57.3,93.7,56.5,94.5z"/>
	<path class="st1" d="M65.1,88.4c-2.1,1.1-4.1,2.4-6,3.9C61.2,90.8,63.6,89.3,65.1,88.4z"/>
	<path class="st5" d="M141.5,70c1.4-0.2,2.6-0.4,3.6-0.5C144.1,69.6,142.8,69.8,141.5,70z"/>
	<path class="st5" d="M137.1,70.7c1.6-0.2,3.1-0.5,4.4-0.7C140.1,70.2,138.7,70.5,137.1,70.7z"/>
	<path class="st6" d="M84.9,97l-1.5-1.3c0.2-0.1,0.4-0.3,0.6-0.4c0.1-0.1,0.3-0.2,0.4-0.3l11.2-9.6c2-1.7,1.6-3-0.7-3
		c-0.4,0,0.2,0-13,0.9c-4.2,0.4-8.3,1.3-12.1,2.8c4.4-1.9,12.8-5.2,23.7-7.8c0.1,0,0.2,0,0.2-0.1c0.1,0,0.1,0,0.2,0
		c0.3-0.1,0.6-0.1,0.9-0.2c0.4-0.1,0.8-0.2,1.2-0.3c10.8-2.4,24.8-4.7,31.7-5.6c14.9-1.9,30.4-4,41.8-8.1c0,0,2.1-0.9,3.8-1.8
		c0.1,0,0.1-0.1,0.2-0.1c0.4-0.2,0.9-0.4,1.2-0.6c0.2-0.1,0.4-0.2,0.6-0.3l8.3,4c-4.5,3.4-7.4,6.3-8.3,8.4c-2.2,5-3.3,12.4-3.3,21.7
		c0-9.2,1.1-16.6,3.3-21.6c2.1-4.7,14.2-13.5,32.5-23.5c10.6-5.8,21.7-10.4,33.1-13.9c-11.5,3.5-22.6,8.2-33.2,13.9
		c-10.2,5.4-18.3,10.5-24,14.8l-8.2-4.2c-0.3,0.2-0.6,0.4-1,0.6c-3.9,2.3-8.4,3.4-12.8,3.4c-1.5,0-3.1-0.2-4.6-0.5l-2.2-0.4l-0.1,0
		l2.4,0.6c1.6,0.3,3.2,0.5,4.8,0.5c1.6,0,4-0.4,5.6-0.7C156.4,67.9,141,70,127,71.8c-7.8,1.2-17.3,2.6-26.5,4.5
		c-2.4,0.5-4.7,1-7,1.6c-4.7,1.1-9.3,2.4-13.4,3.9c-3.1,1.1-5.2,1.8-7,2.5c-1.3,0.6-2.7,1.2-4.3,2c0,0,0,0,0,0c0,0-0.1,0.1-0.3,0.2
		c-0.6,0.3-1.2,0.5-1.8,0.8c-0.1,0.1-0.7,0.5-1.6,1.1c5.1-2.8,10.9-4.4,16.8-4.9c13.3-0.9,12.6-0.9,13-0.9c0.9,0,1.6,0.2,1.7,0.6
		c0.1,0.4-0.3,1.1-1.2,1.9l-11.3,9.6c-2.4,2-5.2,3.2-8.3,3.5c-24.2,2.3-24.5,2.6-24.8,1.9c0-0.1,0.1-0.6,0.7-1.1l4.8-4.5
		c0.8-0.8,1.7-1.5,2.6-2.2c-1,0.7-2,1.5-2.7,2.1l-4.8,4.4c-1.4,1.2-1,2.1,0.9,2l23.4-2.2c0.1,0,0.3,0,0.4-0.1
		c1.8-0.3,4.9-1.5,6.8-2.8l1.6,1.4c1.2,1,2.7,1.5,4.2,1.5h19.7l0.2-0.2H89C87.5,98.5,86,98,84.9,97z M141.5,70
		c1.3-0.2,2.5-0.4,3.6-0.5C144.1,69.6,142.9,69.8,141.5,70c-1.3,0.2-2.8,0.4-4.4,0.7C138.7,70.5,140.1,70.2,141.5,70z"/>
	<polygon class="st6" points="61.7,90.1 54.4,90.1 54.3,90.1 54.1,90.3 54.2,90.3 61.4,90.3 	"/>
	<path class="st6" d="M61.7,90.1l-0.3,0.2h0.2c-1.8,1.2-3.6,2.7-5.2,4.1c0.7-0.6,1.7-1.4,2.7-2.1c1.9-1.5,3.9-2.8,6-3.9
		c0.9-0.6,1.6-1,1.6-1.1c-0.4,0.2-3.4,1.8-4.8,2.8H61.7z"/>
	<path class="st6" d="M73.1,84.3c1.8-0.7,4-1.4,7-2.5c4.1-1.5,8.7-2.8,13.4-3.9c-4.7,1.1-9.2,2.3-13.3,3.7
		C77.3,82.5,75.2,83.4,73.1,84.3z"/>
	<path class="st6" d="M76.3,98.5c3.5-0.3,4.9-1.5,6.8-2.8C81.2,97,78.2,98.2,76.3,98.5z"/>
	<path class="st6" d="M68.8,86.3C68.8,86.3,68.8,86.3,68.8,86.3c-0.1,0-0.2,0.1-0.3,0.2C68.7,86.4,68.8,86.3,68.8,86.3z"/>
	<path class="st6" d="M127,71.8c-7.8,1-17.3,2.6-26.5,4.5C109.7,74.4,119.2,73,127,71.8z"/>
	<path class="st5" d="M410.6,53.8c-0.2-0.1-0.3-0.1-0.4-0.1C410.3,53.7,410.5,53.8,410.6,53.8z"/>
	<path class="st5" d="M442.7,75.2c11.8,10.4,22,14.5,34.2,13.8c-2.7-8.9-5.9-14.6-12.2-21.6c-8.7,0.5-14.2,1.3-20.8,2.9
		C441,71,440.4,73.2,442.7,75.2z"/>
	<path class="st5" d="M412.3,54.3c0.1,0,0.2,0,0.3,0.1C412.5,54.3,412.5,54.3,412.3,54.3L412.3,54.3z"/>
	<path class="st5" d="M464.2,66.7c-0.1-0.1-0.2-0.1-0.3-0.2c0,0,0,0,0.1,0.1C464.1,66.6,464.1,66.7,464.2,66.7z"/>
	<path class="st5" d="M372.5,62.1c0,0-0.1,0.1-0.1,0.2C372.5,62.2,372.5,62.2,372.5,62.1z"/>
	<path class="st5" d="M327.7,128.2c5.2,0,10-2.9,12.5-7.5l32-58.5c2.4-4.3,1.4-9.6-2.2-12.9c-11.8-10.6-24.4-15.9-44.9-19.2
		c-11.6-1-21.3-1.5-30.3-1.5c-2.6,0-5.2,0-7.8,0.1L280.9,64c-6.1,22.2-5.8,40.3-3,65.7L327.7,128.2z"/>
	<path class="st5" d="M372.5,62.1C372.5,62.1,372.5,62.1,372.5,62.1c0.1,0,2.3-0.1,5.9-0.3C374.9,61.9,372.8,62.1,372.5,62.1
		C372.4,62.1,372.5,62.1,372.5,62.1z"/>
	<path class="st5" d="M410.6,53.8c-0.2-0.1-0.3-0.1-0.4-0.1C410.3,53.7,410.5,53.8,410.6,53.8z"/>
	<path class="st5" d="M442.7,75.2c11.8,10.4,22.2,14.5,34.4,13.8c-2.7-8.9-6.1-14.6-12.4-21.6c-8.7,0.5-14.2,1.3-20.8,2.9
		C441,71,440.4,73.2,442.7,75.2z"/>
	<path class="st5" d="M412.3,54.3c0.1,0,0.2,0,0.3,0.1C412.5,54.3,412.5,54.3,412.3,54.3L412.3,54.3z"/>
	<path class="st5" d="M372.5,62.1c0,0-0.1,0.1-0.1,0.2C372.5,62.2,372.5,62.2,372.5,62.1z"/>
	<path class="st5" d="M464.2,66.7c-0.1-0.1-0.2-0.1-0.3-0.2c0,0,0,0,0.1,0.1C464.1,66.6,464.1,66.7,464.2,66.7z"/>
	<path class="st5" d="M327.7,128.2c5.2,0,10-2.9,12.5-7.5l32-58.5c2.4-4.3,1.4-9.6-2.2-12.9c-11.8-10.6-24.4-15.9-44.9-19.2
		c-11.6-1-21.3-1.5-30.3-1.5c-2.6,0-5.2,0-7.8,0.1L280.9,64c-6.1,22.2-5.8,40.3-3,65.7L327.7,128.2z"/>
	<path class="st5" d="M372.5,62.1C372.5,62.1,372.5,62.1,372.5,62.1c0.1,0,2.3-0.1,5.9-0.3C374.9,61.9,372.8,62.1,372.5,62.1
		C372.4,62.1,372.5,62.1,372.5,62.1z"/>
	<path class="st6" d="M477.6,89.3c-0.1-0.2-0.1-0.3-0.2-0.5C477.5,88.9,477.5,89.1,477.6,89.3C477.6,89.3,477.6,89.3,477.6,89.3z"/>
	<path class="st5" d="M410.6,53.8c-0.2-0.1-0.3-0.1-0.4-0.1C410.3,53.7,410.5,53.8,410.6,53.8z"/>
	<path class="st5" d="M372.5,62.1c0,0-0.1,0.1-0.1,0.2C372.5,62.2,372.5,62.2,372.5,62.1z"/>
	<path class="st5" d="M372.5,62.1C372.5,62.1,372.5,62.1,372.5,62.1c0.1,0,2.3-0.1,5.9-0.3C374.9,61.9,372.8,62.1,372.5,62.1
		C372.4,62.1,372.5,62.1,372.5,62.1z"/>
	<path class="st5" d="M442.7,75.2c11.8,10.4,22.2,14.5,34.4,13.8c-2.7-8.9-6.1-14.6-12.4-21.6c-8.7,0.5-14.2,1.3-20.8,2.9
		C441,71,440.4,73.2,442.7,75.2z"/>
	<path class="st5" d="M464.2,66.7c-0.1-0.1-0.2-0.1-0.3-0.2c0,0,0,0,0.1,0.1C464.1,66.6,464.1,66.7,464.2,66.7z"/>
	<path class="st5" d="M412.3,54.3c0.1,0,0.2,0,0.3,0.1C412.5,54.3,412.5,54.3,412.3,54.3L412.3,54.3z"/>
	<path class="st5" d="M327.7,128.2c5.2,0,10-2.9,12.5-7.5l32-58.5c2.4-4.3,1.4-9.6-2.2-12.9c-11.8-10.6-24.4-15.9-44.9-19.2
		c-11.6-1-21.3-1.5-30.3-1.5c-2.6,0-5.2,0-7.8,0.1L280.9,64c-6.1,22.2-5.8,40.3-3,65.7L327.7,128.2z"/>
	<path class="st6" d="M405.1,95l0.4,0.3l0.1,0C405.5,95.2,405.3,95.1,405.1,95L405.1,95z"/>
	<path class="st6" d="M454.8,91.1l4.4-4.8l-0.1-0.1l-4.4,4.7c-1.9,2-4.5,3.1-7.2,3.2L405.2,95c0.2,0.1,0.3,0.2,0.5,0.3l41.9-0.9
		C450.2,94.3,452.9,93.1,454.8,91.1z"/>
	<path class="st6" d="M477.3,89.2c-1,0.1-1.9,0.1-3,0.1c1.1,0,2.3,0.1,3.2,0c0-0.2-0.1-0.3-0.1-0.5c-2.7-8.6-6-14.4-12.6-21.6
		C471.6,74.5,474.6,80.3,477.3,89.2z"/>
	<path class="st6" d="M145.1,69.5c-1,0.1-2.3,0.3-3.6,0.5C142.9,69.8,144.1,69.6,145.1,69.5z"/>
	<path class="st6" d="M141.5,70c-1.4,0.2-2.9,0.4-4.4,0.7C138.7,70.5,140.2,70.2,141.5,70z"/>
	<path class="st6" d="M321.4,29.6c-0.6,0-1.2-0.1-1.7-0.1C320.2,29.5,320.8,29.5,321.4,29.6z"/>
	<path class="st6" d="M293.6,28.5C293.5,28.5,293.5,28.5,293.6,28.5C293.5,28.5,293.5,28.5,293.6,28.5z"/>
	<path class="st6" d="M298,28.5c-0.1,0-0.1,0-0.2,0C297.9,28.5,298,28.5,298,28.5z"/>
	<path class="st6" d="M295.6,28.5c0,0,0.1,0,0.1,0C295.7,28.5,295.7,28.5,295.6,28.5z"/>
	<path class="st6" d="M289.2,28.5C289.2,28.5,289.2,28.5,289.2,28.5C289.2,28.5,289.2,28.5,289.2,28.5z"/>
	<path class="st6" d="M305.1,28.6c-0.1,0-0.3,0-0.4,0C304.8,28.6,304.9,28.6,305.1,28.6z"/>
	<path class="st6" d="M318.3,29.4c-0.4,0-0.9-0.1-1.3-0.1C317.4,29.3,317.8,29.3,318.3,29.4z"/>
	<path class="st6" d="M325.2,29.9c-1-0.1-1.9-0.2-2.8-0.2C323.3,29.7,324.2,29.8,325.2,29.9z"/>
	<path class="st6" d="M291.4,28.5C291.3,28.5,291.3,28.5,291.4,28.5C291.3,28.5,291.3,28.5,291.4,28.5z"/>
	<path class="st6" d="M287.9,24.6c-0.1,0-0.2,0-0.3,0c-0.3,1.5-0.7,3.7-0.8,3.9c-0.2,0-0.7,0-0.8,0c-15.2,0.6-30.5,3.2-45.2,7.7
		c14.7-4.5,30-7.1,45.2-7.7c0.4,0,0.7,0,1.1,0C287.2,28.3,287.4,27.5,287.9,24.6z"/>
	<path class="st6" d="M307.5,28.7c-0.2,0-0.3,0-0.5,0C307.2,28.7,307.3,28.7,307.5,28.7z"/>
	<path class="st6" d="M302.7,28.6c-0.1,0-0.2,0-0.3,0C302.4,28.6,302.6,28.6,302.7,28.6z"/>
	<path class="st6" d="M300.3,28.5c-0.1,0-0.2,0-0.3,0C300.1,28.5,300.2,28.5,300.3,28.5z"/>
	<path class="st6" d="M310.1,28.9c-0.2,0-0.4,0-0.7,0C309.6,28.8,309.8,28.9,310.1,28.9z"/>
	<path class="st6" d="M315.4,29.2c-0.3,0-0.6,0-1-0.1C314.7,29.1,315,29.1,315.4,29.2z"/>
	<path class="st6" d="M312.7,29c-0.3,0-0.6,0-0.8,0C312.1,29,312.4,29,312.7,29z"/>
	<path class="st5" d="M464.2,66.7c-0.1-0.1-0.2-0.1-0.3-0.2c0,0,0,0,0.1,0.1C464.1,66.6,464.1,66.7,464.2,66.7z"/>
	<path class="st5" d="M370,49.3c-11.8-10.6-24.4-15.9-44.9-19.2c-11.6-1-21.3-1.5-30.3-1.5c-2.6,0-5.2,0-7.8,0.1L280.9,64
		c-6.1,22.2-5.8,40.3-3,65.7l49.8-1.5c5.2,0,10-2.9,12.5-7.5l32-58.5C374.6,57.9,373.6,52.6,370,49.3z"/>
	<path class="st5" d="M372.5,62.1c0,0-0.1,0.1-0.1,0.2C372.5,62.2,372.5,62.2,372.5,62.1z"/>
	<path class="st5" d="M410.6,53.8c-0.2-0.1-0.3-0.1-0.4-0.1C410.3,53.7,410.5,53.8,410.6,53.8z"/>
	<path class="st5" d="M372.5,62.1C372.5,62.1,372.5,62.1,372.5,62.1c0.1,0,2.3-0.1,5.9-0.3C374.9,61.9,372.8,62.1,372.5,62.1
		C372.4,62.1,372.5,62.1,372.5,62.1z"/>
	<path class="st5" d="M412.3,54.3c0.1,0,0.2,0,0.3,0.1C412.5,54.3,412.5,54.3,412.3,54.3L412.3,54.3z"/>
	<path class="st5" d="M464.7,67.4c-8.7,0.5-14.2,1.3-20.8,2.9c-2.9,0.7-3.5,2.9-1.2,4.9c11.8,10.4,22.2,14.5,34.4,13.8
		C474.4,80.1,471,74.4,464.7,67.4z"/>
	<path class="st6" d="M175.9,132.7L175.9,132.7c0,0.1,0,0.1,0,0.2V132.7z"/>
	<polygon class="st1" points="166.5,133.4 327.9,128.4 166.5,133.4 	"/>
	<polygon class="st1" points="166.5,133.4 327.9,128.4 175.9,132.9 166.5,133.2 	"/>
	<polygon class="st1" points="166.2,133.4 166.5,133.4 166.5,133.2 175.9,132.9 166.2,133.2 	"/>
</g>
<g id="Слой_17">
	<path class="st5" d="M464.2,66.7c-0.1-0.1-0.2-0.1-0.3-0.2c0,0,0,0,0.1,0.1C464.1,66.6,464.1,66.7,464.2,66.7z"/>
	<path class="st5" d="M412.3,54.3c0.1,0,0.2,0,0.3,0.1C412.5,54.3,412.5,54.3,412.3,54.3L412.3,54.3z"/>
	<polygon class="st5" points="277.9,129.9 277.9,129.9 327.9,128.4 	"/>
	<polygon class="st5" points="166.2,133.4 166.5,133.4 166.5,133.4 277.7,130 277.7,129.9 175.9,132.9 166.2,133.2 	"/>
	<path class="st5" d="M370,49.3c-11.8-10.6-24.4-15.9-44.9-19.2c-11.6-1-21.3-1.5-30.3-1.5c-2.6,0-5.2,0-7.8,0.1L280.9,64
		c-6.1,22.2-5.8,40.3-3,65.7l49.8-1.5c5.2,0,10-2.9,12.5-7.5l32-58.5C374.6,57.9,373.6,52.6,370,49.3z"/>
	<path class="st5" d="M410.6,53.8c-0.2-0.1-0.3-0.1-0.4-0.1C410.3,53.7,410.5,53.8,410.6,53.8z"/>
	<path class="st5" d="M464.7,67.4c-8.7,0.5-14.2,1.3-20.8,2.9c-2.9,0.7-3.5,2.9-1.2,4.9c11.8,10.4,22.2,14.5,34.4,13.8
		C474.4,80.1,471,74.4,464.7,67.4z"/>
	<path class="st5" d="M372.5,62.1c0,0-0.1,0.1-0.1,0.2C372.5,62.2,372.5,62.2,372.5,62.1z"/>
	<path class="st5" d="M372.5,62.1C372.5,62.1,372.5,62.1,372.5,62.1c0.1,0,2.3-0.1,5.9-0.3C374.9,61.9,372.8,62.1,372.5,62.1
		C372.4,62.1,372.5,62.1,372.5,62.1z"/>
	<path class="st6" d="M464.9,67.2l-0.1-0.1l-0.1-0.1c-2.8-3.6-7.1-5.9-11.6-6.4l-25.9-2.8c-5.7-0.8-10.1-1.9-14.6-3.4
		c-0.1,0-0.2,0-0.3-0.1h0.1c0.1,0,0.1,0,0.2,0.1c1.9,0.5,3.8,0.6,5.7,0.6c1.5,0,3.1-0.1,4.6-0.4l4.4-0.9l-0.1,0c0,0,0,0-0.1,0
		l-4.3,0.8c-5.1,1-10.4,0.2-15.2-1.9c0.3,0.1,0.6,0.3,0.9,0.4c-0.1,0-0.1,0-0.1,0c6.1,2.6,11.2,3.9,18.6,5l26,2.8
		c4.2,0.5,8.1,2.6,10.9,5.7c0.1,0.1,0.2,0.1,0.3,0.2c-0.1,0-0.1-0.1-0.2-0.1c0,0,0,0-0.1-0.1c-5.6-3.6-22.2-5.4-49.4-5.6
		c-20.3-0.1-39.7,0.9-41.8,1c2.1-4.3,1.1-9.5-2.5-12.7c-11.8-10.6-24.4-16-45-19.3c-1-0.1-1.9-0.2-2.8-0.2c-0.3,0-0.7-0.1-1-0.1
		c-0.6,0-1.2-0.1-1.7-0.1c-0.5,0-0.9-0.1-1.4-0.1c-0.4,0-0.9-0.1-1.3-0.1c-0.5,0-1.1-0.1-1.6-0.1c-0.3,0-0.6,0-1-0.1
		c-0.6,0-1.1-0.1-1.7-0.1c-0.3,0-0.6,0-0.8,0c-0.6,0-1.2-0.1-1.8-0.1c-0.2,0-0.4,0-0.7,0c-0.6,0-1.3-0.1-1.9-0.1c-0.2,0-0.3,0-0.5,0
		c-0.6,0-1.3-0.1-1.9-0.1c-0.1,0-0.3,0-0.4,0c-0.7,0-1.3,0-2-0.1c-0.1,0-0.2,0-0.3,0c-0.7,0-1.3,0-2,0c-0.1,0-0.2,0-0.3,0
		c-0.7,0-1.4,0-2,0c-0.1,0-0.1,0-0.2,0c-0.7,0-1.4,0-2.1,0c0,0-0.1,0-0.1,0c-0.7,0-1.4,0-2.1,0c0,0-0.1,0-0.1,0c-0.7,0-1.4,0-2.1,0
		c0,0,0,0,0,0c-0.7,0-1.4,0-2.1,0c0,0,0,0,0,0c-0.7,0-1.4,0-2.1,0.1v0c-0.4,0-0.7,0-1.1,0c0.2,0,0.5,0,0.8,0l-6.1,35.3
		c-6.1,22.3-5.8,40.3-3,65.8l-101.8,3.2l101.8-3l0,0.1l0.2,0l0-0.1l50-1.5c5.3,0,10.2-2.9,12.7-7.6l32-58.5c0.8,0,79-4.1,91.7,4.9
		c-7.8,0.5-13.4,1.2-20.3,2.9c-3.1,0.8-3.7,3.2-1.3,5.3c5.7,5,11,8.5,16.4,10.8l0.1,0.1c4.9,2,9.8,3,15.1,3c1.1,0,2,0,3-0.1
		C474.6,80.3,471.6,74.5,464.9,67.2z M410.2,53.7c0.1,0,0.2,0,0.4,0.1C410.5,53.8,410.3,53.7,410.2,53.7z M340.2,120.7
		c-2.5,4.6-7.3,7.5-12.5,7.5l-49.8,1.5c-2.8-25.4-3.1-43.5,3-65.7l6.1-35.3c2.6-0.1,5.2-0.1,7.8-0.1c9,0,18.7,0.5,30.3,1.5
		c20.5,3.3,33.1,8.6,44.9,19.2c3.6,3.3,4.6,8.6,2.2,12.9L340.2,120.7z M372.5,62.1C372.5,62.1,372.5,62.1,372.5,62.1
		c0,0.1,0,0.1-0.1,0.2C372.4,62.2,372.4,62.2,372.5,62.1C372.5,62.1,372.4,62.1,372.5,62.1c0.3,0,2.4-0.2,5.9-0.3
		C374.8,62,372.6,62.1,372.5,62.1z M442.7,75.2c-2.3-2-1.7-4.2,1.2-4.9c6.6-1.6,12.1-2.4,20.8-2.9c6.3,7,9.7,12.7,12.4,21.6
		C464.9,89.7,454.5,85.6,442.7,75.2z"/>
	<polygon class="st6" points="278.3,137.5 278.4,137.5 278.4,137.5 278.3,137.5 	"/>
	<path class="st1" d="M444,70.1c6.9-1.7,12.5-2.4,20.3-2.9c-12.7-9-90.9-4.9-91.7-4.9l-32,58.5c-2.5,4.7-7.4,7.6-12.7,7.6l-50,1.5
		l0.4,7.5l72.4-1.7v-11.5c0-19.9,15.1-34.9,34.9-34.9c7.3,0,14,2,19.5,5.6l42.3-0.9c2.7-0.1,5.3-1.2,7.2-3.2l4.4-4.7
		c-5.4-2.3-10.7-5.8-16.4-10.8C440.3,73.3,440.9,70.9,444,70.1z"/>
	<polygon class="st1" points="277.7,130 278.3,137.5 278.4,137.5 277.9,129.9 	"/>
</g>
<g id="Слой_18">
	<path class="st1" d="M166.5,133.4L166.5,133.4h-0.3v-0.2l9.7-0.3l-9.7,0.3V133l9.7-0.3c-0.3-1.6-0.6-3.2-0.9-4.8
		c-2.1-12.3-3.2-23.4-3.1-32.6c0-9.2,1.1-16.7,3.3-21.7c0.9-2.1,3.8-5,8.3-8.4l-8.3-4c-0.2,0.1-0.4,0.2-0.6,0.3
		c-0.3,0.2-0.8,0.4-1.2,0.6c-0.1,0-0.1,0.1-0.2,0.1c-1.7,0.9-3.8,1.8-3.8,1.8c-11.4,4.1-26.9,6.2-41.8,8.1
		c-6.9,0.9-20.9,3.2-31.7,5.6c-0.4,0.1-0.8,0.2-1.2,0.3c-0.3,0.1-0.6,0.1-0.9,0.2c-0.1,0-0.3,0.1-0.4,0.1
		c-10.9,2.6-19.3,5.9-23.7,7.8c3.9-1.5,7.9-2.4,12.1-2.8c13.2-0.9,12.6-0.9,13-0.9c2.3,0,2.7,1.3,0.7,3L84.3,95
		c-0.1,0.1-0.2,0.2-0.4,0.3c-0.2,0.1-0.4,0.3-0.6,0.4l1.5,1.3c1.1,1,2.6,1.5,4.1,1.5h20c6-5,13.6-8,22-8c19.9,0,35.2,13.9,35.2,33.7
		v15.6l6.3,0.1l105.8-2.4l-0.6-7.5L166.5,133.4z"/>
</g>
<g id="Слой_16">
	<path class="st1" d="M479.1,92.3c-0.7-0.2-1.1-0.8-1.3-1.5c-0.1-0.5-0.2-1-0.3-1.5c-1,0.1-2.2,0-3.2,0c-5.3,0-10.2-1-15.1-3
		l-4.4,4.8c-1.9,2-4.6,3.2-7.3,3.3l-41.9,0.9c9.2,6.2,15,16.7,15,29v7.7l1.8-0.1l44-3.7c1.5-0.2,3.2-0.5,4.8-1.1
		c0.9-0.3,1.8-0.7,2.7-1.2c0.1-1.5,0.7-3.2,1.7-4.7c1.6-2.5,3.7-3.9,6-3.9c0.9-2.1,1.4-4.4,1.4-6.8l0.1-9.3V101
		C483.1,97.1,482.9,93.5,479.1,92.3z"/>
</g>
<g id="Слой_15">
	<g>
		<path class="st8" d="M477.3,89c-12.9,0.8-23.3-3.9-34.5-13.8c-2.3-2.1-1.8-4.3,1.2-5.1c6.9-1.7,12.5-2.4,20.9-2.9
			c0.3,0.3,0.6,0.7,0.9,1c1.8,2.1,3.4,4,4.7,6.1c0.6,0.9,1.2,1.9,1.8,2.8c0.8,1.4,1.5,2.8,2.2,4.4c0.4,0.9,0.8,1.8,1.1,2.8
			c0.3,0.9,0.7,1.8,1,2.8C476.9,87.8,477.1,88.4,477.3,89z"/>
		<path class="st9" d="M474.4,81.5h-20.1c-2.1-1.2-4.2-2.7-6.4-4.4h24.3C473,78.5,473.7,80,474.4,81.5z"/>
		<path class="st9" d="M470.4,74.3h-25.9c-0.2-0.2-0.4-0.3-0.6-0.5c-0.7-0.6-0.8-1.1-0.8-1.1c0-0.1,0.3-0.4,1.2-0.6
			c6.5-1.6,11.9-2.3,20.6-2.9c0,0,1.2-0.1,1.5,0C468.2,71.2,469,72.3,470.4,74.3z"/>
	</g>
</g>
<g id="Слой_14">
	<path class="st1" d="M418.3,55c-1.9,0-3.8-0.2-5.7-0.6c4.5,1.6,8.9,2.7,14.6,3.4l25.9,2.8c4.5,0.5,8.8,2.8,11.6,6.4l0.1,0.1
		l0.1,0.1c6.6,7.2,9.9,12.9,12.6,21.6c-1.8-10.5-4.7-16.4-8.9-24.7c-1.7-3.4-6.2-5.2-8.8-5.5l-32.5-4.9l-4.4,0.9
		C421.4,54.9,419.8,55,418.3,55z"/>
</g>
<g id="Слой_11">
	<g>
		<path d="M385.8,89.5L385.8,89.5c19.9,0,34.9,15.1,34.9,34.9v7.7l-69.9,3.8v-11.5C350.9,104.5,365.9,89.5,385.8,89.5z"/>
		
			<radialGradient id="SVGID_1_" cx="138.5881" cy="54.3" r="28.7" gradientTransform="matrix(-1 0 0 -1 524.3881 180)" gradientUnits="userSpaceOnUse">
			<stop  offset="0" style="stop-color:#FFFFFF"/>
			<stop  offset="0.1303" style="stop-color:#CDCDCD"/>
			<stop  offset="0.308" style="stop-color:#909090"/>
			<stop  offset="0.4787" style="stop-color:#5C5C5C"/>
			<stop  offset="0.6378" style="stop-color:#343434"/>
			<stop  offset="0.7824" style="stop-color:#181818"/>
			<stop  offset="0.9079" style="stop-color:#060606"/>
			<stop  offset="1" style="stop-color:#000000"/>
		</radialGradient>
		<circle class="st10" cx="385.8" cy="125.7" r="28.7"/>
		
			<linearGradient id="SVGID_2_" gradientUnits="userSpaceOnUse" x1="131.0305" y1="54.3517" x2="118.3305" y2="54.3517" gradientTransform="matrix(-1 0 0 -1 524.3881 180)">
			<stop  offset="0" style="stop-color:#BCBEC0"/>
			<stop  offset="0.5491" style="stop-color:#A7A9AC"/>
			<stop  offset="1" style="stop-color:#939598"/>
		</linearGradient>
		<path class="st11" d="M393.8,124.7l-0.4-0.7c0,0,6.2-2.1,12.6-2l0.1,1.7l0,0l0,0v0.5c0,0,0,0-0.1,0l-0.2,0.6c0,0-7.5,0-9.1,0.3
			c-1.5,0.3-2,0.7-2.1,0.9s2.4,1.1,2.4,1.1l8.3,0.1l-0.2,2.1c0,0-9.6-0.7-11.2-2.2l0.1-0.7l0,0c-0.1-0.1-0.2-0.2-0.2-0.3
			C393.5,125.4,393.3,125,393.8,124.7z"/>
		
			<linearGradient id="SVGID_3_" gradientUnits="userSpaceOnUse" x1="137.8011" y1="68.1" x2="129.1323" y2="68.1" gradientTransform="matrix(-1 0 0 -1 524.3881 180)">
			<stop  offset="0" style="stop-color:#BCBEC0"/>
			<stop  offset="0.5491" style="stop-color:#A7A9AC"/>
			<stop  offset="1" style="stop-color:#939598"/>
		</linearGradient>
		<path class="st12" d="M388.6,105.4l2,0.6c0,0,0,0,0,0.1l0.5,0.3c0,0-2.3,7.2-2.5,8.7s0,2.1,0.2,2.3c0.2,0.2,1.8-2,1.8-2l2.7-7.9
			l2,0.9c0,0-3.7,8.9-5.5,10l-0.6-0.3l0,0c-0.1,0.1-0.2,0.1-0.4,0.1c-0.9,0.1-1.2,0.2-1.4-0.4l-0.8,0.2
			C386.6,118,386.5,111.4,388.6,105.4z"/>
		
			<linearGradient id="SVGID_4_" gradientUnits="userSpaceOnUse" x1="157.0385" y1="63.1" x2="144.2966" y2="63.1" gradientTransform="matrix(-1 0 0 -1 524.3881 180)">
			<stop  offset="0" style="stop-color:#BCBEC0"/>
			<stop  offset="0.5491" style="stop-color:#A7A9AC"/>
			<stop  offset="1" style="stop-color:#939598"/>
		</linearGradient>
		<path class="st13" d="M367.3,116.7l1.2-1.8c0,0,0,0,0.1,0.1l0.5-0.4c0,0,6.1,4.4,7.5,5.1c1.4,0.6,2,0.6,2.2,0.5s-1.3-2.3-1.3-2.3
			l-6.7-5l1.4-1.6c0,0,7.3,6.2,7.8,8.3l-0.5,0.5l0,0c0,0.1,0,0.3,0,0.4c-0.1,0.9-0.2,1.2-0.8,1.2l-0.1,0.8
			C378.7,122.5,372.5,120.6,367.3,116.7z"/>
		
			<linearGradient id="SVGID_5_" gradientUnits="userSpaceOnUse" x1="156.3881" y1="45.1529" x2="143.7424" y2="45.1529" gradientTransform="matrix(-1 0 0 -1 524.3881 180)">
			<stop  offset="0" style="stop-color:#BCBEC0"/>
			<stop  offset="0.5491" style="stop-color:#A7A9AC"/>
			<stop  offset="1" style="stop-color:#939598"/>
		</linearGradient>
		<path class="st14" d="M375.9,131.1l-6.8,4.8l-1.1-1.8c0,0,8.2-5,10.3-4.8l0.3,0.6l0,0c0.1,0,0.3,0,0.4,0.1
			c0.8,0.4,1.1,0.6,0.9,1.1l0.7,0.3c0,0-3.8,5.3-9,9l-1.3-1.7c0,0,0,0,0.1-0.1l-0.2-0.6c0,0,6.1-4.4,7.1-5.6c1-1.2,1.2-1.7,1.2-1.9
			C378.5,130.4,375.9,131.1,375.9,131.1z"/>
		
			<linearGradient id="SVGID_6_" gradientUnits="userSpaceOnUse" x1="137.6965" y1="41.1" x2="128.9076" y2="41.1" gradientTransform="matrix(-1 0 0 -1 524.3881 180)">
			<stop  offset="0" style="stop-color:#BCBEC0"/>
			<stop  offset="0.5491" style="stop-color:#A7A9AC"/>
			<stop  offset="1" style="stop-color:#939598"/>
		</linearGradient>
		<path class="st15" d="M386.9,133.9l0.7-0.1l0,0c0.1-0.1,0.1-0.2,0.2-0.3c0.6-0.6,0.9-0.9,1.4-0.5l0.5-0.6c0,0,3.9,5.3,5.8,11.4
			l-2,0.7c0,0,0,0,0-0.1h-0.6c0,0-2.3-7.2-3.1-8.5c-0.8-1.3-1.3-1.7-1.5-1.7s-0.3,2.7-0.3,2.7l2.5,8l-2.1,0.5
			C388.3,145.2,386,135.8,386.9,133.9z"/>
		
			<linearGradient id="SVGID_7_" gradientUnits="userSpaceOnUse" x1="130.0881" y1="54.3" x2="147.1102" y2="54.3" gradientTransform="matrix(-1 0 0 -1 524.3881 180)">
			<stop  offset="0" style="stop-color:#BCBEC0"/>
			<stop  offset="0.2646" style="stop-color:#D1D2D4"/>
			<stop  offset="0.4921" style="stop-color:#E6E7E8"/>
			<stop  offset="0.6001" style="stop-color:#CDCECF"/>
			<stop  offset="0.8286" style="stop-color:#8C8D8F"/>
			<stop  offset="1" style="stop-color:#58595B"/>
		</linearGradient>
		<circle class="st16" cx="385.8" cy="125.7" r="8.5"/>
		
			<radialGradient id="SVGID_8_" cx="138.5881" cy="54.3484" r="2.7759" gradientTransform="matrix(-1 0 0 -1 524.3881 180)" gradientUnits="userSpaceOnUse">
			<stop  offset="0" style="stop-color:#F1F2F2"/>
			<stop  offset="0.5604" style="stop-color:#D1D2D4"/>
			<stop  offset="1" style="stop-color:#BCBEC0"/>
		</radialGradient>
		<path class="st17" d="M385.8,122.9c1.5,0,2.8,1.2,2.8,2.8c0,1.5-1.2,2.8-2.8,2.8c-1.5,0-2.8-1.2-2.8-2.8
			C383,124.1,384.3,122.9,385.8,122.9z"/>
		
			<radialGradient id="SVGID_9_" cx="385.1831" cy="54.3481" r="21.4105" gradientTransform="matrix(1 0 0 -1 0.6169 180)" gradientUnits="userSpaceOnUse">
			<stop  offset="0" style="stop-color:#BCBEC0"/>
			<stop  offset="0.4396" style="stop-color:#D1D2D4"/>
			<stop  offset="1" style="stop-color:#F1F2F2"/>
		</radialGradient>
		<path class="st18" d="M385.8,147.1c11.8,0,21.4-9.6,21.4-21.4s-9.6-21.4-21.4-21.4s-21.4,9.6-21.4,21.4S374,147.1,385.8,147.1z
			 M385.8,107.1c10.2,0,18.6,8.3,18.6,18.6s-8.3,18.6-18.6,18.6s-18.6-8.3-18.6-18.6S375.6,107.1,385.8,107.1z"/>
		<path class="st19" d="M385.5,118.9c0.5,0,1,0.3,1.2,0.8c0.1,0.2,0.1,0.3,0.1,0.5c0,0.7-0.6,1.3-1.3,1.3c-0.4,0-0.7-0.2-1-0.4
			c-0.2-0.2-0.3-0.5-0.3-0.8C384.2,119.5,384.8,118.9,385.5,118.9z"/>
		<path class="st19" d="M379.3,123.8c0.2-0.5,0.6-0.8,1.1-0.9c0.2,0,0.3,0,0.5,0.1c0.7,0.2,1,0.9,0.8,1.6c-0.1,0.4-0.4,0.6-0.7,0.8
			c-0.3,0.1-0.6,0.1-0.9,0C379.4,125.2,379,124.5,379.3,123.8z"/>
		<path class="st19" d="M381.5,130c0-0.2,0.1-0.3,0.2-0.5c0.4-0.6,1.2-0.7,1.8-0.3c0.3,0.2,0.5,0.6,0.5,0.9c0,0.3-0.1,0.6-0.2,0.9
			c-0.4,0.6-1.2,0.7-1.8,0.3C381.6,131,381.4,130.5,381.5,130z"/>
		<path class="st19" d="M388.5,128.9c0.3-0.2,0.7-0.3,1-0.2s0.6,0.2,0.7,0.5c0.4,0.6,0.3,1.4-0.3,1.8c-0.4,0.3-1,0.3-1.4,0.1
			c-0.1-0.1-0.3-0.2-0.4-0.3C387.8,130.1,387.9,129.3,388.5,128.9z"/>
		<path class="st19" d="M389.8,123c0.2-0.3,0.4-0.5,0.7-0.6c0.7-0.2,1.4,0.1,1.6,0.8c0.2,0.5,0,1-0.4,1.4c-0.1,0.1-0.3,0.2-0.4,0.3
			c-0.7,0.2-1.4-0.2-1.6-0.8C389.6,123.7,389.7,123.3,389.8,123z"/>
	</g>
</g>
<g id="Слой_12">
	<g>
		<path d="M131.8,89.5L131.8,89.5c19.9,0,34.9,15.1,34.9,34.9l-0.5,15.5l-70.3,0.2l0.1-15.8C96,104.3,111.9,89.5,131.8,89.5z"/>
		
			<radialGradient id="SVGID_10_" cx="392.5881" cy="54.3" r="28.7" gradientTransform="matrix(-1 0 0 -1 524.3881 180)" gradientUnits="userSpaceOnUse">
			<stop  offset="0" style="stop-color:#FFFFFF"/>
			<stop  offset="0.1303" style="stop-color:#CDCDCD"/>
			<stop  offset="0.308" style="stop-color:#909090"/>
			<stop  offset="0.4787" style="stop-color:#5C5C5C"/>
			<stop  offset="0.6378" style="stop-color:#343434"/>
			<stop  offset="0.7824" style="stop-color:#181818"/>
			<stop  offset="0.9079" style="stop-color:#060606"/>
			<stop  offset="1" style="stop-color:#000000"/>
		</radialGradient>
		<circle class="st20" cx="131.8" cy="125.7" r="28.7"/>
		
			<linearGradient id="SVGID_11_" gradientUnits="userSpaceOnUse" x1="384.0881" y1="54.3" x2="401.1101" y2="54.3" gradientTransform="matrix(-1 0 0 -1 524.3881 180)">
			<stop  offset="0" style="stop-color:#BCBEC0"/>
			<stop  offset="0.2646" style="stop-color:#D1D2D4"/>
			<stop  offset="0.4921" style="stop-color:#E6E7E8"/>
			<stop  offset="0.6001" style="stop-color:#CDCECF"/>
			<stop  offset="0.8286" style="stop-color:#8C8D8F"/>
			<stop  offset="1" style="stop-color:#58595B"/>
		</linearGradient>
		<circle class="st21" cx="131.8" cy="125.7" r="8.5"/>
		
			<radialGradient id="SVGID_12_" cx="392.5881" cy="54.3484" r="2.7726" gradientTransform="matrix(-1 0 0 -1 524.3881 180)" gradientUnits="userSpaceOnUse">
			<stop  offset="0" style="stop-color:#F1F2F2"/>
			<stop  offset="0.5604" style="stop-color:#D1D2D4"/>
			<stop  offset="1" style="stop-color:#BCBEC0"/>
		</radialGradient>
		<path class="st22" d="M131.8,122.9c1.5,0,2.8,1.2,2.8,2.8c0,1.5-1.2,2.8-2.8,2.8c-1.5,0-2.8-1.2-2.8-2.8
			C129,124.1,130.3,122.9,131.8,122.9z"/>
		
			<radialGradient id="SVGID_13_" cx="131.1831" cy="54.3481" r="21.4123" gradientTransform="matrix(1 0 0 -1 0.6169 180)" gradientUnits="userSpaceOnUse">
			<stop  offset="0" style="stop-color:#BCBEC0"/>
			<stop  offset="0.4396" style="stop-color:#D1D2D4"/>
			<stop  offset="1" style="stop-color:#F1F2F2"/>
		</radialGradient>
		<path class="st23" d="M131.8,147.1c11.8,0,21.4-9.6,21.4-21.4s-9.6-21.4-21.4-21.4s-21.4,9.6-21.4,21.4S120,147.1,131.8,147.1z
			 M131.8,107.1c10.2,0,18.6,8.3,18.6,18.6s-8.3,18.6-18.6,18.6s-18.6-8.3-18.6-18.6S121.6,107.1,131.8,107.1z"/>
		<path class="st19" d="M131.5,118.9c0.5,0,1,0.3,1.2,0.8c0.1,0.2,0.1,0.3,0.1,0.5c0,0.7-0.6,1.3-1.3,1.3c-0.4,0-0.7-0.2-1-0.4
			c-0.2-0.2-0.3-0.5-0.3-0.8C130.2,119.5,130.8,118.9,131.5,118.9z"/>
		<path class="st19" d="M125.3,123.8c0.2-0.5,0.6-0.8,1.1-0.9c0.2,0,0.3,0,0.5,0.1c0.7,0.2,1,0.9,0.8,1.6c-0.1,0.4-0.4,0.6-0.7,0.8
			c-0.3,0.1-0.6,0.1-0.9,0C125.4,125.2,125.1,124.5,125.3,123.8z"/>
		<path class="st19" d="M127.5,130c0-0.2,0.1-0.3,0.2-0.5c0.4-0.6,1.2-0.7,1.8-0.3c0.3,0.2,0.5,0.6,0.5,0.9c0,0.3-0.1,0.6-0.2,0.9
			c-0.4,0.6-1.2,0.7-1.8,0.3C127.6,131,127.4,130.5,127.5,130z"/>
		<path class="st19" d="M134.5,128.9c0.3-0.2,0.7-0.3,1-0.2s0.6,0.2,0.7,0.5c0.4,0.6,0.3,1.4-0.3,1.8c-0.4,0.3-1,0.3-1.4,0.1
			c-0.1-0.1-0.3-0.2-0.4-0.3C133.8,130.1,133.9,129.3,134.5,128.9z"/>
		<path class="st19" d="M135.8,123c0.2-0.3,0.4-0.5,0.7-0.6c0.7-0.2,1.4,0.1,1.6,0.8c0.2,0.5,0,1-0.4,1.4c-0.1,0.1-0.3,0.2-0.4,0.3
			c-0.7,0.2-1.4-0.2-1.6-0.8C135.6,123.7,135.7,123.3,135.8,123z"/>
		
			<linearGradient id="SVGID_14_" gradientUnits="userSpaceOnUse" x1="391.7889" y1="68.1" x2="383.1202" y2="68.1" gradientTransform="matrix(-1 0 0 -1 524.3881 180)">
			<stop  offset="0" style="stop-color:#BCBEC0"/>
			<stop  offset="0.5491" style="stop-color:#A7A9AC"/>
			<stop  offset="1" style="stop-color:#939598"/>
		</linearGradient>
		<path class="st24" d="M134.6,105.4l2,0.6c0,0,0,0,0,0.1l0.5,0.3c0,0-2.3,7.2-2.5,8.7s0,2.1,0.2,2.3c0.2,0.2,1.8-2,1.8-2l2.7-7.9
			l2,0.9c0,0-3.7,8.9-5.5,10l-0.6-0.3l0,0c-0.1,0.1-0.2,0.1-0.4,0.1c-0.9,0.1-1.2,0.2-1.4-0.4l-0.8,0.2
			C132.6,118,132.5,111.4,134.6,105.4z"/>
		
			<linearGradient id="SVGID_15_" gradientUnits="userSpaceOnUse" x1="411.0349" y1="63.1" x2="398.2931" y2="63.1" gradientTransform="matrix(-1 0 0 -1 524.3881 180)">
			<stop  offset="0" style="stop-color:#BCBEC0"/>
			<stop  offset="0.5491" style="stop-color:#A7A9AC"/>
			<stop  offset="1" style="stop-color:#939598"/>
		</linearGradient>
		<path class="st25" d="M113.4,116.7l1.2-1.8c0,0,0,0,0.1,0.1l0.5-0.4c0,0,6.1,4.4,7.5,5.1c1.4,0.6,2,0.6,2.2,0.5s-1.3-2.3-1.3-2.3
			l-6.7-5l1.4-1.6c0,0,7.3,6.2,7.8,8.3l-0.5,0.5l0,0c0,0.1,0,0.3,0,0.4c-0.1,0.9-0.2,1.2-0.8,1.2l-0.1,0.8
			C124.7,122.5,118.5,120.6,113.4,116.7z"/>
		
			<linearGradient id="SVGID_16_" gradientUnits="userSpaceOnUse" x1="410.3881" y1="45.1529" x2="397.7424" y2="45.1529" gradientTransform="matrix(-1 0 0 -1 524.3881 180)">
			<stop  offset="0" style="stop-color:#BCBEC0"/>
			<stop  offset="0.5491" style="stop-color:#A7A9AC"/>
			<stop  offset="1" style="stop-color:#939598"/>
		</linearGradient>
		<path class="st26" d="M121.9,131.1l-6.8,4.8l-1.1-1.8c0,0,8.2-5,10.3-4.8l0.3,0.6l0,0c0.1,0,0.3,0,0.4,0.1
			c0.8,0.4,1.1,0.6,0.9,1.1l0.7,0.3c0,0-3.8,5.3-9,9l-1.3-1.7c0,0,0,0,0.1-0.1l-0.2-0.6c0,0,6.1-4.4,7.1-5.6c1-1.2,1.2-1.7,1.2-1.9
			C124.5,130.4,121.9,131.1,121.9,131.1z"/>
		
			<linearGradient id="SVGID_17_" gradientUnits="userSpaceOnUse" x1="391.6863" y1="41.1" x2="382.8974" y2="41.1" gradientTransform="matrix(-1 0 0 -1 524.3881 180)">
			<stop  offset="0" style="stop-color:#BCBEC0"/>
			<stop  offset="0.5491" style="stop-color:#A7A9AC"/>
			<stop  offset="1" style="stop-color:#939598"/>
		</linearGradient>
		<path class="st27" d="M132.9,133.9l0.7-0.1l0,0c0.1-0.1,0.1-0.2,0.2-0.3c0.6-0.6,0.9-0.9,1.4-0.5l0.5-0.6c0,0,3.9,5.3,5.8,11.4
			l-2,0.7c0,0,0,0,0-0.1h-0.6c0,0-2.3-7.2-3.1-8.5s-1.3-1.7-1.5-1.7s-0.3,2.7-0.3,2.7l2.5,8l-2.1,0.5
			C134.3,145.2,132,135.8,132.9,133.9z"/>
		
			<linearGradient id="SVGID_18_" gradientUnits="userSpaceOnUse" x1="380.4707" y1="52.8929" x2="371.6818" y2="52.8929" gradientTransform="matrix(-0.2784 0.9605 -0.9605 -0.2784 300.8319 -222.9921)">
			<stop  offset="0" style="stop-color:#BCBEC0"/>
			<stop  offset="0.5491" style="stop-color:#A7A9AC"/>
			<stop  offset="1" style="stop-color:#939598"/>
		</linearGradient>
		<path class="st28" d="M139.4,126.2l0.1-0.7l0,0c-0.1-0.1-0.2-0.2-0.3-0.3c-0.4-0.8-0.6-1.1-0.1-1.5l-0.4-0.6c0,0,6.1-2.3,12.5-2.4
			l0.2,2.1c0,0,0,0-0.1,0l-0.1,0.6c0,0-7.5,0.2-9,0.6s-2,0.7-2.1,0.9c-0.1,0.2,2.5,1.1,2.5,1.1l8.3-0.2l-0.1,2.1
			C150.7,128,141.1,127.5,139.4,126.2z"/>
	</g>
</g>
<g id="Слой_9">
	<path class="st1" d="M61.9,90.1c1.5-1,4.5-2.6,4.8-2.8c0,0,0,0,0,0c2.8-2,7.5-3.9,13.1-5.7c-5.4,1.8-10,3.7-13.1,5.7
		c0,0,1.2-0.6,1.8-0.8c0.1-0.1,0.2-0.1,0.3-0.2c1.4-0.8,2.7-1.4,4.3-2c2.1-1,4.3-1.8,7.1-2.8c4.1-1.3,8.6-2.5,13.3-3.7
		c2.3-0.6,4.6-1.1,7-1.6c9.2-2,18.7-3.5,26.5-4.5c14-2.1,29.4-3.9,40.5-7.5c-1.6,0.3-4,0.7-5.6,0.7c-1.6,0-3.2-0.2-4.8-0.5l-2.4-0.6
		l0.1,0l-0.2-0.1l-8.2-0.6C91.8,68.6,81.7,73.5,63.9,83c-2.9,1.6-6.3,4.1-9.5,7.1h7.3H61.9z"/>
</g>
<g id="Слой_10">
	<path class="st1" d="M84.8,97.2l-1.6-1.4c-2,1.2-3.4,2.4-6.8,2.8c-0.2,0-0.3,0-0.4,0.1l-23.4,2.2c-1.9,0.1-2.3-0.8-0.9-2l4.8-4.4
		c1.6-1.4,3.4-2.9,5.2-4.1h-0.2h-7.2c-3.6,3.4-7,7.5-9.4,11.8c-2.2,4.1-3.6,5.7-3.6,9.1v3.2c0,1.3,1.1,2.4,2.4,2.4h0.5
		c1.4,0,2.6,1.1,2.6,2.6v6.8c0,0.4-0.1,0.7-0.4,0.9c-0.2,0.2-1.1,0.4-1.5,0.4c-0.4,0-0.6,0.4-0.5,0.7l0.9,2.2c0.8,2,3.3,6.2,5.4,6.3
		l43.2,3.3h2v-12.9c0-11.3,5-21.6,12.9-28.4H89C87.5,98.7,86,98.2,84.8,97.2z"/>
</g>
<g id="Слой_7">
	<path class="st1" d="M286.8,28.5c0.1-0.2,0.5-2.4,0.8-3.9c-22.2,0.8-41.8,3.7-50.6,7.6l-0.2,0c0,0,0,0-0.1,0l0.1,0
		c-20.5,6.9-36.9,14.9-53,23.8c-2.8,1.6-5.6,3.2-8.5,4.8l8.2,4.2c5.7-4.3,13.8-9.4,24-14.8c10.6-5.8,21.7-10.4,33.2-13.9
		c14.7-4.5,30-7.2,45.2-7.7C286.1,28.5,286.6,28.5,286.8,28.5z"/>
</g>
<g id="Слой_8">
	<path class="st1" d="M289.2,28.5C289.2,28.5,289.2,28.5,289.2,28.5c0.7,0,1.4,0,2.1,0c0,0,0,0,0,0c0.7,0,1.4,0,2.1,0
		c0,0,0.1,0,0.1,0c0.7,0,1.4,0,2.1,0c0,0,0.1,0,0.1,0c0.7,0,1.4,0,2.1,0c0.1,0,0.1,0,0.2,0c0.7,0,1.3,0,2,0c0.1,0,0.2,0,0.3,0
		c0.7,0,1.3,0,2,0c0.1,0,0.2,0,0.3,0c0.7,0,1.3,0,2,0.1c0.1,0,0.3,0,0.4,0c0.6,0,1.3,0,1.9,0.1c0.2,0,0.3,0,0.5,0
		c0.6,0,1.3,0.1,1.9,0.1c0.2,0,0.4,0,0.7,0c0.6,0,1.2,0.1,1.8,0.1c0.3,0,0.6,0,0.8,0c0.6,0,1.1,0.1,1.7,0.1c0.3,0,0.6,0,1,0.1
		c0.5,0,1.1,0.1,1.6,0.1c0.4,0,0.9,0.1,1.3,0.1c0.5,0,0.9,0.1,1.4,0.1c0.6,0,1.2,0.1,1.7,0.1c0.3,0,0.7,0,1,0.1
		c0.9,0.1,1.9,0.1,2.8,0.2c20.6,3.3,33.2,8.7,45,19.3c3.6,3.2,4.6,8.4,2.5,12.7c2.1-0.1,21.5-1.1,41.8-1c27.3,0.2,43.9,2,49.4,5.6
		c-2.8-3.2-6.8-5.2-10.9-5.7L427,58c-7.4-1.1-12.5-2.4-18.6-5c0,0,0,0,0.1,0c-0.3-0.1-0.6-0.2-0.9-0.4c-0.2-0.1-0.4-0.1-0.5-0.2
		l-42.6-20.9l0.1,0l-0.1,0c-27-7-57.5-7.3-73.4-7c-1.1,0-2.1,0.1-3.2,0.1c-0.5,2.9-0.7,3.7-0.8,4C287.8,28.5,288.5,28.5,289.2,28.5z
		"/>
</g>
<g id="Слой_5">
	<path class="st1" d="M236.8,32.2c0,0,0.1,0,0.1-0.1l0.4-0.1h-0.1c9.4-4,30.4-7,53.7-7.6c15.9-0.4,46.5,0,73.5,7l0.1,0.1
		c0,0,0.1,0,0.1,0l4.6-1l2.3-0.5l0.1,0l0,0c-26.5-7.2-55.1-8.9-96-7.6c-15.6,0.5-30.4,2.9-47.3,8.2l0.2,0l0.2,0L236.8,32.2z"/>
</g>
<g id="Слой_6">
	<g>
		<path class="st29" d="M51.7,99c-0.6,0.5-0.7,1-0.7,1.1c0.3,0.7,0.6,0.4,24.8-1.9c3.1-0.3,5.9-1.5,8.3-3.5l11.3-9.6
			c0.9-0.8,1.3-1.5,1.2-1.9c-0.1-0.4-0.8-0.6-1.7-0.6c-0.4,0,0.3,0-13,0.9c-9.5,0.7-18.5,4.6-25.4,11L51.7,99z"/>
		<path class="st30" d="M70.9,85.8c-5.3,1.9-10.3,4.8-14.4,8.7L51.7,99c-0.6,0.5-0.7,1-0.7,1.1c0.3,0.7,0.6,0.4,24.8-1.9
			c1.2-0.1,2.3-0.4,3.4-0.7c0-0.1,0-0.3,0-0.4C79.2,92.3,75.9,88.2,70.9,85.8z"/>
	</g>
</g>
<g id="Слой_4">
	<g>
		<path class="st1" d="M280.7,63.9l6.1-35.3c-0.3,0-0.6,0-0.8,0c-27,1-54.1,8.4-78.3,21.6c-18.3,10-30.4,18.8-32.5,23.5
			c-2.2,5-3.3,12.3-3.3,21.6c0,9.2,1,20.3,3.1,32.6c0.3,1.6,0.6,3.3,0.9,5l101.8-3.2C274.9,104.2,274.6,86.2,280.7,63.9z M180,70.5
			c5.1-4.7,15.2-11.4,28.4-18.6c11.9-6.5,24.6-11.6,37.5-15.2c11.9-3.3,24.1-5.3,36.3-6l-9.4,34.7L180,70.5z"/>
		<polygon class="st6" points="166.2,133.2 175.9,132.9 175.9,132.7 166.2,133 		"/>
	</g>
</g>
<g id="Слой_3">
	<path class="st1" d="M277.9,129.7l49.8-1.5c5.2,0,10-2.9,12.5-7.5l32-58.5c2.4-4.3,1.4-9.6-2.2-12.9
		c-11.8-10.6-24.4-15.9-44.9-19.2c-11.6-1-21.3-1.5-30.3-1.5c-2.6,0-5.2,0-7.8,0.1L280.9,64C274.8,86.2,275.1,104.3,277.9,129.7z
		 M291.2,30.4c1.2,0,2.5,0,3.7,0c8.9,0,18.4,0.5,30.1,1.5c20.1,3.2,32.4,8.5,43.9,18.8c2.6,2.3,3.5,6.1,2.3,9.4l-83.3,4.5
		L291.2,30.4z"/>
</g>
<g id="Слой_2" class="st31">
	<g class="st32">
		<path class="st33" d="M472,90.4h-9l11,9c0,0,2,2,0,2s-24,0-24,0s-5-2-8-4c0,0-13,2-26,1c0,0,11,9,12,28v14c0,0,44-2,47-3s6-5,6-10
			s0-11,0-11s7,1.3,3-9C479,94.4,472,90.4,472,90.4z"/>
		<path class="st33" d="M445.3,81.3c0,0-18-8-55-11s-42-9-42-9l-7,4c0,0,11,6,10,22s-2,42-2,47h9c0,0-3-42,35-43
			c0,0,8.5,0.6,11.8,1.7c3,1,11.2,5.3,11.2,5.3s8.5,0.4,13.6,0.1c7.5-0.4,12.4-1.1,12.4-1.1S423.3,83.3,445.3,81.3z"/>
		<path class="st33" d="M245.8,67.7l102.6,4.5c0,0,4.3,5.5,3.5,17.5s-1.8,44.7-1.8,44.7l-102.5-2.8
			C247.6,131.7,247.8,81.2,245.8,67.7z"/>
		<path class="st33" d="M244.9,67.6l-93-5.4l30.7,56.3c0,0,5.1,9.4,14.4,10c9.3,0.6,49.6,2.9,49.6,2.9S246.5,72.3,244.9,67.6z"/>
		<path class="st33" d="M109.4,79.8h11.2c1.5,0,2.7-1.2,2.7-2.7v-6.3c0-1.5-1.2-2.7-2.7-2.7h-11.2c-1.5,0-2.7,1.2-2.7,2.7v6.3
			C106.8,78.6,108,79.8,109.4,79.8z"/>
		<path class="st33" d="M81.5,70.9c-2.1-4.5-22-3.1-22-3.1c1-1.2,4.5-3.1,4.5-3.1c11.2-6.6,88.7-2.4,88.7-2.4s4.5,7.8,23.7,43.3
			c10.6,19.6,17.3,22.7,17.3,22.7L174,136c1-25.2-8-34.4-8-34.4c-19.8-21.8-45.7-6.7-45.7-6.7S93,95,80.4,95.1s-14.5-8.4-14.5-8.4
			L78,78.9C78,78.9,83.6,75.4,81.5,70.9z M107.2,77.2c0,1.5,1.2,2.7,2.7,2.7H121c1.5,0,2.7-1.2,2.7-2.7v-6.3c0-1.5-1.2-2.7-2.7-2.7
			h-11.2c-1.5,0-2.7,1.2-2.7,2.7L107.2,77.2L107.2,77.2z"/>
		<path class="st33" d="M119.5,95.3h-40c0,0-12-0.2-13.5-8.1c0,0-7.9,3.5-18,4.1c0,0-5,0.4-5.2,4.1s-0.2,23.1-0.2,23.1
			s2.5,8,10.9,9.4s51.7,4.6,51.7,4.6S99.8,115.8,119.5,95.3z"/>
	</g>
</g>
</svg>
