<svg width="80" height="80" viewBox="0 0 80 80" fill="none" xmlns="http://www.w3.org/2000/svg">
<path d="M46.6667 5.33334H12C8.31671 5.33334 5.33337 8.31667 5.33337 12V30.6667C5.33337 34.35 8.31671 37.3333 12 37.3333H46.6667C50.35 37.3333 53.3334 34.35 53.3334 30.6667V12C53.3334 8.31667 50.35 5.33334 46.6667 5.33334ZM50.6667 30.6667C50.6667 32.8833 48.8834 34.6667 46.6667 34.6667H12C9.78337 34.6667 8.00004 32.8833 8.00004 30.6667V12C8.00004 9.78334 9.78337 8 12 8H46.6667C48.8834 8 50.6667 9.78334 50.6667 12V30.6667Z" fill="white"/>
<path d="M17.3334 40H9.33337C7.11671 40 5.33337 41.7833 5.33337 44V52C5.33337 54.2167 7.11671 56 9.33337 56H17.3334C19.55 56 21.3334 54.2167 21.3334 52V44C21.3334 41.7833 19.55 40 17.3334 40ZM18.6667 52C18.6667 52.7333 18.0667 53.3333 17.3334 53.3333H9.33337C8.60004 53.3333 8.00004 52.7333 8.00004 52V44C8.00004 43.2667 8.60004 42.6667 9.33337 42.6667H17.3334C18.0667 42.6667 18.6667 43.2667 18.6667 44V52Z" fill="white"/>
<path d="M17.3334 58.6667H9.33337C7.11671 58.6667 5.33337 60.45 5.33337 62.6667V70.6667C5.33337 72.8833 7.11671 74.6667 9.33337 74.6667H17.3334C19.55 74.6667 21.3334 72.8833 21.3334 70.6667V62.6667C21.3334 60.45 19.55 58.6667 17.3334 58.6667ZM18.6667 70.6667C18.6667 71.4 18.0667 72 17.3334 72H9.33337C8.60004 72 8.00004 71.4 8.00004 70.6667V62.6667C8.00004 61.9333 8.60004 61.3333 9.33337 61.3333H17.3334C18.0667 61.3333 18.6667 61.9333 18.6667 62.6667V70.6667Z" fill="white"/>
<path d="M36 40H28C25.7833 40 24 41.7833 24 44V52C24 54.2167 25.7833 56 28 56H36C38.2167 56 40 54.2167 40 52V44C40 41.7833 38.2167 40 36 40ZM37.3333 52C37.3333 52.7333 36.7333 53.3333 36 53.3333H28C27.2667 53.3333 26.6667 52.7333 26.6667 52V44C26.6667 43.2667 27.2667 42.6667 28 42.6667H36C36.7333 42.6667 37.3333 43.2667 37.3333 44V52Z" fill="white"/>
<path d="M36 58.6667H28C25.7833 58.6667 24 60.45 24 62.6667V70.6667C24 72.8833 25.7833 74.6667 28 74.6667H36C38.2167 74.6667 40 72.8833 40 70.6667V62.6667C40 60.45 38.2167 58.6667 36 58.6667ZM37.3333 70.6667C37.3333 71.4 36.7333 72 36 72H28C27.2667 72 26.6667 71.4 26.6667 70.6667V62.6667C26.6667 61.9333 27.2667 61.3333 28 61.3333H36C36.7333 61.3333 37.3333 61.9333 37.3333 62.6667V70.6667Z" fill="white"/>
<path d="M52 53.3333H44C43.2666 53.3333 42.6666 53.9333 42.6666 54.6667V73.3333C42.6666 74.0667 43.2666 74.6667 44 74.6667H52C52.7333 74.6667 53.3333 74.0667 53.3333 73.3333V54.6667C53.3333 53.9333 52.7333 53.3333 52 53.3333ZM50.6666 72H45.3333V56H50.6666V72Z" fill="white"/>
<path d="M49.3333 40H46.6666C44.45 40 42.6666 41.7833 42.6666 44V46.6667C42.6666 48.8833 44.45 50.6667 46.6666 50.6667H49.3333C51.55 50.6667 53.3333 48.8833 53.3333 46.6667V44C53.3333 41.7833 51.55 40 49.3333 40ZM50.6666 46.6667C50.6666 47.4 50.0666 48 49.3333 48H46.6666C45.9333 48 45.3333 47.4 45.3333 46.6667V44C45.3333 43.2667 45.9333 42.6667 46.6666 42.6667H49.3333C50.0666 42.6667 50.6666 43.2667 50.6666 44V46.6667Z" fill="white"/>
<path d="M12 46.6667H14.6667V49.3333H12V46.6667Z" fill="white"/>
<path d="M30.6666 46.6667H33.3333V49.3333H30.6666V46.6667Z" fill="white"/>
<path d="M12 65.3333H14.6667V68H12V65.3333Z" fill="white"/>
<path d="M30.6666 65.3333H33.3333V68H30.6666V65.3333Z" fill="white"/>
<path d="M44 16H41.3334C39.1167 16 37.3334 17.7833 37.3334 20V28C37.3334 30.2167 39.1167 32 41.3334 32H44C46.2167 32 48 30.2167 48 28V20C48 17.7833 46.2167 16 44 16ZM45.3334 28C45.3334 28.7333 44.7334 29.3333 44 29.3333H41.3334C40.6 29.3333 40 28.7333 40 28V20C40 19.2667 40.6 18.6667 41.3334 18.6667H44C44.7334 18.6667 45.3334 19.2667 45.3334 20V28Z" fill="white"/>
<path d="M30.6667 16H28C25.7833 16 24 17.7833 24 20V28C24 30.2167 25.7833 32 28 32H30.6667C32.8833 32 34.6667 30.2167 34.6667 28V20C34.6667 17.7833 32.8833 16 30.6667 16ZM32 28C32 28.7333 31.4 29.3333 30.6667 29.3333H28C27.2667 29.3333 26.6667 28.7333 26.6667 28V20C26.6667 19.2667 27.2667 18.6667 28 18.6667H30.6667C31.4 18.6667 32 19.2667 32 20V28Z" fill="white"/>
<path d="M76.6667 34.3167L74.35 33.9333C73.9 33.8667 73.5333 33.5833 73.3667 33.1667L73.1333 32.5833C72.95 32.1667 73 31.6833 73.2667 31.3167L74.6333 29.4167C75.7833 27.8167 75.6 25.6333 74.2 24.25L71.75 21.8C70.3667 20.4 68.1833 20.2167 66.5833 21.3667L64.7 22.7167C64.3167 23 63.8 23.0333 63.3833 22.8333L62.8667 22.6167C62.45 22.45 62.15 22.0667 62.0833 21.6333L61.7 19.3333C61.4333 17.75 60.25 16.4833 58.6833 16.1167V4C58.6833 1.78333 56.9 0 54.6833 0H4C1.78333 0 0 1.78333 0 4V76C0 78.2167 1.78333 80 4 80H54.6667C56.8833 80 58.6667 78.2167 58.6667 76V63.8833C60.2333 63.5167 61.4167 62.25 61.6833 60.6667L62.0667 58.35C62.1333 57.9 62.4333 57.5333 62.8333 57.3667L63.4167 57.1333C63.8333 56.95 64.3167 57 64.6833 57.2667L66.5833 58.6333C68.1833 59.7833 70.3667 59.6 71.7333 58.2L74.1833 55.75C75.5833 54.3667 75.7667 52.1833 74.6167 50.5833L73.25 48.6833C72.9667 48.3 72.9333 47.8 73.1333 47.3667L73.35 46.8333C73.5167 46.4167 73.9 46.1167 74.3333 46.05L76.6333 45.6667C78.5667 45.35 79.9833 43.6833 79.9667 41.7333V38.2333C80 36.3 78.6 34.6333 76.6667 34.3167ZM58.6667 31.05C63.6 32.5167 66.4167 37.7167 64.95 42.6667C64.05 45.6833 61.6833 48.05 58.6667 48.95V31.05ZM56 76C56 76.7333 55.4 77.3333 54.6667 77.3333H4C3.26667 77.3333 2.66667 76.7333 2.66667 76V4C2.66667 3.26667 3.26667 2.66667 4 2.66667H54.6667C55.4 2.66667 56 3.26667 56 4V76ZM77.3333 41.75C77.3333 42.4 76.8667 42.95 76.2167 43.0667L73.9167 43.45C72.5333 43.6667 71.3833 44.6 70.8667 45.9L70.6833 46.3667C70.1333 47.65 70.3 49.1167 71.1 50.25L72.4667 52.1333C72.85 52.6667 72.7833 53.4 72.3167 53.85L69.85 56.3167C69.4 56.7833 68.6667 56.85 68.1333 56.4667L66.2333 55.1C65.1167 54.3 63.6667 54.1333 62.4 54.6667L61.8833 54.8833C60.5833 55.3833 59.65 56.55 59.4333 57.9167L59.05 60.2167C59 60.5 58.8667 60.75 58.65 60.9333V51.7C65.1167 50.2333 69.1667 43.8 67.7 37.35C66.6833 32.85 63.1667 29.3167 58.65 28.3V19.0667C58.85 19.2667 58.9833 19.5167 59.05 19.7833L59.4333 22.0833C59.65 23.4667 60.5833 24.6167 61.8833 25.1333L62.35 25.3167C63.6333 25.8667 65.1 25.7167 66.2333 24.9L68.1167 23.5333C68.65 23.15 69.3833 23.2167 69.8333 23.6833L72.3 26.15C72.7667 26.6 72.8333 27.3333 72.45 27.8667L71.0833 29.7667C70.2833 30.8833 70.1167 32.3333 70.65 33.6L70.8667 34.1167C71.3833 35.4167 72.5333 36.35 73.9 36.5667L76.2 36.95C76.8333 37.0667 77.3 37.6167 77.3167 38.2667L77.3333 41.75Z" fill="white"/>
</svg>
