<svg width="553" height="184" viewBox="0 0 553 184" fill="none" xmlns="http://www.w3.org/2000/svg">
<path d="M531.332 74.6096L522.043 74.4548L510.354 68.1046L509.89 67.8723L504.007 62.6063L503.543 60.5154L503.388 59.8184V59.7409L503.078 58.5019C503.93 58.6568 505.942 52.5389 516.934 51.4548C522.972 50.9127 526.455 50.9127 528.391 51.0675C529.629 51.145 530.248 51.2999 530.403 51.3773C530.481 51.3773 530.481 51.3773 530.481 51.3773C530.481 51.3773 530.558 55.7915 531.1 56.8756C531.642 57.9598 534.429 63.9228 531.332 74.6096Z" fill="#FC1F39"/>
<path d="M510.277 59.7409C510.277 59.7409 520.572 58.8116 525.759 59.7409C530.945 60.6702 531.564 60.4379 531.564 60.4379L530.016 57.2628L527.926 55.8689L526.455 52.6164L513.838 55.017L509.967 57.9598L510.277 59.7409Z" fill="#F36E7C"/>
<path d="M504.007 59.5086L511.206 59.7409C511.206 59.7409 511.128 61.4446 513.838 63.7679C516.547 66.0911 517.863 69.2662 521.501 70.4278C525.139 71.5894 528.7 71.9766 530.481 70.2729L529.01 72.9059L522.662 72.6736L517.631 71.0473L510.974 66.0137L504.626 60.2056L504.007 59.5086Z" fill="#FE8595"/>
<path d="M511.207 59.7409C511.207 59.7409 510.665 56.9531 513.374 55.9463C516.084 54.9396 526.147 53.081 526.766 53.5457C527.385 54.0103 527.308 56.1787 529.166 56.8756C531.024 57.5726 528.314 51.7645 528.314 51.7645L526.766 50.8352L516.626 52.3066L508.188 54.7847L507.104 56.4884L504.085 59.2763L504.55 59.5086L511.207 59.7409Z" fill="#FE8595"/>
<path d="M531.332 74.6096L522.043 74.4548L510.355 68.1046L503.543 60.4379L503.078 59.8958L503.388 59.6635L504.239 58.8891C504.239 58.8891 505.091 60.9026 508.574 63.613C512.135 66.3234 516.005 70.3504 519.644 71.7443C523.282 73.1383 527.539 73.2931 529.552 71.512C531.564 69.7309 531.719 64.5423 531.332 61.9093C530.945 59.2763 530.403 57.4952 528.933 56.8756C527.462 56.2561 527.539 53.7006 527.539 53.7006L527.384 50.9901H528.546C529.784 51.0676 530.403 51.2224 530.558 51.2999C530.636 51.2999 530.636 51.2999 530.636 51.2999C530.636 51.2999 530.713 55.714 531.255 56.7982C531.642 57.9598 534.429 63.9228 531.332 74.6096Z" fill="#1C0101"/>
<path d="M412.045 9.8689C412.045 9.8689 468.476 31.2426 480.862 38.2123L474.824 38.677C474.824 38.677 427.295 18.0002 426.443 17.7679C425.592 17.613 407.091 10.3335 407.091 10.3335L412.045 9.8689Z" fill="url(#paint0_linear)"/>
<path d="M276.039 183.956C428.491 183.956 552.077 179.276 552.077 173.502C552.077 167.728 428.491 163.047 276.039 163.047C123.587 163.047 0 167.728 0 173.502C0 179.276 123.587 183.956 276.039 183.956Z" fill="url(#paint1_radial)"/>
<path d="M178.04 62.6063C179.51 62.6063 228.665 24.3504 228.665 24.3504L270.62 7.39077L334.637 2.43454L376.979 5.22242L429.075 21.4076L446.183 37.4379L430.004 59.1214L178.04 62.6063Z" fill="url(#paint2_linear)"/>
<path d="M521.501 127.734H538.453C539.073 127.734 539.615 127.27 539.692 126.65C539.847 125.179 540.079 122.623 539.305 120.997C539.15 120.61 538.686 120.3 538.221 120.3H529.706L521.501 127.734Z" fill="url(#paint3_linear)"/>
<path d="M522.817 131.451H539.769C540.389 131.451 540.93 130.987 541.008 130.367C541.163 128.896 541.395 126.34 540.621 124.714C540.466 124.327 540.002 124.017 539.537 124.017H531.022L522.817 131.451Z" fill="url(#paint4_linear)"/>
<path d="M143.283 152.051L374.735 146.32L389.21 146.243L387.817 140.667L143.98 149.495L143.283 152.051Z" fill="#171916"/>
<path d="M387.584 144.616C387.584 144.616 393.467 151.121 397.183 152.438C400.976 153.754 471.34 136.64 471.34 136.64L484.19 137.802L469.947 84.0574L439.061 75.4615L404.847 79.1787L381.779 112.866L387.584 144.616Z" fill="#171916"/>
<path d="M47.3739 151.431C47.3739 151.431 52.2506 154.529 54.5729 154.684C56.8951 154.761 58.5981 152.98 62.0041 151.431C65.4875 149.96 126.021 156.852 129.659 158.246C133.22 159.64 147.153 149.263 147.153 149.263C147.153 149.263 143.438 104.734 132.523 95.5962C121.609 86.4581 90.413 81.347 90.413 81.347L64.5586 91.5692L46.832 109.69L50.3154 132.303L47.3739 151.431Z" fill="#171916"/>
<path d="M530.481 51.2999L528.545 52.0743C528.545 52.0743 521.888 51.7645 516.47 53.2359C511.051 54.6298 512.057 54.0877 509.58 55.5591C507.026 57.0305 505.091 58.5793 504.626 59.044C504.549 59.1214 504.084 59.3537 503.388 59.6635L503.078 58.347C503.93 58.5019 505.942 52.384 516.934 51.2999C526.997 50.3706 530.016 51.145 530.481 51.2999Z" fill="#1C0101"/>
<path d="M191.586 60.6702C191.586 60.6702 225.026 36.5861 230.6 32.5591C236.096 28.5322 255.835 17.8453 269.382 14.5928C282.928 11.2628 308.86 10.3335 308.86 10.3335C308.86 10.3335 355.615 9.63657 371.096 11.7275C386.578 13.8184 409.878 20.3234 420.638 26.751C431.398 33.2561 426.443 42.6265 426.443 42.6265L422.96 50.2157L433.41 49.5187C433.41 49.5187 441.925 35.8891 438.829 30.6231C435.732 25.3571 416.303 15.4447 408.872 13.5086C401.44 11.5726 360.182 2.74431 346.248 3.44128C332.315 4.13825 297.481 3.67361 285.483 6.84869C273.484 10.0238 257.151 11.1854 251.887 14.2056C246.623 17.2258 238.263 22.3369 238.263 22.3369L187.87 54.0103L180.594 61.677C180.594 61.677 179.665 64.2325 180.594 64.2325C181.523 64.2325 204.204 62.0642 204.204 62.0642L200.101 60.5154L191.586 60.6702Z" fill="#2D2D31"/>
<path d="M309.789 8.47495L294.926 55.4042L305.531 54.7073L316.059 8.47495H309.789Z" fill="#2D2D31"/>
<path d="M323.8 8.47495L317.375 55.2494L306.692 54.7073L317.684 8.47495H323.8Z" fill="#2D2D31"/>
<path d="M388.591 13.4312L384.023 51.0675L387.739 50.9127L391.609 14.3605L388.591 13.4312Z" fill="#2D2D31"/>
<path d="M242.289 13.4312C242.289 13.4312 200.643 35.4244 176.259 54.0103L188.258 53.8554C188.258 53.8554 205.907 41.6972 206.526 41.2325C207.145 40.7679 250.649 14.5154 250.649 14.5154L242.289 13.4312Z" fill="url(#paint5_linear)"/>
<path d="M379.147 3.36385C379.302 3.36385 382.94 1.04061 388.436 0.266204C393.932 -0.508207 399.892 0.653409 399.892 0.653409C399.892 0.653409 400.667 4.6029 402.679 7.00358C404.769 9.40425 403.763 8.08775 403.763 8.08775L379.147 3.36385Z" fill="url(#paint6_linear)"/>
<path d="M520.805 43.5558C520.805 43.5558 529.629 43.6332 530.558 43.5558C530.558 43.5558 532.493 45.3369 532.571 47.1955C532.726 49.0541 531.642 57.65 531.719 58.347C531.719 58.347 530.713 57.2628 529.707 56.6433C528.855 56.1012 528.313 55.3268 528.236 54.3201C528.159 53.3133 528.004 51.9968 527.539 50.7578C526.61 48.2022 520.805 43.5558 520.805 43.5558Z" fill="url(#paint7_linear)"/>
<path d="M531.332 74.6096C531.332 74.6096 528.623 80.4952 525.449 83.0507C522.352 85.6063 510.819 87.6197 497.814 89.246C484.809 90.8723 468.012 89.5558 450.904 81.1147C433.797 72.6736 402.292 83.0507 402.292 83.0507C402.292 83.0507 309.402 80.4952 272.4 81.2696C235.399 81.9665 190.27 86.0709 183.071 87.2325C175.872 88.3942 167.435 96.1383 167.435 96.1383C167.435 96.1383 182.065 120.687 235.631 117.667C289.198 114.647 329.76 114.647 347.951 114.647C348.648 114.647 349.344 114.569 350.119 114.492C365.91 115.808 378.992 118.209 389.907 121.229C388.668 127.502 388.281 135.014 388.513 145.004L381.779 145.158L143.98 150.889C143.98 150.889 143.98 145.623 143.283 138.344C142.122 126.96 139.026 110.852 130.898 102.721C117.661 89.4783 100.708 81.1921 76.7892 92.6534C75.5506 93.2729 74.3895 93.8925 73.3058 94.512C72.8413 94.8218 72.2221 95.2864 71.5254 95.7511C70.2095 96.6804 68.5839 97.9194 67.1905 99.2359C65.6424 100.707 60.7656 105.199 57.05 113.795C52.6377 124.482 52.0959 136.64 53.3344 146.862C53.4892 148.256 53.7214 149.65 53.9537 151.121C54.0311 151.664 45.2065 151.276 37.0012 150.502C36.9238 150.502 36.8464 150.502 36.769 150.502C31.1182 149.96 25.8544 149.34 24.074 148.721C24.074 148.721 24.7707 145.391 24.074 144.926C23.3773 144.461 21.3647 144.229 20.9777 142.138C20.5906 140.047 20.5132 131.839 20.668 124.482C20.668 124.404 20.668 124.327 20.668 124.249C20.7454 122.391 20.7454 120.687 20.8228 119.138C20.9777 114.647 21.2099 111.626 21.4421 111.162C21.5969 110.775 22.9129 109.923 24.6159 109.071L24.3062 105.044L29.1055 92.8857C28.7959 93.0406 28.6411 93.1181 28.5637 93.0406C28.2541 92.9632 22.6806 93.5053 22.6806 93.5053C22.6806 93.5053 22.6806 92.9632 23.4547 91.4144C23.7644 90.7948 25.4673 89.4009 27.2477 88.0844C27.3251 88.007 27.4026 88.007 27.48 87.9295C29.8796 86.2258 32.3567 84.5221 32.3567 84.5221C32.3567 84.5221 54.1085 70.7376 83.4463 64.9295C112.784 59.1214 169.757 54.0878 169.757 54.0878C169.757 54.0878 177.188 53.8554 179.742 53.5457C182.297 53.2359 188.877 50.8352 188.877 50.8352L192.205 53.7006L181.136 62.6063L239.115 58.5019L327.283 53.4682L427.45 49.209C427.45 49.209 429.695 49.8285 430.933 48.6669C432.172 47.5053 437.048 37.98 437.126 35.8117C437.126 33.5659 437.048 30.9329 433.952 28.5322L437.745 21.4076C437.745 21.4076 474.978 38.2123 479.933 38.2123C484.809 38.2123 520.882 43.6332 520.882 43.6332L525.139 46.8083C525.526 47.0406 525.836 47.3504 526.068 47.7376L526.146 47.815C526.61 48.4346 526.997 49.1315 527.229 49.9059L527.539 50.8352C527.539 50.8352 514.457 52.2292 509.425 54.2426C509.038 54.3975 508.651 54.5524 508.342 54.7073C504.394 56.6433 503.852 58.4245 503.62 59.5086C503.387 60.5928 514.07 69.1113 516.16 70.3504C518.327 71.5894 520.108 72.5187 523.514 73.2157C527.074 73.8352 531.332 74.6096 531.332 74.6096Z" fill="url(#paint8_linear)"/>
<path d="M30.2667 91.5692C30.2667 91.5692 25.6222 93.2729 22.9903 93.6601L21.6743 101.404L28.4863 100.552L30.2667 91.5692Z" fill="#26251B"/>
<path d="M21.6745 101.404L27.7124 100.63L29.1831 104.424L42.5748 99.778L36.4595 106.98L21.1327 115.034C21.1327 115.034 20.2038 112.633 20.5134 109.923C20.823 107.212 21.6745 101.404 21.6745 101.404Z" fill="#8C918D"/>
<path d="M24.1516 148.721C24.1516 148.721 24.8483 145.391 24.1516 144.926C23.455 144.461 21.4423 144.229 21.0553 142.138C20.6682 140.047 20.5908 131.839 20.7457 124.482C20.7457 124.404 20.7457 124.327 20.7457 124.249L29.725 125.334C29.725 125.334 29.1832 137.027 29.4928 138.034C29.8799 139.041 33.9051 138.653 33.9051 138.653L36.8466 150.579C31.2732 150.037 25.932 149.34 24.1516 148.721Z" fill="#554C39"/>
<path d="M30.2666 91.5692C28.9507 92.1888 28.0992 93.5053 27.9444 94.8992C27.6347 97.9194 27.4025 103.263 29.1055 104.734C31.5052 106.825 40.7168 100.94 40.7168 100.94L60.5333 88.6265C60.5333 88.6265 48.535 85.6063 46.2128 85.9935C44.1227 86.3807 35.0659 89.246 30.2666 91.5692Z" fill="#171916"/>
<path d="M46.9868 85.9935C46.9868 85.9935 62.0041 77.0877 99.0053 72.751C136.007 68.4143 290.282 57.65 290.282 57.65L365.91 53.4682C365.91 53.4682 128.266 70.9699 106.05 73.7578C83.8333 76.5457 74.9313 77.7073 46.9868 85.9935Z" fill="url(#paint9_linear)"/>
<path d="M70.2095 72.1315C70.2095 72.1315 76.6344 67.0204 97.3799 64.6972C118.125 62.374 181.291 57.1854 186.632 55.3268C186.632 55.3268 182.684 60.1282 180.981 60.4379C179.278 60.7477 150.095 61.3672 130.511 63.7679C111.004 66.0911 90.4905 67.7948 70.2095 72.1315Z" fill="url(#paint10_linear)"/>
<path d="M150.792 138.344H143.283C142.122 126.96 139.026 110.852 130.898 102.721C117.661 89.4783 100.709 81.1921 76.7895 92.6534C75.5509 93.2729 74.3898 93.8925 73.3061 94.512C72.8416 94.8218 72.2224 95.2864 71.5257 95.7511L67.6553 93.1181C67.6553 93.1181 83.9111 81.2696 101.87 83.2056C119.829 85.1416 131.053 92.8857 135.697 98.9261C140.419 105.044 150.25 119.216 150.792 138.344Z" fill="url(#paint11_radial)"/>
<path d="M67.1908 99.2359C64.0944 102.101 48.1483 116.815 54.0313 151.199C54.1087 151.741 45.2841 151.354 37.0788 150.579C37.0014 150.579 36.924 150.579 36.8466 150.579C31.1958 150.037 25.932 149.418 24.1516 148.798C24.1516 148.798 24.8483 145.468 24.1516 145.004C23.455 144.539 21.4423 144.307 21.0553 142.216C20.6682 140.125 20.5908 131.916 20.7457 124.559C20.7457 124.482 20.7457 124.404 20.7457 124.327C20.8231 122.468 20.8231 120.765 20.9005 119.216C21.0553 114.724 21.2875 111.704 21.5197 111.239C21.8294 110.542 26.3191 108.142 29.4928 107.135C32.6666 106.128 36.4596 105.121 39.0915 102.179C41.7234 99.3133 60.224 88.6265 60.3788 88.6265C60.5336 88.6265 67.9648 90.7174 69.5904 91.4918C71.216 92.2662 73.5382 93.5827 73.9253 93.7376C74.5446 93.9699 70.2871 96.3706 67.1908 99.2359Z" fill="url(#paint12_linear)"/>
<path d="M29.7249 125.721C29.7249 125.721 29.1057 136.717 29.4153 137.724C29.7249 138.731 29.9572 139.118 30.9635 139.195C31.8924 139.273 33.9824 138.653 33.9824 138.653C33.9824 138.653 30.499 125.643 30.4216 125.566C30.4216 125.488 29.8024 125.411 29.7249 125.721Z" fill="#030404"/>
<path d="M30.5765 125.488C30.5765 125.488 24.6934 124.791 20.7456 124.327C20.823 122.468 20.823 120.765 20.9004 119.216C21.1326 119.216 26.7835 119.525 28.2542 120.997C29.725 122.546 30.5765 125.488 30.5765 125.488Z" fill="#7B7F79"/>
<path d="M24.1518 148.721C24.1518 148.721 24.8485 145.391 24.1518 144.926C24.1518 144.926 23.7647 143.919 23.5325 142.603C23.3003 141.286 23.3003 140.125 23.3003 140.125C23.3003 140.125 32.9764 139.815 33.9053 139.583C34.6019 139.428 36.2275 146.785 37.0016 150.502C31.3508 150.037 25.9322 149.34 24.1518 148.721Z" fill="#7B7F79"/>
<path d="M150.56 134.626C150.56 134.626 336.34 127.812 376.438 122.081C377.444 121.926 378.141 122.933 377.676 123.862L376.67 125.953C376.438 126.34 376.051 126.65 375.663 126.65C362.504 127.424 170.531 138.731 150.792 138.034L150.56 134.626Z" fill="url(#paint13_linear)"/>
<path d="M148.47 83.0507C148.47 83.0507 258.854 72.9834 267.911 72.1315C276.89 71.2797 479.778 56.7207 503.697 59.5086C503.697 59.5086 505.013 61.2898 506.329 62.4514C506.329 62.4514 313.118 72.209 264.737 75.9261C216.357 79.5659 148.47 83.0507 148.47 83.0507Z" fill="url(#paint14_linear)"/>
<path d="M544.956 105.354C545.033 105.973 537.292 128.664 536.673 128.818C536.054 128.973 480.629 139.505 480.087 139.273C479.546 139.118 481.945 107.135 459.729 92.576C437.59 78.017 410.962 85.916 401.131 98.3066C395.325 105.586 391.687 112.014 389.907 121.152C379.069 118.132 365.91 115.731 350.119 114.414C349.345 114.492 348.648 114.569 347.951 114.569C329.76 114.569 289.198 114.569 235.631 117.589C182.065 120.61 167.435 96.0608 167.435 96.0608C167.435 96.0608 175.872 88.3167 183.071 87.1551C190.27 85.9935 235.399 81.8891 272.4 81.1921C309.402 80.4952 402.292 82.9733 402.292 82.9733C402.292 82.9733 433.72 72.5962 450.904 81.0372C468.012 89.4783 484.887 90.8723 497.814 89.1686C510.819 87.5423 522.275 85.5288 525.449 82.9733C528.545 80.4177 531.332 74.5322 531.332 74.5322C531.332 74.5322 531.1 81.5019 536.673 86.3807C542.324 91.2595 543.64 92.1113 543.949 96.0608C544.259 100.01 543.33 103.805 543.33 103.805C543.33 103.805 544.878 104.657 544.956 105.354Z" fill="url(#paint15_linear)"/>
<path d="M189.187 50.9901L248.094 14.5154L242.289 13.4312C242.289 13.4312 253.9 8.01031 272.71 5.68707C291.598 3.2864 350.351 -0.895419 373.496 2.27967C396.719 5.45475 411.968 9.94633 411.968 9.94633L408.407 10.6433C408.407 10.6433 434.726 19.6265 437.745 21.4076L433.952 28.5322C433.952 28.5322 424.431 18.6972 384.333 9.17192C344.236 -0.353331 270.852 9.17192 262.028 12.347C253.203 15.5995 233.542 22.2595 192.438 53.9329L189.187 50.9901Z" fill="url(#paint16_linear)"/>
<path d="M144.057 150.889C144.057 150.889 144.057 145.623 143.36 138.344C143.36 138.344 335.101 131.064 351.667 134.549C366.219 137.647 375.199 140.667 381.933 145.081L144.057 150.889Z" fill="url(#paint17_linear)"/>
<path d="M193.831 61.2898C193.831 61.2898 209.467 60.2056 216.434 58.2696C223.401 56.411 230.058 56.7982 230.6 53.8554C231.142 50.9127 229.671 49.0541 229.671 49.0541C229.671 49.0541 212.718 49.9834 212.564 49.9834C212.409 49.9834 209.003 52.6164 209.003 52.6164L200.488 53.4682L189.573 60.283L193.831 61.2898Z" fill="#2D2D31"/>
<path d="M206.062 52.9261C206.371 52.0743 207.223 45.8016 209.003 43.943C210.783 42.0844 216.976 38.5221 222.085 40.1484C227.194 41.7746 227.426 42.549 227.426 42.549C227.426 42.549 229.594 47.3504 229.594 49.0541C229.594 49.0541 213.88 49.6736 212.022 50.6029C210.164 51.5322 210.319 52.4615 210.319 52.4615L206.062 52.9261Z" fill="url(#paint18_linear)"/>
<path d="M200.643 60.6702L297.326 53.4682L386.655 49.0541L426.366 47.6601L424.74 49.2864L377.211 51.2999L307.079 54.6298L254.519 57.7275L207.377 60.98L200.643 61.4447V60.6702Z" fill="#2D2D31"/>
<path d="M306.693 54.7073C306.693 54.7073 292.295 71.9766 300.577 130.909" stroke="#2D2D31" stroke-width="0.3566" stroke-miterlimit="10"/>
<path d="M182.916 62.1416C182.916 62.1416 160.158 75.7712 174.789 137.259" stroke="#2D2D31" stroke-width="0.3566" stroke-miterlimit="10"/>
<path d="M143.283 138.731L308.318 130.832L389.21 125.876" stroke="#2D2D31" stroke-width="0.3566" stroke-miterlimit="10"/>
<path d="M377.444 126.573C377.444 126.573 398.654 88.1618 407.478 78.7915C416.303 69.4211 422.186 52.2292 424.973 48.9766" stroke="#2D2D31" stroke-width="0.3566" stroke-miterlimit="10"/>
<path d="M463.677 95.5962C463.677 95.5962 507.8 92.8857 512.986 87.6972C518.25 82.5861 520.804 72.4413 520.804 72.4413" stroke="#2D2D31" stroke-width="0.3566" stroke-miterlimit="10"/>
<path d="M29.4926 93.8925C29.4926 93.8925 33.7501 91.0271 39.788 88.9362C41.2587 88.3941 42.4199 88.0069 43.3488 87.7746C45.4388 87.0776 47.6836 87.0002 49.7737 87.3874L56.1212 88.7039C56.1212 88.7039 48.3029 87.1551 43.2714 89.0137C38.2398 90.8723 30.1893 93.4278 29.8023 96.2931C29.4152 99.1585 31.9697 102.024 31.9697 102.024C31.9697 102.024 26.8608 97.0675 29.4926 93.8925Z" fill="url(#paint19_linear)"/>
<path d="M315.672 10.1786L305.918 53.0036H307.08L317.298 10.1786H315.672Z" fill="#171916"/>
<path d="M34.9888 95.9834V101.094C34.9888 101.094 36.6143 100.707 36.6143 98.5389V95.4413C36.6143 94.8992 36.0725 94.4346 35.5306 94.6669C35.2984 94.8218 34.9888 95.1315 34.9888 95.9834Z" fill="url(#paint20_linear)"/>
<path d="M37.6206 94.2797V100.552C37.6206 100.552 38.7817 100.088 38.7817 97.4548V93.6601C38.7817 92.9632 38.3947 92.4211 38.0076 92.7309C37.8528 92.8083 37.6206 93.2729 37.6206 94.2797Z" fill="url(#paint21_linear)"/>
<path d="M31.8925 90.9497L31.7377 91.182L27.5576 88.2393C27.635 88.1618 27.7124 88.1618 27.7898 88.0844L31.8925 90.9497Z" fill="#171916"/>
<path d="M527.539 50.7578C527.539 50.7578 514.457 52.1517 509.425 54.1652C509.038 54.3201 508.651 54.475 508.342 54.6298C495.724 56.4884 477.688 58.4244 454.775 59.044C454.775 59.044 433.255 60.1282 428.92 59.044C424.586 57.9598 430.933 48.5894 430.933 48.5894L526.068 47.5827L526.146 47.6601C526.61 48.2797 526.997 48.9766 527.229 49.751L527.539 50.7578Z" fill="url(#paint22_linear)"/>
<path d="M97.9991 176.367C121.128 176.367 139.877 157.61 139.877 134.472C139.877 111.333 121.128 92.576 97.9991 92.576C74.8705 92.576 56.1211 111.333 56.1211 134.472C56.1211 157.61 74.8705 176.367 97.9991 176.367Z" fill="url(#paint23_radial)"/>
<path d="M97.9993 160.724C112.492 160.724 124.241 148.97 124.241 134.472C124.241 119.973 112.492 108.219 97.9993 108.219C83.5065 108.219 71.7578 119.973 71.7578 134.472C71.7578 148.97 83.5065 160.724 97.9993 160.724Z" fill="url(#paint24_radial)"/>
<path d="M124.817 138.815C127.194 123.992 117.11 110.048 102.293 107.67C87.4763 105.292 73.5381 115.381 71.1612 130.203C68.7843 145.026 78.8687 158.97 93.6855 161.348C108.502 163.726 122.44 153.638 124.817 138.815Z" stroke="#141414" stroke-width="2.9575" stroke-miterlimit="10"/>
<path d="M105.74 106.36C105.74 106.36 102.334 116.815 102.102 119.061C101.869 121.307 102.179 122.158 102.411 122.391C102.643 122.623 105.043 119.525 105.043 119.525C105.043 119.525 104.192 123.243 102.334 123.552C100.476 123.862 100.166 123.862 100.012 121.307C99.8568 118.751 102.643 109.845 102.643 109.845L104.424 105.509L105.74 106.36Z" fill="url(#paint25_linear)"/>
<path d="M99.1603 123.243C99.1603 123.243 99.0829 113.64 102.024 104.812L105.043 105.663C105.043 105.663 99.3152 120.3 100.321 122.933L99.1603 123.243Z" fill="url(#paint26_linear)"/>
<path d="M105.043 119.525L108.991 107.987L111.855 109.226C111.855 109.226 106.514 122.236 103.805 123.785L102.876 123.32C102.876 123.398 104.579 120.919 105.043 119.525Z" fill="url(#paint27_linear)"/>
<path d="M73.6157 118.441C73.6157 118.441 82.5177 124.869 84.6077 125.798C86.6978 126.727 87.5493 126.727 87.8589 126.573C88.1685 126.418 86.0011 123.165 86.0011 123.165C86.0011 123.165 89.2523 125.179 88.9426 126.96C88.633 128.818 88.5556 129.128 86.0785 128.509C83.6014 127.889 76.0154 122.391 76.0154 122.391L72.4546 119.371L73.6157 118.441Z" fill="url(#paint28_linear)"/>
<path d="M87.7039 129.903C87.7039 129.903 78.5697 127.037 71.061 121.461L72.764 118.906C72.764 118.906 84.9172 128.896 87.7813 128.741L87.7039 129.903Z" fill="url(#paint29_linear)"/>
<path d="M86.001 123.165L76.2476 115.886L78.3376 113.562C78.3376 113.562 89.02 122.623 89.7166 125.721L88.9426 126.418C88.9426 126.418 87.1622 124.094 86.001 123.165Z" fill="url(#paint30_linear)"/>
<path d="M75.2412 152.748C75.2412 152.748 84.1432 146.243 85.614 144.616C87.1621 142.913 87.3944 142.061 87.3169 141.751C87.2395 141.441 83.4465 142.525 83.4465 142.525C83.4465 142.525 86.3106 140.047 88.0136 140.899C89.6392 141.751 89.9488 141.906 88.5555 144.074C87.1621 146.243 79.6535 151.741 79.6535 151.741L75.7057 154.219L75.2412 152.748Z" fill="url(#paint31_linear)"/>
<path d="M90.4907 142.913C90.4907 142.913 84.9172 150.734 77.3312 156.078L75.396 153.677C75.396 153.677 88.6328 145.236 89.4069 142.448L90.4907 142.913Z" fill="url(#paint32_linear)"/>
<path d="M83.5238 142.448L73.6156 149.495L72.0674 146.785C72.0674 146.785 83.9883 139.428 87.162 139.738L87.6265 140.667C87.5491 140.667 84.7624 141.596 83.5238 142.448Z" fill="url(#paint33_linear)"/>
<path d="M108.294 161.808C108.294 161.808 104.888 151.354 103.727 149.418C102.566 147.482 101.869 146.94 101.56 146.862C101.25 146.785 101.095 150.734 101.095 150.734C101.095 150.734 99.6244 147.172 100.94 145.933C102.256 144.616 102.489 144.384 104.191 146.398C105.817 148.411 108.759 157.239 108.759 157.239L109.842 161.731L108.294 161.808Z" fill="url(#paint34_linear)"/>
<path d="M103.727 144.229C103.727 144.229 109.456 151.896 112.165 160.802L109.223 161.886C109.223 161.886 105.276 146.63 102.876 145.081L103.727 144.229Z" fill="url(#paint35_linear)"/>
<path d="M101.095 150.734L104.656 162.35L101.637 163.047C101.637 163.047 98.3086 149.418 99.5472 146.475L100.553 146.32C100.631 146.32 100.708 149.34 101.095 150.734Z" fill="url(#paint36_linear)"/>
<path d="M127.182 133.155C127.182 133.155 116.19 133.155 113.945 133.62C111.7 134.084 111.004 134.626 110.849 134.936C110.694 135.246 114.41 136.562 114.41 136.562C114.41 136.562 110.617 136.872 109.765 135.246C108.914 133.542 108.759 133.31 111.159 132.303C113.558 131.296 122.847 131.296 122.847 131.296L127.492 131.606L127.182 133.155Z" fill="url(#paint37_linear)"/>
<path d="M109.068 132.148C109.068 132.148 118.125 129.128 127.492 129.206L127.646 132.303C127.646 132.303 111.932 131.374 109.765 133.155L109.068 132.148Z" fill="url(#paint38_linear)"/>
<path d="M114.41 136.562L126.563 136.717L126.253 139.815C126.253 139.815 112.242 138.731 109.92 136.64L110.152 135.633C110.075 135.633 112.939 136.562 114.41 136.562Z" fill="url(#paint39_linear)"/>
<path d="M97.9991 146.862C104.839 146.862 110.384 141.315 110.384 134.472C110.384 127.628 104.839 122.081 97.9991 122.081C91.1589 122.081 85.6138 127.628 85.6138 134.472C85.6138 141.315 91.1589 146.862 97.9991 146.862Z" fill="url(#paint40_linear)"/>
<path d="M97.9989 138.499C100.222 138.499 102.024 136.696 102.024 134.472C102.024 132.248 100.222 130.445 97.9989 130.445C95.7758 130.445 93.9736 132.248 93.9736 134.472C93.9736 136.696 95.7758 138.499 97.9989 138.499Z" fill="url(#paint41_radial)"/>
<path d="M118.619 155.14C130.015 143.739 130.015 125.254 118.619 113.852C107.222 102.451 88.7448 102.451 77.3482 113.852C65.9516 125.254 65.9516 143.739 77.3482 155.14C88.7448 166.541 107.222 166.541 118.619 155.14Z" stroke="url(#paint42_radial)" stroke-width="2.8524" stroke-miterlimit="10"/>
<path d="M99.3152 125.721C99.0056 125.334 98.4637 125.101 97.9218 125.101C96.9155 125.101 96.064 125.953 96.064 126.96C96.064 127.192 96.1414 127.424 96.2189 127.657C95.9092 127.347 95.7544 126.882 95.7544 126.418C95.7544 125.411 96.6059 124.559 97.6122 124.559C98.3863 124.637 99.083 125.101 99.3152 125.721Z" fill="url(#paint43_radial)"/>
<path d="M99.4699 126.495C99.4699 127.502 98.6184 128.354 97.6121 128.354C97.0703 128.354 96.5284 128.121 96.2188 127.734C96.1414 127.502 96.064 127.27 96.064 127.037C96.064 126.031 96.9155 125.179 97.9218 125.179C98.4636 125.179 99.0055 125.411 99.3151 125.798C99.4699 125.953 99.4699 126.185 99.4699 126.495Z" fill="#171916"/>
<path d="M90.1034 130.522C89.6389 130.754 89.2519 131.142 89.0197 131.684C88.71 132.69 89.2519 133.697 90.2582 134.084C90.4904 134.162 90.7227 134.162 90.9549 134.162C90.5678 134.317 90.1034 134.394 89.6389 134.239C88.6326 133.929 88.0908 132.845 88.4004 131.916C88.71 131.064 89.4067 130.6 90.1034 130.522Z" fill="url(#paint44_radial)"/>
<path d="M90.8776 130.6C91.8839 130.909 92.4258 131.993 92.1161 132.923C91.9613 133.465 91.5743 133.852 91.0324 134.084C90.8002 134.084 90.5679 134.084 90.3357 134.007C89.3294 133.697 88.7875 132.613 89.0972 131.606C89.252 131.064 89.639 130.677 90.1809 130.445C90.3357 130.522 90.5679 130.522 90.8776 130.6Z" fill="#171916"/>
<path d="M91.8062 140.822C91.8836 141.364 92.1158 141.828 92.5803 142.138C93.4318 142.758 94.5929 142.603 95.2122 141.751C95.367 141.519 95.4444 141.286 95.5218 141.054C95.5218 141.519 95.4444 141.906 95.1348 142.293C94.5155 143.145 93.3544 143.3 92.5029 142.68C91.8836 142.293 91.6514 141.519 91.8062 140.822Z" fill="url(#paint45_radial)"/>
<path d="M92.1158 140.125C92.7351 139.273 93.8962 139.118 94.7477 139.738C95.2121 140.047 95.4444 140.589 95.5218 141.132C95.4444 141.364 95.3669 141.596 95.2121 141.828C94.5929 142.68 93.4317 142.835 92.5802 142.216C92.1158 141.906 91.8836 141.364 91.8062 140.899C91.8836 140.589 91.961 140.357 92.1158 140.125Z" fill="#171916"/>
<path d="M102.102 142.371C102.644 142.525 103.186 142.371 103.65 142.061C104.502 141.441 104.657 140.28 104.037 139.428C103.882 139.195 103.728 139.041 103.495 138.963C103.882 139.041 104.269 139.273 104.579 139.66C105.198 140.512 104.966 141.674 104.192 142.293C103.573 142.758 102.721 142.758 102.102 142.371Z" fill="url(#paint46_radial)"/>
<path d="M101.56 141.828C100.941 140.977 101.173 139.815 101.947 139.195C102.411 138.886 102.953 138.731 103.495 138.886C103.727 139.041 103.882 139.195 104.037 139.35C104.656 140.202 104.424 141.364 103.65 141.983C103.186 142.293 102.644 142.448 102.102 142.293C101.87 142.216 101.715 142.061 101.56 141.828Z" fill="#171916"/>
<path d="M106.746 133.078C106.978 132.613 107.133 132.071 106.901 131.529C106.591 130.522 105.507 129.98 104.501 130.29C104.269 130.367 104.037 130.522 103.882 130.677C104.114 130.29 104.424 129.98 104.888 129.903C105.894 129.593 106.901 130.135 107.21 131.142C107.52 131.761 107.288 132.613 106.746 133.078Z" fill="url(#paint47_radial)"/>
<path d="M106.127 133.387C105.121 133.697 104.114 133.155 103.805 132.148C103.65 131.606 103.727 131.064 103.959 130.6C104.114 130.445 104.347 130.29 104.579 130.212C105.585 129.903 106.591 130.445 106.978 131.451C107.133 131.993 107.056 132.536 106.824 133C106.591 133.233 106.359 133.31 106.127 133.387Z" fill="#171916"/>
<path d="M433.023 175.825C456.152 175.825 474.901 157.068 474.901 133.929C474.901 110.791 456.152 92.0339 433.023 92.0339C409.894 92.0339 391.145 110.791 391.145 133.929C391.145 157.068 409.894 175.825 433.023 175.825Z" fill="url(#paint48_radial)"/>
<path d="M433.023 160.182C447.516 160.182 459.264 148.428 459.264 133.929C459.264 119.431 447.516 107.677 433.023 107.677C418.53 107.677 406.781 119.431 406.781 133.929C406.781 148.428 418.53 160.182 433.023 160.182Z" fill="url(#paint49_radial)"/>
<path d="M459.427 140.092C462.822 125.47 453.727 110.863 439.111 107.466C424.496 104.068 409.895 113.168 406.499 127.789C403.103 142.411 412.198 157.019 426.814 160.416C441.43 163.813 456.031 154.714 459.427 140.092Z" stroke="#141414" stroke-width="2.9575" stroke-miterlimit="10"/>
<path d="M440.687 105.818C440.687 105.818 437.281 116.273 437.048 118.519C436.816 120.765 437.126 121.616 437.358 121.849C437.59 122.081 439.99 118.983 439.99 118.983C439.99 118.983 439.138 122.701 437.281 123.01C435.423 123.32 435.113 123.32 434.958 120.765C434.804 118.209 437.59 109.303 437.59 109.303L439.371 104.967L440.687 105.818Z" fill="url(#paint50_linear)"/>
<path d="M434.184 122.701C434.184 122.701 434.107 113.098 437.048 104.27L440.067 105.121C440.067 105.121 434.339 119.758 435.345 122.391L434.184 122.701Z" fill="url(#paint51_linear)"/>
<path d="M440.067 118.983L444.015 107.445L446.879 108.684C446.879 108.684 441.538 121.694 438.829 123.243L437.9 122.778C437.823 122.855 439.526 120.377 440.067 118.983Z" fill="url(#paint52_linear)"/>
<path d="M408.639 117.899C408.639 117.899 417.541 124.327 419.631 125.256C421.721 126.185 422.573 126.185 422.882 126.031C423.192 125.876 421.025 122.623 421.025 122.623C421.025 122.623 424.276 124.637 423.966 126.418C423.656 128.276 423.579 128.586 421.102 127.967C418.625 127.347 411.039 121.849 411.039 121.849L407.478 118.828L408.639 117.899Z" fill="url(#paint53_linear)"/>
<path d="M422.65 129.36C422.65 129.36 413.516 126.495 406.007 120.919L407.71 118.364C407.71 118.364 419.863 128.354 422.728 128.199L422.65 129.36Z" fill="url(#paint54_linear)"/>
<path d="M420.947 122.623L411.194 115.344L413.284 113.02C413.284 113.02 423.966 122.081 424.663 125.179L423.889 125.876C423.889 125.876 422.186 123.552 420.947 122.623Z" fill="url(#paint55_linear)"/>
<path d="M410.265 152.206C410.265 152.206 419.167 145.701 420.638 144.074C422.186 142.371 422.418 141.519 422.341 141.209C422.263 140.899 418.47 141.983 418.47 141.983C418.47 141.983 421.335 139.505 423.038 140.357C424.663 141.209 424.973 141.364 423.579 143.532C422.186 145.701 414.677 151.199 414.677 151.199L410.73 153.677L410.265 152.206Z" fill="url(#paint56_linear)"/>
<path d="M425.515 142.371C425.515 142.371 419.941 150.192 412.355 155.536L410.42 153.135C410.42 153.135 423.657 144.694 424.431 141.906L425.515 142.371Z" fill="url(#paint57_linear)"/>
<path d="M418.548 141.906L408.639 148.953L407.091 146.243C407.091 146.243 419.012 138.886 422.186 139.195L422.65 140.125C422.573 140.125 419.709 141.054 418.548 141.906Z" fill="url(#paint58_linear)"/>
<path d="M443.318 161.266C443.318 161.266 439.912 150.812 438.751 148.876C437.59 146.94 436.893 146.398 436.584 146.32C436.274 146.243 436.119 150.192 436.119 150.192C436.119 150.192 434.648 146.63 435.964 145.391C437.28 144.074 437.512 143.842 439.215 145.855C440.841 147.869 443.783 156.697 443.783 156.697L444.866 161.189L443.318 161.266Z" fill="url(#paint59_linear)"/>
<path d="M438.674 143.687C438.674 143.687 444.402 151.354 447.111 160.259L444.17 161.344C444.17 161.344 440.222 146.088 437.822 144.539L438.674 143.687Z" fill="url(#paint60_linear)"/>
<path d="M436.119 150.192L439.68 161.808L436.661 162.505C436.661 162.505 433.333 148.876 434.571 145.933L435.577 145.778C435.655 145.778 435.655 148.798 436.119 150.192Z" fill="url(#paint61_linear)"/>
<path d="M462.129 132.613C462.129 132.613 451.137 132.613 448.892 133.078C446.647 133.542 445.951 134.084 445.796 134.394C445.641 134.704 449.357 136.02 449.357 136.02C449.357 136.02 445.564 136.33 444.712 134.704C443.861 133 443.706 132.768 446.105 131.761C448.505 130.754 457.794 130.754 457.794 130.754L462.439 131.064L462.129 132.613Z" fill="url(#paint62_linear)"/>
<path d="M444.015 131.606C444.015 131.606 453.072 128.586 462.438 128.663L462.593 131.761C462.593 131.761 446.879 130.832 444.712 132.613L444.015 131.606Z" fill="url(#paint63_linear)"/>
<path d="M449.434 136.02L461.587 136.175L461.277 139.273C461.277 139.273 447.266 138.189 444.944 136.098L445.176 135.091C445.099 135.091 447.885 136.02 449.434 136.02Z" fill="url(#paint64_linear)"/>
<path d="M433.023 146.32C439.863 146.32 445.408 140.773 445.408 133.93C445.408 127.086 439.863 121.539 433.023 121.539C426.183 121.539 420.638 127.086 420.638 133.93C420.638 140.773 426.183 146.32 433.023 146.32Z" fill="url(#paint65_linear)"/>
<path d="M437.049 133.929C437.049 136.175 435.268 137.956 433.023 137.956C430.778 137.956 428.998 136.175 428.998 133.929C428.998 131.684 430.778 129.903 433.023 129.903C435.268 129.903 437.049 131.684 437.049 133.929Z" fill="url(#paint66_radial)"/>
<path d="M461.415 140.529C465.059 124.822 455.286 109.134 439.586 105.489C423.886 101.843 408.205 111.62 404.561 127.327C400.917 143.033 410.69 158.721 426.39 162.367C442.089 166.013 457.771 156.235 461.415 140.529Z" stroke="url(#paint67_radial)" stroke-width="2.8524" stroke-miterlimit="10"/>
<path d="M434.339 125.179C434.029 124.791 433.488 124.559 432.946 124.559C431.939 124.559 431.088 125.411 431.088 126.418C431.088 126.65 431.165 126.882 431.243 127.115C430.933 126.805 430.778 126.34 430.778 125.876C430.778 124.869 431.63 124.017 432.636 124.017C433.41 124.017 434.029 124.559 434.339 125.179Z" fill="url(#paint68_radial)"/>
<path d="M434.494 125.953C434.494 126.96 433.642 127.812 432.636 127.812C432.094 127.812 431.552 127.579 431.243 127.192C431.165 126.96 431.088 126.727 431.088 126.495C431.088 125.488 431.939 124.637 432.946 124.637C433.488 124.637 434.029 124.869 434.339 125.256C434.416 125.411 434.494 125.643 434.494 125.953Z" fill="#171916"/>
<path d="M425.127 129.98C424.663 130.212 424.276 130.6 424.044 131.142C423.734 132.148 424.276 133.155 425.282 133.542C425.514 133.62 425.747 133.62 425.979 133.62C425.592 133.775 425.127 133.852 424.663 133.697C423.657 133.387 423.115 132.303 423.424 131.374C423.734 130.522 424.353 130.057 425.127 129.98Z" fill="url(#paint69_radial)"/>
<path d="M425.824 130.057C426.83 130.367 427.372 131.451 427.062 132.381C426.908 132.923 426.52 133.31 425.979 133.542C425.746 133.542 425.514 133.542 425.282 133.465C424.276 133.155 423.734 132.071 424.043 131.064C424.198 130.522 424.585 130.135 425.127 129.903C425.359 129.98 425.592 129.98 425.824 130.057Z" fill="#171916"/>
<path d="M426.753 140.28C426.83 140.822 427.062 141.286 427.527 141.596C428.378 142.216 429.539 142.061 430.159 141.209C430.314 140.977 430.391 140.744 430.468 140.512C430.468 140.977 430.391 141.364 430.081 141.751C429.462 142.603 428.301 142.758 427.449 142.138C426.908 141.751 426.598 140.977 426.753 140.28Z" fill="url(#paint70_radial)"/>
<path d="M427.063 139.583C427.682 138.731 428.843 138.576 429.694 139.195C430.159 139.505 430.391 140.047 430.469 140.589C430.391 140.822 430.314 141.054 430.159 141.286C429.54 142.138 428.378 142.293 427.527 141.674C427.063 141.364 426.83 140.822 426.753 140.357C426.83 140.047 426.985 139.815 427.063 139.583Z" fill="#171916"/>
<path d="M437.048 141.828C437.59 141.983 438.132 141.828 438.596 141.519C439.448 140.899 439.602 139.738 438.983 138.886C438.828 138.653 438.673 138.499 438.441 138.421C438.828 138.499 439.215 138.731 439.525 139.118C440.144 139.97 439.912 141.132 439.138 141.751C438.519 142.138 437.667 142.216 437.048 141.828Z" fill="url(#paint71_radial)"/>
<path d="M436.506 141.286C435.887 140.435 436.119 139.273 436.893 138.653C437.358 138.344 437.9 138.189 438.441 138.344C438.674 138.499 438.828 138.653 438.983 138.808C439.603 139.66 439.37 140.822 438.596 141.441C438.132 141.751 437.59 141.906 437.048 141.751C436.893 141.674 436.661 141.519 436.506 141.286Z" fill="#171916"/>
<path d="M441.77 132.536C442.003 132.071 442.157 131.529 441.925 130.987C441.616 129.98 440.532 129.438 439.526 129.748C439.293 129.825 439.061 129.98 438.906 130.135C439.138 129.748 439.448 129.438 439.913 129.36C440.919 129.051 441.925 129.593 442.235 130.6C442.544 131.219 442.312 131.993 441.77 132.536Z" fill="url(#paint72_radial)"/>
<path d="M441.074 132.845C440.067 133.155 439.061 132.613 438.751 131.606C438.597 131.064 438.674 130.522 438.906 130.057C439.061 129.903 439.293 129.748 439.526 129.67C440.532 129.36 441.538 129.903 441.925 130.909C442.08 131.451 442.003 131.993 441.77 132.458C441.538 132.69 441.306 132.768 441.074 132.845Z" fill="#171916"/>
<path d="M167.512 90.0979H161.784V92.0339H167.512V90.0979Z" fill="url(#paint73_radial)"/>
<path d="M43.1167 89.6332C43.1941 89.5558 48.9223 88.0069 56.431 89.246C56.431 89.246 48.8449 89.6332 47.2193 89.6332C45.5938 89.6332 43.1167 89.6332 43.1167 89.6332Z" fill="url(#paint74_linear)"/>
<path d="M264.126 73.2931C264.126 73.2931 263.584 72.1315 264.746 71.6669C265.907 71.2022 268.926 70.6601 269.313 70.4278C269.777 70.1955 269.854 68.6467 273.028 68.4143C275.738 68.182 278.06 68.2595 279.685 68.8016C280.227 68.9564 280.769 69.0339 281.388 68.9564C282.859 68.8016 285.491 68.6467 286.265 69.0339C287.349 69.576 288.355 71.1248 287.349 72.3638C286.342 73.5255 283.324 74.0675 282.24 74.0675C281.156 74.0675 279.531 74.8419 278.834 75.1517C278.06 75.4615 273.338 76.4682 271.248 75.5389C269.158 74.6096 267.3 74.5322 266.681 74.5322C266.062 74.5322 264.668 74.145 264.126 73.2931Z" fill="url(#paint75_radial)"/>
<path d="M287.194 71.1248C287.194 71.4345 287.117 71.7443 286.962 71.9766C286.962 71.9766 286.962 71.9766 286.962 72.0541C286.884 72.1315 286.807 72.2864 286.73 72.3638C286.73 72.4413 286.652 72.4413 286.652 72.4413C286.652 72.4413 286.575 72.4413 286.575 72.5187C286.42 72.6736 286.188 72.8285 285.956 72.9059C285.723 72.9834 285.491 73.0608 285.259 73.0608L281.234 73.2157L270.474 73.6029L265.984 73.7578C265.442 73.7578 265.055 73.448 264.823 73.0608C264.746 72.9834 264.746 72.8285 264.746 72.751V72.6736C264.746 72.1315 265.21 71.5894 265.752 71.5894L284.872 69.3436C286.033 69.1888 287.117 70.0406 287.194 71.1248C287.194 71.0473 287.194 70.9699 287.194 71.1248Z" fill="url(#paint76_linear)"/>
<path d="M286.575 72.5187C286.42 72.6736 286.188 72.8285 285.956 72.9059C286.188 72.751 286.343 72.6736 286.575 72.5187Z" fill="url(#paint77_linear)"/>
<path d="M285.181 73.0608C285.413 73.0608 285.646 72.9834 285.878 72.9059C284.562 73.6029 282.395 73.8352 281.93 73.6803C281.233 73.5255 281.079 73.1383 281.079 73.1383L285.181 73.0608Z" fill="url(#paint78_linear)"/>
<path d="M286.962 72.0541C286.884 72.1315 286.807 72.2864 286.729 72.3638C286.807 72.209 286.884 72.1315 286.962 72.0541Z" fill="url(#paint79_linear)"/>
<path d="M270.396 73.5255C270.087 73.7578 269.699 74.145 269.622 74.145C269.39 74.145 267.842 74.2224 266.371 74.0676C264.9 73.9127 264.823 72.9834 264.823 72.9834C264.978 73.448 265.442 73.6803 265.984 73.6803L270.396 73.5255Z" fill="url(#paint80_linear)"/>
<path d="M264.126 69.1888C264.126 69.1888 263.584 68.0271 264.746 67.5625C265.907 67.0979 268.926 66.5558 269.313 66.3234C269.777 66.0911 269.855 64.5423 273.028 64.31C275.738 64.0777 278.06 64.1551 279.685 64.6972C280.227 64.8521 280.769 64.9295 281.388 64.8521C282.859 64.6972 285.491 64.5423 286.265 64.9295C287.349 65.4716 288.355 67.0204 287.349 68.2595C286.343 69.4211 283.324 69.9632 282.24 69.9632C281.156 69.9632 279.531 70.7376 278.834 71.0473C278.06 71.3571 273.338 72.3638 271.248 71.4345C269.158 70.5053 267.3 70.4278 266.681 70.4278C266.062 70.3504 264.668 70.0406 264.126 69.1888Z" fill="url(#paint81_radial)"/>
<path d="M287.194 66.943C287.194 67.2527 287.117 67.5625 286.962 67.7948C286.962 67.7948 286.962 67.7948 286.962 67.8723C286.884 67.9497 286.807 68.1046 286.73 68.182C286.73 68.2595 286.652 68.2595 286.652 68.2595C286.652 68.2595 286.575 68.2595 286.575 68.3369C286.42 68.4918 286.188 68.6467 285.956 68.7241C285.723 68.8016 285.491 68.879 285.259 68.879L281.234 69.0339L270.474 69.4211L265.984 69.576C265.442 69.576 265.055 69.2662 264.823 68.879C264.746 68.8016 264.746 68.6467 264.746 68.5692V68.4918C264.746 67.9497 265.21 67.4076 265.752 67.4076L284.872 65.1618C286.033 65.0069 287.117 65.8588 287.194 66.943C287.194 66.943 287.194 66.8655 287.194 66.943Z" fill="url(#paint82_linear)"/>
<path d="M286.575 68.3369C286.42 68.4918 286.188 68.6467 285.956 68.7241C286.188 68.6467 286.343 68.4918 286.575 68.3369Z" fill="url(#paint83_linear)"/>
<path d="M285.181 68.879C285.413 68.879 285.646 68.8016 285.878 68.7241C284.562 69.4211 282.395 69.6534 281.93 69.4985C281.233 69.3437 281.079 68.9564 281.079 68.9564L285.181 68.879Z" fill="url(#paint84_linear)"/>
<path d="M286.962 67.8723C286.884 67.9497 286.807 68.1046 286.729 68.182C286.807 68.1046 286.884 67.9497 286.962 67.8723Z" fill="url(#paint85_linear)"/>
<path d="M270.397 69.4211C270.087 69.6534 269.7 70.0406 269.623 70.0406C269.39 70.0406 267.842 70.1181 266.371 69.9632C264.901 69.8083 264.823 68.879 264.823 68.879C264.978 69.3436 265.443 69.576 265.984 69.576L270.397 69.4211Z" fill="url(#paint86_linear)"/>
<defs>
<linearGradient id="paint0_linear" x1="443.946" y1="9.90165" x2="443.946" y2="38.6871" gradientUnits="userSpaceOnUse">
<stop offset="0.0104712" stop-color="#D1D3D4"/>
<stop offset="0.1205" stop-color="#CACCCD"/>
<stop offset="0.2816" stop-color="#B7B8B9"/>
<stop offset="0.4742" stop-color="#989899"/>
<stop offset="0.691" stop-color="#6D6B6C"/>
<stop offset="0.9252" stop-color="#363334"/>
<stop offset="1" stop-color="#231F20"/>
</linearGradient>
<radialGradient id="paint1_radial" cx="0" cy="0" r="1" gradientUnits="userSpaceOnUse" gradientTransform="translate(276.004 173.511) scale(276.002 10.4926)">
<stop stop-color="#414042"/>
<stop offset="0.1726" stop-color="#454446"/>
<stop offset="0.3434" stop-color="#505052"/>
<stop offset="0.5136" stop-color="#636366"/>
<stop offset="0.6824" stop-color="#7D7E81"/>
<stop offset="0.7016" stop-color="#808285"/>
<stop offset="0.745" stop-color="#999B9D"/>
<stop offset="0.821" stop-color="#BFC0C2"/>
<stop offset="0.8913" stop-color="#DADCDC"/>
<stop offset="0.9532" stop-color="#EBECEC"/>
<stop offset="1" stop-color="#F1F2F2"/>
</radialGradient>
<linearGradient id="paint2_linear" x1="312.109" y1="2.42339" x2="312.109" y2="62.6175" gradientUnits="userSpaceOnUse">
<stop offset="0.0104712" stop-color="#D1D3D4"/>
<stop offset="0.1205" stop-color="#CACCCD"/>
<stop offset="0.2816" stop-color="#B7B8B9"/>
<stop offset="0.4742" stop-color="#989899"/>
<stop offset="0.691" stop-color="#6D6B6C"/>
<stop offset="0.9252" stop-color="#363334"/>
<stop offset="1" stop-color="#231F20"/>
</linearGradient>
<linearGradient id="paint3_linear" x1="530.702" y1="127.756" x2="530.702" y2="120.352" gradientUnits="userSpaceOnUse">
<stop stop-color="#414042"/>
<stop offset="0.4607" stop-color="#BCBEC0"/>
<stop offset="0.5542" stop-color="#8C8D8F"/>
<stop offset="0.6631" stop-color="#5A5B5C"/>
<stop offset="0.7659" stop-color="#333434"/>
<stop offset="0.8594" stop-color="#171718"/>
<stop offset="0.9404" stop-color="#060606"/>
<stop offset="1"/>
</linearGradient>
<linearGradient id="paint4_linear" x1="531.978" y1="131.458" x2="531.978" y2="124.054" gradientUnits="userSpaceOnUse">
<stop stop-color="#414042"/>
<stop offset="0.4607" stop-color="#BCBEC0"/>
<stop offset="0.5542" stop-color="#8C8D8F"/>
<stop offset="0.6631" stop-color="#5A5B5C"/>
<stop offset="0.7659" stop-color="#333434"/>
<stop offset="0.8594" stop-color="#171718"/>
<stop offset="0.9404" stop-color="#060606"/>
<stop offset="1"/>
</linearGradient>
<linearGradient id="paint5_linear" x1="213.39" y1="13.4222" x2="213.39" y2="53.9954" gradientUnits="userSpaceOnUse">
<stop offset="0.0104712" stop-color="#D1D3D4"/>
<stop offset="0.1205" stop-color="#CACCCD"/>
<stop offset="0.2816" stop-color="#B7B8B9"/>
<stop offset="0.4742" stop-color="#989899"/>
<stop offset="0.691" stop-color="#6D6B6C"/>
<stop offset="0.9252" stop-color="#363334"/>
<stop offset="1" stop-color="#231F20"/>
</linearGradient>
<linearGradient id="paint6_linear" x1="379.178" y1="4.25512" x2="404.036" y2="4.25512" gradientUnits="userSpaceOnUse">
<stop stop-color="#BCBEC0"/>
<stop offset="0.1427" stop-color="#C9CBCC"/>
<stop offset="0.4464" stop-color="#DFE0E1"/>
<stop offset="0.7374" stop-color="#ECEEEE"/>
<stop offset="1" stop-color="#F1F2F2"/>
</linearGradient>
<linearGradient id="paint7_linear" x1="520.834" y1="50.993" x2="532.648" y2="50.993" gradientUnits="userSpaceOnUse">
<stop stop-color="#BCBEC0"/>
<stop offset="0.1686" stop-color="#CCCECF"/>
<stop offset="0.45" stop-color="#E1E2E2"/>
<stop offset="0.7288" stop-color="#EDEEEE"/>
<stop offset="1" stop-color="#F1F2F2"/>
</linearGradient>
<linearGradient id="paint8_linear" x1="276.004" y1="151.462" x2="276.004" y2="21.3578" gradientUnits="userSpaceOnUse">
<stop stop-color="#BCBEC0"/>
<stop offset="0.0587275" stop-color="#C6C8C9"/>
<stop offset="0.2075" stop-color="#D9DBDB"/>
<stop offset="0.3804" stop-color="#E7E8E8"/>
<stop offset="0.5976" stop-color="#EFF0F0"/>
<stop offset="1" stop-color="#F1F2F2"/>
</linearGradient>
<linearGradient id="paint9_linear" x1="206.446" y1="86.0103" x2="206.446" y2="53.4595" gradientUnits="userSpaceOnUse">
<stop stop-color="#BCBEC0"/>
<stop offset="0.5137" stop-color="#D9DBDC"/>
<stop offset="1" stop-color="#F1F2F2"/>
</linearGradient>
<linearGradient id="paint10_linear" x1="128.394" y1="72.0976" x2="128.394" y2="55.2543" gradientUnits="userSpaceOnUse">
<stop stop-color="#D1D3D4"/>
<stop offset="0.3777" stop-color="#DFE0E1"/>
<stop offset="1" stop-color="#F1F2F2"/>
</linearGradient>
<radialGradient id="paint11_radial" cx="0" cy="0" r="1" gradientUnits="userSpaceOnUse" gradientTransform="translate(134.455 98.513) scale(61.2195 61.2453)">
<stop stop-color="#BCBEC0"/>
<stop offset="0.4396" stop-color="#D1D2D4"/>
<stop offset="1" stop-color="#F1F2F2"/>
</radialGradient>
<linearGradient id="paint12_linear" x1="20.6854" y1="120.063" x2="74.0905" y2="120.063" gradientUnits="userSpaceOnUse">
<stop stop-color="#BCBEC0"/>
<stop offset="0.0587275" stop-color="#C6C8C9"/>
<stop offset="0.2075" stop-color="#D9DBDB"/>
<stop offset="0.3804" stop-color="#E7E8E8"/>
<stop offset="0.5976" stop-color="#EFF0F0"/>
<stop offset="1" stop-color="#F1F2F2"/>
</linearGradient>
<linearGradient id="paint13_linear" x1="150.597" y1="129.97" x2="377.868" y2="129.97" gradientUnits="userSpaceOnUse">
<stop offset="0.0104712" stop-color="#D1D3D4"/>
<stop offset="0.2251" stop-color="#BCBEC0"/>
<stop offset="1" stop-color="#D1D3D4"/>
</linearGradient>
<linearGradient id="paint14_linear" x1="367.617" y1="142.491" x2="287.032" y2="2.97308" gradientUnits="userSpaceOnUse">
<stop stop-color="#D1D3D4"/>
<stop offset="0.3008" stop-color="#DEDFE0"/>
<stop offset="0.6283" stop-color="#F1F2F2"/>
<stop offset="1" stop-color="#D1D3D4"/>
</linearGradient>
<linearGradient id="paint15_linear" x1="167.483" y1="106.937" x2="544.963" y2="106.937" gradientUnits="userSpaceOnUse">
<stop stop-color="#E6E7E8"/>
<stop offset="0.466" stop-color="#D1D3D4"/>
<stop offset="1" stop-color="#F1F2F2"/>
</linearGradient>
<linearGradient id="paint16_linear" x1="244.719" y1="106.611" x2="383.905" y2="-32.5167" gradientUnits="userSpaceOnUse">
<stop stop-color="#E6E7E8"/>
<stop offset="1" stop-color="#F1F2F2"/>
</linearGradient>
<linearGradient id="paint17_linear" x1="143.288" y1="142.264" x2="381.811" y2="142.264" gradientUnits="userSpaceOnUse">
<stop stop-color="#BCBEC0"/>
<stop offset="0.4396" stop-color="#D1D2D4"/>
<stop offset="1" stop-color="#F1F2F2"/>
</linearGradient>
<linearGradient id="paint18_linear" x1="206.059" y1="46.3037" x2="229.584" y2="46.3037" gradientUnits="userSpaceOnUse">
<stop stop-color="#BCBEC0"/>
<stop offset="0.0587275" stop-color="#C6C8C9"/>
<stop offset="0.2075" stop-color="#D9DBDB"/>
<stop offset="0.3804" stop-color="#E7E8E8"/>
<stop offset="0.5976" stop-color="#EFF0F0"/>
<stop offset="1" stop-color="#F1F2F2"/>
</linearGradient>
<linearGradient id="paint19_linear" x1="28.7303" y1="94.5859" x2="56.1617" y2="94.5859" gradientUnits="userSpaceOnUse">
<stop stop-color="#BCBEC0"/>
<stop offset="0.5137" stop-color="#D9DBDC"/>
<stop offset="1" stop-color="#F1F2F2"/>
</linearGradient>
<linearGradient id="paint20_linear" x1="35.8122" y1="101.056" x2="35.8122" y2="94.6225" gradientUnits="userSpaceOnUse">
<stop stop-color="#BCBEC0"/>
<stop offset="1" stop-color="#BCBEC0"/>
</linearGradient>
<linearGradient id="paint21_linear" x1="38.2273" y1="100.538" x2="38.2273" y2="92.6225" gradientUnits="userSpaceOnUse">
<stop stop-color="#BCBEC0"/>
<stop offset="1" stop-color="#BCBEC0"/>
</linearGradient>
<linearGradient id="paint22_linear" x1="427.44" y1="53.6279" x2="527.53" y2="53.6279" gradientUnits="userSpaceOnUse">
<stop stop-color="#F1F2F2"/>
<stop offset="1" stop-color="#D1D3D4"/>
</linearGradient>
<radialGradient id="paint23_radial" cx="0" cy="0" r="1" gradientUnits="userSpaceOnUse" gradientTransform="translate(98.0222 134.501) scale(41.8606 41.8782)">
<stop stop-color="white"/>
<stop offset="0.1303" stop-color="#CDCDCD"/>
<stop offset="0.308" stop-color="#909090"/>
<stop offset="0.4787" stop-color="#5C5C5C"/>
<stop offset="0.6378" stop-color="#343434"/>
<stop offset="0.7824" stop-color="#181818"/>
<stop offset="0.9079" stop-color="#060606"/>
<stop offset="1"/>
</radialGradient>
<radialGradient id="paint24_radial" cx="0" cy="0" r="1" gradientUnits="userSpaceOnUse" gradientTransform="translate(98.0224 134.501) scale(26.2203 26.2314)">
<stop stop-color="#58595B"/>
<stop offset="1"/>
</radialGradient>
<linearGradient id="paint25_linear" x1="105.736" y1="114.596" x2="99.9915" y2="114.596" gradientUnits="userSpaceOnUse">
<stop stop-color="#BCBEC0"/>
<stop offset="0.1406" stop-color="#A3A5A7"/>
<stop offset="0.4104" stop-color="#79797B"/>
<stop offset="0.6532" stop-color="#5A5A5C"/>
<stop offset="0.858" stop-color="#484749"/>
<stop offset="1" stop-color="#414042"/>
</linearGradient>
<linearGradient id="paint26_linear" x1="99.172" y1="114.068" x2="105.06" y2="114.068" gradientUnits="userSpaceOnUse">
<stop stop-color="#BCBEC0"/>
<stop offset="0.5491" stop-color="#A7A9AC"/>
<stop offset="1" stop-color="#939598"/>
</linearGradient>
<linearGradient id="paint27_linear" x1="111.822" y1="115.955" x2="102.864" y2="115.955" gradientUnits="userSpaceOnUse">
<stop stop-color="#BCBEC0"/>
<stop offset="0.5491" stop-color="#A7A9AC"/>
<stop offset="1" stop-color="#939598"/>
</linearGradient>
<linearGradient id="paint28_linear" x1="81.4835" y1="121.01" x2="79.7069" y2="126.476" gradientUnits="userSpaceOnUse">
<stop stop-color="#BCBEC0"/>
<stop offset="0.1406" stop-color="#A3A5A7"/>
<stop offset="0.4104" stop-color="#79797B"/>
<stop offset="0.6532" stop-color="#5A5A5C"/>
<stop offset="0.858" stop-color="#484749"/>
<stop offset="1" stop-color="#414042"/>
</linearGradient>
<linearGradient id="paint29_linear" x1="78.953" y1="127.093" x2="80.774" y2="121.49" gradientUnits="userSpaceOnUse">
<stop stop-color="#BCBEC0"/>
<stop offset="0.5491" stop-color="#A7A9AC"/>
<stop offset="1" stop-color="#939598"/>
</linearGradient>
<linearGradient id="paint30_linear" x1="84.6559" y1="115.639" x2="81.8857" y2="124.162" gradientUnits="userSpaceOnUse">
<stop stop-color="#BCBEC0"/>
<stop offset="0.5491" stop-color="#A7A9AC"/>
<stop offset="1" stop-color="#939598"/>
</linearGradient>
<linearGradient id="paint31_linear" x1="80.0866" y1="146.068" x2="84.7353" y2="149.444" gradientUnits="userSpaceOnUse">
<stop stop-color="#BCBEC0"/>
<stop offset="0.1406" stop-color="#A3A5A7"/>
<stop offset="0.4104" stop-color="#79797B"/>
<stop offset="0.6532" stop-color="#5A5A5C"/>
<stop offset="0.858" stop-color="#484749"/>
<stop offset="1" stop-color="#414042"/>
</linearGradient>
<linearGradient id="paint32_linear" x1="85.087" y1="150.355" x2="80.3221" y2="146.894" gradientUnits="userSpaceOnUse">
<stop stop-color="#BCBEC0"/>
<stop offset="0.5491" stop-color="#A7A9AC"/>
<stop offset="1" stop-color="#939598"/>
</linearGradient>
<linearGradient id="paint33_linear" x1="75.9614" y1="141.39" x2="83.2106" y2="146.655" gradientUnits="userSpaceOnUse">
<stop stop-color="#BCBEC0"/>
<stop offset="0.5491" stop-color="#A7A9AC"/>
<stop offset="1" stop-color="#939598"/>
</linearGradient>
<linearGradient id="paint34_linear" x1="103.476" y1="155.141" x2="108.125" y2="151.764" gradientUnits="userSpaceOnUse">
<stop stop-color="#BCBEC0"/>
<stop offset="0.1406" stop-color="#A3A5A7"/>
<stop offset="0.4104" stop-color="#79797B"/>
<stop offset="0.6532" stop-color="#5A5A5C"/>
<stop offset="0.858" stop-color="#484749"/>
<stop offset="1" stop-color="#414042"/>
</linearGradient>
<linearGradient id="paint35_linear" x1="109.097" y1="151.707" x2="104.332" y2="155.168" gradientUnits="userSpaceOnUse">
<stop stop-color="#BCBEC0"/>
<stop offset="0.5491" stop-color="#A7A9AC"/>
<stop offset="1" stop-color="#939598"/>
</linearGradient>
<linearGradient id="paint36_linear" x1="97.754" y1="157.62" x2="105.004" y2="152.355" gradientUnits="userSpaceOnUse">
<stop stop-color="#BCBEC0"/>
<stop offset="0.5491" stop-color="#A7A9AC"/>
<stop offset="1" stop-color="#939598"/>
</linearGradient>
<linearGradient id="paint37_linear" x1="119.329" y1="135.689" x2="117.553" y2="130.224" gradientUnits="userSpaceOnUse">
<stop stop-color="#BCBEC0"/>
<stop offset="0.1406" stop-color="#A3A5A7"/>
<stop offset="0.4104" stop-color="#79797B"/>
<stop offset="0.6532" stop-color="#5A5A5C"/>
<stop offset="0.858" stop-color="#484749"/>
<stop offset="1" stop-color="#414042"/>
</linearGradient>
<linearGradient id="paint38_linear" x1="117.802" y1="129.281" x2="119.623" y2="134.882" gradientUnits="userSpaceOnUse">
<stop stop-color="#BCBEC0"/>
<stop offset="0.5491" stop-color="#A7A9AC"/>
<stop offset="1" stop-color="#939598"/>
</linearGradient>
<linearGradient id="paint39_linear" x1="119.917" y1="141.9" x2="117.147" y2="133.377" gradientUnits="userSpaceOnUse">
<stop stop-color="#BCBEC0"/>
<stop offset="0.5491" stop-color="#A7A9AC"/>
<stop offset="1" stop-color="#939598"/>
</linearGradient>
<linearGradient id="paint40_linear" x1="85.602" y1="134.501" x2="110.442" y2="134.501" gradientUnits="userSpaceOnUse">
<stop stop-color="#BCBEC0"/>
<stop offset="0.2646" stop-color="#D1D2D4"/>
<stop offset="0.4921" stop-color="#E6E7E8"/>
<stop offset="0.6001" stop-color="#CDCECF"/>
<stop offset="0.8286" stop-color="#8C8D8F"/>
<stop offset="1" stop-color="#58595B"/>
</linearGradient>
<radialGradient id="paint41_radial" cx="0" cy="0" r="1" gradientUnits="userSpaceOnUse" gradientTransform="translate(98.0219 134.501) scale(4.04807 4.04978)">
<stop stop-color="#F1F2F2"/>
<stop offset="0.5604" stop-color="#D1D2D4"/>
<stop offset="1" stop-color="#BCBEC0"/>
</radialGradient>
<radialGradient id="paint42_radial" cx="0" cy="0" r="1" gradientUnits="userSpaceOnUse" gradientTransform="translate(98.0204 134.5) rotate(-45.012) scale(30.2745)">
<stop stop-color="#BCBEC0"/>
<stop offset="0.4396" stop-color="#D1D2D4"/>
<stop offset="1" stop-color="#F1F2F2"/>
</radialGradient>
<radialGradient id="paint43_radial" cx="0" cy="0" r="1" gradientUnits="userSpaceOnUse" gradientTransform="translate(97.5475 126.156) scale(1.67946 1.68016)">
<stop stop-color="#58595B"/>
<stop offset="1"/>
</radialGradient>
<radialGradient id="paint44_radial" cx="0" cy="0" r="1" gradientUnits="userSpaceOnUse" gradientTransform="translate(89.9426 132.374) rotate(-72.0088) scale(1.68 1.67942)">
<stop stop-color="#58595B"/>
<stop offset="1"/>
</radialGradient>
<radialGradient id="paint45_radial" cx="0" cy="0" r="1" gradientUnits="userSpaceOnUse" gradientTransform="translate(93.5034 141.531) rotate(-143.987) scale(1.67961 1.67983)">
<stop stop-color="#58595B"/>
<stop offset="1"/>
</radialGradient>
<radialGradient id="paint46_radial" cx="0" cy="0" r="1" gradientUnits="userSpaceOnUse" gradientTransform="translate(103.309 140.972) rotate(143.987) scale(1.67961 1.67983)">
<stop stop-color="#58595B"/>
<stop offset="1"/>
</radialGradient>
<radialGradient id="paint47_radial" cx="0" cy="0" r="1" gradientUnits="userSpaceOnUse" gradientTransform="translate(105.808 131.47) rotate(72.0087) scale(1.67999 1.67943)">
<stop stop-color="#58595B"/>
<stop offset="1"/>
</radialGradient>
<radialGradient id="paint48_radial" cx="0" cy="0" r="1" gradientUnits="userSpaceOnUse" gradientTransform="translate(433.004 133.949) scale(41.8605 41.8781)">
<stop stop-color="white"/>
<stop offset="0.1303" stop-color="#CDCDCD"/>
<stop offset="0.308" stop-color="#909090"/>
<stop offset="0.4787" stop-color="#5C5C5C"/>
<stop offset="0.6378" stop-color="#343434"/>
<stop offset="0.7824" stop-color="#181818"/>
<stop offset="0.9079" stop-color="#060606"/>
<stop offset="1"/>
</radialGradient>
<radialGradient id="paint49_radial" cx="0" cy="0" r="1" gradientUnits="userSpaceOnUse" gradientTransform="translate(433.004 133.949) scale(26.2204 26.2314)">
<stop stop-color="#58595B"/>
<stop offset="1"/>
</radialGradient>
<linearGradient id="paint50_linear" x1="440.718" y1="114.044" x2="434.974" y2="114.044" gradientUnits="userSpaceOnUse">
<stop stop-color="#BCBEC0"/>
<stop offset="0.1406" stop-color="#A3A5A7"/>
<stop offset="0.4104" stop-color="#79797B"/>
<stop offset="0.6532" stop-color="#5A5A5C"/>
<stop offset="0.858" stop-color="#484749"/>
<stop offset="1" stop-color="#414042"/>
</linearGradient>
<linearGradient id="paint51_linear" x1="434.154" y1="113.517" x2="440.042" y2="113.517" gradientUnits="userSpaceOnUse">
<stop stop-color="#BCBEC0"/>
<stop offset="0.5491" stop-color="#A7A9AC"/>
<stop offset="1" stop-color="#939598"/>
</linearGradient>
<linearGradient id="paint52_linear" x1="446.805" y1="115.403" x2="437.846" y2="115.403" gradientUnits="userSpaceOnUse">
<stop stop-color="#BCBEC0"/>
<stop offset="0.5491" stop-color="#A7A9AC"/>
<stop offset="1" stop-color="#939598"/>
</linearGradient>
<linearGradient id="paint53_linear" x1="416.465" y1="120.458" x2="414.688" y2="125.924" gradientUnits="userSpaceOnUse">
<stop stop-color="#BCBEC0"/>
<stop offset="0.1406" stop-color="#A3A5A7"/>
<stop offset="0.4104" stop-color="#79797B"/>
<stop offset="0.6532" stop-color="#5A5A5C"/>
<stop offset="0.858" stop-color="#484749"/>
<stop offset="1" stop-color="#414042"/>
</linearGradient>
<linearGradient id="paint54_linear" x1="413.935" y1="126.542" x2="415.756" y2="120.939" gradientUnits="userSpaceOnUse">
<stop stop-color="#BCBEC0"/>
<stop offset="0.5491" stop-color="#A7A9AC"/>
<stop offset="1" stop-color="#939598"/>
</linearGradient>
<linearGradient id="paint55_linear" x1="419.638" y1="115.088" x2="416.867" y2="123.611" gradientUnits="userSpaceOnUse">
<stop stop-color="#BCBEC0"/>
<stop offset="0.5491" stop-color="#A7A9AC"/>
<stop offset="1" stop-color="#939598"/>
</linearGradient>
<linearGradient id="paint56_linear" x1="415.068" y1="145.517" x2="419.717" y2="148.893" gradientUnits="userSpaceOnUse">
<stop stop-color="#BCBEC0"/>
<stop offset="0.1406" stop-color="#A3A5A7"/>
<stop offset="0.4104" stop-color="#79797B"/>
<stop offset="0.6532" stop-color="#5A5A5C"/>
<stop offset="0.858" stop-color="#484749"/>
<stop offset="1" stop-color="#414042"/>
</linearGradient>
<linearGradient id="paint57_linear" x1="420.069" y1="149.804" x2="415.304" y2="146.343" gradientUnits="userSpaceOnUse">
<stop stop-color="#BCBEC0"/>
<stop offset="0.5491" stop-color="#A7A9AC"/>
<stop offset="1" stop-color="#939598"/>
</linearGradient>
<linearGradient id="paint58_linear" x1="410.943" y1="140.839" x2="418.192" y2="146.103" gradientUnits="userSpaceOnUse">
<stop stop-color="#BCBEC0"/>
<stop offset="0.5491" stop-color="#A7A9AC"/>
<stop offset="1" stop-color="#939598"/>
</linearGradient>
<linearGradient id="paint59_linear" x1="438.458" y1="154.589" x2="443.107" y2="151.213" gradientUnits="userSpaceOnUse">
<stop stop-color="#BCBEC0"/>
<stop offset="0.1406" stop-color="#A3A5A7"/>
<stop offset="0.4104" stop-color="#79797B"/>
<stop offset="0.6532" stop-color="#5A5A5C"/>
<stop offset="0.858" stop-color="#484749"/>
<stop offset="1" stop-color="#414042"/>
</linearGradient>
<linearGradient id="paint60_linear" x1="444.079" y1="151.156" x2="439.314" y2="154.617" gradientUnits="userSpaceOnUse">
<stop stop-color="#BCBEC0"/>
<stop offset="0.5491" stop-color="#A7A9AC"/>
<stop offset="1" stop-color="#939598"/>
</linearGradient>
<linearGradient id="paint61_linear" x1="432.736" y1="157.069" x2="439.986" y2="151.803" gradientUnits="userSpaceOnUse">
<stop stop-color="#BCBEC0"/>
<stop offset="0.5491" stop-color="#A7A9AC"/>
<stop offset="1" stop-color="#939598"/>
</linearGradient>
<linearGradient id="paint62_linear" x1="454.311" y1="135.138" x2="452.535" y2="129.673" gradientUnits="userSpaceOnUse">
<stop stop-color="#BCBEC0"/>
<stop offset="0.1406" stop-color="#A3A5A7"/>
<stop offset="0.4104" stop-color="#79797B"/>
<stop offset="0.6532" stop-color="#5A5A5C"/>
<stop offset="0.858" stop-color="#484749"/>
<stop offset="1" stop-color="#414042"/>
</linearGradient>
<linearGradient id="paint63_linear" x1="452.784" y1="128.729" x2="454.605" y2="134.331" gradientUnits="userSpaceOnUse">
<stop stop-color="#BCBEC0"/>
<stop offset="0.5491" stop-color="#A7A9AC"/>
<stop offset="1" stop-color="#939598"/>
</linearGradient>
<linearGradient id="paint64_linear" x1="454.899" y1="141.348" x2="452.129" y2="132.826" gradientUnits="userSpaceOnUse">
<stop stop-color="#BCBEC0"/>
<stop offset="0.5491" stop-color="#A7A9AC"/>
<stop offset="1" stop-color="#939598"/>
</linearGradient>
<linearGradient id="paint65_linear" x1="420.584" y1="133.949" x2="445.424" y2="133.949" gradientUnits="userSpaceOnUse">
<stop stop-color="#BCBEC0"/>
<stop offset="0.2646" stop-color="#D1D2D4"/>
<stop offset="0.4921" stop-color="#E6E7E8"/>
<stop offset="0.6001" stop-color="#CDCECF"/>
<stop offset="0.8286" stop-color="#8C8D8F"/>
<stop offset="1" stop-color="#58595B"/>
</linearGradient>
<radialGradient id="paint66_radial" cx="0" cy="0" r="1" gradientUnits="userSpaceOnUse" gradientTransform="translate(433.004 133.949) scale(4.048 4.04971)">
<stop stop-color="#F1F2F2"/>
<stop offset="0.5604" stop-color="#D1D2D4"/>
<stop offset="1" stop-color="#BCBEC0"/>
</radialGradient>
<radialGradient id="paint67_radial" cx="0" cy="0" r="1" gradientUnits="userSpaceOnUse" gradientTransform="translate(433.003 133.951) rotate(-76.9377) scale(30.2804 30.269)">
<stop stop-color="#BCBEC0"/>
<stop offset="0.4396" stop-color="#D1D2D4"/>
<stop offset="1" stop-color="#F1F2F2"/>
</radialGradient>
<radialGradient id="paint68_radial" cx="0" cy="0" r="1" gradientUnits="userSpaceOnUse" gradientTransform="translate(432.529 125.605) scale(1.67936 1.68009)">
<stop stop-color="#58595B"/>
<stop offset="1"/>
</radialGradient>
<radialGradient id="paint69_radial" cx="0" cy="0" r="1" gradientUnits="userSpaceOnUse" gradientTransform="translate(424.924 131.823) rotate(-72.0087) scale(1.68 1.67943)">
<stop stop-color="#58595B"/>
<stop offset="1"/>
</radialGradient>
<radialGradient id="paint70_radial" cx="0" cy="0" r="1" gradientUnits="userSpaceOnUse" gradientTransform="translate(428.485 140.979) rotate(-143.987) scale(1.67967 1.67989)">
<stop stop-color="#58595B"/>
<stop offset="1"/>
</radialGradient>
<radialGradient id="paint71_radial" cx="0" cy="0" r="1" gradientUnits="userSpaceOnUse" gradientTransform="translate(438.291 140.421) rotate(143.987) scale(1.67963 1.67984)">
<stop stop-color="#58595B"/>
<stop offset="1"/>
</radialGradient>
<radialGradient id="paint72_radial" cx="0" cy="0" r="1" gradientUnits="userSpaceOnUse" gradientTransform="translate(440.79 130.919) rotate(72.0089) scale(1.68008 1.67949)">
<stop stop-color="#58595B"/>
<stop offset="1"/>
</radialGradient>
<radialGradient id="paint73_radial" cx="0" cy="0" r="1" gradientUnits="userSpaceOnUse" gradientTransform="translate(164.62 91.0808) scale(2.13841 2.13931)">
<stop stop-color="#231F20"/>
<stop offset="0.1395" stop-color="#272324"/>
<stop offset="0.2775" stop-color="#322F30"/>
<stop offset="0.4152" stop-color="#464344"/>
<stop offset="0.5525" stop-color="#615F5F"/>
<stop offset="0.6897" stop-color="#848383"/>
<stop offset="0.8268" stop-color="#AFAFAF"/>
<stop offset="0.9614" stop-color="#E1E2E2"/>
<stop offset="1" stop-color="#F1F2F2"/>
</radialGradient>
<linearGradient id="paint74_linear" x1="43.1092" y1="89.1781" x2="56.4263" y2="89.1781" gradientUnits="userSpaceOnUse">
<stop stop-color="#BCBEC0"/>
<stop offset="0.5137" stop-color="#D9DBDC"/>
<stop offset="1" stop-color="#F1F2F2"/>
</linearGradient>
<radialGradient id="paint75_radial" cx="0" cy="0" r="1" gradientUnits="userSpaceOnUse" gradientTransform="translate(277.488 66.2053) scale(10.8279 10.8324)">
<stop stop-color="#808285"/>
<stop offset="0.2321" stop-color="#9D9FA1"/>
<stop offset="0.752" stop-color="#D9DBDB"/>
<stop offset="1" stop-color="#F1F2F2"/>
</radialGradient>
<linearGradient id="paint76_linear" x1="264.701" y1="71.4234" x2="287.168" y2="71.4234" gradientUnits="userSpaceOnUse">
<stop stop-color="#BCBEC0"/>
<stop offset="0.1686" stop-color="#CCCECF"/>
<stop offset="0.45" stop-color="#E1E2E2"/>
<stop offset="0.7288" stop-color="#EDEEEE"/>
<stop offset="1" stop-color="#F1F2F2"/>
</linearGradient>
<linearGradient id="paint77_linear" x1="285.916" y1="72.6897" x2="286.555" y2="72.6897" gradientUnits="userSpaceOnUse">
<stop stop-color="#BCBEC0"/>
<stop offset="0.1686" stop-color="#CCCECF"/>
<stop offset="0.45" stop-color="#E1E2E2"/>
<stop offset="0.7288" stop-color="#EDEEEE"/>
<stop offset="1" stop-color="#F1F2F2"/>
</linearGradient>
<linearGradient id="paint78_linear" x1="281.154" y1="73.3111" x2="285.916" y2="73.3111" gradientUnits="userSpaceOnUse">
<stop stop-color="#414042"/>
<stop offset="0.0901797" stop-color="#5F5E60"/>
<stop offset="0.2435" stop-color="#8B8B8C"/>
<stop offset="0.3981" stop-color="#B0B0B1"/>
<stop offset="0.5516" stop-color="#CCCDCD"/>
<stop offset="0.7038" stop-color="#E1E2E2"/>
<stop offset="0.854" stop-color="#EDEEEE"/>
<stop offset="1" stop-color="#F1F2F2"/>
</linearGradient>
<linearGradient id="paint79_linear" x1="286.718" y1="72.168" x2="286.931" y2="72.168" gradientUnits="userSpaceOnUse">
<stop stop-color="#BCBEC0"/>
<stop offset="0.1686" stop-color="#CCCECF"/>
<stop offset="0.45" stop-color="#E1E2E2"/>
<stop offset="0.7288" stop-color="#EDEEEE"/>
<stop offset="1" stop-color="#F1F2F2"/>
</linearGradient>
<linearGradient id="paint80_linear" x1="264.787" y1="73.5828" x2="270.429" y2="73.5828" gradientUnits="userSpaceOnUse">
<stop stop-color="#F1F2F2"/>
<stop offset="0.146" stop-color="#EDEEEE"/>
<stop offset="0.2962" stop-color="#E1E2E2"/>
<stop offset="0.4484" stop-color="#CCCDCD"/>
<stop offset="0.6019" stop-color="#B0B0B1"/>
<stop offset="0.7565" stop-color="#8B8B8C"/>
<stop offset="0.9098" stop-color="#5F5E60"/>
<stop offset="1" stop-color="#414042"/>
</linearGradient>
<radialGradient id="paint81_radial" cx="0" cy="0" r="1" gradientUnits="userSpaceOnUse" gradientTransform="translate(277.481 62.0561) scale(10.8279 10.8324)">
<stop stop-color="#808285"/>
<stop offset="0.2321" stop-color="#9D9FA1"/>
<stop offset="0.752" stop-color="#D9DBDB"/>
<stop offset="1" stop-color="#F1F2F2"/>
</radialGradient>
<linearGradient id="paint82_linear" x1="264.695" y1="67.2743" x2="287.161" y2="67.2743" gradientUnits="userSpaceOnUse">
<stop stop-color="#BCBEC0"/>
<stop offset="0.1686" stop-color="#CCCECF"/>
<stop offset="0.45" stop-color="#E1E2E2"/>
<stop offset="0.7288" stop-color="#EDEEEE"/>
<stop offset="1" stop-color="#F1F2F2"/>
</linearGradient>
<linearGradient id="paint83_linear" x1="285.91" y1="68.5405" x2="286.548" y2="68.5405" gradientUnits="userSpaceOnUse">
<stop stop-color="#BCBEC0"/>
<stop offset="0.1686" stop-color="#CCCECF"/>
<stop offset="0.45" stop-color="#E1E2E2"/>
<stop offset="0.7288" stop-color="#EDEEEE"/>
<stop offset="1" stop-color="#F1F2F2"/>
</linearGradient>
<linearGradient id="paint84_linear" x1="281.147" y1="69.162" x2="285.909" y2="69.162" gradientUnits="userSpaceOnUse">
<stop stop-color="#414042"/>
<stop offset="0.0901797" stop-color="#5F5E60"/>
<stop offset="0.2435" stop-color="#8B8B8C"/>
<stop offset="0.3981" stop-color="#B0B0B1"/>
<stop offset="0.5516" stop-color="#CCCDCD"/>
<stop offset="0.7038" stop-color="#E1E2E2"/>
<stop offset="0.854" stop-color="#EDEEEE"/>
<stop offset="1" stop-color="#F1F2F2"/>
</linearGradient>
<linearGradient id="paint85_linear" x1="286.711" y1="68.0189" x2="286.924" y2="68.0189" gradientUnits="userSpaceOnUse">
<stop stop-color="#BCBEC0"/>
<stop offset="0.1686" stop-color="#CCCECF"/>
<stop offset="0.45" stop-color="#E1E2E2"/>
<stop offset="0.7288" stop-color="#EDEEEE"/>
<stop offset="1" stop-color="#F1F2F2"/>
</linearGradient>
<linearGradient id="paint86_linear" x1="264.781" y1="69.4336" x2="270.422" y2="69.4336" gradientUnits="userSpaceOnUse">
<stop stop-color="#F1F2F2"/>
<stop offset="0.146" stop-color="#EDEEEE"/>
<stop offset="0.2962" stop-color="#E1E2E2"/>
<stop offset="0.4484" stop-color="#CCCDCD"/>
<stop offset="0.6019" stop-color="#B0B0B1"/>
<stop offset="0.7565" stop-color="#8B8B8C"/>
<stop offset="0.9098" stop-color="#5F5E60"/>
<stop offset="1" stop-color="#414042"/>
</linearGradient>
</defs>
</svg>
