<svg xmlns="http://www.w3.org/2000/svg" viewBox="0 0 512 512">
	<path d="M491.4 157.7c-13.2-30.3-31.9-57.7-55.6-81.5s-51.2-42.4-81.5-55.6a245.7 245.7 0 00-196.6 0 262.8 262.8 0 00-81.5 55.6 262.8 262.8 0 00-55.6 81.5 245.7 245.7 0 000 196.6 262.8 262.8 0 0055.6 81.5 262.8 262.8 0 0081.5 55.6 245.7 245.7 0 00196.6 0c30.3-13.2 57.7-31.9 81.5-55.6s42.4-51.2 55.6-81.5a245.7 245.7 0 000-196.6zM256 492C128 492 20 384 20 256S128 20 256 20s236 108 236 236-108 236-236 236z"/><path d="M452 173.8a216.5 216.5 0 00-46-67.7 216.5 216.5 0 00-67.8-46A206.8 206.8 0 00256 43c-38.5 0-78.6 13.1-116 38a10 10 0 1011.1 16.6C185.2 75 221.5 63 256 63c104.6 0 193 88.4 193 193s-88.4 193-193 193S63 360.6 63 256c0-34.5 12-70.8 34.6-104.9a10 10 0 10-16.6-11C56 177.5 43 217.5 43 256c0 28.3 5.7 56 17 82.2 10.9 25.3 26.4 48 46 67.7a216.5 216.5 0 0067.8 46 206.8 206.8 0 00164.4 0c25.3-10.8 48-26.3 67.7-46a216.5 216.5 0 0046-67.7 206.8 206.8 0 000-164.4z"/><path d="M115 105a10 10 0 100 20 10 10 0 000-20zM374.3 177.7a39.7 39.7 0 00-56.6 0L226 269.4l-31.7-31.7a39.7 39.7 0 00-56.6 0 39.7 39.7 0 000 56.6l60 60a39.7 39.7 0 0056.6 0l120-120a39.7 39.7 0 000-56.6zM360 220.1l-120 120a19.9 19.9 0 01-28.2 0l-60-60a19.9 19.9 0 010-28.2 19.9 19.9 0 0128.2 0l45.9 45.8L331.9 192a19.9 19.9 0 0128.2 0 19.9 19.9 0 010 28.2z"/>
</svg>