<svg width="167" height="68" viewBox="0 0 167 68" fill="none" xmlns="http://www.w3.org/2000/svg">
<g clip-path="url(#clip0)">
<path d="M156.769 68H9.83529C4.40784 68 0 63.5922 0 58.1647V9.83529C0 4.40784 4.40784 0 9.83529 0H156.769C162.196 0 166.604 4.40784 166.604 9.83529V58.1647C166.588 63.5922 162.18 68 156.769 68ZM11.5451 4.98824C8.18824 4.98824 5.45882 7.6549 5.45882 10.9333V57.0824C5.45882 60.3608 8.18824 63.0275 11.5451 63.0275H155.059C158.416 63.0275 161.145 60.3608 161.145 57.0824V10.9333C161.145 7.6549 158.416 4.98824 155.059 4.98824H11.5451Z" fill="#004EC2"/>
<path d="M16.251 14.5098V53.2392H25.5686V45.7098H31.0745L27.7804 37.6314H25.5686V26.0392L25.5216 24.4078L37.8196 53.2392H48.502L31.3569 14.5098H16.251Z" fill="#E12726"/>
<path d="M72.9098 14.5412H65.098L54.7294 36.2353L45.0823 14.5412H34.5098L52.1254 53.2392H56.9882L64.047 35.9373L64.1098 53.2392H73.0196L72.9098 14.5412Z" fill="#004EC2"/>
<path d="M142.259 25.851L140.8 22.5412L142.243 19.1216L149.176 19.1059C148.8 18.2902 148.267 17.5216 147.592 16.8471C144.486 13.7569 139.451 13.7569 136.361 16.8784C135.686 17.5529 135.169 18.3216 134.776 19.1373L114.808 19.1529L94.7921 19.1373C94.4157 18.3216 93.8823 17.5529 93.2078 16.8784C90.1176 13.7726 85.0823 13.7569 81.9765 16.8471C81.3019 17.5216 80.7686 18.2902 80.3921 19.1059L87.3255 19.1216L88.7686 22.5412L87.3098 25.851L80.3765 25.8353C80.7529 26.651 81.2863 27.4196 81.9608 28.0941C85.051 31.2 90.0863 31.2157 93.1921 28.1255C93.8667 27.451 94.4 26.6824 94.7765 25.8824H114.839C114.949 25.8981 115.075 25.9137 115.184 25.9137L114.871 25.8824H117.647C117.663 25.8824 117.663 25.8824 117.678 25.8824L134.808 25.8667C135.184 26.6824 135.718 27.451 136.392 28.1098C139.498 31.2 144.533 31.2 147.624 28.0784C148.298 27.4039 148.816 26.6353 149.208 25.8196L142.259 25.851Z" fill="#004EC2"/>
<path d="M81.5372 52.0157C80.7529 51.0432 80.3765 49.6314 80.3765 47.7961V41.6471C80.3765 39.7647 80.7686 38.353 81.5372 37.3804C82.3059 36.4236 83.6235 35.9373 85.4902 35.9373C87.2784 35.9373 88.5333 36.3608 89.2863 37.2236C90.0235 38.0863 90.4 39.2942 90.4 40.8628V42.3373H86.7137V40.6275C86.7137 39.9687 86.651 39.4667 86.5098 39.1059C86.3686 38.7608 86.0392 38.5726 85.5059 38.5726C84.9725 38.5726 84.6274 38.7608 84.4549 39.1373C84.2823 39.5138 84.2039 40.0314 84.2039 40.6902V48.7059C84.2039 49.3804 84.298 49.8981 84.4706 50.2589C84.6431 50.6196 84.9882 50.7922 85.5059 50.7922C86.0235 50.7922 86.3529 50.6196 86.5098 50.2589C86.651 49.8981 86.7294 49.3804 86.7294 48.7059V46.9177H90.4157V48.3922C90.4157 49.9922 90.0392 51.2314 89.3019 52.1255C88.5647 53.0196 87.2941 53.4589 85.5059 53.4589C83.6392 53.4902 82.3216 52.9883 81.5372 52.0157Z" fill="#004EC2"/>
<path d="M92.8313 36.1882H100.486V38.7451H96.596V42.9804H99.5607V45.5843H96.596V50.6823H100.533V53.2235H92.8313V36.1882Z" fill="#004EC2"/>
<path d="M102.62 36.1882H108.345C109.851 36.1882 110.965 36.6117 111.718 37.4588C112.455 38.3059 112.831 39.5294 112.831 41.1294C112.831 42.949 112.392 44.2196 111.529 44.9255C110.667 45.6313 109.459 45.9921 107.906 45.9921H106.384V53.2392H102.62V36.1882ZM107.655 43.3568C108.314 43.3568 108.753 43.1843 108.973 42.8235C109.192 42.4784 109.302 41.8823 109.302 41.051C109.302 40.298 109.192 39.7333 108.988 39.3725C108.784 39.0117 108.329 38.8235 107.639 38.8235H106.4V43.3411H107.655V43.3568Z" fill="#004EC2"/>
<path d="M115.012 36.1882H119.451C120.565 36.1882 121.506 36.298 122.274 36.5333C123.059 36.7686 123.686 37.2078 124.157 37.8666C124.627 38.5255 124.878 39.451 124.878 40.6431C124.878 41.647 124.659 42.4313 124.22 42.9961C123.78 43.5608 123.169 43.9215 122.369 44.0627C123.357 44.1882 124.094 44.5961 124.627 45.3019C125.145 46.0078 125.412 46.9647 125.412 48.1568C125.412 51.5294 123.686 53.2078 120.251 53.2078H115.012V36.1882ZM119.514 42.9961C120.314 42.9961 120.863 42.8078 121.145 42.447C121.427 42.0862 121.569 41.5215 121.569 40.7372C121.569 40.0627 121.38 39.5608 121.02 39.2157C120.659 38.8706 120.125 38.698 119.42 38.698H118.761V42.9961H119.514ZM119.576 50.6039C120.376 50.6039 120.941 50.4 121.271 50.0078C121.6 49.6157 121.773 48.9725 121.773 48.1255C121.773 47.1529 121.6 46.4784 121.271 46.0862C120.941 45.6941 120.376 45.4902 119.561 45.4902H118.776V50.6039H119.576Z" fill="#004EC2"/>
<path d="M127.827 36.1882H130.792V45.9451L135.153 36.1882H137.6V53.2235H134.572V43.2941L130.118 53.2235H127.827V36.1882Z" fill="#004EC2"/>
<path d="M141.506 52.0157C140.722 51.0432 140.345 49.6314 140.345 47.7961V41.6471C140.345 39.7647 140.737 38.353 141.506 37.3804C142.275 36.4236 143.592 35.9373 145.459 35.9373C147.247 35.9373 148.502 36.3608 149.255 37.2236C149.992 38.0863 150.369 39.2942 150.369 40.8628V42.3373H146.667V40.6275C146.667 39.9687 146.604 39.4667 146.463 39.1059C146.322 38.7608 145.992 38.5726 145.459 38.5726C144.926 38.5726 144.581 38.7608 144.408 39.1373C144.235 39.5138 144.157 40.0314 144.157 40.6902V48.7059C144.157 49.3804 144.251 49.8981 144.424 50.2589C144.596 50.6196 144.941 50.7922 145.459 50.7922C145.977 50.7922 146.306 50.6196 146.463 50.2589C146.604 49.8981 146.682 49.3804 146.682 48.7059V46.9177H150.369V48.3922C150.369 49.9922 149.992 51.2314 149.255 52.1255C148.518 53.0196 147.247 53.4589 145.459 53.4589C143.592 53.4902 142.275 52.9883 141.506 52.0157Z" fill="#004EC2"/>
</g>
<defs>
<clipPath id="clip0">
<rect width="166.588" height="68" fill="white"/>
</clipPath>
</defs>
</svg>
