<svg width="166" height="68" viewBox="0 0 166 68" fill="none" xmlns="http://www.w3.org/2000/svg">
<g clip-path="url(#clip0)">
<path d="M156.215 68H9.80057C4.39228 68 0 63.5922 0 58.1647V9.83529C0 4.40784 4.39228 0 9.80057 0H156.215C161.623 0 166.016 4.40784 166.016 9.83529V58.1647C166 63.5922 161.608 68 156.215 68ZM9.80057 3.60784C6.3774 3.60784 3.5951 6.4 3.5951 9.83529V58.1647C3.5951 61.6 6.3774 64.3922 9.80057 64.3922H156.215C159.638 64.3922 162.421 61.6 162.421 58.1647V9.83529C162.421 6.4 159.638 3.60784 156.215 3.60784H9.80057Z" fill="#004EC2"/>
<path d="M16.1936 14.5098V53.2392H25.4784V45.7098H30.9648L27.6823 37.6314H25.4784V26.0392L25.4315 24.4078L37.6861 53.2392H48.3307L31.2461 14.5098H16.1936Z" fill="#E12726"/>
<path d="M72.6523 14.5411H64.8682L54.5362 36.2353L44.9232 14.5411H34.3879L51.9414 53.2392H56.787L63.8209 35.9372L63.8834 53.2392H72.7618L72.6523 14.5411Z" fill="#004EC2"/>
<path d="M141.756 25.851L140.303 22.5412L141.741 19.1216L148.65 19.1059C148.275 18.2902 147.743 17.5216 147.071 16.8471C143.976 13.7569 138.959 13.7569 135.879 16.8784C135.207 17.5529 134.691 18.3216 134.301 19.1373L114.402 19.153L94.4574 19.1373C94.0823 18.3216 93.5508 17.5529 92.8787 16.8784C89.7994 13.7726 84.7819 13.7569 81.687 16.8471C81.0149 17.5216 80.4834 18.2902 80.1083 19.1059L87.0171 19.1216L88.4552 22.5412L87.0015 25.851L80.0927 25.8353C80.4678 26.651 80.9992 27.4196 81.6714 28.0941C84.7507 31.2 89.7682 31.2157 92.8631 28.1255C93.5352 27.451 94.0667 26.6824 94.4418 25.8824H114.434C114.543 25.8981 114.668 25.9137 114.778 25.9137L114.465 25.8824H117.232C117.247 25.8824 117.247 25.8824 117.263 25.8824L134.332 25.8667C134.707 26.6824 135.238 27.451 135.911 28.1098C139.005 31.2 144.023 31.2 147.102 28.0784C147.774 27.4039 148.29 26.6353 148.681 25.8196L141.756 25.851Z" fill="#004EC2"/>
<path d="M81.2493 52.0156C80.4678 51.0431 80.0927 49.6313 80.0927 47.796V41.647C80.0927 39.7647 80.4834 38.3529 81.2493 37.3804C82.0152 36.4235 83.3282 35.9372 85.1883 35.9372C86.9702 35.9372 88.2207 36.3608 88.971 37.2235C89.7056 38.0862 90.0808 39.2941 90.0808 40.8627V42.3372H86.4075V40.6274C86.4075 39.9686 86.345 39.4666 86.2043 39.1058C86.0636 38.7608 85.7354 38.5725 85.2039 38.5725C84.6725 38.5725 84.3286 38.7608 84.1567 39.1372C83.9847 39.5137 83.9066 40.0313 83.9066 40.6902V48.7058C83.9066 49.3803 84.0004 49.898 84.1723 50.2588C84.3442 50.6196 84.6881 50.7921 85.2039 50.7921C85.7198 50.7921 86.048 50.6196 86.2043 50.2588C86.345 49.898 86.4232 49.3803 86.4232 48.7058V46.9176H90.0964V48.3921C90.0964 49.9921 89.7213 51.2313 88.9866 52.1254C88.252 53.0196 86.9859 53.4588 85.2039 53.4588C83.3439 53.4901 82.0309 52.9882 81.2493 52.0156Z" fill="#004EC2"/>
<path d="M92.5037 36.1882H100.132V38.7451H96.2551V42.9804H99.2093V45.5843H96.2551V50.6823H100.178V53.2235H92.5037V36.1882Z" fill="#004EC2"/>
<path d="M102.257 36.1882H107.963C109.463 36.1882 110.573 36.6117 111.323 37.4588C112.058 38.3059 112.433 39.5294 112.433 41.1294C112.433 42.949 111.995 44.2196 111.136 44.9255C110.276 45.6313 109.072 45.9921 107.525 45.9921H106.009V53.2392H102.257V36.1882ZM107.275 43.3568C107.931 43.3568 108.369 43.1843 108.588 42.8235C108.807 42.4784 108.916 41.8823 108.916 41.051C108.916 40.298 108.807 39.7333 108.603 39.3725C108.4 39.0117 107.947 38.8235 107.259 38.8235H106.024V43.3411H107.275V43.3568Z" fill="#004EC2"/>
<path d="M114.606 36.1882H119.029C120.139 36.1882 121.077 36.298 121.843 36.5333C122.624 36.7686 123.25 37.2078 123.719 37.8666C124.187 38.5255 124.438 39.451 124.438 40.6431C124.438 41.647 124.219 42.4313 123.781 42.9961C123.343 43.5608 122.734 43.9215 121.937 44.0627C122.921 44.1882 123.656 44.5961 124.187 45.3019C124.703 46.0078 124.969 46.9647 124.969 48.1568C124.969 51.5294 123.25 53.2078 119.826 53.2078H114.606V36.1882ZM119.092 42.9961C119.889 42.9961 120.436 42.8078 120.717 42.447C120.999 42.0862 121.139 41.5215 121.139 40.7372C121.139 40.0627 120.952 39.5608 120.592 39.2157C120.233 38.8706 119.701 38.698 118.998 38.698H118.341V42.9961H119.092ZM119.154 50.6039C119.951 50.6039 120.514 50.4 120.842 50.0078C121.171 49.6157 121.343 48.9725 121.343 48.1255C121.343 47.1529 121.171 46.4784 120.842 46.0862C120.514 45.6941 119.951 45.4902 119.139 45.4902H118.357V50.6039H119.154Z" fill="#004EC2"/>
<path d="M127.376 36.1882H130.33V45.9451L134.676 36.1882H137.114V53.2235H134.097V43.2941L129.658 53.2235H127.376V36.1882Z" fill="#004EC2"/>
<path d="M141.006 52.0156C140.225 51.0431 139.85 49.6313 139.85 47.796V41.647C139.85 39.7647 140.24 38.3529 141.006 37.3804C141.772 36.4235 143.085 35.9372 144.945 35.9372C146.727 35.9372 147.978 36.3608 148.728 37.2235C149.463 38.0862 149.838 39.2941 149.838 40.8627V42.3372H146.149V40.6274C146.149 39.9686 146.086 39.4666 145.946 39.1058C145.805 38.7608 145.477 38.5725 144.945 38.5725C144.414 38.5725 144.07 38.7608 143.898 39.1372C143.726 39.5137 143.648 40.0313 143.648 40.6902V48.7058C143.648 49.3803 143.742 49.898 143.914 50.2588C144.086 50.6196 144.429 50.7921 144.945 50.7921C145.461 50.7921 145.789 50.6196 145.946 50.2588C146.086 49.898 146.164 49.3803 146.164 48.7058V46.9176H149.838V48.3921C149.838 49.9921 149.463 51.2313 148.728 52.1254C147.993 53.0196 146.727 53.4588 144.945 53.4588C143.085 53.4901 141.772 52.9882 141.006 52.0156Z" fill="#004EC2"/>
</g>
<defs>
<clipPath id="clip0">
<rect width="166" height="68" fill="white"/>
</clipPath>
</defs>
</svg>
