<svg width="141" height="68" viewBox="0 0 141 68" fill="none" xmlns="http://www.w3.org/2000/svg">
<path d="M129.847 68H11.1525C4.93898 68 0 63.04 0 56.8V11.2C0 5.12 4.93898 0 11.1525 0H129.847C136.061 0 141 4.96 141 11.2V56.8C141 63.04 135.902 68 129.847 68ZM11.1525 6.24C8.44407 6.24 6.21356 8.48 6.21356 11.2V56.8C6.21356 59.52 8.44407 61.76 11.1525 61.76H129.847C132.556 61.76 134.786 59.52 134.786 56.8V11.2C134.786 8.48 132.556 6.24 129.847 6.24H11.1525Z" fill="#004EC2"/>
<path d="M19.4373 27.36L22.783 11.68C22.783 11.68 22.783 11.52 22.9423 11.52H26.9254C26.9254 11.52 27.0847 11.52 27.0847 11.68L30.2712 27.36C30.2712 27.36 30.2712 27.52 30.1118 27.52H27.0847C27.0847 27.52 26.9254 27.52 26.9254 27.36L26.6067 25.76H22.9423L22.6237 27.36C22.6237 27.36 22.6237 27.52 22.4644 27.52L19.4373 27.36C19.5966 27.36 19.4373 27.36 19.4373 27.36ZM23.5796 23.2H26.1288L25.0135 16.8L24.8542 16L24.6949 16.8L23.5796 23.2Z" fill="#004EC2"/>
<path d="M33.7763 27.36C33.7763 27.36 33.6169 27.36 33.7763 27.36V11.68C33.7763 11.68 33.7763 11.52 33.9356 11.52H37.2813C37.2813 11.52 37.4407 11.52 37.4407 11.68L39.8305 14.72L42.2203 11.68L42.3796 11.52H45.7254C45.7254 11.52 45.8847 11.52 45.8847 11.68V27.36C45.8847 27.36 45.8847 27.52 45.7254 27.52H42.6983C42.6983 27.52 42.539 27.52 42.539 27.36V15.84L39.8305 19.2L36.9627 15.68V27.2C36.9627 27.2 36.9627 27.36 36.8034 27.36H33.7763Z" fill="#004EC2"/>
<path d="M121.403 22.88H114.553L113.119 19.52L114.553 16.16H121.403C121.085 15.36 120.447 14.56 119.81 13.92C116.783 10.88 111.685 10.88 108.658 13.92C108.02 14.56 107.542 15.36 107.064 16.16H55.2847C53.3729 16.16 51.939 17.6 51.939 19.52C51.939 21.44 53.3729 22.88 55.2847 22.88H107.064C107.383 23.68 108.02 24.48 108.658 25.12C111.685 28.16 116.783 28.16 119.81 25.12C120.607 24.32 121.085 23.68 121.403 22.88ZM56.0813 20.64C55.6034 21.12 54.8068 21.12 54.1695 20.64C53.3729 20 53.3729 18.88 54.1695 18.24C54.6474 17.76 55.4441 17.76 56.0813 18.24C56.878 18.88 56.878 20 56.0813 20.64Z" fill="#004EC2"/>
<path d="M21.1898 54.24C20.0745 52.8 19.4373 50.56 19.4373 47.68V38.24C19.4373 35.36 20.0745 33.12 21.1898 31.68C22.3051 30.24 24.3762 29.44 27.0847 29.44C29.7932 29.44 31.7051 30.08 32.8203 31.36C33.9356 32.64 34.4135 34.56 34.4135 36.96V39.2H29.3152V36.8C29.3152 36 29.3152 35.36 29.1559 34.88C29.1559 34.4 28.8373 34.08 28.5186 33.76C28.2 33.44 27.722 33.28 27.0847 33.28C26.1288 33.28 25.4915 33.6 25.1728 34.24C24.8542 34.88 24.6949 35.84 24.6949 36.96V48.96C24.6949 50.24 24.8542 51.04 25.1728 51.68C25.4915 52.32 26.1288 52.64 26.9254 52.64C27.8813 52.64 28.3593 52.32 28.6779 51.68C28.9966 51.04 28.9966 50.08 28.9966 48.96V46.4H34.0949V48.64C34.0949 51.2 33.6169 53.12 32.5017 54.4C31.3864 55.84 29.4745 56.48 26.7661 56.48C24.2169 56.48 22.3051 55.68 21.1898 54.24Z" fill="#004EC2"/>
<path d="M37.6 29.92H49.0712V33.6H43.0169V40.64H47.7966V44.32H43.0169V52.48H49.2305V56.16H37.7593V29.92H37.6Z" fill="#004EC2"/>
<path d="M51.7797 29.92H60.0644C64.5254 29.92 66.9153 32.48 66.9153 37.44C66.9153 40.16 66.278 41.92 65.0034 43.04C63.7288 44.16 61.9763 44.64 59.5864 44.64H57.1966V56H51.939V29.92H51.7797ZM59.1085 40.96C60.2237 40.96 61.0203 40.64 61.339 40.16C61.6576 39.68 61.9763 38.72 61.9763 37.28C61.9763 36.32 61.9763 35.68 61.8169 35.2C61.6576 34.72 61.339 34.24 61.0203 34.08C60.5424 33.76 59.9051 33.6 58.9492 33.6H57.0373V40.96H59.1085Z" fill="#004EC2"/>
<path d="M69.6237 29.92H76.3152C78.8643 29.92 80.7762 30.4 82.2101 31.36C83.644 32.32 84.2813 34.08 84.2813 36.64C84.2813 38.24 83.9626 39.36 83.3254 40.32C82.6881 41.28 81.7321 41.76 80.4576 41.92C82.0508 42.08 83.166 42.72 83.9626 43.84C84.7593 44.96 85.0779 46.4 85.0779 48.32C85.0779 53.44 82.5287 56 77.4304 56H69.6237V29.92ZM76.3152 40.48C77.5898 40.48 78.5457 40.16 79.0237 39.68C79.5016 39.04 79.6609 38.24 79.6609 36.96C79.6609 35.84 79.3423 34.88 78.705 34.4C78.0677 33.92 77.1118 33.6 75.8372 33.6H74.8813V40.48H76.3152ZM76.4745 52.32C77.7491 52.32 78.705 52 79.183 51.36C79.661 50.72 79.9796 49.76 79.9796 48.32C79.9796 46.88 79.661 45.76 79.183 45.12C78.705 44.48 77.7491 44.16 76.3152 44.16H74.8813V52.48H76.4745V52.32Z" fill="#004EC2"/>
<path d="M88.2644 29.92H92.5661V45.6L99.4169 29.92H102.922V56.16H98.6203V40.16L91.6102 56.16H88.2644V29.92Z" fill="#004EC2"/>
<path d="M108.339 54.24C107.224 52.8 106.586 50.56 106.586 47.68V38.24C106.586 35.36 107.224 33.12 108.339 31.68C109.454 30.24 111.525 29.44 114.234 29.44C116.942 29.44 118.854 30.08 119.969 31.36C121.085 32.64 121.563 34.56 121.563 36.96V39.2H116.305V36.8C116.305 36 116.305 35.36 116.146 34.88C116.146 34.4 115.827 34.08 115.508 33.76C115.19 33.44 114.712 33.28 114.075 33.28C113.119 33.28 112.481 33.6 112.163 34.24C111.844 34.88 111.685 35.84 111.685 36.96V48.96C111.685 50.24 111.844 51.04 112.163 51.68C112.481 52.32 113.119 52.64 113.915 52.64C114.871 52.64 115.349 52.32 115.668 51.68C115.986 51.04 115.986 50.08 115.986 48.96V46.4H121.085V48.64C121.085 51.2 120.607 53.12 119.492 54.4C118.376 55.84 116.464 56.48 113.756 56.48C111.366 56.48 109.454 55.68 108.339 54.24Z" fill="#004EC2"/>
</svg>
