<svg width="80" height="80" viewBox="0 0 80 80" fill="none" xmlns="http://www.w3.org/2000/svg">
<g clip-path="url(#clip0)">
<path d="M69.0781 40.1719L63.3281 37.2969V36.6562C63.3281 32.9844 60.3438 29.9844 56.6562 29.9844H55C54.0781 29.9844 53.3281 30.7344 53.3281 31.6562V33.3281H46.6562C43.6719 33.3281 41.1719 35.3125 40.3281 38.0156L38.75 34.0937C43.7031 31.625 46.3594 25.8906 44.7344 20.3906L39.1094 1.20312C38.8594 0.312498 37.9375 -0.187502 37.0469 0.078123L17.8594 5.70312C16.9688 5.96875 16.4688 6.89062 16.7344 7.76562L22.3594 26.9531C23.8438 32.0312 28.5156 35.3437 33.5625 35.3437C34.2344 35.3437 34.9062 35.2656 35.5938 35.1406L37.5312 40H20C16.3281 40 13.3281 42.9844 13.3281 46.6719H10V41.6719C10 40.75 9.25 40 8.32812 40C3.73438 40 0 43.7344 0 48.3281C0 52.9219 3.73438 56.6562 8.32812 56.6562C9.25 56.6562 10 55.9062 10 54.9844V49.9844H13.3281C13.3281 52.3906 14.625 54.4844 16.5469 55.6562L13.3438 78.0938C13.2812 78.5781 13.4219 79.0625 13.7344 79.4219C14.0469 79.7812 14.5156 80 15 80C19.7031 80 24.0938 77.4688 26.4219 73.375L35.9688 56.6719H38.9688L33.5156 67.5938C33.1094 68.4219 33.4375 69.4219 34.2656 69.8281C34.5 69.9531 34.7656 70 35.0156 70C35.625 70 36.2188 69.6562 36.5156 69.0781L42.7188 56.6719H53.3594V58.3437C53.3594 59.2656 54.1094 60.0156 55.0312 60.0156H56.7031C60.375 60.0156 63.375 57.0312 63.375 53.3437V52.7031L69.125 49.8281C69.6875 49.5469 70.0469 48.9687 70.0469 48.3437V41.6719C70 41.0312 69.6406 40.4531 69.0781 40.1719ZM6.67188 53.0469C4.73438 52.3594 3.34375 50.5 3.34375 48.3281C3.34375 46.1562 4.73438 44.2969 6.67188 43.6094V53.0469ZM21.8438 13.3281L20.4062 8.42187L36.4062 3.73437L39.2188 13.3281H21.8438ZM35.9062 31.6719C33.7656 32.2969 31.5156 32.0625 29.5625 30.9844C27.6094 29.9219 26.1875 28.1562 25.5625 26.0156L22.8125 16.6719H40.1875L41.5469 21.3281C42.1719 23.4687 41.9375 25.7188 40.8594 27.6719C39.8125 29.625 38.0469 31.0469 35.9062 31.6719ZM23.5312 71.7188C22.1094 74.2031 19.7031 75.9062 16.9531 76.4688L19.7812 56.6406C19.8594 56.6406 19.9219 56.6562 20 56.6562H32.125L23.5312 71.7188ZM53.3281 53.3281H20C18.1562 53.3281 16.6719 51.8281 16.6719 50V46.6719C16.6719 44.8281 18.1719 43.3437 20 43.3437H41.6719C42.5938 43.3437 43.3438 42.5938 43.3438 41.6719V40C43.3438 38.1562 44.8438 36.6719 46.6719 36.6719H53.3438L53.3281 53.3281ZM60 53.3281C60 55.1719 58.5 56.6562 56.6719 56.6562V33.3281C58.5156 33.3281 60 34.8281 60 36.6562V53.3281ZM66.6719 47.2969L63.3438 48.9687V41.0312L66.6719 42.7031V47.2969Z" fill="white"/>
<path d="M78.3281 43.3281H75C74.0781 43.3281 73.3281 44.0781 73.3281 45C73.3281 45.9219 74.0781 46.6719 75 46.6719H78.3281C79.25 46.6719 80 45.9219 80 45C80 44.0781 79.25 43.3281 78.3281 43.3281Z" fill="white"/>
<path d="M79.5156 33.8281C78.8594 33.1719 77.8125 33.1719 77.1562 33.8281L73.8281 37.1563C73.1719 37.8125 73.1719 38.8594 73.8281 39.5156C74.1562 39.8438 74.5781 40 75 40C75.4219 40 75.8594 39.8438 76.1719 39.5156L79.5 36.1875C80.1562 35.5313 80.1562 34.4688 79.5156 33.8281Z" fill="white"/>
<path d="M79.5156 53.8281L76.1875 50.5C75.5312 49.8437 74.4844 49.8437 73.8281 50.5C73.1719 51.1563 73.1719 52.2031 73.8281 52.8594L77.1562 56.1875C77.4844 56.5156 77.9062 56.6719 78.3281 56.6719C78.75 56.6719 79.1875 56.5156 79.5 56.1875C80.1562 55.5313 80.1562 54.4688 79.5156 53.8281Z" fill="white"/>
</g>
<defs>
<clipPath id="clip0">
<rect width="80" height="80" fill="white"/>
</clipPath>
</defs>
</svg>
