<svg width="82" height="80" viewBox="0 0 82 80" fill="none" xmlns="http://www.w3.org/2000/svg">
<g clip-path="url(#clip0)">
<path d="M46.6666 5.33334H11.9999C8.31659 5.33334 5.33325 8.31667 5.33325 12V30.6667C5.33325 34.35 8.31659 37.3333 11.9999 37.3333H46.6666C50.3499 37.3333 53.3333 34.35 53.3333 30.6667V12C53.3333 8.31667 50.3499 5.33334 46.6666 5.33334ZM50.6666 30.6667C50.6666 32.8833 48.8833 34.6667 46.6666 34.6667H11.9999C9.78325 34.6667 7.99992 32.8833 7.99992 30.6667V12C7.99992 9.78334 9.78325 8 11.9999 8H46.6666C48.8833 8 50.6666 9.78334 50.6666 12V30.6667Z" fill="white"/>
<path d="M17.3333 40H9.33325C7.11659 40 5.33325 41.7833 5.33325 44V52C5.33325 54.2167 7.11659 56 9.33325 56H17.3333C19.5499 56 21.3333 54.2167 21.3333 52V44C21.3333 41.7833 19.5499 40 17.3333 40ZM18.6666 52C18.6666 52.7333 18.0666 53.3333 17.3333 53.3333H9.33325C8.59992 53.3333 7.99992 52.7333 7.99992 52V44C7.99992 43.2667 8.59992 42.6667 9.33325 42.6667H17.3333C18.0666 42.6667 18.6666 43.2667 18.6666 44V52Z" fill="white"/>
<path d="M17.3333 58.6667H9.33325C7.11659 58.6667 5.33325 60.45 5.33325 62.6667V70.6667C5.33325 72.8833 7.11659 74.6667 9.33325 74.6667H17.3333C19.5499 74.6667 21.3333 72.8833 21.3333 70.6667V62.6667C21.3333 60.45 19.5499 58.6667 17.3333 58.6667ZM18.6666 70.6667C18.6666 71.4 18.0666 72 17.3333 72H9.33325C8.59992 72 7.99992 71.4 7.99992 70.6667V62.6667C7.99992 61.9333 8.59992 61.3333 9.33325 61.3333H17.3333C18.0666 61.3333 18.6666 61.9333 18.6666 62.6667V70.6667Z" fill="white"/>
<path d="M36 40H28C25.7833 40 24 41.7833 24 44V52C24 54.2167 25.7833 56 28 56H36C38.2167 56 40 54.2167 40 52V44C40 41.7833 38.2167 40 36 40ZM37.3333 52C37.3333 52.7333 36.7333 53.3333 36 53.3333H28C27.2667 53.3333 26.6667 52.7333 26.6667 52V44C26.6667 43.2667 27.2667 42.6667 28 42.6667H36C36.7333 42.6667 37.3333 43.2667 37.3333 44V52Z" fill="white"/>
<path d="M36 58.6667H28C25.7833 58.6667 24 60.45 24 62.6667V70.6667C24 72.8833 25.7833 74.6667 28 74.6667H36C38.2167 74.6667 40 72.8833 40 70.6667V62.6667C40 60.45 38.2167 58.6667 36 58.6667ZM37.3333 70.6667C37.3333 71.4 36.7333 72 36 72H28C27.2667 72 26.6667 71.4 26.6667 70.6667V62.6667C26.6667 61.9333 27.2667 61.3333 28 61.3333H36C36.7333 61.3333 37.3333 61.9333 37.3333 62.6667V70.6667Z" fill="white"/>
<path d="M52.0001 53.3333H44.0001C43.2667 53.3333 42.6667 53.9333 42.6667 54.6667V73.3333C42.6667 74.0667 43.2667 74.6667 44.0001 74.6667H52.0001C52.7334 74.6667 53.3334 74.0667 53.3334 73.3333V54.6667C53.3334 53.9333 52.7334 53.3333 52.0001 53.3333ZM50.6667 72H45.3334V56H50.6667V72Z" fill="white"/>
<path d="M49.3334 40H46.6667C44.4501 40 42.6667 41.7833 42.6667 44V46.6667C42.6667 48.8833 44.4501 50.6667 46.6667 50.6667H49.3334C51.5501 50.6667 53.3334 48.8833 53.3334 46.6667V44C53.3334 41.7833 51.5501 40 49.3334 40ZM50.6667 46.6667C50.6667 47.4 50.0667 48 49.3334 48H46.6667C45.9334 48 45.3334 47.4 45.3334 46.6667V44C45.3334 43.2667 45.9334 42.6667 46.6667 42.6667H49.3334C50.0667 42.6667 50.6667 43.2667 50.6667 44V46.6667Z" fill="white"/>
<path d="M14.6667 46.6667H12V49.3333H14.6667V46.6667Z" fill="white"/>
<path d="M33.3334 46.6667H30.6667V49.3333H33.3334V46.6667Z" fill="white"/>
<path d="M14.6667 65.3333H12V68H14.6667V65.3333Z" fill="white"/>
<path d="M33.3334 65.3333H30.6667V68H33.3334V65.3333Z" fill="white"/>
<path d="M43.9999 16H41.3333C39.1166 16 37.3333 17.7833 37.3333 20V28C37.3333 30.2167 39.1166 32 41.3333 32H43.9999C46.2166 32 47.9999 30.2167 47.9999 28V20C47.9999 17.7833 46.2166 16 43.9999 16ZM45.3333 28C45.3333 28.7333 44.7333 29.3333 43.9999 29.3333H41.3333C40.5999 29.3333 39.9999 28.7333 39.9999 28V20C39.9999 19.2667 40.5999 18.6667 41.3333 18.6667H43.9999C44.7333 18.6667 45.3333 19.2667 45.3333 20V28Z" fill="white"/>
<path d="M30.6667 16H28C25.7833 16 24 17.7833 24 20V28C24 30.2167 25.7833 32 28 32H30.6667C32.8833 32 34.6667 30.2167 34.6667 28V20C34.6667 17.7833 32.8833 16 30.6667 16ZM32 28C32 28.7333 31.4 29.3333 30.6667 29.3333H28C27.2667 29.3333 26.6667 28.7333 26.6667 28V20C26.6667 19.2667 27.2667 18.6667 28 18.6667H30.6667C31.4 18.6667 32 19.2667 32 20V28Z" fill="white"/>
<path d="M81.9333 39.8167C81.9333 33.4 79.4333 27.3833 74.9 22.85C70.5333 18.4833 64.8 16.0167 58.6667 15.8333V4C58.6667 1.78333 56.8833 0 54.6667 0H4C1.78333 0 0 1.78333 0 4V76C0 78.2167 1.78333 80 4 80H54.6667C56.8833 80 58.6667 78.2167 58.6667 76V63.8167C64.8 63.6333 70.5333 61.15 74.9 56.7833C79.4333 52.2667 81.9333 46.2333 81.9333 39.8167ZM56 76C56 76.7333 55.4 77.3333 54.6667 77.3333H4C3.26667 77.3333 2.66667 76.7333 2.66667 76V4C2.66667 3.26667 3.26667 2.66667 4 2.66667H54.6667C55.4 2.66667 56 3.26667 56 4V76ZM60.3333 46.7V60.4667V60.9333L59.8667 60.9833C59.4167 61.0167 59.0333 61.05 58.6667 61.0667V37.4333H61.7C62.45 37.4333 63.0833 36.8167 63.0833 36.05V28.5V27.4833L63.9 28.1C65.4667 29.2833 66.65 30.8833 67.3 32.7333C68.1833 35.2333 68.05 37.9333 66.9 40.3167C65.75 42.7167 63.75 44.5167 61.25 45.4C60.7 45.6 60.3333 46.1167 60.3333 46.7ZM63.7333 60.25L63.0833 60.4333V59.75V47.95V47.6333L63.3833 47.5C66.4167 46.0667 68.8 43.4167 69.9167 40.25C71.0333 37.05 70.85 33.6167 69.3833 30.5667C67.9167 27.5167 65.35 25.2167 62.1667 24.0833C62.0167 24.0333 61.8667 24 61.7167 24C60.95 24 60.3333 24.6167 60.3333 25.3667V34.1667V34.6833H59.8167H58.6667V18.5833C63.0667 18.7333 67.2333 20.2 70.75 22.8667C74.4667 25.6833 77.1 29.5333 78.3833 34.0167C79.9333 39.4833 79.25 45.2167 76.4833 50.1667C73.7167 55.1333 69.1833 58.7167 63.7333 60.25Z" fill="white"/>
</g>
<defs>
<clipPath id="clip0">
<rect width="81.9333" height="80" fill="white"/>
</clipPath>
</defs>
</svg>
