<?xml version="1.0" encoding="utf-8"?>
<!-- Generator: Adobe Illustrator 23.0.1, SVG Export Plug-In . SVG Version: 6.00 Build 0)  -->
<svg version="1.1" xmlns="http://www.w3.org/2000/svg" xmlns:xlink="http://www.w3.org/1999/xlink" x="0px" y="0px"
	 viewBox="0 0 560 180" style="enable-background:new 0 0 560 180;" xml:space="preserve">
<style type="text/css">
	.st0{fill:#D7E2E2;}
	.st1{fill:#4D4D4D;}
	.st2{fill:#262626;}
	.st3{fill:#1A1A1A;}
	.st4{fill:#DEDEDB;}
	.st5{fill:#4D0000;}
	.st6{fill:#EE0000;}
	.st7{fill:#999999;}
	.st8{fill:url(#SVGID_1_);}
	.st9{fill:url(#SVGID_2_);}
	.st10{fill:url(#SVGID_3_);}
	.st11{fill:url(#SVGID_4_);}
	.st12{fill:url(#SVGID_5_);}
	.st13{fill:url(#SVGID_6_);}
	.st14{fill:url(#SVGID_7_);}
	.st15{fill:url(#SVGID_8_);}
	.st16{fill:url(#SVGID_9_);}
	.st17{fill:#171916;}
	.st18{fill:url(#SVGID_10_);}
	.st19{fill:url(#SVGID_11_);}
	.st20{fill:url(#SVGID_12_);}
	.st21{fill:url(#SVGID_13_);}
	.st22{fill:url(#SVGID_14_);}
	.st23{fill:url(#SVGID_15_);}
	.st24{fill:url(#SVGID_16_);}
	.st25{fill:url(#SVGID_17_);}
	.st26{display:none;}
	.st27{display:inline;fill:#264FA4;}
</style>
<g id="Слой_3">
	<polygon class="st0" points="169.7,33.6 197.1,28 235.4,26.7 243,75 148.9,66.7 148.9,45.6 	"/>
	<polygon class="st0" points="245.8,28.5 320,47.9 355.2,79.8 248.6,71.1 238.5,28.5 	"/>
	<polygon class="st0" points="300,31.7 377.9,63.2 353.8,67.5 285.4,32.2 	"/>
	<path d="M138.6,89.5L138.6,89.5c-19.9,0-34.9,15.1-34.9,34.9v7.7l69.9,3.8v-11.5C173.5,104.5,158.5,89.5,138.6,89.5z"/>
	<g id="Salon_1_">
		<path class="st1" d="M351,73.3c-4.7-7.6-22.6-18.6-32.9-24.4C293.5,34.9,266,27,238.6,26c-2.9-0.1-6-0.2-9-0.2
			c-9,0-18.7,0.5-30.6,1.6l-0.2,0c-21.1,3.5-34.1,9.3-46.3,20.8c-4.5,4.2-5.7,11-3,16.6l0.7,1.4l203.5,11.6L351,73.3z M155.3,59
			c-0.1-1.9,0.6-3.9,2-5.2c11.1-10.4,23-15.7,42.5-18.9c11.6-1,21-1.5,29.8-1.5c2.9,0,5.8,0.1,8.7,0.2c13.2,0.5,26.5,2.6,39.4,6.4
			c12.8,3.7,25.2,9,37,15.6c8.7,4.9,16.2,9.7,21.6,13.8L155.3,59z"/>
		<g>
			<path class="st2" d="M306.8,72.3l7.2-17c0.3-0.8,1.3-1.2,2.1-0.8c0.8,0.3,1.2,1.3,0.8,2.1l-2.2,5.2l2.7-0.2l2.2-5.3
				c0.1-0.3,0.4-0.5,0.8-0.5c5.7,0.3,47.3,6.3,51.9,9.2l-11,5.1l-48.1,1.6l0.3-0.8l-3,0.5l-0.8,2c-0.3,0.8-1.3,1.2-2.1,0.8
				C306.9,74.1,306.5,73.1,306.8,72.3z"/>
		</g>
		<path class="st3" d="M255.2,48.6c0.7-5.1-0.8-9.2-3.1-10.4c0,0-3.2-1.6-4-1.6c-2.4-0.1-5.5,3.8-6.2,9.3c-0.5,3.6,0.1,6.9,1.3,8.8
			l-0.9-0.3l1.7,12.1l10.4-0.3v-0.6l-3.9-8C252.7,56.6,254.7,53.1,255.2,48.6z"/>
		<path class="st3" d="M183.2,50c0.7-5.1-0.8-9.2-3.1-10.4c0,0-3.2-1.6-4-1.6c-2.4-0.1-5.5,3.8-6.2,9.3c-0.5,3.6,0.1,6.9,1.3,8.8
			l-0.9-0.3l1.7,12.1l10.4-0.3V67l-3.9-8C180.6,58,182.6,54.5,183.2,50z"/>
		<g>
			<path d="M287.6,32.2c1.4,0.5,2.7,0.9,4,1.4l8.4-1.8c-1.3-0.4-2.6-0.9-3.9-1.3L287.6,32.2z"/>
		</g>
		<g>
			<path d="M98.6,52.9c3.6,0.7,10.3,2.5,18.3-1.5L157,31.8l-6.3-1.4c0.7-0.2,1.3-0.4,2-0.5l7.2,1.6l-42.6,20.9
				c-8.4,4.1-14.9,2.3-20,1.3C97.8,53.4,98.2,53.1,98.6,52.9z"/>
		</g>
		<g>
			<path class="st1" d="M231.2,28.5l3.6,38.1l15.4,0.8l-10.6-38.6c-1-0.1-2-0.1-3.1-0.1C234.8,28.6,233,28.5,231.2,28.5z"/>
		</g>
	</g>
	<g id="RECOLOR_BODY_2_">
		<g id="Body_1_">
			<path class="st4" d="M45.2,92.3c0.7-0.2,1.1-0.8,1.3-1.5c1.9-11.8,4.9-17.9,9.3-26.7c1.7-3.4,6.2-5.2,8.8-5.5l32.6-4.9
				c0,0,0,0,0.1,0l4.3,0.8c5.3,1,10.8,0.2,15.7-2.1l42.6-20.9l-7.1-1.6c26.5-7.2,55.1-8.9,96-7.6c15.6,0.5,30.4,2.9,47.3,8.2
				l-8.5,1.7c24.6,8.3,43.2,18.1,62.5,29.2c5.2,3,11.4,4.1,17.3,2.9l2.4-0.5l8.2-0.6c54.6,5.4,64.8,10.2,82.6,19.8
				c6.2,3.4,14.5,10.8,19.1,19.1c2.2,4.1,3.6,5.7,3.6,9.1v3.2c0,1.3-1.1,2.4-2.4,2.4h-0.5c-1.4,0-2.6,1.1-2.6,2.6v6.8
				c0,0.4,0.1,0.7,0.4,0.9c0.2,0.2,1.1,0.4,1.5,0.4c0.4,0,0.6,0.4,0.5,0.7l-0.9,2.2c-0.8,2-3.3,6.2-5.4,6.3l-43.2,3.3l-2,0v-12.9
				c0-19.9-15.3-36.6-35.2-36.6h0c-19.9,0-35.2,13.9-35.2,33.7v15.6l-6.3,0.1l-178.3-4.1v-11.5c0-19.9-15.1-34.9-34.9-34.9h0
				c-19.9,0-34.9,15.1-34.9,34.9v7.7l-1.8-0.1l-44-3.7c-1.5-0.2-3.2-0.5-4.8-1.1c-0.9-0.3-1.8-0.7-2.7-1.2c-0.1-1.5-0.7-3.2-1.7-4.7
				c-1.6-2.5-3.7-3.9-6-3.9c-0.9-2.1-1.4-4.4-1.4-6.8l-0.1-9.3v-0.2C41.2,97.1,41.5,93.5,45.2,92.3z M251.5,65.4l92.8,5.1
				c-5.1-4.7-15.2-11.4-28.4-18.6c-11.9-6.5-24.6-11.6-37.5-15.2c-11.9-3.3-24.1-5.3-36.3-6L251.5,65.4z M153.2,60.1l83.3,4.5
				l-3.3-34.2c-1.2,0-2.5,0-3.7,0c-8.9,0-18.4,0.5-30.1,1.5c-20.1,3.2-32.4,8.5-43.9,18.8C152.9,53,152,56.8,153.2,60.1z"/>
		</g>
		<g id="Mirror_1_">
			<path class="st4" d="M316.3,60.4c0.6-6.2,11.6-4.1,14.1,1.8c0,0,0-0.1,0-0.1l0.6,0.2c2,0.6,5.3,3,5,5.1c-0.2,1.5-1.9,1.6-3.4,1.6
				h-6.2c0,0,0,0,0.1,0c-2.3,0.1-6.1,0-7.8-0.1c-1.6-0.1-2.9-1.5-2.8-3.1C315.9,64,316.1,62.3,316.3,60.4z"/>
		</g>
	</g>
	<g>
		<path class="st3" d="M477.7,119.4v6.8c0,0.4,0.1,0.7,0.4,0.9c0.2,0.2,1.1,0.4,1.5,0.4v-10.6C478.5,117.2,477.7,118.2,477.7,119.4z
			"/>
		<polygon class="st3" points="462.6,127.8 462.3,127.8 462.1,127.8 461.9,127.8 461.7,127.8 461.4,127.8 461.3,127.8 461.2,127.8 
			461,127.8 460.8,127.8 460.5,127.8 460.3,127.8 460.1,127.8 459.9,127.8 459.6,127.8 459.4,127.8 459.2,127.8 459,127.8 
			458.9,127.8 458.7,127.8 458.5,127.8 458.3,127.8 458.1,127.8 457.8,127.8 457.6,127.8 457.4,127.8 457.2,127.8 457.2,129.5 
			457.2,129.8 457.2,131.5 457.4,131.5 457.6,131.5 457.8,131.5 458.1,131.5 458.3,131.5 458.5,131.5 458.7,131.5 458.9,131.5 
			459,131.5 459.2,131.5 459.4,131.5 459.6,131.5 459.9,131.5 460.1,131.5 460.3,131.5 460.5,131.5 460.8,131.5 461,131.5 
			461.2,131.5 461.3,131.5 461.4,131.5 461.7,131.5 461.9,131.5 462.1,131.5 462.3,131.5 462.6,131.5 462.8,131.5 463,131.5 
			463,129.8 463,129.5 463,127.8 462.8,127.8 		"/>
	</g>
	<g id="Back_Lamp_2_">
		<g>
			<path class="st5" d="M47.3,89c12.9,0.8,23.3-3.9,34.5-13.8c2.3-2.1,1.8-4.3-1.2-5.1c-6.9-1.7-12.5-2.4-20.9-2.9
				c-0.3,0.3-0.6,0.7-0.9,1c-1.8,2.1-3.4,4-4.7,6.1c-0.6,0.9-1.2,1.9-1.8,2.8c-0.8,1.4-1.5,2.8-2.2,4.4c-0.4,0.9-0.8,1.8-1.1,2.8
				c-0.3,0.9-0.7,1.8-1,2.8C47.7,87.8,47.5,88.4,47.3,89z"/>
		</g>
		<g>
			<path class="st6" d="M50,81.5h20.1c2.1-1.2,4.2-2.7,6.4-4.4H52.2C51.4,78.5,50.7,80,50,81.5z"/>
		</g>
		<g>
			<path class="st6" d="M54,74.3h25.9c0.2-0.2,0.4-0.3,0.6-0.5c0.7-0.6,0.8-1.1,0.8-1.1c0-0.1-0.3-0.4-1.2-0.6
				c-6.5-1.6-11.9-2.3-20.6-2.9c0,0-1.2-0.1-1.5,0C56.2,71.2,55.3,72.3,54,74.3z"/>
		</g>
	</g>
	<g>
		<path class="st7" d="M439.5,97c-1.1,1-2.6,1.5-4.1,1.5h-20.3l0.3,0.2h20c1.5,0,3-0.5,4.2-1.5l1.5-1.3l-0.2-0.1L439.5,97z"/>
		<path class="st7" d="M472.8,98.8l-4.8-4.4c-3.5-3.2-7.5-5.8-11.8-7.7c0,0,0,0,0,0c-0.5-0.3-1.1-0.7-1.7-1c0.7,0.4,1.4,0.7,2,1.1
			c0.3,0.1,0.7,0.3,1,0.5h0c0.1,0,0.1,0,0.2,0c-9.6-6.8-40.6-12.9-60.3-15.5c-14-1.8-28.5-3.7-39.6-7.3c1.6,0.3,3.1,0.5,4.7,0.5
			c1.6,0,3.2-0.2,4.8-0.5l2.4-0.6l-0.3-0.1l-2.2,0.5c-5.9,1.2-12,0.1-17.2-2.9c-19.9-11.6-38.1-21-62.1-29.1l8.3-1.7l-0.5-0.1
			l-8.3,1.7c-9.3-4.1-30.5-7.1-54.1-7.7c-15.9-0.4-46.6,0-73.6,7l-6.8-1.6l-0.5,0.1l7,1.6l-42.3,20.7c-4.8,2.4-10.3,3.1-15.6,2.1
			l-4.2-0.8l-0.2,0.1l4.4,0.9c1.5,0.3,3.1,0.4,4.6,0.4c2,0,4-0.2,6-0.7c0,0-0.1,0-0.1,0c-4.6,1.6-9,2.7-14.8,3.5l-25.9,2.8
			c-4.5,0.5-8.8,2.8-11.6,6.4l-0.2,0.2c0,0,0,0,0,0c-6.7,7.3-9.7,13.1-12.4,22c1,0.1,1.9,0.1,3,0.1c5.3,0,10.2-1,15.1-3l4.4,4.8
			c1.9,2,4.6,3.2,7.3,3.3l41.8,0.9l0.4-0.3L77,94.1c-2.7-0.1-5.3-1.2-7.2-3.2l-4.4-4.7c5.4-2.3,10.7-5.8,16.4-10.8
			c2.4-2.1,1.8-4.5-1.3-5.3c-6.9-1.7-12.5-2.4-20.3-2.9c12.7-9,90.9-4.9,91.7-4.9l32,58.5c2.5,4.7,7.4,7.6,12.7,7.6l161.4,5l0-0.2
			l-9.4-0.3c5.1-27,5.4-48.6,0.7-59.3c-0.9-2.1-3.8-5-8.3-8.4l8.3-4c0.2,0.1,0.4,0.2,0.6,0.3c1.8,1,3.7,1.8,5.6,2.4l0,0
			c6,2.1,13,3.7,20.5,5c-6.8-1.2-13.2-2.5-18.8-4.4c-0.7-0.2-1.2-0.4-1.9-0.7l-0.2,0.2c11.4,4.1,26.9,6.2,41.8,8.1
			c18.3,2.4,46.3,7.7,57.6,13.8c0.5,0.2,0.9,0.4,1.4,0.6c-4.3-1.8-8.8-2.9-13.5-3.3c-13.2-0.9-12.6-0.9-13-0.9c-2.3,0-2.7,1.3-0.7,3
			l11.3,9.6c2.4,2,5.3,3.3,8.4,3.6l23.4,2.2C473.8,100.9,474.1,100,472.8,98.8z M60,66.8c-0.1,0.1-0.3,0.2-0.4,0.3c0,0,0,0,0,0
			C59.7,67,59.8,66.9,60,66.8z M80.5,70.3c2.9,0.7,3.5,2.9,1.2,4.9c-11.8,10.4-22,14.5-34.2,13.8c2.7-8.9,5.9-14.6,12.2-21.6
			C68.4,67.9,73.9,68.7,80.5,70.3z M151.9,62.3c0-0.1-0.1-0.2-0.1-0.2c-0.1,0-2.3-0.1-5.9-0.3c3.5,0.1,5.6,0.3,6,0.3
			C151.9,62.1,151.9,62.2,151.9,62.3L151.9,62.3L151.9,62.3z M196.7,128.2c-5.2,0-10-2.9-12.5-7.5l-32-58.5
			c-2.4-4.3-1.4-9.6,2.2-12.9c11.8-10.6,24.4-15.9,44.9-19.2c11.6-1,21.3-1.5,30.3-1.5c2.6,0,5.2,0,7.8,0.1l6.1,35.3
			c6.1,22.2,5.8,40.3,3,65.7L196.7,128.2z M349.2,73.7c4.7,10.6,4.4,32.2-0.7,59.2l-101.8-3.2c2.8-25.5,3.1-43.5-3-65.8l-6.1-35.3
			c0.3,0,0.6,0,0.8,0c27,1,54.1,8.4,78.3,21.6C335,60.2,347.1,69,349.2,73.7z M340.9,65.1c-5.7-4.3-13.9-9.5-24.1-14.9
			c-24.2-13.2-51.3-20.6-78.4-21.6c-11.6-0.4-23.7,0-39.2,1.3c-20.6,3.3-33.2,8.7-45,19.3c-3.6,3.2-4.6,8.4-2.5,12.7
			c-2.1-0.1-21.5-1.1-41.8-1C82.2,61,65.5,63,60.2,66.7c0.1,0,0.1-0.1,0.2-0.1c2.8-3.2,6.8-5.3,11-5.8l26-2.8
			c7.4-1.1,12.5-2.4,18.6-5c0,0,0,0-0.1,0c0.5-0.2,1-0.4,1.5-0.7L160,31.5c27-7,57.6-7.4,73.5-7c23.3,0.6,44.3,3.6,53.7,7.6l-0.1,0
			l0.4,0.1c23.8,8.1,41.9,17.3,61.6,28.7L340.9,65.1z M113.8,53.8c0.1,0,0.3-0.1,0.4-0.1C114.1,53.7,114,53.7,113.8,53.8z
			 M379.3,69.5c2,0.3,4.9,0.7,8,1.2C384.1,70.2,381.4,69.8,379.3,69.5z M473.3,100.1c-0.3,0.7-0.6,0.4-24.8-1.9
			c-3.1-0.3-5.9-1.5-8.3-3.5L429,85.2c-0.9-0.8-1.3-1.5-1.2-1.9c0.1-0.4,0.8-0.6,1.7-0.6c0.4,0-0.3,0,13,0.9
			c9.5,0.7,18.5,4.6,25.4,11l4.8,4.4C473.3,99.5,473.4,100,473.3,100.1z"/>
		<path class="st7" d="M120.6,67.3l-11.1,0c0,0-0.1,0-0.1,0c-2,0.1-3.6,1.7-3.6,3.8l0,4.8c0,2.1,1.7,3.8,3.7,3.8l11.1,0
			c0,0,0.1,0,0.1,0c2-0.1,3.6-1.7,3.6-3.8l0-4.8c0-1-0.4-2-1.1-2.7C122.5,67.7,121.6,67.3,120.6,67.3z M124.1,76
			c0,2-1.5,3.6-3.5,3.6c0,0-0.1,0-0.1,0l-11.1,0c-2,0-3.6-1.6-3.6-3.7l0-4.8c0-2,1.5-3.6,3.5-3.6c0,0,0.1,0,0.1,0l11.1,0
			c0.9,0,1.8,0.4,2.5,1.1c0.7,0.7,1,1.6,1,2.6L124.1,76z"/>
		<polygon class="st7" points="470.3,90.3 470,90.1 462.6,90.1 463,90.3 		"/>
	</g>
	<radialGradient id="SVGID_1_" cx="138.589" cy="125.6516" r="28.6852" gradientUnits="userSpaceOnUse">
		<stop  offset="0" style="stop-color:#FFFFFF"/>
		<stop  offset="0.1303" style="stop-color:#CDCDCD"/>
		<stop  offset="0.308" style="stop-color:#909090"/>
		<stop  offset="0.4787" style="stop-color:#5C5C5C"/>
		<stop  offset="0.6378" style="stop-color:#343434"/>
		<stop  offset="0.7824" style="stop-color:#181818"/>
		<stop  offset="0.9079" style="stop-color:#060606"/>
		<stop  offset="1" style="stop-color:#000000"/>
	</radialGradient>
	<circle class="st8" cx="138.6" cy="125.7" r="28.7"/>
	<linearGradient id="SVGID_2_" gradientUnits="userSpaceOnUse" x1="137.8011" y1="111.8607" x2="129.1323" y2="111.8607">
		<stop  offset="0" style="stop-color:#BCBEC0"/>
		<stop  offset="0.5491" style="stop-color:#A7A9AC"/>
		<stop  offset="1" style="stop-color:#939598"/>
	</linearGradient>
	<path class="st9" d="M135.8,105.4l-2,0.6c0,0,0,0,0,0.1l-0.5,0.3c0,0,2.3,7.2,2.5,8.7c0.2,1.5,0,2.1-0.2,2.3c-0.2,0.2-1.8-2-1.8-2
		l-2.7-7.9l-2,0.9c0,0,3.7,8.9,5.5,10l0.6-0.3c0,0,0,0,0,0c0.1,0.1,0.2,0.1,0.4,0.1c0.9,0.1,1.2,0.2,1.4-0.4l0.8,0.2
		C137.8,118,137.9,111.4,135.8,105.4z"/>
	<linearGradient id="SVGID_3_" gradientUnits="userSpaceOnUse" x1="157.0385" y1="116.9226" x2="144.2966" y2="116.9226">
		<stop  offset="0" style="stop-color:#BCBEC0"/>
		<stop  offset="0.5491" style="stop-color:#A7A9AC"/>
		<stop  offset="1" style="stop-color:#939598"/>
	</linearGradient>
	<path class="st10" d="M157,116.7l-1.2-1.8c0,0,0,0-0.1,0.1l-0.5-0.4c0,0-6.1,4.4-7.5,5.1c-1.4,0.6-2,0.6-2.2,0.5
		c-0.2-0.1,1.3-2.3,1.3-2.3l6.7-5l-1.4-1.6c0,0-7.3,6.2-7.8,8.3l0.5,0.5c0,0,0,0,0,0c0,0.1,0,0.3,0,0.4c0.1,0.9,0.2,1.2,0.8,1.2
		l0.1,0.8C145.7,122.5,151.9,120.6,157,116.7z"/>
	<linearGradient id="SVGID_4_" gradientUnits="userSpaceOnUse" x1="156.3931" y1="134.8326" x2="143.7474" y2="134.8326">
		<stop  offset="0" style="stop-color:#BCBEC0"/>
		<stop  offset="0.5491" style="stop-color:#A7A9AC"/>
		<stop  offset="1" style="stop-color:#939598"/>
	</linearGradient>
	<path class="st11" d="M148.5,131.1l6.8,4.8l1.1-1.8c0,0-8.2-5-10.3-4.8l-0.3,0.6c0,0,0,0,0,0c-0.1,0-0.3,0-0.4,0.1
		c-0.8,0.4-1.1,0.6-0.9,1.1l-0.7,0.3c0,0,3.8,5.3,9,9l1.3-1.7c0,0,0,0-0.1-0.1l0.2-0.6c0,0-6.1-4.4-7.1-5.6c-1-1.2-1.2-1.7-1.2-1.9
		C145.9,130.4,148.5,131.1,148.5,131.1z"/>
	<linearGradient id="SVGID_5_" gradientUnits="userSpaceOnUse" x1="137.6898" y1="138.7613" x2="128.9009" y2="138.7613">
		<stop  offset="0" style="stop-color:#BCBEC0"/>
		<stop  offset="0.5491" style="stop-color:#A7A9AC"/>
		<stop  offset="1" style="stop-color:#939598"/>
	</linearGradient>
	<path class="st12" d="M137.5,133.9l-0.7-0.1c0,0,0,0,0,0c-0.1-0.1-0.1-0.2-0.2-0.3c-0.6-0.6-0.9-0.9-1.4-0.5l-0.5-0.6
		c0,0-3.9,5.3-5.8,11.4l2,0.7c0,0,0,0,0-0.1l0.6,0c0,0,2.3-7.2,3.1-8.5c0.8-1.3,1.3-1.7,1.5-1.7c0.2,0,0.3,2.7,0.3,2.7l-2.5,8
		l2.1,0.5C136.1,145.2,138.4,135.8,137.5,133.9z"/>
	<linearGradient id="SVGID_6_" gradientUnits="userSpaceOnUse" x1="131.0305" y1="125.661" x2="118.3315" y2="125.661">
		<stop  offset="0" style="stop-color:#BCBEC0"/>
		<stop  offset="0.5491" style="stop-color:#A7A9AC"/>
		<stop  offset="1" style="stop-color:#939598"/>
	</linearGradient>
	<path class="st13" d="M130.6,124.7l0.4-0.7c0,0-6.2-2.1-12.6-2l-0.1,1.7h0l0,0l0,0.5c0,0,0,0,0.1,0l0.2,0.6c0,0,7.5,0,9.1,0.3
		c1.5,0.3,2,0.7,2.1,0.9s-2.4,1.1-2.4,1.1l-8.3,0.1l0.2,2.1c0,0,9.6-0.7,11.2-2.2l-0.1-0.7c0,0,0,0,0,0c0.1-0.1,0.2-0.2,0.2-0.3
		C130.9,125.4,131.1,125,130.6,124.7z"/>
	<linearGradient id="SVGID_7_" gradientUnits="userSpaceOnUse" x1="130.0779" y1="125.6516" x2="147.1" y2="125.6516">
		<stop  offset="0" style="stop-color:#BCBEC0"/>
		<stop  offset="0.2646" style="stop-color:#D1D2D4"/>
		<stop  offset="0.4921" style="stop-color:#E6E7E8"/>
		<stop  offset="0.6001" style="stop-color:#CDCECF"/>
		<stop  offset="0.8286" style="stop-color:#8C8D8F"/>
		<stop  offset="1" style="stop-color:#58595B"/>
	</linearGradient>
	<circle class="st14" cx="138.6" cy="125.7" r="8.5"/>
	<radialGradient id="SVGID_8_" cx="138.589" cy="125.6516" r="2.774" gradientUnits="userSpaceOnUse">
		<stop  offset="0" style="stop-color:#F1F2F2"/>
		<stop  offset="0.5604" style="stop-color:#D1D2D4"/>
		<stop  offset="1" style="stop-color:#BCBEC0"/>
	</radialGradient>
	<path class="st15" d="M138.6,122.9c-1.5,0-2.8,1.2-2.8,2.8c0,1.5,1.2,2.8,2.8,2.8c1.5,0,2.8-1.2,2.8-2.8
		C141.4,124.1,140.1,122.9,138.6,122.9z"/>
	
		<radialGradient id="SVGID_9_" cx="385.1821" cy="125.6519" r="21.411" gradientTransform="matrix(-1 0 0 1 523.7712 0)" gradientUnits="userSpaceOnUse">
		<stop  offset="0" style="stop-color:#BCBEC0"/>
		<stop  offset="0.4396" style="stop-color:#D1D2D4"/>
		<stop  offset="1" style="stop-color:#F1F2F2"/>
	</radialGradient>
	<path class="st16" d="M138.6,147.1c-11.8,0-21.4-9.6-21.4-21.4c0-11.8,9.6-21.4,21.4-21.4s21.4,9.6,21.4,21.4
		C160,137.5,150.4,147.1,138.6,147.1z M138.6,107.1c-10.2,0-18.6,8.3-18.6,18.6s8.3,18.6,18.6,18.6s18.6-8.3,18.6-18.6
		S148.8,107.1,138.6,107.1z"/>
	<path class="st17" d="M138.9,118.9c-0.5,0-1,0.3-1.2,0.8c-0.1,0.2-0.1,0.3-0.1,0.5c0,0.7,0.6,1.3,1.3,1.3c0.4,0,0.7-0.2,1-0.4
		c0.2-0.2,0.3-0.5,0.3-0.8C140.1,119.5,139.6,118.9,138.9,118.9z"/>
	<path class="st17" d="M145.1,123.8c-0.2-0.5-0.6-0.8-1.1-0.9c-0.2,0-0.3,0-0.5,0.1c-0.7,0.2-1,0.9-0.8,1.6c0.1,0.4,0.4,0.6,0.7,0.8
		c0.3,0.1,0.6,0.1,0.9,0C145,125.2,145.3,124.5,145.1,123.8z"/>
	<path class="st17" d="M142.8,130c0-0.2-0.1-0.3-0.2-0.5c-0.4-0.6-1.2-0.7-1.8-0.3c-0.3,0.2-0.5,0.6-0.5,0.9c0,0.3,0.1,0.6,0.2,0.9
		c0.4,0.6,1.2,0.7,1.8,0.3C142.8,131,143,130.5,142.8,130z"/>
	<path class="st17" d="M135.9,128.9c-0.3-0.2-0.7-0.3-1-0.2c-0.3,0.1-0.6,0.2-0.7,0.5c-0.4,0.6-0.3,1.4,0.3,1.8
		c0.4,0.3,1,0.3,1.4,0.1c0.1-0.1,0.3-0.2,0.4-0.3C136.6,130.1,136.5,129.3,135.9,128.9z"/>
	<path class="st17" d="M134.5,123c-0.2-0.3-0.4-0.5-0.7-0.6c-0.7-0.2-1.4,0.1-1.6,0.8c-0.2,0.5,0,1,0.4,1.4c0.1,0.1,0.3,0.2,0.4,0.3
		c0.7,0.2,1.4-0.2,1.6-0.8C134.8,123.7,134.7,123.3,134.5,123z"/>
	<path d="M392.6,89.5L392.6,89.5c-19.9,0-34.9,15.1-34.9,34.9l0.5,15.5l70.3,0.2l-0.1-15.8C428.4,104.3,412.5,89.5,392.6,89.5z"/>
	<radialGradient id="SVGID_10_" cx="392.5854" cy="125.6516" r="28.6852" gradientUnits="userSpaceOnUse">
		<stop  offset="0" style="stop-color:#FFFFFF"/>
		<stop  offset="0.1303" style="stop-color:#CDCDCD"/>
		<stop  offset="0.308" style="stop-color:#909090"/>
		<stop  offset="0.4787" style="stop-color:#5C5C5C"/>
		<stop  offset="0.6378" style="stop-color:#343434"/>
		<stop  offset="0.7824" style="stop-color:#181818"/>
		<stop  offset="0.9079" style="stop-color:#060606"/>
		<stop  offset="1" style="stop-color:#000000"/>
	</radialGradient>
	<circle class="st18" cx="392.6" cy="125.7" r="28.7"/>
	<linearGradient id="SVGID_11_" gradientUnits="userSpaceOnUse" x1="391.7975" y1="111.8607" x2="383.1288" y2="111.8607">
		<stop  offset="0" style="stop-color:#BCBEC0"/>
		<stop  offset="0.5491" style="stop-color:#A7A9AC"/>
		<stop  offset="1" style="stop-color:#939598"/>
	</linearGradient>
	<path class="st19" d="M389.8,105.4l-2,0.6c0,0,0,0,0,0.1l-0.5,0.3c0,0,2.3,7.2,2.5,8.7c0.2,1.5,0,2.1-0.2,2.3c-0.2,0.2-1.8-2-1.8-2
		l-2.7-7.9l-2,0.9c0,0,3.7,8.9,5.5,10l0.6-0.3c0,0,0,0,0,0c0.1,0.1,0.2,0.1,0.4,0.1c0.9,0.1,1.2,0.2,1.4-0.4l0.8,0.2
		C391.8,118,391.9,111.4,389.8,105.4z"/>
	<linearGradient id="SVGID_12_" gradientUnits="userSpaceOnUse" x1="411.0349" y1="116.9226" x2="398.2931" y2="116.9226">
		<stop  offset="0" style="stop-color:#BCBEC0"/>
		<stop  offset="0.5491" style="stop-color:#A7A9AC"/>
		<stop  offset="1" style="stop-color:#939598"/>
	</linearGradient>
	<path class="st20" d="M411,116.7l-1.2-1.8c0,0,0,0-0.1,0.1l-0.5-0.4c0,0-6.1,4.4-7.5,5.1c-1.4,0.6-2,0.6-2.2,0.5
		c-0.2-0.1,1.3-2.3,1.3-2.3l6.7-5l-1.4-1.6c0,0-7.3,6.2-7.8,8.3l0.5,0.5c0,0,0,0,0,0c0,0.1,0,0.3,0,0.4c0.1,0.9,0.2,1.2,0.8,1.2
		l0.1,0.8C399.7,122.5,405.9,120.6,411,116.7z"/>
	<linearGradient id="SVGID_13_" gradientUnits="userSpaceOnUse" x1="410.3895" y1="134.8326" x2="397.7438" y2="134.8326">
		<stop  offset="0" style="stop-color:#BCBEC0"/>
		<stop  offset="0.5491" style="stop-color:#A7A9AC"/>
		<stop  offset="1" style="stop-color:#939598"/>
	</linearGradient>
	<path class="st21" d="M402.5,131.1l6.8,4.8l1.1-1.8c0,0-8.2-5-10.3-4.8l-0.3,0.6c0,0,0,0,0,0c-0.1,0-0.3,0-0.4,0.1
		c-0.8,0.4-1.1,0.6-0.9,1.1l-0.7,0.3c0,0,3.8,5.3,9,9l1.3-1.7c0,0,0,0-0.1-0.1l0.2-0.6c0,0-6.1-4.4-7.1-5.6c-1-1.2-1.2-1.7-1.2-1.9
		C399.9,130.4,402.5,131.1,402.5,131.1z"/>
	<linearGradient id="SVGID_14_" gradientUnits="userSpaceOnUse" x1="391.6863" y1="138.7613" x2="382.8974" y2="138.7613">
		<stop  offset="0" style="stop-color:#BCBEC0"/>
		<stop  offset="0.5491" style="stop-color:#A7A9AC"/>
		<stop  offset="1" style="stop-color:#939598"/>
	</linearGradient>
	<path class="st22" d="M391.5,133.9l-0.7-0.1c0,0,0,0,0,0c-0.1-0.1-0.1-0.2-0.2-0.3c-0.6-0.6-0.9-0.9-1.4-0.5l-0.5-0.6
		c0,0-3.9,5.3-5.8,11.4l2,0.7c0,0,0,0,0-0.1l0.6,0c0,0,2.3-7.2,3.1-8.5c0.8-1.3,1.3-1.7,1.5-1.7c0.2,0,0.3,2.7,0.3,2.7l-2.5,8
		l2.1,0.5C390.1,145.2,392.3,135.8,391.5,133.9z"/>
	<linearGradient id="SVGID_15_" gradientUnits="userSpaceOnUse" x1="384.0744" y1="125.6516" x2="401.0964" y2="125.6516">
		<stop  offset="0" style="stop-color:#BCBEC0"/>
		<stop  offset="0.2646" style="stop-color:#D1D2D4"/>
		<stop  offset="0.4921" style="stop-color:#E6E7E8"/>
		<stop  offset="0.6001" style="stop-color:#CDCECF"/>
		<stop  offset="0.8286" style="stop-color:#8C8D8F"/>
		<stop  offset="1" style="stop-color:#58595B"/>
	</linearGradient>
	<circle class="st23" cx="392.6" cy="125.7" r="8.5"/>
	<radialGradient id="SVGID_16_" cx="392.5854" cy="125.6516" r="2.774" gradientUnits="userSpaceOnUse">
		<stop  offset="0" style="stop-color:#F1F2F2"/>
		<stop  offset="0.5604" style="stop-color:#D1D2D4"/>
		<stop  offset="1" style="stop-color:#BCBEC0"/>
	</radialGradient>
	<path class="st24" d="M392.6,122.9c-1.5,0-2.8,1.2-2.8,2.8c0,1.5,1.2,2.8,2.8,2.8c1.5,0,2.8-1.2,2.8-2.8
		C395.4,124.1,394.1,122.9,392.6,122.9z"/>
	
		<radialGradient id="SVGID_17_" cx="131.1857" cy="125.6519" r="21.411" gradientTransform="matrix(-1 0 0 1 523.7712 0)" gradientUnits="userSpaceOnUse">
		<stop  offset="0" style="stop-color:#BCBEC0"/>
		<stop  offset="0.4396" style="stop-color:#D1D2D4"/>
		<stop  offset="1" style="stop-color:#F1F2F2"/>
	</radialGradient>
	<path class="st25" d="M392.6,147.1c-11.8,0-21.4-9.6-21.4-21.4c0-11.8,9.6-21.4,21.4-21.4s21.4,9.6,21.4,21.4
		C414,137.5,404.4,147.1,392.6,147.1z M392.6,107.1c-10.2,0-18.6,8.3-18.6,18.6s8.3,18.6,18.6,18.6s18.6-8.3,18.6-18.6
		S402.8,107.1,392.6,107.1z"/>
	<path class="st17" d="M392.9,118.9c-0.5,0-1,0.3-1.2,0.8c-0.1,0.2-0.1,0.3-0.1,0.5c0,0.7,0.6,1.3,1.3,1.3c0.4,0,0.7-0.2,1-0.4
		c0.2-0.2,0.3-0.5,0.3-0.8C394.1,119.5,393.6,118.9,392.9,118.9z"/>
	<path class="st17" d="M399.1,123.8c-0.2-0.5-0.6-0.8-1.1-0.9c-0.2,0-0.3,0-0.5,0.1c-0.7,0.2-1,0.9-0.8,1.6c0.1,0.4,0.4,0.6,0.7,0.8
		c0.3,0.1,0.6,0.1,0.9,0C399,125.2,399.3,124.5,399.1,123.8z"/>
	<path class="st17" d="M396.8,130c0-0.2-0.1-0.3-0.2-0.5c-0.4-0.6-1.2-0.7-1.8-0.3c-0.3,0.2-0.5,0.6-0.5,0.9c0,0.3,0.1,0.6,0.2,0.9
		c0.4,0.6,1.2,0.7,1.8,0.3C396.8,131,397,130.5,396.8,130z"/>
	<path class="st17" d="M389.9,128.9c-0.3-0.2-0.7-0.3-1-0.2c-0.3,0.1-0.6,0.2-0.7,0.5c-0.4,0.6-0.3,1.4,0.3,1.8
		c0.4,0.3,1,0.3,1.4,0.1c0.1-0.1,0.3-0.2,0.4-0.3C390.6,130.1,390.5,129.3,389.9,128.9z"/>
	<path class="st17" d="M388.5,123c-0.2-0.3-0.4-0.5-0.7-0.6c-0.7-0.2-1.4,0.1-1.6,0.8c-0.2,0.5,0,1,0.4,1.4c0.1,0.1,0.3,0.2,0.4,0.3
		c0.7,0.2,1.4-0.2,1.6-0.8C388.8,123.7,388.7,123.3,388.5,123z"/>
	<path class="st0" d="M98.6,52.9c0,0,45.9-20.8,52.1-22.5l6.3,1.4c0,0-32.5,17.4-44.1,21.2C105.7,55.3,98.6,52.9,98.6,52.9z"/>
</g>
<g id="Слой_2" class="st26">
	<path class="st27" d="M472,90.4h-9l11,9c0,0,2,2,0,2s-24,0-24,0s-5-2-8-4c0,0-13,2-26,1c0,0,11,9,12,28v14c0,0,44-2,47-3s6-5,6-10
		c0-5,0-11,0-11s7,1.3,3-9C479,94.4,472,90.4,472,90.4z"/>
	<path class="st27" d="M445.3,81.3c0,0-18-8-55-11s-42-9-42-9l-7,4c0,0,11,6,10,22s-2,42-2,47h9c0,0-3-42,35-43
		c0,0,8.5,0.6,11.8,1.7c3,1,11.2,5.3,11.2,5.3s8.5,0.4,13.6,0.1c7.5-0.4,12.4-1.1,12.4-1.1S423.3,83.3,445.3,81.3z"/>
	<path class="st27" d="M245.8,67.7l102.6,4.5c0,0,4.3,5.5,3.5,17.5s-1.8,44.7-1.8,44.7l-102.5-2.8
		C247.6,131.7,247.8,81.2,245.8,67.7z"/>
	<path class="st27" d="M244.9,67.6l-93-5.4l30.7,56.3c0,0,5.1,9.4,14.4,10c9.3,0.6,49.6,2.9,49.6,2.9S246.5,72.3,244.9,67.6z"/>
	<path class="st27" d="M109.4,79.8h11.2c1.5,0,2.7-1.2,2.7-2.7v-6.3c0-1.5-1.2-2.7-2.7-2.7h-11.2c-1.5,0-2.7,1.2-2.7,2.7v6.3
		C106.8,78.6,108,79.8,109.4,79.8z"/>
	<path class="st27" d="M81.5,70.9c-2.1-4.5-22-3.1-22-3.1c1-1.2,4.5-3.1,4.5-3.1c11.2-6.6,88.7-2.4,88.7-2.4s4.5,7.8,23.7,43.3
		c10.6,19.6,17.3,22.7,17.3,22.7L174,136c1-25.2-8-34.4-8-34.4c-19.8-21.8-45.7-6.7-45.7-6.7S93,95,80.4,95.1
		c-12.6,0.1-14.5-8.4-14.5-8.4L78,78.9C78,78.9,83.6,75.4,81.5,70.9z M107.2,77.2c0,1.5,1.2,2.7,2.7,2.7H121c1.5,0,2.7-1.2,2.7-2.7
		v-6.3c0-1.5-1.2-2.7-2.7-2.7h-11.2c-1.5,0-2.7,1.2-2.7,2.7V77.2z"/>
	<path class="st27" d="M119.5,95.3h-40c0,0-12-0.2-13.5-8.1c0,0-7.9,3.5-18,4.1c0,0-5,0.4-5.2,4.1c-0.2,3.7-0.2,23.1-0.2,23.1
		s2.5,8,10.9,9.4c8.4,1.4,51.7,4.6,51.7,4.6S99.8,115.8,119.5,95.3z"/>
</g>
</svg>
